<svg xmlns="http://www.w3.org/2000/svg" width="612.174" height="535.754" viewBox="0 0 612.174 535.754">
  <g id="erreur-illustration" transform="translate(-27.33 -85.424)">
    <g id="freepik--Floor--inject-50" transform="translate(27.33 267.542)">
      <ellipse id="freepik--floor--inject-50-2" data-name="freepik--floor--inject-50" cx="306.087" cy="176.818" rx="306.087" ry="176.818" fill="#f5f5f5"/>
    </g>
    <g id="freepik--Shadows--inject-50" transform="translate(47.248 367.646)">
      <path id="freepik--Shadow--inject-50" d="M522.749,347.735c-7.945-2.859-26.97-5.663-58.765-7.973-41.789-3.038-52.524-5.224-55.067,3.6L361.3,334.181c.344-11.176-6.873-22.42-21.637-30.943-28.867-16.674-75.7-16.674-104.581,0s-28.867,43.713,0,60.387c16.812,9.7,39.7,13.746,61.6,12.152l33.61,38.792s-5.017,3.107,1.375,11.836c6.873,9.375,41.871,56.8,47.273,61.459,8.509,7.34,24.922,12.591,47.837-.44,26.2-14.9-.77-28.867-16.1-39.383-18.53-12.729-58.325-39.8-63.356-43.466-3.835-2.749-7.753,1.086-7.753,1.086l-28.551-31.767a93.352,93.352,0,0,0,28.675-10.268c11.066-6.392,17.87-14.3,20.454-22.558l46.833,9.334s-2.144,4.124,7.767,6.873c8.481,2.3,72.223,18.516,83.591,17.128,11.079-1.375,20.014-7.835,25.609-14.3C530.79,352.133,526.653,349.151,522.749,347.735Z" transform="translate(22.468 -290.732)" fill="#e0e0e0"/>
      <g id="freepik--shadows--inject-50-2" data-name="freepik--shadows--inject-50" transform="translate(0 39.586)">
        <path id="Tracé_2124" data-name="Tracé 2124" d="M170.853,430.514a5.306,5.306,0,0,1-5.127-4.234l-1.2-6.268a69.9,69.9,0,0,1-7.945-1.952h-.192l-11,5.114a6.171,6.171,0,0,1-2.584.55,6.337,6.337,0,0,1-3.12-.8l-11-6.351a4.468,4.468,0,0,1-2.282-3.629,4.4,4.4,0,0,1,1.911-3.821l6.667-4.8a25.81,25.81,0,0,1-1.677-2.516l-14.021-.893a5.017,5.017,0,0,1-4.7-5v-8.248a5.017,5.017,0,0,1,4.7-5l14.021-.893a25.812,25.812,0,0,1,1.677-2.516l-6.667-4.8a4.358,4.358,0,0,1,.371-7.45l11-6.351a6.5,6.5,0,0,1,5.7-.261l11,5.127h.151a70.844,70.844,0,0,1,8.042-1.979l1.2-6.268a5.265,5.265,0,0,1,5.127-4.234h16.179a5.265,5.265,0,0,1,5.114,4.234l1.2,6.268a69.9,69.9,0,0,1,7.945,1.952h.206l11-5.127a6.529,6.529,0,0,1,5.718.261l11,6.351a4.358,4.358,0,0,1,.371,7.45l-6.653,4.8a28.4,28.4,0,0,1,1.663,2.516l14.021.893a5.017,5.017,0,0,1,4.7,5v8.248a5.017,5.017,0,0,1-4.7,5l-14.021.893a28.376,28.376,0,0,1-1.663,2.516l6.653,4.784a4.371,4.371,0,0,1-.371,7.464l-11,6.351a6.433,6.433,0,0,1-3.134.8,6.282,6.282,0,0,1-2.571-.536l-11-5.127h-.11a70.855,70.855,0,0,1-8.042,1.979l-1.2,6.268a5.279,5.279,0,0,1-5.114,4.234Zm8.083-50.311a34.229,34.229,0,0,0-16.812,3.959c-3.767,2.186-5.925,4.976-5.925,7.657s2.158,5.5,5.925,7.657a37.555,37.555,0,0,0,33.623,0c3.766-2.172,5.925-4.962,5.925-7.657s-2.158-5.5-5.925-7.657A34.228,34.228,0,0,0,178.936,380.2Z" transform="translate(-14.559 -306.976)" fill="#e0e0e0"/>
        <path id="Tracé_2125" data-name="Tracé 2125" d="M81.643,383.038a4.7,4.7,0,0,1-1.086-.124l-12.372-2.942a4.317,4.317,0,0,1-2.942-2.378,4.55,4.55,0,0,1,.1-4l1.869-3.711c-1.141-.619-2.213-1.278-3.23-1.966L52.9,369.772a5.509,5.509,0,0,1-.962.082,5.278,5.278,0,0,1-4.289-2.007l-4.8-6.681-1.031-.619.192-2.887.137-.261a3.863,3.863,0,0,1,.357-.852l.1-.151a4.976,4.976,0,0,1,2.667-2.007l8.55-2.749V350.8L45,348.053a4.247,4.247,0,0,1-2.887-3.258l-.082-.22V344a4.839,4.839,0,0,1,.921-2.749l4.454-6.2a5.815,5.815,0,0,1,4.536-2.364,5.035,5.035,0,0,1,.784.069l11.341,1.87h0c.756-.522,1.608-1.058,2.516-1.581l.66-.371-2.007-3.959a4.124,4.124,0,0,1-.44-1.911,4.536,4.536,0,0,1,3.656-4.261l11.836-2.832a5.887,5.887,0,0,1,1.375-.165,5.375,5.375,0,0,1,3.9,1.54l5.127,5.4c1.127,0,2.323-.1,3.505-.1s2.474,0,3.725.11l4.852-5.114a6.1,6.1,0,0,1,4.261-1.856,4.549,4.549,0,0,1,1.141.137l12.275,2.928a4.3,4.3,0,0,1,3.327,3.684v.674a4.688,4.688,0,0,1-.536,2.062l-1.842,3.656.591.33a30.231,30.231,0,0,1,2.612,1.65l11.093-1.87a5.81,5.81,0,0,1,.962-.082,5.237,5.237,0,0,1,4.3,2.021l4.907,6.873a4.124,4.124,0,0,1,.77,2.378v.234a4.564,4.564,0,0,1-3.354,4l-8.5,2.749v.839l8.8,2.749a4.206,4.206,0,0,1,2.983,4.041,4.825,4.825,0,0,1-.88,2.749l-4.495,6.268a5.746,5.746,0,0,1-4.523,2.364,5.233,5.233,0,0,1-.811-.069L124.6,368h0a35.815,35.815,0,0,1-3.189,1.966l1.993,3.959a4.124,4.124,0,0,1,0,3.6,4.756,4.756,0,0,1-3.244,2.571l-11.877,2.832a5.873,5.873,0,0,1-1.375.179,5.32,5.32,0,0,1-3.89-1.54l-5.155-5.416c-1.141,0-2.364.1-3.574.1s-2.433,0-3.643-.1l-4.852,5.1a6.048,6.048,0,0,1-4.151,1.787Zm-3.835-35.053a3.63,3.63,0,0,0-.289.357c-.137.165-.234.316-.33.454l-.22.371a4.124,4.124,0,0,0,.371,4.811,9.8,9.8,0,0,0,2.144,2.117,14.207,14.207,0,0,0,1.512.976,28.125,28.125,0,0,0,13.458,3.134,32.293,32.293,0,0,0,7.437-.852,23.081,23.081,0,0,0,5.993-2.282,15.731,15.731,0,0,0,1.457-.935,9.622,9.622,0,0,0,2.447-2.529h0l.3-.522.124-.3a4.124,4.124,0,0,0-.7-4.124c-2.667-3.725-9.54-6.227-17.1-6.227a32.293,32.293,0,0,0-7.437.852,18.572,18.572,0,0,0-8.811,4.4Z" transform="translate(-41.82 -319.53)" fill="#e0e0e0"/>
      </g>
    </g>
    <g id="freepik--Gears--inject-50" transform="translate(50.932 392.261)">
      <g id="freepik--gears--inject-50-2" data-name="freepik--gears--inject-50">
        <path id="Tracé_2126" data-name="Tracé 2126" d="M238.828,379.823v-6.557a1.485,1.485,0,0,0-1.375-1.457l-10.447-.66V356.5h0a.88.88,0,0,0-.509-.8l-11-6.351a2.9,2.9,0,0,0-2.433-.11l-11.148,5.169a4.124,4.124,0,0,1-2.557.151,64.688,64.688,0,0,0-8.66-2.062,2.1,2.1,0,0,1-1.608-1.567l-1.375-7.354A1.718,1.718,0,0,0,186.1,342.2H169.891a1.718,1.718,0,0,0-1.636,1.375l-1.375,7.354a2.09,2.09,0,0,1-1.608,1.567,65.191,65.191,0,0,0-8.66,2.062,4.028,4.028,0,0,1-2.543-.165l-11.162-5.155a2.942,2.942,0,0,0-2.433.1l-11,6.365a.907.907,0,0,0-.509.784V371.15l-10.433.66a1.485,1.485,0,0,0-1.375,1.457v8.248h0v5.732h0v8.179h0c0,.179.137.316.192.467a1.374,1.374,0,0,0,.22.522,1.512,1.512,0,0,0,.7.33c.1,0,.151.124.261.124h.192l10.241.646h0v8.44h0v6.268h0a.77.77,0,0,0,.082.289h0a1.114,1.114,0,0,0,.385.371l11,6.351h0a2.322,2.322,0,0,0,1.058.275h.289a1.8,1.8,0,0,0,.385,0v-.069a2.554,2.554,0,0,0,.674-.11L154,414.162a4.028,4.028,0,0,1,2.543-.151,67.955,67.955,0,0,0,8.66,2.062,2.1,2.1,0,0,1,1.622,1.567l1.375,7.34a1.47,1.47,0,0,0,.275.44v.179c0,.082.151.124.22.192a.961.961,0,0,0,.22.192,1.526,1.526,0,0,0,.921.344h16.179a1.622,1.622,0,0,0,1.017-.371h0a1.636,1.636,0,0,0,.6-.962l1.375-7.34a2.089,2.089,0,0,1,1.608-1.567,66.877,66.877,0,0,0,8.66-2.062,4.124,4.124,0,0,1,2.557.151l11.148,5.169a2.571,2.571,0,0,0,1.045.192h0a2.749,2.749,0,0,0,1.375-.289l11-6.351a.894.894,0,0,0,.509-.756h0V397.433l10.447-.66a1.471,1.471,0,0,0,1.375-1.457V380.044A1.045,1.045,0,0,0,238.828,379.823ZM198.716,386.7a23.182,23.182,0,0,1-2.144,1.375c-10.268,5.925-26.915,5.925-37.184,0a21.7,21.7,0,0,1-2.158-1.375c.66-.467,1.375-.921,2.158-1.375,10.268-5.925,26.915-5.925,37.184,0,.77.44,1.471.893,2.144,1.361Z" transform="translate(-17.28 -296.066)" fill="#37474f"/>
        <path id="Tracé_2127" data-name="Tracé 2127" d="M238.869,369.874v15.272a1.485,1.485,0,0,1-1.375,1.457l-10.447.66v14.708a.893.893,0,0,1-.509.756l-11,6.351a2.749,2.749,0,0,1-1.375.289h0a2.57,2.57,0,0,1-1.045-.193l-11.148-5.169a3.065,3.065,0,0,0-1.045-.247h0a3.864,3.864,0,0,0-1.512.11,64.609,64.609,0,0,1-8.66,2.048,2.075,2.075,0,0,0-.674.289v.082a1.938,1.938,0,0,0-.935,1.21l-1.375,7.34a1.622,1.622,0,0,1-.591.962h0a1.691,1.691,0,0,1-1.031.371H169.588a1.677,1.677,0,0,1-1.058-.687V415.3c-.1-.151-.247-.261-.275-.44l-1.375-7.34a1.938,1.938,0,0,0-.66-1.058h0a2.089,2.089,0,0,0-.962-.495,65.676,65.676,0,0,1-8.66-2.048,3.876,3.876,0,0,0-1.7-.083h0a3.754,3.754,0,0,0-.839.193L142.893,409.2a2.458,2.458,0,0,1-.674.11v.069h0a2.749,2.749,0,0,1-1.732-.289h0l-11-6.351a1.73,1.73,0,0,1-.234-.179,1.249,1.249,0,0,1-.179-.22.921.921,0,0,1-.1-.33h0V387.3l-1.911-.137-8.344-.522h-.192a1.485,1.485,0,0,1-1.375-1.375V371.221a1.485,1.485,0,0,0,1.375,1.457l14.667.921a2.749,2.749,0,0,1,1.993,1.375,22,22,0,0,0,3.107,4.33,1.141,1.141,0,0,1-.165,1.773l-8.825,6.227a.811.811,0,0,0,0,1.485l11,6.365a2.941,2.941,0,0,0,2.433.1l11.148-5.155a3.987,3.987,0,0,1,2.557-.151,67.346,67.346,0,0,0,8.66,2.048,2.145,2.145,0,0,1,1.622,1.567l1.375,7.354a1.746,1.746,0,0,0,1.636,1.375h16.179a1.718,1.718,0,0,0,1.622-1.375l1.375-7.354a2.131,2.131,0,0,1,1.608-1.567,64.7,64.7,0,0,0,8.66-2.062,4.124,4.124,0,0,1,2.557.165l11.148,5.155a2.941,2.941,0,0,0,2.433-.1l11-6.364a.811.811,0,0,0,0-1.485l-8.715-6.282a1.155,1.155,0,0,1-.165-1.787,22.2,22.2,0,0,0,3.12-4.316,2.749,2.749,0,0,1,1.979-1.375l14.667-.921a1.485,1.485,0,0,0,1.375-1.457V369.53a1.046,1.046,0,0,1,.289.344Z" transform="translate(-17.28 -285.828)" fill="#263238"/>
        <path id="Tracé_2128" data-name="Tracé 2128" d="M199.715,352.6v14.653l-4.22-.261a2.749,2.749,0,0,1-1.979-1.375,21.8,21.8,0,0,0-3.12-4.22,1.168,1.168,0,0,1,.165-1.8l8.715-6.268a.948.948,0,0,0,.44-.687Z" transform="translate(10.025 -292.17)" fill="#263238"/>
        <path id="Tracé_2129" data-name="Tracé 2129" d="M135.036,361.405a21.169,21.169,0,0,0-3.107,4.316,2.749,2.749,0,0,1-1.993,1.375l-4.206.261V352.58a.921.921,0,0,0,.44.715l8.715,6.268a1.168,1.168,0,0,1,.151,1.842Z" transform="translate(-14.069 -292.178)" fill="#263238"/>
        <path id="Tracé_2130" data-name="Tracé 2130" d="M140.435,349.323l-11,6.365a.811.811,0,0,0,0,1.485l8.715,6.282a1.155,1.155,0,0,1,.165,1.787,21.17,21.17,0,0,0-3.107,4.316,2.749,2.749,0,0,1-1.993,1.375l-14.653.921a1.485,1.485,0,0,0-1.375,1.457v8.248a1.485,1.485,0,0,0,1.375,1.457l14.653.921a2.749,2.749,0,0,1,1.993,1.375,21.17,21.17,0,0,0,3.107,4.316,1.168,1.168,0,0,1-.165,1.8l-8.853,6.1a.825.825,0,0,0,0,1.485l11,6.365a2.941,2.941,0,0,0,2.433.1l11.162-5.155a4.041,4.041,0,0,1,2.543-.165,65.211,65.211,0,0,0,8.66,2.062,2.089,2.089,0,0,1,1.608,1.567l1.375,7.354a1.718,1.718,0,0,0,1.636,1.375h16.179a1.718,1.718,0,0,0,1.622-1.375l1.375-7.354a2.1,2.1,0,0,1,1.608-1.567,64.692,64.692,0,0,0,8.66-2.062,4.125,4.125,0,0,1,2.557.165l11.148,5.155a2.941,2.941,0,0,0,2.433-.1l11-6.365a.811.811,0,0,0,0-1.485l-8.715-6.268a1.169,1.169,0,0,1-.165-1.8,21.8,21.8,0,0,0,3.12-4.316,2.75,2.75,0,0,1,1.98-1.375l14.667-.921a1.485,1.485,0,0,0,1.375-1.457v-8.248a1.485,1.485,0,0,0-1.375-1.457l-14.406-.811A2.749,2.749,0,0,1,220.8,369.5a21.8,21.8,0,0,0-3.107-4.22,1.155,1.155,0,0,1,.165-1.787l8.715-6.282a.811.811,0,0,0,0-1.485l-11-6.351a2.9,2.9,0,0,0-2.433-.11l-11.148,5.169a4.123,4.123,0,0,1-2.557.151,64.683,64.683,0,0,0-8.66-2.062,2.1,2.1,0,0,1-1.608-1.567l-1.375-7.354a1.718,1.718,0,0,0-1.622-1.375H169.879a1.718,1.718,0,0,0-1.636,1.375l-1.375,7.354a2.089,2.089,0,0,1-1.608,1.567,65.183,65.183,0,0,0-8.66,2.062,4.028,4.028,0,0,1-2.543-.165L142.9,349.268A2.942,2.942,0,0,0,140.435,349.323Zm56.126,17.334c10.255,5.925,10.255,15.547,0,21.472s-26.915,5.925-37.184,0-10.268-15.547,0-21.472S186.292,360.691,196.561,366.657Z" transform="translate(-17.269 -296.055)" fill="#455a64"/>
        <path id="Tracé_2131" data-name="Tracé 2131" d="M128.942,387.585a.921.921,0,0,1,.44-.729l4.385-3.162V373.289a1.869,1.869,0,0,0-.6-.151l-14.667-.921a1.485,1.485,0,0,1-1.375-1.457v13.952a1.485,1.485,0,0,0,1.375,1.375h.192l8.344.522,1.911.138Z" transform="translate(-17.295 -285.367)" fill="#37474f"/>
        <path id="Tracé_2132" data-name="Tracé 2132" d="M148.245,384.32a3.658,3.658,0,0,0-.852.234l-11.148,5.155a2.859,2.859,0,0,1-1.375.193v13.925a3.356,3.356,0,0,0,.742,0h0v-.069a2.461,2.461,0,0,0,.674-.11l11.162-5.169a3.423,3.423,0,0,1,.839-.193Z" transform="translate(-10.645 -280.287)" fill="#37474f"/>
        <path id="Tracé_2133" data-name="Tracé 2133" d="M154.971,395.04a1.882,1.882,0,0,1-.206-.522l-1.375-7.354a2.186,2.186,0,0,0-.22-.564v13.952a1.925,1.925,0,0,1,.22.55l1.375,7.341a.934.934,0,0,0,.206.357Z" transform="translate(-3.79 -279.433)" fill="#37474f"/>
        <path id="Tracé_2134" data-name="Tracé 2134" d="M170.141,386.61a1.7,1.7,0,0,0-.22.55l-1.375,7.354a1.375,1.375,0,0,1-.206.522v13.925a1.375,1.375,0,0,0,.206-.522l1.375-7.34a1.127,1.127,0,0,1,.22-.509Z" transform="translate(1.893 -279.43)" opacity="0.15"/>
        <path id="Tracé_2135" data-name="Tracé 2135" d="M191.641,389.887a2.749,2.749,0,0,1-1.375-.179l-11.148-5.155a3.543,3.543,0,0,0-.839-.234v13.939a3,3,0,0,1,.839.22l11.148,5.169a2.571,2.571,0,0,0,1.045.192h.33Z" transform="translate(5.617 -280.287)" opacity="0.15"/>
        <path id="Tracé_2136" data-name="Tracé 2136" d="M208.842,372.663l-14.667.921a1.871,1.871,0,0,0-.6.151v10.392l4.385,3.162a.921.921,0,0,1,.44.742v-.784l10.447-.66a1.485,1.485,0,0,0,1.375-1.457V369.859a1.046,1.046,0,0,0,0-.289v1.636a1.485,1.485,0,0,1-1.375,1.457Z" transform="translate(11.345 -285.813)" opacity="0.15"/>
        <path id="Tracé_2137" data-name="Tracé 2137" d="M44.544,344.163v12.468a.55.55,0,0,0,.11.316l4.894,6.873a1.993,1.993,0,0,0,1.8.522l11.286-1.9a3.12,3.12,0,0,1,2.034.344,30,30,0,0,0,2.749,1.746V373.9a.811.811,0,0,0,.632.687l12.3,2.942a2.351,2.351,0,0,0,1.938-.77l5.072-5.347a3.066,3.066,0,0,1,2.076-.893,62.734,62.734,0,0,0,7.712,0,2.64,2.64,0,0,1,1.856.577l5.663,5.952a2.186,2.186,0,0,0,1.911.357l11.835-2.818c.577-.137.948-.509.921-.893v-9.237c.811-.467,1.581-.949,2.309-1.457a3.629,3.629,0,0,1,2.227-.632l11.657,1.952a2.144,2.144,0,0,0,1.842-.852l4.454-6.227a1.127,1.127,0,0,0,.247-.715c0-.22,0-3.876,0-8.99a.508.508,0,0,0,.1-.275V329.51h0a.55.55,0,0,0-.11-.3l-4.894-6.873a2.035,2.035,0,0,0-1.8-.522l-11.286,1.911a3.3,3.3,0,0,1-2.034-.344,30.1,30.1,0,0,0-2.749-1.759c0-4.275,0-8.674,0-9.182h0a.8.8,0,0,0-.632-.811l-12.3-2.942a2.351,2.351,0,0,0-1.979.729l-5.059,5.333a3.093,3.093,0,0,1-2.076.907,60.14,60.14,0,0,0-7.712,0,2.749,2.749,0,0,1-1.856-.577l-5.663-5.952a2.268,2.268,0,0,0-1.911-.357L68.27,311.6c-.577.137-.935.495-.921.866h0v9.265c-.8.467-1.581.962-2.309,1.457a3.642,3.642,0,0,1-2.227.646l-11.657-1.966a2.158,2.158,0,0,0-1.842.866l-4.454,6.213a1.237,1.237,0,0,0-.247.687h0v14.282h0a.536.536,0,0,0-.082.275h0Zm64.03,1.54a26.3,26.3,0,0,1-6.942,2.653c-8.248,1.979-17.471.77-23.465-2.639a16.807,16.807,0,0,1-1.869-1.21c.536-.371,1.113-.742,1.732-1.1,8.44-4.88,22.131-4.88,30.585,0,.632.371,1.223.742,1.76,1.113a17.734,17.734,0,0,1-1.8,1.182Z" transform="translate(-44.489 -308.628)" fill="#37474f"/>
        <path id="Tracé_2138" data-name="Tracé 2138" d="M97.158,319.208c.948.44,1.856.907,2.749,1.375V311.4a1.278,1.278,0,0,1-.137.467l-3.052,5.856a1.072,1.072,0,0,0,.44,1.485Z" transform="translate(-24.991 -307.605)" fill="#263238"/>
        <path id="Tracé_2139" data-name="Tracé 2139" d="M106.824,329.142a12.138,12.138,0,0,1,0,3.863,1.265,1.265,0,0,0,.784,1.375l10.653,3.354a.7.7,0,0,1,.495.687v3.45a.537.537,0,0,0,.082-.247c0-6.048,0-16.152,0-17.032v-.742c0,.316-.344.632-.866.8l-10.048,3.189A1.375,1.375,0,0,0,106.824,329.142Z" transform="translate(-21.158 -302.941)" opacity="0.15"/>
        <path id="Tracé_2140" data-name="Tracé 2140" d="M102,338.654v12.482a2.138,2.138,0,0,1,.426,0l11.657,1.952a1.265,1.265,0,0,0,.591,0V340.62a1.61,1.61,0,0,1-.619,0L102.4,338.654a1.248,1.248,0,0,0-.4,0Z" transform="translate(-22.959 -297.401)" opacity="0.15"/>
        <path id="Tracé_2141" data-name="Tracé 2141" d="M99.912,353.235c.8-.467,1.581-.949,2.309-1.457a4.124,4.124,0,0,1,1.8-.646V338.65a3.931,3.931,0,0,0-1.815.66,35.188,35.188,0,0,1-4.729,2.749c-.687.344-1.072.935-.852,1.375l3.2,6.337a.673.673,0,0,1,0,.261C99.912,350.389,99.912,353.235,99.912,353.235Z" transform="translate(-24.995 -297.396)" fill="#263238"/>
        <path id="Tracé_2142" data-name="Tracé 2142" d="M83.67,344.72V357.2a1.773,1.773,0,0,1,.715.4l5.663,5.952a1.691,1.691,0,0,0,1.031.412V351.483a1.732,1.732,0,0,1-1.058-.4l-5.663-5.98A1.65,1.65,0,0,0,83.67,344.72Z" transform="translate(-29.826 -295.122)" opacity="0.15"/>
        <path id="Tracé_2143" data-name="Tracé 2143" d="M76.69,344.705v12.482a2.2,2.2,0,0,1,.742-.124,62.71,62.71,0,0,0,7.712,0,2.97,2.97,0,0,1,1.141.179V344.76a2.749,2.749,0,0,0-1.168-.179,62.511,62.511,0,0,1-7.7,0A2.074,2.074,0,0,0,76.69,344.705Z" transform="translate(-32.441 -295.176)" fill="#263238"/>
        <path id="Tracé_2144" data-name="Tracé 2144" d="M71.21,351.447v12.482a2.666,2.666,0,0,0,1.127-.66l5.072-5.347a3.394,3.394,0,0,1,1.375-.77V344.67a3.216,3.216,0,0,0-1.375.784L72.3,350.787a2.749,2.749,0,0,1-1.086.66Z" transform="translate(-34.494 -295.141)" opacity="0.15"/>
        <path id="Tracé_2145" data-name="Tracé 2145" d="M61.18,347v3.093h0v9.361a.811.811,0,0,0,.632.687l12.3,2.928a1.622,1.622,0,0,0,.839,0v-12.5a1.746,1.746,0,0,1-.866,0l-12.3-2.942a.756.756,0,0,1-.6-.632Z" transform="translate(-38.251 -294.268)" fill="#37474f"/>
        <path id="Tracé_2146" data-name="Tracé 2146" d="M58.29,338.66v12.482a2.859,2.859,0,0,1,1.237.371,29.962,29.962,0,0,0,2.749,1.746s0-2.859,0-3.244a1.2,1.2,0,0,1,.124-.509l2.955-5.856a1.045,1.045,0,0,0-.371-1.471,35.368,35.368,0,0,1-5.5-3.134,2.419,2.419,0,0,0-1.2-.385Z" transform="translate(-39.334 -297.393)" opacity="0.15"/>
        <path id="Tracé_2147" data-name="Tracé 2147" d="M44.54,334.5v12.454a.55.55,0,0,0,.11.316l4.907,6.873a1.471,1.471,0,0,0,.839.481V342.06a1.5,1.5,0,0,1-.88-.495l-4.894-6.873a.454.454,0,0,1-.082-.193Z" transform="translate(-44.485 -298.951)" fill="#37474f"/>
        <path id="Tracé_2148" data-name="Tracé 2148" d="M118.675,311.6l-12.3-2.942a2.351,2.351,0,0,0-1.979.729l-5.059,5.333a3.093,3.093,0,0,1-2.076.907,60.14,60.14,0,0,0-7.712,0,2.749,2.749,0,0,1-1.856-.577l-5.663-5.911a2.268,2.268,0,0,0-1.911-.357l-11.835,2.832c-.577.137-.935.495-.921.866a.536.536,0,0,0,0,.247l3.2,6.365c.234.44-.151,1.058-.852,1.375s-1.636.825-2.406,1.251-1.581.962-2.309,1.457a3.643,3.643,0,0,1-2.227.646L51.112,321.85a2.158,2.158,0,0,0-1.842.866l-4.454,6.213a1.238,1.238,0,0,0-.247.687h0a.674.674,0,0,0,.495.646l10.64,3.382a1.237,1.237,0,0,1,.8,1.375,12.055,12.055,0,0,0,0,3.849c.1.509-.385,1.1-1.1,1.375l-10.048,3.175a1.375,1.375,0,0,0-.77.536h0a.536.536,0,0,0-.082.275h0a.5.5,0,0,0,.1.3L49.5,351.4a1.938,1.938,0,0,0,1.787.522l11.3-1.9a3.01,3.01,0,0,1,2.021.357,35.375,35.375,0,0,0,5.5,3.134,1.058,1.058,0,0,1,.371,1.485l-2.942,5.842a.852.852,0,0,0,.495,1.375l12.3,2.942a2.392,2.392,0,0,0,1.979-.729l5.072-5.333a2.956,2.956,0,0,1,2.076-.893,65.389,65.389,0,0,0,7.7,0,2.75,2.75,0,0,1,1.856.577l5.677,5.966a2.227,2.227,0,0,0,1.9.357l11.836-2.832c.7-.179,1.1-.674.866-1.127l-3.2-6.337c-.22-.454.165-1.058.852-1.375a33.806,33.806,0,0,0,4.729-2.749,3.491,3.491,0,0,1,2.213-.632l11.657,1.966a2.131,2.131,0,0,0,1.842-.866l4.468-6.213a1.374,1.374,0,0,0,.247-.687.674.674,0,0,0-.509-.674l-10.64-3.368a1.251,1.251,0,0,1-.784-1.375,12.056,12.056,0,0,0,0-3.849,1.375,1.375,0,0,1,1.1-1.375l10.048-3.189c.522-.165.839-.481.866-.8h0a.55.55,0,0,0-.11-.3l-4.894-6.873a2.034,2.034,0,0,0-1.8-.522l-11.286,1.911a3.3,3.3,0,0,1-2.034-.344,30.094,30.094,0,0,0-2.749-1.759c-.866-.481-1.773-.948-2.749-1.375a1.072,1.072,0,0,1-.371-1.485l2.955-5.842a1.031,1.031,0,0,0,.124-.467h0a.8.8,0,0,0-.591-.976ZM85.051,325.3c11-2.653,23.685.385,28.262,6.749a7.67,7.67,0,0,1,1.1,7.56,1.48,1.48,0,0,1-.11.261l-.124.261a1.045,1.045,0,0,1-.124.247,12.083,12.083,0,0,1-3.7,4.124,17.724,17.724,0,0,1-1.8,1.182,26.3,26.3,0,0,1-6.942,2.653c-8.248,1.979-17.471.77-23.465-2.639a16.787,16.787,0,0,1-1.869-1.21,13.637,13.637,0,0,1-2.928-2.9,7.684,7.684,0,0,1-.591-8.633l.11-.193.261-.412c.151-.22.3-.44.467-.646l.426-.536.22-.22.3-.316a21.61,21.61,0,0,1,10.5-5.333Z" transform="translate(-44.5 -308.639)" fill="#455a64"/>
      </g>
    </g>
    <g id="freepik--Robot--inject-50" transform="translate(244.242 100.746)">
      <g id="freepik--robot--inject-50-2" data-name="freepik--robot--inject-50">
        <path id="Tracé_2149" data-name="Tracé 2149" d="M390.907,335.837a8.572,8.572,0,0,1-1.553-.138l-87.591-16.5a8.262,8.262,0,0,1,3.079-16.234l87.591,16.5a8.248,8.248,0,0,1-1.526,16.386Z" transform="translate(-143.952 -19.303)" fill="#455a64"/>
        <path id="Tracé_2150" data-name="Tracé 2150" d="M352.132,329.79h-.165c-2.859-.536-4.124-4.028-3.3-8.66.935-5.031,4.234-9.622,8.688-8.825a.826.826,0,0,1-.316,1.622c-3.368-.632-5.98,3.4-6.749,7.505-.564,2.955-.179,6.323,1.979,6.736a.825.825,0,0,1-.151,1.636Z" transform="translate(-123.954 -15.785)" fill="#37474f"/>
        <path id="Tracé_2151" data-name="Tracé 2151" d="M341.527,327.787h-.151a4.124,4.124,0,0,1-3.107-2.928c-1.223-3.492,0-9.086,2.749-12.22a5.938,5.938,0,0,1,5.746-2.337.839.839,0,0,1-.3,1.636,4.316,4.316,0,0,0-4.124,1.773c-2.282,2.653-3.437,7.712-2.419,10.6a2.488,2.488,0,0,0,1.842,1.856.825.825,0,0,1-.151,1.636Z" transform="translate(-127.935 -16.531)" fill="#37474f"/>
        <path id="Tracé_2152" data-name="Tracé 2152" d="M330.911,325.791h-.165c-2.845-.536-4.124-4.028-3.3-8.674.948-5.017,4.234-9.622,8.688-8.811a.825.825,0,0,1-.3,1.622c-3.382-.646-5.98,3.4-6.763,7.505-.55,2.955-.179,6.323,1.993,6.722a.852.852,0,0,1,.66.976.839.839,0,0,1-.811.66Z" transform="translate(-131.904 -17.284)" fill="#37474f"/>
        <path id="Tracé_2153" data-name="Tracé 2153" d="M320.3,323.788h-.151a4.124,4.124,0,0,1-3.107-2.942c-1.223-3.478,0-9.073,2.749-12.22a5.939,5.939,0,0,1,5.76-2.323.826.826,0,1,1-.316,1.622,4.371,4.371,0,0,0-4.193,1.787c-2.282,2.653-3.437,7.7-2.419,10.6a2.488,2.488,0,0,0,1.842,1.856.825.825,0,0,1-.151,1.636Z" transform="translate(-135.888 -18.03)" fill="#37474f"/>
        <path id="Tracé_2154" data-name="Tracé 2154" d="M309.687,321.79h-.151c-2.859-.536-4.193-4.014-3.313-8.66.949-5.017,4.248-9.622,8.688-8.825a.839.839,0,0,1-.3,1.636c-3.354-.632-5.98,3.382-6.763,7.492-.55,2.955-.165,6.323,1.993,6.736a.825.825,0,0,1,.66.962A.852.852,0,0,1,309.687,321.79Z" transform="translate(-139.863 -18.782)" fill="#37474f"/>
        <path id="Tracé_2155" data-name="Tracé 2155" d="M295,308.82a8.248,8.248,0,0,0,6.722,8.083l87.591,16.5a8.581,8.581,0,0,0,1.553.137,8.248,8.248,0,0,0,8.11-6.736v-.289Z" transform="translate(-143.967 -17.056)" opacity="0.15"/>
        <path id="Tracé_2156" data-name="Tracé 2156" d="M462.109,274.664c-6.543-1.732-16.839-2.268-25.513,4.646-7.066,5.636-15.231,31.053-17.966,39.864l-46.311-.11h0a11.918,11.918,0,0,0-6.777,3.217c-7.753,7.7-9.224,16.3-8.564,24.5.412,5.059,3.849,8.55,6.309,8.976h0c.742.151,61.666,12.482,70.312,14.007,14.392,2.543,11.258,2.516,19.767-9.691,5.595-8.014,5.595-19.863,5.595-27.7s3.519-20.8,6.488-30.956S468.653,276.4,462.109,274.664Z" transform="translate(-120.801 -30.27)" fill="#ff7f27"/>
        <path id="Tracé_2157" data-name="Tracé 2157" d="M452.809,274.521c-7.7,2.859-12.468,9.622-14.8,19.973s-.261,18.915-2.447,33.857a88.237,88.237,0,0,1-7.7,23.437c-2.969,5.622-7.189,7.959-15.121,6.585s-35.946-5.5-43.273-8.894a11.368,11.368,0,0,1-6.736-10.75,40.249,40.249,0,0,0,13.911-2.557c6.255-2.639,5.787-5.636,5.595-7.272l-7.56-10.158h-2.337a11.918,11.918,0,0,0-6.777,3.217c-7.753,7.7-9.224,16.3-8.564,24.5.412,5.059,3.849,8.55,6.31,8.976h0c.742.151,61.665,12.482,70.312,14.007,14.392,2.543,11.258,2.516,19.767-9.691,5.595-8.014,5.595-19.863,5.595-27.7s3.519-20.8,6.488-30.957a51.445,51.445,0,0,0,1.883-10.695C461.525,280.858,455.806,273.394,452.809,274.521Z" transform="translate(-120.793 -29.948)" opacity="0.15"/>
        <path id="Tracé_2158" data-name="Tracé 2158" d="M441.13,274.626l-1.278-.316h0a34.693,34.693,0,0,0-4.289-.66c-9.883,1.979-14.543,10.722-15.959,22.736s-.124,25.472-1,33.843-6.09,21.843-5.746,30.737a15.615,15.615,0,0,0,2.955,9.389c10.708,1.883,8.729.921,16.5-10.268,5.595-8.014,5.595-19.863,5.595-27.7s3.519-20.8,6.488-30.957S447.674,276.358,441.13,274.626Z" transform="translate(-99.822 -30.232)" fill="#455a64"/>
        <path id="Tracé_2159" data-name="Tracé 2159" d="M403.207,306.74a207.352,207.352,0,0,0-4.413,22.942,83.991,83.991,0,0,1,0-22.942Z" transform="translate(-105.378 -17.836)" opacity="0.15"/>
        <path id="Tracé_2160" data-name="Tracé 2160" d="M425.5,287.713c-4.5,11.547-2.749,29.087-3.739,40.441s-6.131,27.245-5.347,33.252,3.794,10.2,8.385,7.519a19.245,19.245,0,0,0,5.732-6.873,73.671,73.671,0,0,0,2.983-7.134c3.175-7.533,3.175-16.757,3.175-23.245,0-7.835,3.519-20.8,6.488-30.956,2.227-7.6,2.914-17.87.371-23.2C441.568,273.114,430.433,275.025,425.5,287.713Z" transform="translate(-98.513 -29.586)" fill="#37474f"/>
        <path id="Tracé_2161" data-name="Tracé 2161" d="M420.56,308.512v1.608L439.8,299.027c.165-.632.344-1.265.522-1.9Z" transform="translate(-96.929 -21.436)" fill="#263238"/>
        <path id="Tracé_2162" data-name="Tracé 2162" d="M441.766,277.63l-19.066,11c-.192.619-.371,1.251-.55,1.911l20.042-11.574C442.068,278.51,441.917,278.056,441.766,277.63Z" transform="translate(-96.333 -28.741)" fill="#263238"/>
        <path id="Tracé_2163" data-name="Tracé 2163" d="M437.739,304.45l-17.293,9.98c0,.564-.069,1.113-.1,1.65l16.949-9.787C437.423,305.673,437.574,305.069,437.739,304.45Z" transform="translate(-97.008 -18.693)" fill="#263238"/>
        <path id="Tracé_2164" data-name="Tracé 2164" d="M418,329.924l18.049-10.42V317.91l-17.678,10.213C418.247,328.728,418.124,329.333,418,329.924Z" transform="translate(-97.888 -13.651)" fill="#263238"/>
        <path id="Tracé_2165" data-name="Tracé 2165" d="M420.68,302.62v1.608L442.5,291.637c.124-.591.234-1.182.344-1.787Z" transform="translate(-96.884 -24.163)" fill="#263238"/>
        <path id="Tracé_2166" data-name="Tracé 2166" d="M419.746,320.924c-.11.591-.206,1.182-.316,1.773l16.5-9.5c.069-.564.151-1.141.234-1.718Z" transform="translate(-97.352 -16.06)" fill="#263238"/>
        <path id="Tracé_2167" data-name="Tracé 2167" d="M443.406,284.925V283.33l-22.228,12.839c0,.564-.124,1.113-.179,1.691Z" transform="translate(-96.764 -26.605)" fill="#263238"/>
        <path id="Tracé_2168" data-name="Tracé 2168" d="M433.743,333.233c.247-.66.467-1.375.687-1.993l-17.87,10.337a8.813,8.813,0,0,0,.412,1.375Z" transform="translate(-98.427 -8.657)" fill="#263238"/>
        <path id="Tracé_2169" data-name="Tracé 2169" d="M436,326.025c0-.577.137-1.141.193-1.7l-19.245,11.162c-.11.6-.206,1.2-.289,1.759Z" transform="translate(-98.39 -11.25)" fill="#263238"/>
        <path id="Tracé_2170" data-name="Tracé 2170" d="M365.343,324.751c10.695,1.017,19.382-2.873,19.795-6.323,0,0,2.584-14.406-16.5-15.946s-19.6,12.44-19.6,12.44C348.985,318.222,354.635,323.748,365.343,324.751Z" transform="translate(-123.722 -19.475)" fill="#ff7f27"/>
        <path id="Tracé_2171" data-name="Tracé 2171" d="M365.343,324.751c10.695,1.017,19.382-2.873,19.795-6.323,0,0,2.584-14.406-16.5-15.946s-19.6,12.44-19.6,12.44C348.985,318.222,354.635,323.748,365.343,324.751Z" transform="translate(-123.722 -19.475)" fill="#fff" opacity="0.7"/>
        <path id="Tracé_2172" data-name="Tracé 2172" d="M385.134,317.021a13.334,13.334,0,0,0-3.492-10.9c.728,1.375,3.78,8.385-7.4,11.6-12.454,3.56-23.877-4.261-24.51-7.341h0a11.957,11.957,0,0,0-.687,3.134c0,3.3,5.581,8.825,16.289,9.829S384.721,320.471,385.134,317.021Z" transform="translate(-123.718 -18.068)" fill="#ff7f27"/>
        <path id="Tracé_2173" data-name="Tracé 2173" d="M385.134,317.021a13.334,13.334,0,0,0-3.492-10.9c.728,1.375,3.78,8.385-7.4,11.6-12.454,3.56-23.877-4.261-24.51-7.341h0a11.957,11.957,0,0,0-.687,3.134c0,3.3,5.581,8.825,16.289,9.829S384.721,320.471,385.134,317.021Z" transform="translate(-123.718 -18.068)" opacity="0.05"/>
        <path id="Tracé_2174" data-name="Tracé 2174" d="M349.472,221.5c-.275-2.983-1.375-9.182-6.584-11.629s-8.028,0-7.285,2.282,6.117,3.01,6.337,10.846C341.939,222.995,346.613,225.016,349.472,221.5Z" transform="translate(-128.8 -54.508)" fill="#455a64"/>
        <path id="Tracé_2175" data-name="Tracé 2175" d="M344.947,220.286a12.055,12.055,0,0,0-5.5-8.165c-1.663-1.306-1.924-2.667,0-3.244-2.969-.261-4.44,1.54-3.876,3.272.756,2.323,6.117,3.01,6.337,10.846a8.316,8.316,0,0,0,3.368.564A26.89,26.89,0,0,0,344.947,220.286Z" transform="translate(-128.812 -54.507)" opacity="0.15"/>
        <path id="Tracé_2176" data-name="Tracé 2176" d="M337.857,223.5c3.368-6.873,14.062-7.753,22.379,0,12.482,11.643,14.53,23.176,9.265,29.307s-13.306,4.371-20.454-2.062C343.548,245.751,333.019,233.352,337.857,223.5Z" transform="translate(-128.375 -51.077)" fill="#ff7f27"/>
        <path id="Tracé_2177" data-name="Tracé 2177" d="M369.5,252.636a11.506,11.506,0,0,0,2.681-6.956c-.646,3.437-2.378,5.87-4.715,6.694-2.859,1.017-7.945,2.6-16.385-6.131s-12.866-23.231-7.121-27.864a9.623,9.623,0,0,0-6.1,4.949c-4.866,9.884,5.691,22.283,11.189,27.245C356.2,257.007,364.239,258.78,369.5,252.636Z" transform="translate(-128.378 -50.937)" opacity="0.1"/>
        <path id="Tracé_2178" data-name="Tracé 2178" d="M337.537,248.043c-21.155-11.258-32.675-16.88-43.094-11.478l-5.072-9.787c16.042-8.316,31.685,0,53.349,11.547Z" transform="translate(-146.076 -49.053)" fill="#455a64"/>
        <path id="Tracé_2179" data-name="Tracé 2179" d="M304.148,236.032a.715.715,0,0,1-.564-1.127,7.739,7.739,0,0,0,1.2-5.8,7.285,7.285,0,0,0-2.461-4.7.7.7,0,1,1,.811-1.141,8.536,8.536,0,0,1,3.038,5.622,9.169,9.169,0,0,1-1.457,6.873A.7.7,0,0,1,304.148,236.032Z" transform="translate(-141.348 -49.166)" fill="#37474f"/>
        <path id="Tracé_2180" data-name="Tracé 2180" d="M312.189,239.156a.715.715,0,0,1-.509-1.2,8.33,8.33,0,0,0,2.158-6.3,6.874,6.874,0,0,0-1.622-4.5.7.7,0,1,1,.893-1.086,7.973,7.973,0,0,1,2.131,5.5,9.7,9.7,0,0,1-2.557,7.368A.7.7,0,0,1,312.189,239.156Z" transform="translate(-137.787 -48.111)" fill="#37474f"/>
        <path id="Tracé_2181" data-name="Tracé 2181" d="M293.633,234.809c10.42-5.4,21.994.22,43.094,11.478l2.144-4.014a123.085,123.085,0,0,0-15.121-8.248c-14.887-6.736-20.551-7.492-32.221-3.134Z" transform="translate(-145.267 -47.27)" opacity="0.15"/>
        <circle id="Ellipse_131" data-name="Ellipse 131" cx="17.87" cy="17.87" r="17.87" transform="translate(112.312 175.163) rotate(-22.5)" fill="#ff7f27"/>
        <circle id="Ellipse_132" data-name="Ellipse 132" cx="17.87" cy="17.87" r="17.87" transform="translate(112.312 175.163) rotate(-22.5)" opacity="0.25"/>
        <circle id="Ellipse_133" data-name="Ellipse 133" cx="44.455" cy="44.455" r="44.455" transform="translate(73.518 238.043)" fill="#ff7f27"/>
        <circle id="Ellipse_134" data-name="Ellipse 134" cx="44.455" cy="44.455" r="44.455" transform="translate(73.518 238.043)" opacity="0.35"/>
        <path id="Tracé_2182" data-name="Tracé 2182" d="M285.848,347.766c-11-1.265-16.248-7.9-16.248-7.9s38.572.11,57.047-35.74a44.511,44.511,0,0,0-23.863-31.011l-51.947,9.237a44.455,44.455,0,1,0,70.312,53.61C312.268,346.391,297.01,349.072,285.848,347.766Z" transform="translate(-165.056 -30.434)" opacity="0.15"/>
        <path id="Tracé_2183" data-name="Tracé 2183" d="M335.5,305.172h0l-.234-.467c-.069-.124-.124-.247-.179-.357a212.33,212.33,0,0,1-12.11-32.991,192.007,192.007,0,0,1-6.378-40.936H214.13c0,38.379,7.368,76.085,24.152,105.269h0c2.859,5.622,8.908,10.268,17.87,12.99,22.118,6.694,53.707-.7,70.559-16.5C336.471,323.111,339.152,313.214,335.5,305.172Z" transform="translate(-174.262 -46.427)" fill="#ff7f27"/>
        <path id="Tracé_2184" data-name="Tracé 2184" d="M324.257,334.385c-7.176,5.279-23.451,11.835-35.63,11.725-13.939-.137-41.885-7.863-51.878-29.678s-13.183-62.174-13.183-62.174,11.836,6.791,38.627,6.131l-3.505-29.939H214.15c0,38.379,7.368,76.085,24.152,105.269h0c2.859,5.622,8.908,10.268,17.87,12.99C277.259,355.087,306.923,348.668,324.257,334.385Z" transform="translate(-174.255 -46.416)" opacity="0.1"/>
        <path id="Tracé_2185" data-name="Tracé 2185" d="M318.607,286.941c-.137-.371-.289-.742-.426-1.127s-.165-.44-.261-.66V285c-1.856-5.017-3.918-11.107-5.925-18.131a173.746,173.746,0,0,1-4.88-24.262v-.11c1.141,8.316-3.794,16.88-14.846,23.245-13.2,7.615-31.809,10.227-48.689,7.78,1.979,18.929,8.358,38.847,18.86,53.858,16.5,1.21,35.864-4.907,46.833-15.121C318.194,303.767,321.136,294.639,318.607,286.941Z" transform="translate(-163.23 -41.901)" fill="#37474f"/>
        <path id="Tracé_2186" data-name="Tracé 2186" d="M316,283.941c-.137-.357-.261-.742-.4-1.127l-.247-.66V282c-1.76-5.059-3.711-11.189-5.567-18.241a154.948,154.948,0,0,1-3.272-15.932c-1.718,5.828-6.461,11.423-14.269,15.918-13.2,7.615-31.809,10.227-48.689,7.78,1.842,17.54,7.45,35.905,16.619,50.449,16.028,1,35.273-3.327,45.967-12.949C315.26,300.767,318.394,291.694,316,283.941Z" transform="translate(-163.237 -39.905)" fill="#455a64"/>
        <path id="Tracé_2187" data-name="Tracé 2187" d="M283.83,271.327l-5.169-2.337s-18.874,4.413-30.242,3.354a73.172,73.172,0,0,0,2.172,16.757,54.492,54.492,0,0,0,6.186,14.873l5.952,2.887Z" transform="translate(-161.416 -31.978)" fill="#263238"/>
        <path id="Tracé_2188" data-name="Tracé 2188" d="M251.49,276.422c0,7.189,5.952,24.867,10.1,29.8,0,0,20.853-.976,29.829-9.2-.289-2.3-8.743-26.338-8.743-26.338C277.168,274.759,260.879,276.436,251.49,276.422Z" transform="translate(-160.266 -31.341)" fill="#37474f"/>
        <circle id="Ellipse_135" data-name="Ellipse 135" cx="2.076" cy="2.076" r="2.076" transform="translate(122.551 260.422)" fill="#ff7f27"/>
        <circle id="Ellipse_136" data-name="Ellipse 136" cx="1.017" cy="1.017" r="1.017" transform="translate(117.245 263.556)" fill="#ff7f27"/>
        <path id="Tracé_2189" data-name="Tracé 2189" d="M275.9,285.586a.658.658,0,0,1-.275,0,.687.687,0,0,1-.632-.412.715.715,0,0,1,.371-.907,4.041,4.041,0,0,0,2.337-4.825l-4.852-17.073c.426-.165.866-.33,1.278-.509l4.894,17.21a5.4,5.4,0,0,1-3.12,6.516Z" transform="translate(-152.264 -34.649)" fill="#ff7f27"/>
        <path id="Tracé_2190" data-name="Tracé 2190" d="M269.843,287.5a.659.659,0,0,1-.275,0,.7.7,0,0,1-.632-.426.715.715,0,0,1,.371-.907,4.028,4.028,0,0,0,2.323-4.811l-4.88-17.21,1.375-.33L273,280.989a5.4,5.4,0,0,1-3.162,6.516Z" transform="translate(-154.55 -33.914)" fill="#ff7f27"/>
        <path id="Tracé_2191" data-name="Tracé 2191" d="M263.929,289.71a.593.593,0,0,1-.261,0,.687.687,0,0,1-.646-.412.715.715,0,0,1,.371-.907,4.028,4.028,0,0,0,2.323-4.825l-5.2-18.3,1.375-.179,5.127,18.1A5.389,5.389,0,0,1,263.929,289.71Z" transform="translate(-156.884 -33.439)" fill="#ff7f27"/>
        <g id="Groupe_175" data-name="Groupe 175" transform="translate(103.636 227.211)" opacity="0.3">
          <path id="Tracé_2192" data-name="Tracé 2192" d="M275.9,285.586a.658.658,0,0,1-.275,0,.687.687,0,0,1-.632-.412.715.715,0,0,1,.371-.907,4.041,4.041,0,0,0,2.337-4.825l-4.852-17.073c.426-.165.866-.33,1.278-.509l4.894,17.21a5.4,5.4,0,0,1-3.12,6.516Z" transform="translate(-255.901 -261.86)"/>
          <path id="Tracé_2193" data-name="Tracé 2193" d="M269.843,287.5a.659.659,0,0,1-.275,0,.7.7,0,0,1-.632-.426.715.715,0,0,1,.371-.907,4.028,4.028,0,0,0,2.323-4.811l-4.88-17.21,1.375-.33L273,280.989a5.4,5.4,0,0,1-3.162,6.516Z" transform="translate(-258.186 -261.126)"/>
          <path id="Tracé_2194" data-name="Tracé 2194" d="M263.929,289.71a.593.593,0,0,1-.261,0,.687.687,0,0,1-.646-.412.715.715,0,0,1,.371-.907,4.028,4.028,0,0,0,2.323-4.825l-5.2-18.3,1.375-.179,5.127,18.1A5.389,5.389,0,0,1,263.929,289.71Z" transform="translate(-260.52 -260.65)"/>
        </g>
        <path id="Tracé_2195" data-name="Tracé 2195" d="M279.9,262.19c-1.058.619-2.172,1.182-3.3,1.732,1.21,6.145,3.437,15.7,5.691,20.881,0,0,11-3.327,14.64-10.557a171.163,171.163,0,0,1-5.5-22.255,34.049,34.049,0,0,1-11.533,10.2Z" transform="translate(-150.86 -38.346)" fill="#37474f"/>
        <path id="Tracé_2196" data-name="Tracé 2196" d="M286.932,258.606a1.2,1.2,0,1,1-1.2-1.2A1.2,1.2,0,0,1,286.932,258.606Z" transform="translate(-147.885 -36.316)" fill="#ff7f27"/>
        <path id="Tracé_2197" data-name="Tracé 2197" d="M288.162,262.556a1.2,1.2,0,1,1-1.182-1.2,1.182,1.182,0,0,1,1.182,1.2Z" transform="translate(-147.424 -34.836)" fill="#ff7f27"/>
        <path id="Tracé_2198" data-name="Tracé 2198" d="M289.9,266.576a1.2,1.2,0,1,1-1.2-1.2A1.2,1.2,0,0,1,289.9,266.576Z" transform="translate(-146.773 -33.33)" fill="#ff7f27"/>
        <path id="Tracé_2199" data-name="Tracé 2199" d="M283.34,277.115a.7.7,0,0,1-.646-.426,128.685,128.685,0,0,1-3.821-14.86.7.7,0,0,1,.564-.8.715.715,0,0,1,.8.577,130.164,130.164,0,0,0,3.739,14.5.687.687,0,0,1-.371.893.633.633,0,0,1-.261.11Z" transform="translate(-150.012 -34.961)" fill="#ff7f27"/>
        <path id="Tracé_2200" data-name="Tracé 2200" d="M286.09,275.388a.7.7,0,0,1-.646-.426,131.559,131.559,0,0,1-3.821-14.86.7.7,0,1,1,1.375-.234,128.615,128.615,0,0,0,3.739,14.557.7.7,0,0,1-.371.907A.892.892,0,0,1,286.09,275.388Z" transform="translate(-148.982 -35.612)" fill="#ff7f27"/>
        <path id="Tracé_2201" data-name="Tracé 2201" d="M372.192,281.661s-8.921,14.145-29.513,21.678a89.765,89.765,0,0,1-36.194,5.059,216.347,216.347,0,0,1-11.835-32.359,172.164,172.164,0,0,1-4.88-24.262s15.891,2.062,32.909-8.591c19.41-12.138,23.85-25.156,23.85-25.156C358.57,235.007,367.065,256.4,372.192,281.661Z" transform="translate(-145.926 -51.068)" fill="#ff7f27"/>
        <path id="Tracé_2202" data-name="Tracé 2202" d="M372.192,281.661s-8.921,14.145-29.513,21.678a89.765,89.765,0,0,1-36.194,5.059,216.347,216.347,0,0,1-11.835-32.359,172.164,172.164,0,0,1-4.88-24.262s15.891,2.062,32.909-8.591c19.41-12.138,23.85-25.156,23.85-25.156C358.57,235.007,367.065,256.4,372.192,281.661Z" transform="translate(-145.926 -51.068)" opacity="0.25"/>
        <path id="Tracé_2203" data-name="Tracé 2203" d="M357.339,281.661c-5.182-25.266-13.622-46.655-25.664-63.631a26.385,26.385,0,0,1-2.254,4.454c10.282,11.987,22.7,41.871,24.743,63.233a36.519,36.519,0,0,0,3.175-4.055Z" transform="translate(-131.072 -51.068)" opacity="0.25"/>
        <circle id="Ellipse_137" data-name="Ellipse 137" cx="3.533" cy="3.533" r="3.533" transform="translate(198.142 207.046)" fill="#37474f"/>
        <ellipse id="Ellipse_138" data-name="Ellipse 138" cx="51.246" cy="29.582" rx="51.246" ry="29.582" transform="translate(39.854 154.851)" fill="#ff7f27"/>
        <ellipse id="Ellipse_139" data-name="Ellipse 139" cx="51.246" cy="29.582" rx="51.246" ry="29.582" transform="translate(39.854 154.851)" fill="#fff" opacity="0.5"/>
        <path id="Tracé_2204" data-name="Tracé 2204" d="M228.889,217.881C221.081,222.4,216.325,228,214.62,233.841c1.375,5.059,5.416,9.911,12.152,13.746,16.922,9.774,44.345,9.774,61.267,0s16.908-25.43.275-35.2C269.137,206.788,245.027,208.6,228.889,217.881Z" transform="translate(-174.079 -54.37)" opacity="0.1"/>
        <path id="Tracé_2205" data-name="Tracé 2205" d="M307.175,273.46a10.406,10.406,0,0,0-6.722-1.636,12.867,12.867,0,0,0-7.409,3.258,7.467,7.467,0,0,0-.66.66,12.647,12.647,0,0,0-6.791,4.481,9.623,9.623,0,0,0-1.842,3.931,7.477,7.477,0,0,0-1.65,3.725,8.4,8.4,0,0,0,1.746,6.021,12.825,12.825,0,0,0,9.141,4.976c.7-.687,1.375-1.375,1.993-2.076a11.162,11.162,0,0,1-7.34-2.131,7.794,7.794,0,0,1-3.6-6.543v.137a9.471,9.471,0,0,0,5.5,5.251,6.873,6.873,0,0,0,7.148-.976,5.814,5.814,0,0,0,1.375-1.9,10.18,10.18,0,0,0,1.292,0,6.475,6.475,0,0,0,5.938-3.093,7.877,7.877,0,0,0,.179-6.585,8.247,8.247,0,0,0-3.45-4.028,9.925,9.925,0,0,0-1.622-.811,12.908,12.908,0,0,0-5-.88,11.354,11.354,0,0,1,5.5-2.117,11.778,11.778,0,0,1,3.189.069,9.828,9.828,0,0,1,2.845.907C307.5,274.395,307.546,273.68,307.175,273.46Zm-20.358,8.11a10.681,10.681,0,0,1,3.986-3.437,9.929,9.929,0,0,0-.825,2.557,11.247,11.247,0,0,0-3.313,1.127,2.392,2.392,0,0,1,.151-.289ZM291.5,292a7.808,7.808,0,0,1-5.031-3.368,5.8,5.8,0,0,1-.894-3.808,8.055,8.055,0,0,1,4.261-2.323,7.808,7.808,0,0,0,2.474,5.663,9.925,9.925,0,0,0,3.739,2.048,4.234,4.234,0,0,1-4.55,1.746Zm2.749-4.77a6.323,6.323,0,0,1-2.392-4.825,4.812,4.812,0,0,1,3.464,1.869A6.268,6.268,0,0,1,296.7,288.4a8.246,8.246,0,0,1-2.5-1.2Zm4.578-9.746a7.781,7.781,0,0,1,3.546,2.089,5.5,5.5,0,0,1,1.045,1.457,6.873,6.873,0,0,1,.577,5,4.041,4.041,0,0,1-3.6,2.749,7.267,7.267,0,0,1-1.732,0,7.409,7.409,0,0,0-.275-3.175,7.079,7.079,0,0,0-4.921-4.907,8.8,8.8,0,0,0-1.471-.192,8.248,8.248,0,0,1,1.485-3.34,11,11,0,0,1,5.292.275Z" transform="translate(-148.814 -30.935)" fill="#ff7f27"/>
        <path id="Tracé_2206" data-name="Tracé 2206" d="M307.175,273.46a10.406,10.406,0,0,0-6.722-1.636,12.867,12.867,0,0,0-7.409,3.258,7.467,7.467,0,0,0-.66.66,12.647,12.647,0,0,0-6.791,4.481,9.623,9.623,0,0,0-1.842,3.931,7.477,7.477,0,0,0-1.65,3.725,8.4,8.4,0,0,0,1.746,6.021,12.825,12.825,0,0,0,9.141,4.976c.7-.687,1.375-1.375,1.993-2.076a11.162,11.162,0,0,1-7.34-2.131,7.794,7.794,0,0,1-3.6-6.543v.137a9.471,9.471,0,0,0,5.5,5.251,6.873,6.873,0,0,0,7.148-.976,5.814,5.814,0,0,0,1.375-1.9,10.18,10.18,0,0,0,1.292,0,6.475,6.475,0,0,0,5.938-3.093,7.877,7.877,0,0,0,.179-6.585,8.247,8.247,0,0,0-3.45-4.028,9.925,9.925,0,0,0-1.622-.811,12.908,12.908,0,0,0-5-.88,11.354,11.354,0,0,1,5.5-2.117,11.778,11.778,0,0,1,3.189.069,9.828,9.828,0,0,1,2.845.907C307.5,274.395,307.546,273.68,307.175,273.46Zm-20.358,8.11a10.681,10.681,0,0,1,3.986-3.437,9.929,9.929,0,0,0-.825,2.557,11.247,11.247,0,0,0-3.313,1.127,2.392,2.392,0,0,1,.151-.289ZM291.5,292a7.808,7.808,0,0,1-5.031-3.368,5.8,5.8,0,0,1-.894-3.808,8.055,8.055,0,0,1,4.261-2.323,7.808,7.808,0,0,0,2.474,5.663,9.925,9.925,0,0,0,3.739,2.048,4.234,4.234,0,0,1-4.55,1.746Zm2.749-4.77a6.323,6.323,0,0,1-2.392-4.825,4.812,4.812,0,0,1,3.464,1.869A6.268,6.268,0,0,1,296.7,288.4a8.246,8.246,0,0,1-2.5-1.2Zm4.578-9.746a7.781,7.781,0,0,1,3.546,2.089,5.5,5.5,0,0,1,1.045,1.457,6.873,6.873,0,0,1,.577,5,4.041,4.041,0,0,1-3.6,2.749,7.267,7.267,0,0,1-1.732,0,7.409,7.409,0,0,0-.275-3.175,7.079,7.079,0,0,0-4.921-4.907,8.8,8.8,0,0,0-1.471-.192,8.248,8.248,0,0,1,1.485-3.34,11,11,0,0,1,5.292.275Z" transform="translate(-148.814 -30.935)" fill="#fff" opacity="0.5"/>
        <path id="Tracé_2207" data-name="Tracé 2207" d="M282.12,284.3a5.911,5.911,0,0,0,2.254,2.818,5.924,5.924,0,0,1-.357-2.392v.138a10.558,10.558,0,0,1-.33-4.124,7.491,7.491,0,0,0-1.567,3.56Z" transform="translate(-148.792 -27.576)" opacity="0.15"/>
        <path id="Tracé_2208" data-name="Tracé 2208" d="M285.15,281.566a8.551,8.551,0,0,1,.536-2.516,6.419,6.419,0,0,0-1.086,3.01,6.38,6.38,0,0,1,.55-.495Z" transform="translate(-147.863 -28.209)" opacity="0.15"/>
        <path id="Tracé_2209" data-name="Tracé 2209" d="M287.19,278.094a10.009,10.009,0,0,1,1.691-1.072,9.225,9.225,0,0,1,1.581-2.392,12.666,12.666,0,0,0-1.375.467A6.777,6.777,0,0,0,287.19,278.094Z" transform="translate(-146.892 -29.865)" opacity="0.15"/>
        <path id="Tracé_2210" data-name="Tracé 2210" d="M288.116,278.23a7.671,7.671,0,0,0-.77.165,12.375,12.375,0,0,0-.316,1.911c.316-.1.632-.192.949-.261A6.021,6.021,0,0,1,288.116,278.23Z" transform="translate(-146.952 -28.516)" opacity="0.15"/>
        <path id="Tracé_2211" data-name="Tracé 2211" d="M294.492,285.586a20.344,20.344,0,0,1-2.034-.426,3.974,3.974,0,0,1-.8.921,5.032,5.032,0,0,0,1.979.784A6.686,6.686,0,0,0,294.492,285.586Z" transform="translate(-145.218 -25.92)" opacity="0.15"/>
        <path id="Tracé_2212" data-name="Tracé 2212" d="M292.323,274.32a15.8,15.8,0,0,0-1.993,1.924,4.235,4.235,0,0,0,.728-.11A13.352,13.352,0,0,1,292.323,274.32Z" transform="translate(-145.716 -29.981)" opacity="0.15"/>
        <path id="Tracé_2213" data-name="Tracé 2213" d="M289.151,279.971l.412.082a6.1,6.1,0,0,1,0-1.883h-.275a8.882,8.882,0,0,0-.137,1.8Z" transform="translate(-146.159 -28.539)" opacity="0.15"/>
        <path id="Tracé_2214" data-name="Tracé 2214" d="M294.719,283.61a6.268,6.268,0,0,1-2.089,0,3.361,3.361,0,0,1,0,.371,8.37,8.37,0,0,0,2.007.4,6.966,6.966,0,0,0,.082-.77Z" transform="translate(-144.854 -26.501)" opacity="0.15"/>
        <g id="freepik--Arm--inject-50" transform="translate(0 212.986)">
          <path id="Tracé_2215" data-name="Tracé 2215" d="M239.687,275.057c0,3.849-1.292,6.6-3.4,7.987a14.552,14.552,0,0,1-1.65.756,17.871,17.871,0,0,1-17.334-30.86.206.206,0,0,1,.137-.124c.22-.151.412-.3.632-.44h0c2.268-1.375,5.416-1.127,8.908.88C234.037,257.228,239.687,267,239.687,275.057Z" transform="translate(-175.708 -251.512)" fill="#ff7f27"/>
          <path id="Tracé_2216" data-name="Tracé 2216" d="M239.687,275.057c0,3.849-1.292,6.6-3.4,7.987a14.552,14.552,0,0,1-1.65.756,17.871,17.871,0,0,1-17.334-30.86.206.206,0,0,1,.137-.124c.22-.151.412-.3.632-.44h0c2.268-1.375,5.416-1.127,8.908.88C234.037,257.228,239.687,267,239.687,275.057Z" transform="translate(-175.708 -251.512)" opacity="0.25"/>
          <path id="Tracé_2217" data-name="Tracé 2217" d="M239.552,273.622c0-6.213-3.368-13.444-8.11-18.282,3.533,4.426,6.873,15.712,2.557,21.472s-20.234,2.488-23.369-6.969a17.87,17.87,0,0,0,23.877,12.523,14.553,14.553,0,0,0,1.636-.742C238.26,280.221,239.552,277.471,239.552,273.622Z" transform="translate(-175.573 -250.078)" opacity="0.1"/>
          <path id="Tracé_2218" data-name="Tracé 2218" d="M216.625,377.1a18.352,18.352,0,0,0-.179,7.959c.22,1.1,1.375,2.007,1.883,1.471l10.86-11.134,8.715,2.158,2.488,8.646-11.368,11.671c-.426.44-.371.893.069,1.017l.811.22a18.159,18.159,0,0,0,15.643-31.85l14.282-59.535a18.186,18.186,0,0,0,14.227-21.362c-.234-1.113-1.375-2.021-1.9-1.485L261.3,296.012l-8.715-2.158-2.488-8.646,11.368-11.684c.412-.412.357-.893,0-1.017l-.811-.22a18.159,18.159,0,0,0-15.643,31.864l-14.282,59.535a18.145,18.145,0,0,0-14.1,13.416Z" transform="translate(-173.527 -243.93)" fill="#ff7f27"/>
          <path id="Tracé_2219" data-name="Tracé 2219" d="M216.625,377.1a18.352,18.352,0,0,0-.179,7.959c.22,1.1,1.375,2.007,1.883,1.471l10.86-11.134,8.715,2.158,2.488,8.646-11.368,11.671c-.426.44-.371.893.069,1.017l.811.22a18.159,18.159,0,0,0,15.643-31.85l14.282-59.535a18.186,18.186,0,0,0,14.227-21.362c-.234-1.113-1.375-2.021-1.9-1.485L261.3,296.012l-8.715-2.158-2.488-8.646,11.368-11.684c.412-.412.357-.893,0-1.017l-.811-.22a18.159,18.159,0,0,0-15.643,31.864l-14.282,59.535a18.145,18.145,0,0,0-14.1,13.416Z" transform="translate(-173.527 -243.93)" fill="#fff" opacity="0.8"/>
          <path id="Tracé_2220" data-name="Tracé 2220" d="M249.013,316.6a8.866,8.866,0,0,1-8.866.976,9.622,9.622,0,0,1-5.279-4.55l-7.478,31.176a17.636,17.636,0,0,0,15.423,1.375L249.6,317.25C249.411,317.03,249.219,316.81,249.013,316.6Z" transform="translate(-169.295 -228.466)" fill="#ff7f27"/>
          <path id="Tracé_2221" data-name="Tracé 2221" d="M249.013,316.6a8.866,8.866,0,0,1-8.866.976,9.622,9.622,0,0,1-5.279-4.55l-7.478,31.176a17.636,17.636,0,0,0,15.423,1.375L249.6,317.25C249.411,317.03,249.219,316.81,249.013,316.6Z" transform="translate(-169.295 -228.466)" opacity="0.05"/>
          <path id="Tracé_2222" data-name="Tracé 2222" d="M237.332,340.836c-11.6.825-28.372-5.4-35.988-12.715-4.028-3.89-4.907-9.334-2.749-17.169,4.193-15.121,22.324-36.029,30.929-40.084h0a2.653,2.653,0,0,0,1.251-2.557,8.591,8.591,0,0,0-3.9-6.749,2.749,2.749,0,0,0-2.681-.3h0c-11.987,5.65-32.042,29.513-36.936,47.136-3.285,11.822-1.375,21.265,5.7,28.056,9.141,8.784,27.74,15.519,42.118,15.519a27.936,27.936,0,0,0,3.052-.11Z" transform="translate(-184.914 -247.942)" fill="#455a64"/>
          <path id="Tracé_2223" data-name="Tracé 2223" d="M213.19,276.691h0a.825.825,0,0,1-.825-.839,6.5,6.5,0,0,0-2.639-4.756,6.433,6.433,0,0,0-4.976-1.718.825.825,0,0,1-.976-.646.839.839,0,0,1,.646-.976,9.059,9.059,0,0,1,9.622,8.11.825.825,0,0,1-.852.825Z" transform="translate(-178.147 -245.434)" fill="#37474f"/>
          <path id="Tracé_2224" data-name="Tracé 2224" d="M208.576,281.8a.825.825,0,0,1-.784-.55c-1.127-3.12-5.98-5.938-8.963-5.21a.828.828,0,1,1-.4-1.608c3.794-.935,9.512,2.351,10.915,6.255a.811.811,0,0,1-.495,1.058.7.7,0,0,1-.275.055Z" transform="translate(-180.379 -242.985)" fill="#37474f"/>
          <path id="Tracé_2225" data-name="Tracé 2225" d="M203.162,289.2a.825.825,0,0,1-.77-.509,8.852,8.852,0,0,0-9.128-4.907.825.825,0,0,1-.99-.632.838.838,0,0,1,.619-.99,10.406,10.406,0,0,1,11,5.911.825.825,0,0,1-.467,1.072A.786.786,0,0,1,203.162,289.2Z" transform="translate(-182.457 -240.074)" fill="#37474f"/>
          <path id="Tracé_2226" data-name="Tracé 2226" d="M199.723,295.981a.825.825,0,0,1-.784-.55c-.357-.949-2.268-1.952-4.454-2.309s-4.8-.165-6.076,1.375a.825.825,0,0,1-1.168.124.839.839,0,0,1-.11-1.168c1.457-1.8,4.3-2.543,7.629-1.993,2.2.357,5.031,1.471,5.732,3.382a.811.811,0,0,1-.481,1.058A.714.714,0,0,1,199.723,295.981Z" transform="translate(-184.447 -236.613)" fill="#37474f"/>
          <path id="Tracé_2227" data-name="Tracé 2227" d="M185.956,306.216a.947.947,0,0,1-.275,0,.838.838,0,0,1-.509-1.058c1.058-3,4.811-4.481,8.069-4.6,2.626-.11,4.577.66,5.2,2.062a.825.825,0,0,1-.412,1.1.852.852,0,0,1-1.1-.426c-.316-.715-1.787-1.155-3.615-1.086-2.749.11-5.815,1.375-6.571,3.505A.825.825,0,0,1,185.956,306.216Z" transform="translate(-185.127 -233.144)" fill="#37474f"/>
          <path id="Tracé_2228" data-name="Tracé 2228" d="M189.117,316.3h0a.825.825,0,0,1-.756-.893c.33-3.643,3.973-5.925,6.983-6.777.893-.247,3.89-.949,4.976.509a.847.847,0,1,1-1.375.99c-.151-.206-1.306-.44-3.272.124-2.474.715-5.5,2.529-5.7,5.306A.825.825,0,0,1,189.117,316.3Z" transform="translate(-183.917 -230.261)" fill="#37474f"/>
          <path id="Tracé_2229" data-name="Tracé 2229" d="M197.746,324.074a.838.838,0,0,1-.742-.454,6.6,6.6,0,0,1,1.251-7.45c2.034-2.351,5.031-3.547,7.148-2.846a.839.839,0,0,1-.536,1.581c-1.443-.495-3.808.536-5.361,2.351a5.086,5.086,0,0,0-1.031,5.608.825.825,0,0,1-.357,1.113.742.742,0,0,1-.371.1Z" transform="translate(-180.917 -228.43)" fill="#37474f"/>
          <path id="Tracé_2230" data-name="Tracé 2230" d="M205.853,328a.838.838,0,0,1-.756-.509,9.114,9.114,0,0,1,1.058-8.083,6.3,6.3,0,0,1,4.509-3.34.825.825,0,0,1,.866.784.811.811,0,0,1-.784.866,4.99,4.99,0,0,0-3.189,2.57,7.437,7.437,0,0,0-.935,6.557.825.825,0,0,1-.44,1.086.947.947,0,0,1-.33.069Z" transform="translate(-177.834 -227.327)" fill="#37474f"/>
          <path id="Tracé_2231" data-name="Tracé 2231" d="M214.158,330.369a.839.839,0,0,1-.742-.467,10.062,10.062,0,0,1,.11-7.9,6.681,6.681,0,0,1,3.574-3.931.825.825,0,1,1,.55,1.553,5.224,5.224,0,0,0-2.6,3.01,8.5,8.5,0,0,0-.137,6.557.825.825,0,0,1-.4,1.1.8.8,0,0,1-.357.083Z" transform="translate(-174.813 -226.602)" fill="#37474f"/>
          <path id="Tracé_2232" data-name="Tracé 2232" d="M189.079,311.258c3.9-17.568,18.461-32.4,26.035-39.507,4.866-4.536,10.351-7.437,14.076-8a7.451,7.451,0,0,0-2.309-2.2,2.749,2.749,0,0,0-2.68-.3h0c-11.987,5.65-32.042,29.513-36.936,47.136-3.285,11.822-1.375,21.265,5.7,28.056C192.983,336.427,185.189,328.839,189.079,311.258Z" transform="translate(-184.911 -247.945)" opacity="0.15"/>
          <path id="Tracé_2233" data-name="Tracé 2233" d="M234.124,324.428c-11.6.825-28.372-5.4-35.988-12.715a12.372,12.372,0,0,1-3.656-6.873h-.22c.893,5.608,1.608,12.234,17.65,18.654a52.236,52.236,0,0,0,22.42,3.711Z" transform="translate(-181.706 -231.534)" opacity="0.15"/>
          <path id="Tracé_2234" data-name="Tracé 2234" d="M228.641,317.151c-.481-4.962.179-10.626,2.323-14.09s5.622-5.842,7.258-3c1.1,1.9-1.223,4.8-2.309,8.358a16.069,16.069,0,0,0-.234,6.571Z" transform="translate(-168.882 -233.796)" fill="#455a64"/>
          <path id="Tracé_2235" data-name="Tracé 2235" d="M234.828,308.392c1.086-3.56,3.409-6.461,2.309-8.358a2.337,2.337,0,0,0-1.375-1.155h0c.935,1.278-1.265,3.67-2.818,6.736a19.368,19.368,0,0,0-1.375,10.268l3.024-.921a16.069,16.069,0,0,1,.234-6.571Z" transform="translate(-167.798 -233.767)" opacity="0.15"/>
          <path id="Tracé_2236" data-name="Tracé 2236" d="M257.109,331.224a17.664,17.664,0,1,1-19.245-21.444c.179,2.3,2.749,5.059,5.65,6.1a8.866,8.866,0,0,0,8.866-.99A17.65,17.65,0,0,1,257.109,331.224Z" transform="translate(-171.233 -229.683)" fill="#ff7f27"/>
          <path id="Tracé_2237" data-name="Tracé 2237" d="M257.109,331.224a17.664,17.664,0,1,1-19.245-21.444c.179,2.3,2.749,5.059,5.65,6.1a8.866,8.866,0,0,0,8.866-.99A17.65,17.65,0,0,1,257.109,331.224Z" transform="translate(-171.233 -229.683)" fill="#ff7f27"/>
          <path id="Tracé_2238" data-name="Tracé 2238" d="M257.136,328.77a15.646,15.646,0,0,0,.3-1.787c-2.433,4.907-8.33,11.739-20.028,9.732-12.014-2.062-14.5-16.5-12.935-20.386a17.1,17.1,0,0,0-1.8,4.715,17.664,17.664,0,1,0,34.462,7.725Z" transform="translate(-171.26 -227.229)" opacity="0.1"/>
          <path id="Tracé_2239" data-name="Tracé 2239" d="M248.6,325.8c6.021-2.433,8-7.945,7.066-13.526s-8.921-7.767-8.921-7.767l-1.54,6.433s3.931,1.471,3.739,4.22a5.8,5.8,0,0,1-3.065,4.124A4.825,4.825,0,0,0,248.6,325.8Z" transform="translate(-162.623 -231.657)" fill="#455a64"/>
          <path id="Tracé_2240" data-name="Tracé 2240" d="M246.74,304.55l-1.54,6.433s3.931,1.471,3.739,4.22a5.8,5.8,0,0,1-3.065,4.124,4.811,4.811,0,0,0,1.21,5.5h0c-.632-2.158.742-3.2,2.887-5.5s1.292-6.172-.082-8.605a7,7,0,0,1-.412-5.182,17.115,17.115,0,0,0-2.736-.99Z" transform="translate(-162.623 -231.642)" opacity="0.15"/>
          <path id="Tracé_2241" data-name="Tracé 2241" d="M247.3,330.9c4.687,1.375,10.351-.536,11.107-4.358s-.509-6.983-4.935-9.622a11.616,11.616,0,0,1-5.375,4.234l.289,2.062A6.639,6.639,0,0,0,247.3,330.9Z" transform="translate(-162.122 -227.008)" fill="#455a64"/>
          <path id="Tracé_2242" data-name="Tracé 2242" d="M253.045,317a11.615,11.615,0,0,1-5.375,4.234l.289,2.062h5.732s-1.485-.481-1.058-1.457,2.832-.6,4,.907a5.168,5.168,0,0,1,.3,5.925,4.6,4.6,0,0,0,1.045-2.1C258.749,322.691,257.471,319.529,253.045,317Z" transform="translate(-161.697 -226.978)" opacity="0.15"/>
          <path id="Tracé_2243" data-name="Tracé 2243" d="M242.46,334.691a19.244,19.244,0,0,0,6.282,3.711c1.8.674,4.949.715,6.639-1.086s.522-3.794-.742-4.687a42.01,42.01,0,0,0-6.873-3.849S242.872,328.78,242.46,334.691Z" transform="translate(-163.649 -222.565)" fill="#455a64"/>
          <path id="Tracé_2244" data-name="Tracé 2244" d="M254.295,332.629a42.01,42.01,0,0,0-6.873-3.849,5.5,5.5,0,0,0-4.041,2.117c1.031-1.031,4.481.88,7.3,2.584s5.031,2.667,3.876,4.234a4.361,4.361,0,0,0,.481-.4C256.838,335.364,255.559,333.522,254.295,332.629Z" transform="translate(-163.305 -222.565)" opacity="0.15"/>
        </g>
        <path id="Tracé_2245" data-name="Tracé 2245" d="M351.424,232.627a3.821,3.821,0,0,0,2.034-4.742c-1.141-3.313-5.141-4.289-5.141-4.289s-7.409-2.048-13.059,1.375-5.732,10.585-5.567,12.88a3.23,3.23,0,0,0,6.255.687c1.306-2.818,1.292-6.722,6.007-8.1C345.843,229.287,349.114,233.644,351.424,232.627Z" transform="translate(-130.986 -49.211)" fill="#455a64"/>
        <path id="Tracé_2246" data-name="Tracé 2246" d="M349.1,228.383c-3.931-1.608-8.138-3.711-11.478,0s-2.653,7.34-4.041,8.866-3.052,1.265-3.794,0a3.23,3.23,0,0,0,6.1,0c1.306-2.818,1.292-6.722,6.007-8.1,3.89-1.127,7.162,3.23,9.471,2.213a3.821,3.821,0,0,0,2.034-4.742C353.447,228.3,352.183,229.634,349.1,228.383Z" transform="translate(-130.933 -47.964)" opacity="0.15"/>
        <path id="Tracé_2247" data-name="Tracé 2247" d="M354.991,241.891a2.9,2.9,0,0,1,3.56-.3,3.808,3.808,0,0,1,2.282,3.175s.206,4.866-5.072,9.856a15.41,15.41,0,0,1-12.372,3.835c-3.464-.935-4.055-4.839,0-5.718,3.038-.66,5.718-.591,8.976-4.248C354.359,246.235,354.359,243.252,354.991,241.891Z" transform="translate(-126.897 -42.42)" fill="#455a64"/>
        <path id="Tracé_2248" data-name="Tracé 2248" d="M353.68,252.869c-5.347,4.124-8.633,3.643-10.626,3.148s-1.966-2.419-1.127-2.845c-2.337,1.375-1.5,4.358,1.471,5.155a15.41,15.41,0,0,0,12.372-3.835c5.279-4.99,5.072-9.856,5.072-9.856a3.808,3.808,0,0,0-2.282-3.175C359.55,242.766,359.412,248.539,353.68,252.869Z" transform="translate(-126.891 -42.291)" opacity="0.15"/>
        <path id="Tracé_2249" data-name="Tracé 2249" d="M351.966,231.6a5.5,5.5,0,0,1,5,2.749c2.639,4-.467,5.677-.467,5.677-2.048.247-4.633-1.045-8.825.619-5.21,2.062-5.787,6.021-7.011,9.141-1.375,3.464-6.667,1.581-5.8-3.821s3.093-8.894,6.626-11.176a19.96,19.96,0,0,1,10.475-3.189Z" transform="translate(-129.068 -45.986)" fill="#455a64"/>
        <path id="Tracé_2250" data-name="Tracé 2250" d="M353.681,235.991c-3.67-.192-9.128.371-11.6,4.316-1.663,2.667-2.076,6.392-3.533,7.492a2.309,2.309,0,0,1-3.766-1.443c.083,4.413,4.646,5.732,5.883,2.557s1.8-7.079,7.011-9.141c4.124-1.663,6.777-.371,8.825-.619,0,0,2.832-1.54.77-5.182C357.846,235.386,357.338,236.2,353.681,235.991Z" transform="translate(-129.064 -45.097)" opacity="0.15"/>
        <path id="Tracé_2251" data-name="Tracé 2251" d="M284.4,323.277h0a8.254,8.254,0,0,0-12.482,10.8h0l52.7,60.992,12.509-10.8Z" transform="translate(-153.368 -12.709)" fill="#455a64"/>
        <path id="Tracé_2252" data-name="Tracé 2252" d="M278.077,341.988a.866.866,0,0,1-.632-.275,9.086,9.086,0,1,1,13.746-11.877.825.825,0,1,1-1.251,1.072,7.437,7.437,0,1,0-11.244,9.719.825.825,0,0,1-.082,1.168.784.784,0,0,1-.536.192Z" transform="translate(-151.43 -10.429)" fill="#37474f"/>
        <path id="Tracé_2253" data-name="Tracé 2253" d="M284.588,349.532a.825.825,0,0,1-.632-.289A9.086,9.086,0,1,1,297.7,337.367a.828.828,0,0,1-1.251,1.086,7.427,7.427,0,0,0-11.244,9.7.825.825,0,0,1-.083,1.168A.8.8,0,0,1,284.588,349.532Z" transform="translate(-148.991 -7.608)" fill="#37474f"/>
        <path id="Tracé_2254" data-name="Tracé 2254" d="M291.1,357.058a.866.866,0,0,1-.632-.275,9.086,9.086,0,1,1,13.746-11.877.825.825,0,0,1-1.251,1.072,7.437,7.437,0,1,0-11.244,9.719.825.825,0,0,1-.082,1.168.784.784,0,0,1-.536.193Z" transform="translate(-146.552 -4.784)" fill="#37474f"/>
        <path id="Tracé_2255" data-name="Tracé 2255" d="M297.608,364.6a.825.825,0,0,1-.632-.289,9.086,9.086,0,1,1,13.746-11.877.828.828,0,1,1-1.251,1.086,7.427,7.427,0,1,0-11.244,9.7.825.825,0,0,1-.082,1.168.8.8,0,0,1-.536.206Z" transform="translate(-144.114 -1.963)" fill="#37474f"/>
        <path id="Tracé_2256" data-name="Tracé 2256" d="M304.118,372.132a.825.825,0,0,1-.632-.289,9.086,9.086,0,1,1,13.746-11.877.828.828,0,0,1-1.251,1.086,7.437,7.437,0,1,0-11.244,9.719.825.825,0,0,1-.082,1.168.851.851,0,0,1-.536.193Z" transform="translate(-141.675 0.858)" fill="#37474f"/>
        <path id="Tracé_2257" data-name="Tracé 2257" d="M278.153,320.42a8.248,8.248,0,0,0-6.241,13.664h0l52.7,60.992,5.2-4.495c-16.1-18.021-42.215-47.273-49.253-55.287C270.167,323.472,274.4,321.314,278.153,320.42Z" transform="translate(-153.375 -12.711)" opacity="0.15"/>
        <path id="Tracé_2258" data-name="Tracé 2258" d="M407.856,377.315s-15.423-13.458-27.781-4.66A92.84,92.84,0,0,0,360.28,391.9l-33.293-29.431h0c-2.048-1.773-5.622-1.815-9.155.22-6.186,3.574-11.189,12.248-11.189,19.382a9.623,9.623,0,0,0,1.54,5.636h0s36.606,51.177,42.833,59.109,14.131,12.1,24.743,7.258,13.746-18.695,15.025-28.056,13.265-22.489,16.5-30.888C410.646,385.948,409.835,380.408,407.856,377.315Z" transform="translate(-139.608 2.548)" fill="#ff7f27"/>
        <path id="Tracé_2259" data-name="Tracé 2259" d="M395.813,373.629c-5.9.495-20.042,7.808-24.18,23.369a127.928,127.928,0,0,1-5.773,17.485,40.455,40.455,0,0,1-7.78,11.574c-4.88,5.182-10.722,1.65-15.781-2.543s-19.355-22.984-24.18-31.08c-3.533-5.856-4.646-10.3-3.684-14.557.33.44.674.866,1.017,1.251,4.756,5.279,13.842,9.622,20.771,4.33,3.382-2.571,3.656-6.626,2.543-10.639l-11.739-10.378c-2.048-1.773-5.622-1.815-9.155.22-.371.22-.729.454-1.086.687l-.371.275-.674.509-.44.371-.577.509-.467.44-.495.495-.481.509-.44.509c-.165.179-.33.371-.481.564l-.385.495c-.165.206-.33.426-.481.646s-.206.289-.3.426a23.837,23.837,0,0,0-4.509,12.949,9.623,9.623,0,0,0,1.54,5.636h0s36.606,51.177,42.833,59.109,14.131,12.1,24.743,7.258,13.746-18.695,15.025-28.056c.935-6.873,7.725-15.877,12.5-23.479Z" transform="translate(-139.593 2.537)" opacity="0.15"/>
        <path id="Tracé_2260" data-name="Tracé 2260" d="M393.93,391.886c3.478-9.141,2.667-14.681.687-17.774a37.294,37.294,0,0,0-6.516-4.33c-8.509-1.086-18.956,8.894-22.819,15.286s-5.938,14.117-8.729,24.427c-2.474,9.141-8.674,14.241-12.193,22.832-2.557,6.241-3.134,11-1.375,16.5,5.306,4.124,11.671,5.5,19.506,1.966,10.543-4.825,13.746-18.695,15.025-28.056S390.741,400.354,393.93,391.886Z" transform="translate(-126.37 5.751)" fill="#455a64"/>
        <path id="Tracé_2261" data-name="Tracé 2261" d="M366.765,387.84c-5.5,9.8-6.6,23.369-11.244,31.3s-11.684,16.715-10.873,24.331c.522,4.976,2.268,7.588,5.5,8.371a16.813,16.813,0,0,0,5.32,0l.715-.137a23,23,0,0,0,5.265-1.718c10.543-4.825,13.746-18.695,15.025-28.056s13.265-22.489,16.5-30.888c3.478-9.141,2.667-14.681.687-17.774C386.917,368.953,374.023,374.919,366.765,387.84Z" transform="translate(-125.392 6.567)" fill="#37474f"/>
        <path id="Tracé_2262" data-name="Tracé 2262" d="M346.614,382.09c-7.354,7.052-9.334,17.87-9.334,17.87A163.4,163.4,0,0,1,348.8,384.028Z" transform="translate(-128.128 10.392)" opacity="0.15"/>
        <path id="Tracé_2263" data-name="Tracé 2263" d="M354.709,402.479c-.206.591-.412,1.155-.619,1.718l23-2.928c.33-.577.674-1.168,1.031-1.759Z" transform="translate(-121.83 16.918)" fill="#263238"/>
        <path id="Tracé_2264" data-name="Tracé 2264" d="M351.973,408.5q-.536.894-1.113,1.773l23.74-3.01c.151-.564.33-1.127.536-1.7Z" transform="translate(-123.04 19.185)" fill="#263238"/>
        <path id="Tracé_2265" data-name="Tracé 2265" d="M345.322,427.992l23.08-2.942c.467-.577.893-1.182,1.375-1.8l-24.867,3.162a15.429,15.429,0,0,0,.412,1.581Z" transform="translate(-125.269 25.812)" fill="#263238"/>
        <path id="Tracé_2266" data-name="Tracé 2266" d="M345.2,420.849q-.247.838-.412,1.691l28.317-3.6c.22-.564.412-1.141.6-1.718Z" transform="translate(-125.314 23.553)" fill="#263238"/>
        <path id="Tracé_2267" data-name="Tracé 2267" d="M348.13,414.779c-.344.577-.674,1.168-.99,1.759l27.4-3.492c.124-.564.234-1.113.33-1.677Z" transform="translate(-124.434 21.361)" fill="#263238"/>
        <path id="Tracé_2268" data-name="Tracé 2268" d="M365.544,378.465c-.577.577-1.141,1.2-1.7,1.842l24.221-3.079a14.246,14.246,0,0,0-.206-1.608Z" transform="translate(-118.178 7.968)" fill="#263238"/>
        <path id="Tracé_2269" data-name="Tracé 2269" d="M360.733,384.911c-.316.577-.6,1.155-.893,1.746l28.867-3.67c.151-.577.289-1.141.4-1.677Z" transform="translate(-119.676 10.1)" fill="#263238"/>
        <path id="Tracé_2270" data-name="Tracé 2270" d="M358.146,390.918c-.179.564-.371,1.127-.536,1.7l28.73-3.656c.33-.6.632-1.182.907-1.746Z" transform="translate(-120.511 12.314)" fill="#263238"/>
        <path id="Tracé_2271" data-name="Tracé 2271" d="M356.407,396.708c-.165.564-.316,1.141-.467,1.691l25.76-3.272,1.168-1.787Z" transform="translate(-121.137 14.607)" fill="#263238"/>
        <path id="Tracé_2272" data-name="Tracé 2272" d="M314.267,357.449c-7.629,5.265-3.863,16.331.893,21.623s13.842,9.622,20.771,4.316c6.364-4.839,1.759-14.97-2.529-20.138C328.92,357.779,320.288,353.243,314.267,357.449Z" transform="translate(-138.38 0.544)" fill="#ff7f27"/>
        <path id="Tracé_2273" data-name="Tracé 2273" d="M314.267,357.449c-7.629,5.265-3.863,16.331.893,21.623s13.842,9.622,20.771,4.316c6.364-4.839,1.759-14.97-2.529-20.138C328.92,357.779,320.288,353.243,314.267,357.449Z" transform="translate(-138.38 0.544)" fill="#fff" opacity="0.7"/>
        <path id="Tracé_2274" data-name="Tracé 2274" d="M339.051,376.541c-.536,3.753-6.282,8.619-15.973,1.127s-9.911-18.709-6.722-21.458a9.624,9.624,0,0,0-2.089,1.058c-7.629,5.265-3.863,16.331.893,21.623s13.829,9.622,20.771,4.316A7.973,7.973,0,0,0,339.051,376.541Z" transform="translate(-138.38 0.697)" fill="#ff7f27"/>
        <path id="Tracé_2275" data-name="Tracé 2275" d="M339.051,376.541c-.536,3.753-6.282,8.619-15.973,1.127s-9.911-18.709-6.722-21.458a9.624,9.624,0,0,0-2.089,1.058c-7.629,5.265-3.863,16.331.893,21.623s13.829,9.622,20.771,4.316A7.973,7.973,0,0,0,339.051,376.541Z" transform="translate(-138.38 0.697)" opacity="0.05"/>
        <path id="Tracé_2276" data-name="Tracé 2276" d="M264.509,237.576V203.87H243.89v33.706h0a5.1,5.1,0,0,0,3.01,4.206,16.1,16.1,0,0,0,14.571,0,5.1,5.1,0,0,0,3.038-4.206Z" transform="translate(-163.114 -56.373)" fill="#455a64"/>
        <path id="Tracé_2277" data-name="Tracé 2277" d="M254.4,230.52a15.643,15.643,0,0,1-7.629-1.815,5.8,5.8,0,0,1-3.368-4.825.7.7,0,0,1,1.4,0,4.468,4.468,0,0,0,2.667,3.6,15.286,15.286,0,0,0,13.856,0,4.467,4.467,0,0,0,2.667-3.6.715.715,0,0,1,1.375,0,5.8,5.8,0,0,1-3.272,4.825,15.74,15.74,0,0,1-7.7,1.814Z" transform="translate(-163.297 -49.139)" fill="#37474f"/>
        <path id="Tracé_2278" data-name="Tracé 2278" d="M254.4,225.82a15.643,15.643,0,0,1-7.629-1.815,5.8,5.8,0,0,1-3.368-4.811.7.7,0,1,1,1.4,0,4.468,4.468,0,0,0,2.667,3.588,15.286,15.286,0,0,0,13.856,0,4.467,4.467,0,0,0,2.667-3.6.715.715,0,0,1,1.375,0,5.8,5.8,0,0,1-3.272,4.825,15.739,15.739,0,0,1-7.7,1.815Z" transform="translate(-163.297 -50.9)" fill="#37474f"/>
        <path id="Tracé_2279" data-name="Tracé 2279" d="M254.4,221.12a15.644,15.644,0,0,1-7.629-1.815,5.8,5.8,0,0,1-3.368-4.811.7.7,0,1,1,1.4,0,4.468,4.468,0,0,0,2.667,3.588,15.286,15.286,0,0,0,13.856,0,4.467,4.467,0,0,0,2.667-3.6.715.715,0,0,1,1.375,0,5.8,5.8,0,0,1-3.272,4.825,15.74,15.74,0,0,1-7.7,1.815Z" transform="translate(-163.297 -52.66)" fill="#37474f"/>
        <path id="Tracé_2280" data-name="Tracé 2280" d="M248.35,203.87h-4.44v33.706a5.1,5.1,0,0,0,3.01,4.206,9.744,9.744,0,0,0,1.375.674V220.393a62.011,62.011,0,0,0,16.207,1.526V203.87Z" transform="translate(-163.106 -56.373)" opacity="0.15"/>
        <path id="Tracé_2281" data-name="Tracé 2281" d="M220.37,179.572c0-25.527,20.619-42.022,46.215-42.022s46.2,16.5,46.2,42.022V207.5s-9.2,14.516-46.187,14.516-46.215-13.746-46.215-13.746Z" transform="translate(-171.925 -81.218)" fill="#ff7f27"/>
        <path id="Tracé_2282" data-name="Tracé 2282" d="M260.054,144.6a4.756,4.756,0,0,0-2.584,2.612,3.615,3.615,0,0,0,1.072,3.354,9.967,9.967,0,0,0,3.134,1.9,106.178,106.178,0,0,0,18.86,6.282c1.622.371,4.8,1.5,5.993,0,1.375-1.815.55-5.5-1.306-7.863a18.75,18.75,0,0,0-11-7.45,19.244,19.244,0,0,0-14.172,1.168Z" transform="translate(-158.053 -79.33)" fill="#fff" opacity="0.2"/>
        <path id="Tracé_2283" data-name="Tracé 2283" d="M307.013,175.64s-2.584,13.994-20.894,20.826-38.187,4.66-50.339,1.595c0,0,26.008,12.688,52.854.509C312.127,187.915,307.013,175.64,307.013,175.64Z" transform="translate(-166.152 -66.949)" opacity="0.2"/>
        <path id="Tracé_2284" data-name="Tracé 2284" d="M282.554,139.873a54.986,54.986,0,0,0-15.959-2.323c-25.527,0-46.215,16.5-46.215,42.022v28.606s3.78,5.636,16.166,9.7c-1.938-18.571-4.426-42.27,2.969-56.772C247.955,144.547,271.447,136.643,282.554,139.873Z" transform="translate(-171.921 -81.218)" opacity="0.15"/>
        <path id="Tracé_2285" data-name="Tracé 2285" d="M254.873,186.532h0A6.873,6.873,0,0,1,248,179.658v-3.175a6.873,6.873,0,0,1,6.873-6.873h0a6.873,6.873,0,0,1,6.873,6.873v3.175a6.873,6.873,0,0,1-6.873,6.873Z" transform="translate(-161.574 -69.208)" fill="#37474f"/>
        <path id="Tracé_2286" data-name="Tracé 2286" d="M279.682,178.52h0c-3.258,1.21-4.976-.3-5.595-1.993a18.021,18.021,0,0,1-.426-6.873,8.908,8.908,0,0,1,4.907-7.4h0a3.9,3.9,0,0,1,5.8,2.254,19.892,19.892,0,0,1,.344,6.172C284.549,173.324,282.913,177.118,279.682,178.52Z" transform="translate(-152.018 -72.179)" fill="#37474f"/>
        <path id="Tracé_2287" data-name="Tracé 2287" d="M318.578,174.984a7.932,7.932,0,0,0-4.784-2.364v4.124c0,6.873-4.509,13.664-13.526,18.874-15.684,9.045-39.864,10.227-57.734,3.547v-1.375a18.7,18.7,0,0,0-8.468-14.654c-4.674-2.749-8.454-.522-8.454,4.88a17.87,17.87,0,0,1-4.261-11.2c-1.581,0-3.67.852-3.67,6.873,0,7.492-.371,15.9,6.736,25.183,11.478,15,41.665,28.221,67.645,17.87,27.7-11,27.85-31.8,27.85-40.235C319.939,180.222,320.434,177.115,318.578,174.984Z" transform="translate(-172.933 -68.08)" fill="#ff7f27"/>
        <path id="Tracé_2288" data-name="Tracé 2288" d="M318.578,174.984a7.932,7.932,0,0,0-4.784-2.364v4.124c0,6.873-4.509,13.664-13.526,18.874-15.684,9.045-39.864,10.227-57.734,3.547v-1.375a18.7,18.7,0,0,0-8.468-14.654c-4.674-2.749-8.454-.522-8.454,4.88a17.87,17.87,0,0,1-4.261-11.2c-1.581,0-3.67.852-3.67,6.873,0,7.492-.371,15.9,6.736,25.183,11.478,15,41.665,28.221,67.645,17.87,27.7-11,27.85-31.8,27.85-40.235C319.939,180.222,320.434,177.115,318.578,174.984Z" transform="translate(-172.933 -68.08)" opacity="0.1"/>
        <path id="Tracé_2289" data-name="Tracé 2289" d="M276.109,227.12c-30.585-.467-45.363-16.358-49.184-23.506s-3.519-14.475-1.292-13.526v-3.244a17.87,17.87,0,0,1-4.261-11.2c-1.581,0-3.67.852-3.67,6.873,0,7.492-.371,15.9,6.736,25.183,11.478,15,41.665,28.221,67.645,17.87a49.679,49.679,0,0,0,17.142-10.832C302.185,220.04,290.845,227.34,276.109,227.12Z" transform="translate(-172.926 -66.949)" opacity="0.15"/>
        <path id="Tracé_2290" data-name="Tracé 2290" d="M230.59,180.89c2.9,2.254,5.086,7.038,5.086,16.4l2.048-1.2v-1.375a18.983,18.983,0,0,0-7.134-13.829Z" transform="translate(-168.096 -64.982)" opacity="0.2"/>
        <path id="Tracé_2291" data-name="Tracé 2291" d="M307.579,176.771c0,6.873-4.509,13.664-13.526,18.874-15.684,9.045-39.864,10.227-57.734,3.547l-2.048,1.2s25.018,13.746,53.253,2.584c26.352-10.378,25.788-24.413,24.812-27.987a7.932,7.932,0,0,0-4.784-2.364Z" transform="translate(-166.717 -68.08)" fill="#ff7f27"/>
        <path id="Tracé_2292" data-name="Tracé 2292" d="M307.579,176.771c0,6.873-4.509,13.664-13.526,18.874-15.684,9.045-39.864,10.227-57.734,3.547l-2.048,1.2s25.018,13.746,53.253,2.584c26.352-10.378,25.788-24.413,24.812-27.987a7.932,7.932,0,0,0-4.784-2.364Z" transform="translate(-166.717 -68.08)" fill="#fff" opacity="0.6"/>
        <path id="Tracé_2293" data-name="Tracé 2293" d="M229.692,183.75a7.725,7.725,0,0,1,3.492,6.048c0,2.227-1.567,3.134-3.492,2.021a7.7,7.7,0,0,1-3.492-6.048C226.2,183.544,227.753,182.636,229.692,183.75Z" transform="translate(-169.741 -64.089)" fill="#37474f"/>
        <path id="Tracé_2294" data-name="Tracé 2294" d="M229.359,183.744a3.011,3.011,0,0,0-1.718-.454,2.887,2.887,0,0,0-.55,1.842,7.725,7.725,0,0,0,3.492,6.048,3.01,3.01,0,0,0,1.718.454,2.887,2.887,0,0,0,.55-1.842,7.725,7.725,0,0,0-3.492-6.048Z" transform="translate(-169.408 -64.083)" fill="#455a64"/>
        <path id="Tracé_2295" data-name="Tracé 2295" d="M225.327,186.844a17.87,17.87,0,0,1-4.261-11.2,2.9,2.9,0,0,0-2.089.8,8.976,8.976,0,0,0,.495,6.873,14.049,14.049,0,0,0,5.856,6.763A18.3,18.3,0,0,1,225.327,186.844Z" transform="translate(-172.62 -66.949)" fill="#ff7f27"/>
        <path id="Tracé_2296" data-name="Tracé 2296" d="M225.327,186.844a17.87,17.87,0,0,1-4.261-11.2,2.9,2.9,0,0,0-2.089.8,8.976,8.976,0,0,0,.495,6.873,14.049,14.049,0,0,0,5.856,6.763A18.3,18.3,0,0,1,225.327,186.844Z" transform="translate(-172.62 -66.949)" fill="#fff" opacity="0.5"/>
        <path id="Tracé_2297" data-name="Tracé 2297" d="M251.815,150.933V126.19H245.78v24.743h0a1.526,1.526,0,0,0,.894,1.237,4.742,4.742,0,0,0,4.261,0A1.54,1.54,0,0,0,251.815,150.933Z" transform="translate(-162.405 -85.474)" fill="#455a64"/>
        <path id="Tracé_2298" data-name="Tracé 2298" d="M245.78,130.388a11.148,11.148,0,0,0,2.969.412,11.313,11.313,0,0,0,3.065-.44v-4.22H245.78Z" transform="translate(-162.405 -85.492)" opacity="0.15"/>
        <circle id="Ellipse_140" data-name="Ellipse 140" cx="11.189" cy="11.189" r="11.189" transform="translate(75.154 20.221)" fill="#ff7f27"/>
        <path id="Tracé_2299" data-name="Tracé 2299" d="M250.99,127.591c-8.069-1.375-10.846-8.591-7.286-14.351a11.189,11.189,0,1,0,18.475,8.5C261.7,125.282,258.151,128.856,250.99,127.591Z" transform="translate(-164.646 -90.325)" opacity="0.15"/>
        <path id="Tracé_2300" data-name="Tracé 2300" d="M248.368,118.138a16.5,16.5,0,0,1,4.935,2.337c.949.646,2.461,1.622,3.547.646s.8-2.749.385-3.863a7.121,7.121,0,0,0-2.887-3.368,7.588,7.588,0,0,0-5.32-.976c-1.155.206-3.052.8-3.368,2.131S247.131,117.781,248.368,118.138Z" transform="translate(-162.464 -90.494)" fill="#fff" opacity="0.3"/>
        <path id="Tracé_2301" data-name="Tracé 2301" d="M248.375,108.942A1.375,1.375,0,0,1,247,107.567V97.945a1.375,1.375,0,0,1,2.749,0v9.622A1.375,1.375,0,0,1,248.375,108.942Z" transform="translate(-161.948 -96.57)" fill="#e0e0e0"/>
        <path id="Tracé_2302" data-name="Tracé 2302" d="M255.764,110.621a1.368,1.368,0,0,1-1.182-2.062l4.77-8.358a1.375,1.375,0,1,1,2.378,1.375l-4.825,8.358A1.375,1.375,0,0,1,255.764,110.621Z" transform="translate(-159.179 -95.486)" fill="#e0e0e0"/>
        <path id="Tracé_2303" data-name="Tracé 2303" d="M261.187,115.058a1.375,1.375,0,0,1-.687-2.571l8.371-4.825a1.375,1.375,0,0,1,1.375,2.378l-8.371,4.839A1.374,1.374,0,0,1,261.187,115.058Z" transform="translate(-157.152 -92.473)" fill="#e0e0e0"/>
        <path id="Tracé_2304" data-name="Tracé 2304" d="M272.807,121.209h-9.622a1.375,1.375,0,1,1,0-2.749h9.622a1.375,1.375,0,1,1,0,2.749Z" transform="translate(-156.4 -88.369)" fill="#e0e0e0"/>
        <path id="Tracé_2305" data-name="Tracé 2305" d="M269.53,133.464a1.374,1.374,0,0,1-.687-.192l-8.371-4.825a1.375,1.375,0,1,1,1.375-2.378l8.358,4.825a1.376,1.376,0,0,1-.674,2.571Z" transform="translate(-157.178 -85.6)" fill="#e0e0e0"/>
        <path id="Tracé_2306" data-name="Tracé 2306" d="M229.377,133.386a1.375,1.375,0,0,1-.687-2.571l8.358-4.825a1.379,1.379,0,1,1,1.375,2.392l-8.358,4.825A1.374,1.374,0,0,1,229.377,133.386Z" transform="translate(-169.069 -85.617)" fill="#e0e0e0"/>
        <path id="Tracé_2307" data-name="Tracé 2307" d="M236.087,121.129h-9.622a1.375,1.375,0,1,1,0-2.749h9.622a1.375,1.375,0,1,1,0,2.749Z" transform="translate(-170.156 -88.399)" fill="#e0e0e0"/>
        <path id="Tracé_2308" data-name="Tracé 2308" d="M237.754,115.066a1.374,1.374,0,0,1-.687-.179l-8.358-4.825a1.379,1.379,0,1,1,1.375-2.392l8.358,4.825a1.376,1.376,0,0,1-.687,2.571Z" transform="translate(-169.06 -92.48)" fill="#e0e0e0"/>
        <path id="Tracé_2309" data-name="Tracé 2309" d="M242.249,110.566a1.375,1.375,0,0,1-1.2-.687l-4.825-8.3a1.375,1.375,0,1,1,2.378-1.375l4.839,8.358a1.375,1.375,0,0,1-1.2,2.062Z" transform="translate(-166.064 -95.486)" fill="#e0e0e0"/>
      </g>
    </g>
    <g id="freepik--speech-bubble--inject-50" transform="translate(412.714 85.424)">
      <g id="freepik--speech-bubble--inject-50-2" data-name="freepik--speech-bubble--inject-50">
        <g id="freepik--speech-bubble--inject-50-3" data-name="freepik--speech-bubble--inject-50">
          <path id="Tracé_2352" data-name="Tracé 2352" d="M426.158,85.913l-104.622,60.3a4.316,4.316,0,0,0-1.966,3.409v62.078a4.3,4.3,0,0,0,1.979,3.4l7.052,3.945a4.426,4.426,0,0,0,3.945,0l104.581-60.3a4.371,4.371,0,0,0,1.966-3.409V93.226a4.275,4.275,0,0,0-1.979-3.382l-6.983-3.959A4.385,4.385,0,0,0,426.158,85.913Z" transform="translate(-303.235 -85.424)" fill="#ff7f27"/>
          <path id="Tracé_2353" data-name="Tracé 2353" d="M327.61,216.146V154.068a4.344,4.344,0,0,1,1.966-3.409l104.581-60.3c1.086-.632,1.966-.124,1.966,1.127v62.092a4.371,4.371,0,0,1-1.966,3.409l-104.636,60.3C328.49,217.905,327.61,217.4,327.61,216.146Z" transform="translate(-300.223 -83.679)" fill="#ff7f27"/>
          <path id="Tracé_2354" data-name="Tracé 2354" d="M332.536,202.082a4.289,4.289,0,0,1-3.945,0l-7.052-3.945a4.261,4.261,0,0,1-1.979-3.382V132.677a4.125,4.125,0,0,1,.619-2.007l11,6.255a3.959,3.959,0,0,0-.577,1.938v62.078C330.626,202.082,331.437,202.755,332.536,202.082Z" transform="translate(-303.238 -68.474)" opacity="0.2"/>
          <path id="Tracé_2355" data-name="Tracé 2355" d="M438.946,92.858c-.151-.99-.962-1.375-1.938-.77l-104.636,60.3A3.986,3.986,0,0,0,331,153.864l-11-6.255a3.89,3.89,0,0,1,1.375-1.375L425.956,85.916a4.426,4.426,0,0,1,3.945,0l7.052,3.959a4.33,4.33,0,0,1,1.993,2.983Z" transform="translate(-303.074 -85.413)" fill="#fff" opacity="0.4"/>
          <path id="Tracé_2356" data-name="Tracé 2356" d="M324.063,151.82l-15.836,16.111a1.746,1.746,0,0,0,.289,2.749c.33.206,11,6.31,11,6.31L335.1,158.212Z" transform="translate(-307.687 -60.55)" fill="#ff7f27"/>
          <path id="Tracé_2357" data-name="Tracé 2357" d="M324.063,151.82l-15.836,16.111a1.746,1.746,0,0,0,.289,2.749c.33.206,11,6.31,11,6.31L335.1,158.212Z" transform="translate(-307.687 -60.55)" opacity="0.1"/>
          <path id="Tracé_2358" data-name="Tracé 2358" d="M332.063,156.43l-15.836,16.111a1.746,1.746,0,0,0,1.485,2.955l14.351-2.076C333.6,173.42,333.6,156.43,332.063,156.43Z" transform="translate(-304.676 -58.823)" fill="#ff7f27"/>
        </g>
        <path id="Tracé_2359" data-name="Tracé 2359" d="M335.155,154.186a28.575,28.575,0,0,1,.77-5.5,25.181,25.181,0,0,1,1.911-5.251,22,22,0,0,1,3.01-4.536,15.657,15.657,0,0,1,4.124-3.4,8.344,8.344,0,0,1,4.124-1.375,4.578,4.578,0,0,1,3.024,1.058,6.571,6.571,0,0,1,1.911,3.038,16,16,0,0,1,.77,4.646c0,1.375.069,2.749.069,4.316s0,2.942-.069,4.275a26.617,26.617,0,0,1-.77,5.5,24.666,24.666,0,0,1-1.911,5.279,21.31,21.31,0,0,1-3.024,4.55,16.055,16.055,0,0,1-4.124,3.354,8.495,8.495,0,0,1-4.124,1.375,4.357,4.357,0,0,1-3.01-1.058,6.874,6.874,0,0,1-1.911-3.065,16.992,16.992,0,0,1-.77-4.646v-4.22C335.155,157.059,335.114,155.588,335.155,154.186Zm13.746.4v-8.1a8.388,8.388,0,0,0-.33-2.034,3.162,3.162,0,0,0-.742-1.375,1.8,1.8,0,0,0-1.21-.481,3.23,3.23,0,0,0-1.691.55,6.391,6.391,0,0,0-1.691,1.375,8.466,8.466,0,0,0-1.21,1.883,10.38,10.38,0,0,0-.756,2.2,13.744,13.744,0,0,0-.33,2.406q0,.866-.082,1.9v4.33a12.993,12.993,0,0,0,.082,1.883,5.334,5.334,0,0,0,1.086,3.382c.632.687,1.595.66,2.9-.083a6.873,6.873,0,0,0,2.873-3.258,13.238,13.238,0,0,0,1.113-4.591Z" transform="translate(-297.403 -67.178)" fill="#455a64"/>
        <path id="Tracé_2360" data-name="Tracé 2360" d="M368.545,139.082v3.711a20.372,20.372,0,0,1-.687,4.742,22.643,22.643,0,0,1-1.718,4.55A19.245,19.245,0,0,1,363.487,156a13.623,13.623,0,0,1-3.464,2.859,7.19,7.19,0,0,1-3.464,1.127,3.89,3.89,0,0,1-2.639-.852,5.815,5.815,0,0,1-1.732-2.557,12.206,12.206,0,0,1-.687-3.945v-3.711a20.084,20.084,0,0,1,.66-4.715,21.3,21.3,0,0,1,1.746-4.564,19.827,19.827,0,0,1,2.653-3.945,13.418,13.418,0,0,1,3.464-2.887,7.052,7.052,0,0,1,3.464-1.113,4.124,4.124,0,0,1,2.667.88,5.5,5.5,0,0,1,1.718,2.543,12.455,12.455,0,0,1,.674,3.959Zm-11.4,10.062a3.12,3.12,0,0,0,.852,2.378,1.76,1.76,0,0,0,2.021-.137,5.168,5.168,0,0,0,2.021-2.2,8.084,8.084,0,0,0,.866-3.368c0-.509.069-1.072.069-1.677a11.463,11.463,0,0,0-.069-1.608,3.121,3.121,0,0,0-.866-2.378c-.509-.4-1.182-.344-2.021.137a5.168,5.168,0,0,0-2.021,2.2,8.068,8.068,0,0,0-.852,3.368,15.917,15.917,0,0,0-.069,1.677,13.846,13.846,0,0,0,.069,1.608Z" transform="translate(-291.273 -68.088)" fill="#455a64"/>
        <path id="Tracé_2361" data-name="Tracé 2361" d="M376.123,149.7a4.95,4.95,0,0,1-1.608.632,2.749,2.749,0,0,1-1.182,0,2.116,2.116,0,0,1-.852-.454,3.27,3.27,0,0,1-.564-.6v10.268a2.544,2.544,0,0,1-.247,1.072,1.635,1.635,0,0,1-.6.729l-3.945,2.282a.467.467,0,0,1-.591,0,1.072,1.072,0,0,1-.247-.784V131.227a2.544,2.544,0,0,1,.247-1.072,1.622,1.622,0,0,1,.591-.729l3.794-2.186a.44.44,0,0,1,.591,0,1.045,1.045,0,0,1,.261.77v1.113c.179-.426.385-.893.6-1.375a9.721,9.721,0,0,1,.811-1.375,9.036,9.036,0,0,1,1.2-1.375,8.564,8.564,0,0,1,1.746-1.278,5.979,5.979,0,0,1,2.653-.88,2.942,2.942,0,0,1,2.2.756,5.883,5.883,0,0,1,1.526,2.571,16,16,0,0,1,.632,4.55v3.918a25.033,25.033,0,0,1-.632,5.292,21.321,21.321,0,0,1-1.526,4.33,14.614,14.614,0,0,1-2.2,3.313,11.187,11.187,0,0,1-2.653,2.131Zm1.375-12.5a17.63,17.63,0,0,0,0-2.749,4.81,4.81,0,0,0-.715-2.529q-.632-.907-2.1,0a4.247,4.247,0,0,0-1.2,1.017,6.626,6.626,0,0,0-.825,1.375,8.689,8.689,0,0,0-.522,1.526,10.415,10.415,0,0,0-.247,1.553c0,.495-.069,1.072-.069,1.718a11.776,11.776,0,0,0,.069,1.65,5.728,5.728,0,0,0,.247,1.265,2.488,2.488,0,0,0,.522.921,1.2,1.2,0,0,0,.825.412,2.034,2.034,0,0,0,1.2-.344,4.811,4.811,0,0,0,2.1-2.461,10.845,10.845,0,0,0,.742-3.354Z" transform="translate(-285.737 -71.409)" fill="#455a64"/>
        <path id="Tracé_2362" data-name="Tracé 2362" d="M390.4,133.2c0-.357-.069-.591-.234-.687a1.059,1.059,0,0,0-.8,0,14.649,14.649,0,0,0-1.485.481c-.619.22-1.375.481-2.309.742a3.492,3.492,0,0,1-3.67-.577,6.406,6.406,0,0,1-1.278-4.564,11.163,11.163,0,0,1,.536-3.354,15.794,15.794,0,0,1,1.485-3.313,15.034,15.034,0,0,1,2.309-3,14.132,14.132,0,0,1,3-2.351,8.716,8.716,0,0,1,3.01-1.127,5.169,5.169,0,0,1,2.392.165,3.121,3.121,0,0,1,1.581,1.265,4.124,4.124,0,0,1,.646,2.062,2.2,2.2,0,0,1-.247,1.058,1.58,1.58,0,0,1-.6.729l-3.725,2.158c-.234.137-.412.165-.55.082a4.12,4.12,0,0,0-.495-.261,1.608,1.608,0,0,0-.729-.1,3.327,3.327,0,0,0-1.278.481,4.345,4.345,0,0,0-1.2,1.017,2.021,2.021,0,0,0-.495,1.375,1.182,1.182,0,0,0,.165.729c.1.137.316.165.619.1a13.218,13.218,0,0,0,1.375-.4l2.227-.756c1.9-.619,3.285-.426,4.124.577a6.474,6.474,0,0,1,1.306,4.385,11.381,11.381,0,0,1-.536,3.368,14.859,14.859,0,0,1-1.567,3.409,16.979,16.979,0,0,1-2.5,3.162,16.317,16.317,0,0,1-3.354,2.571,8.936,8.936,0,0,1-3.313,1.251,4.275,4.275,0,0,1-2.392-.275,3.271,3.271,0,0,1-1.5-1.375,4.551,4.551,0,0,1-.577-2.034,2.1,2.1,0,0,1,.234-1.045,1.719,1.719,0,0,1,.619-.742l3.876-2.241c.234-.137.4-.137.509,0a1.526,1.526,0,0,0,.412.344,1.278,1.278,0,0,0,.715.165,3.409,3.409,0,0,0,1.375-.55,6.1,6.1,0,0,0,1.622-1.375A2.283,2.283,0,0,0,390.4,133.2Z" transform="translate(-280.469 -74.202)" fill="#455a64"/>
        <path id="Tracé_2363" data-name="Tracé 2363" d="M399.707,125.17a2.433,2.433,0,0,1-.247,1.058,1.484,1.484,0,0,1-.591.729l-3.959,2.282a.44.44,0,0,1-.591,0,1.031,1.031,0,0,1-.247-.77V107.63a2.433,2.433,0,0,1,.247-1.058,1.554,1.554,0,0,1,.591-.729l3.959-2.282a.44.44,0,0,1,.591,0,1.031,1.031,0,0,1,.247.77Zm0,10.378a2.473,2.473,0,0,1-.247,1.058,1.553,1.553,0,0,1-.591.729l-3.959,2.282a.44.44,0,0,1-.591,0,1.031,1.031,0,0,1-.247-.77v-4.88a2.475,2.475,0,0,1,.247-1.058,1.554,1.554,0,0,1,.591-.729l3.959-2.282a.44.44,0,0,1,.591,0,1.031,1.031,0,0,1,.247.77Z" transform="translate(-275.327 -78.672)" fill="#455a64"/>
      </g>
    </g>
  </g>
</svg>
