<svg xmlns="http://www.w3.org/2000/svg" width="471.154" height="507.236" viewBox="0 0 471.154 507.236">
  <g id="Dog_paw-pana" data-name="Dog paw-pana" transform="translate(-29.8 -38.065)">
    <g id="freepik--background-simple--inject-114" transform="translate(39.836 38.065)">
      <path id="Tracé_1798" data-name="Tracé 1798" d="M61.128,247.3,63.1,249.42c16.679,17.9,41.782,25.589,65.1,19.2a63.483,63.483,0,0,0,8.819-3.128c20.575-9.034,35.944-29.259,39.377-51.742,2.021-13.212.373-27.61,7.024-39.151,8.65-15.019,27.723-19.389,44.684-22.37s36.034-7.4,44.616-22.449c5.375-9.44,5.262-21.23,2.484-31.788C267.836,70.04,242.9,48.866,215.247,41.526s-57.365-2.36-83.564,8.853C94.893,66.087,62.8,94.928,47.668,132.306S36.206,215.508,61.128,247.3Z" transform="translate(-38.688 -38.065)" fill="#f5f5f5"/>
      <circle id="Ellipse_124" data-name="Ellipse 124" cx="40.596" cy="40.596" r="40.596" transform="translate(346.037 16.301)" fill="#f5f5f5"/>
    </g>
    <g id="freepik--Table--inject-114" transform="translate(29.8 544.714)">
      <path id="Tracé_1799" data-name="Tracé 1799" d="M500.954,456.824c0,.158-105.475.294-235.566.294S29.8,456.982,29.8,456.824s105.453-.294,235.588-.294S500.954,456.654,500.954,456.824Z" transform="translate(-29.8 -456.53)" fill="#263238"/>
    </g>
    <g id="freepik--paw-2--inject-114" transform="translate(156.98 400.584)">
      <path id="Tracé_1800" data-name="Tracé 1800" d="M227.306,360.994a21.885,21.885,0,0,0-4.732-6.346s-.881-10.276-4.946-16.34-10.163-10.965-17.481-6.335l.982-.565c-3.693-2.834-9.632-3.139-14.025-1.57a18.542,18.542,0,0,0-6,3.388,43.453,43.453,0,0,0-8.458,9.96s-7.159.452-9.994,11.755a205.213,205.213,0,0,0-3.614,21.3s.847,20.722,2.078,26.966-2.8,19.434-3.026,22.088-1.479,4.664-3.252,15.1-4.912,32.646-4.912,32.646h63.712s1.592-28.875,1.434-32.037a117.327,117.327,0,0,1,2.484-22.585c1.762-7.306,8.582-30.343,8.582-30.343C228.638,377.277,229.372,365.07,227.306,360.994Z" transform="translate(-149.93 -328.896)" fill="#455a64"/>
      <g id="Groupe_122" data-name="Groupe 122" transform="translate(13.53 27.118)" opacity="0.3">
        <path id="Tracé_1801" data-name="Tracé 1801" d="M176.217,353.317l-8.074-.406a17.537,17.537,0,0,0-5.838,8.277,4.765,4.765,0,0,0,0,3.794c.824,1.468,2.767,1.829,4.449,1.886a16.126,16.126,0,0,0,7.487-1.333,8.7,8.7,0,0,0,4.811-5.646,6,6,0,0,0-2.834-6.572Z" transform="translate(-161.911 -352.91)"/>
      </g>
      <g id="Groupe_123" data-name="Groupe 123" transform="translate(48.718 16.771)" opacity="0.3">
        <path id="Tracé_1802" data-name="Tracé 1802" d="M210.087,347.488l-2.823-2.259-9.7-1.366a4.631,4.631,0,0,0-2.326.068,3.478,3.478,0,0,0-1.841,2.258,7.5,7.5,0,0,0,1.931,7.543,9.8,9.8,0,0,0,7.543,2.586,8.864,8.864,0,0,0,5.872-2.654A6.087,6.087,0,0,0,210.087,347.488Z" transform="translate(-193.072 -343.747)"/>
      </g>
      <path id="Tracé_1803" data-name="Tracé 1803" d="M202.137,333.545a5.839,5.839,0,0,1,3.772.836c2.066,1.242,5.578,3.873,5.5,7.476-.1,5.093-.248,11.044-6.3,12.422s-13.551-2.834-10.276-11.53C197.383,335.973,199.563,333.895,202.137,333.545Z" transform="translate(-144.23 -328.3)" fill="#263238"/>
      <g id="Groupe_124" data-name="Groupe 124" transform="translate(31.025 11.285)" opacity="0.3">
        <path id="Tracé_1804" data-name="Tracé 1804" d="M191.2,344.344l-4.167-5a17.629,17.629,0,0,0-4.133-.452,5.883,5.883,0,0,0-3.806,1.457,6.075,6.075,0,0,0-1.671,4.133,8.853,8.853,0,0,0,3.58,7.679,7.351,7.351,0,0,0,8.3.056,6.324,6.324,0,0,0,1.9-7.871Z" transform="translate(-177.405 -338.889)"/>
      </g>
      <path id="Tracé_1805" data-name="Tracé 1805" d="M188.161,331.234a5.646,5.646,0,0,1,6.2,1.129,2.044,2.044,0,0,1,.542.824c.327,1.253-.463,11.021-5.556,16.024s-11.857-1.253-11.292-6.38C178.46,338.642,183.293,333.289,188.161,331.234Z" transform="translate(-146.3 -328.654)" fill="#263238"/>
      <path id="Tracé_1806" data-name="Tracé 1806" d="M172.785,345.452s-3.388-3.478-6.775,2.7-4.517,15.324-.96,15.934,11.733-1.378,12.049-6.335S174.784,346.547,172.785,345.452Z" transform="translate(-148.258 -326.882)" fill="#263238"/>
      <g id="Groupe_125" data-name="Groupe 125" transform="translate(57.882 33.476)" opacity="0.3">
        <path id="Tracé_1807" data-name="Tracé 1807" d="M212.912,363.735a65.8,65.8,0,0,0-6.629-4.517,3.806,3.806,0,0,0-1.762-.678c-1.412,0-2.405,1.389-2.834,2.722a9.734,9.734,0,0,0,.779,7.9,8.345,8.345,0,0,0,6.775,4.1,7.34,7.34,0,0,0,6.775-3.9Z" transform="translate(-201.187 -358.54)"/>
      </g>
      <path id="Tracé_1808" data-name="Tracé 1808" d="M219.915,362.214a8.774,8.774,0,0,0-13.607-7.408c-.237.169-.474.35-.7.542-3.388,2.959-4.009,8.9-1.061,12s9.3,8.65,13.743.486A12.625,12.625,0,0,0,219.915,362.214Z" transform="translate(-143.115 -325.734)" fill="#263238"/>
      <g id="Groupe_126" data-name="Groupe 126" transform="translate(22.262 55.367)" opacity="0.3">
        <path id="Tracé_1809" data-name="Tracé 1809" d="M190.034,378.834A23.488,23.488,0,0,0,174,379.963a7.9,7.9,0,0,0-3.749,2.925c-1.66,2.88.316,6.775,3.275,8.277s6.482,1.276,9.779.881,6.775-.9,9.881.147a32.232,32.232,0,0,1,5.195,2.665,10.163,10.163,0,0,0,5.533,1.558,4.517,4.517,0,0,0,4.2-3.388Z" transform="translate(-169.645 -377.926)"/>
      </g>
      <path id="Tracé_1810" data-name="Tracé 1810" d="M212.7,380.881a14.16,14.16,0,0,0-5.567-5.816c-2.258-1.321-5.714-3.693-7.5-6.775-2.778-4.743-2.146-8.334-7.747-8.639s-5.228,4.585-12.072,6.832c-10.942,3.58-13.336,6.222-14.387,11.044s.09,7.193,2.812,10.378,11.812-1.694,19.1-1.434,12.783,7.826,17.2,9.983,8.7-2.259,9.4-9.169a11.789,11.789,0,0,0-1.231-6.4Z" transform="translate(-147.976 -324.922)" fill="#263238"/>
      <path id="Tracé_1811" data-name="Tracé 1811" d="M185.206,442.9c2.484-.418,5.307-1.129,6.448-3.309a5.759,5.759,0,0,0-.474-5.364c-2.146-3.76-6.775-5.646-11.078-5.4a11.293,11.293,0,0,0-6.154,2.1,7.408,7.408,0,0,0-3.026,5.646,4.4,4.4,0,0,0,2.123,4.02,8.921,8.921,0,0,0,4.031.406,13.551,13.551,0,0,1,6.9,1.818" transform="translate(-147.218 -315.982)" fill="#263238"/>
      <path id="Tracé_1812" data-name="Tracé 1812" d="M170.79,410.06a8.682,8.682,0,0,1,1.423-.248c.937-.147,2.258-.384,4-.79a44.638,44.638,0,0,0,13.235-5.511l1.276-.791-.937,1.129-4.969,6.279a2.089,2.089,0,0,0-.4.836.486.486,0,0,0,.294.553,4.089,4.089,0,0,0,1.954-.35,22.393,22.393,0,0,0,8.176-4.743l1.423-1.3-.971,1.66a29.822,29.822,0,0,0-2.642,5.883,29.14,29.14,0,0,0-.8,2.936,10.161,10.161,0,0,0-.361,2.823,1.761,1.761,0,0,0,.44,1.129,1.129,1.129,0,0,0,1.05.271,6.3,6.3,0,0,0,2.123-1.287c1.321-1.039,2.507-2.044,3.546-3a59.777,59.777,0,0,0,4.652-4.811l1.129-1.366a3.124,3.124,0,0,1,.429-.463,2.789,2.789,0,0,1-.339.519,16.949,16.949,0,0,1-1.129,1.445,52.713,52.713,0,0,1-4.517,4.957c-1.039.982-2.258,2.021-3.535,3.083a6.685,6.685,0,0,1-2.258,1.412,1.649,1.649,0,0,1-1.5-.4,2.259,2.259,0,0,1-.61-1.434,11.134,11.134,0,0,1,.35-2.992c.215-.982.474-1.987.8-3a30.491,30.491,0,0,1,2.676-6l.44.361a23.282,23.282,0,0,1-4.2,3.049,22.734,22.734,0,0,1-4.189,1.818l-1.129.316a2.1,2.1,0,0,1-1.242,0,1.062,1.062,0,0,1-.666-1.129,2.518,2.518,0,0,1,.5-1.129l5.025-6.267.339.384a42.843,42.843,0,0,1-13.438,5.375,38.114,38.114,0,0,1-4.043.644c-.474.056-.836.068-1.073.09Z" transform="translate(-147.234 -319.354)" fill="#263238"/>
    </g>
    <g id="freepik--paw-1--inject-114" transform="translate(49.525 348.768)">
      <path id="Tracé_1813" data-name="Tracé 1813" d="M119.237,315.127a26.9,26.9,0,0,1,6.775,6.775c3.241,4.573,4.811,19.683,4.031,33.38,0,0-3.388,29.643-4.031,38.97a151.125,151.125,0,0,0,1.592,28.231c.824,3.839,4.167,55.649,4.167,55.649H57.422s-.824-30.7-.813-43.86,1.129-15.9.813-19.2,1.852-20.326-.847-27.678-7.837-32.624-7.837-32.624-3.309-16.374,0-26.842,5.138-6.866,5.138-6.866,6.64-16.419,12.286-23.545a22.381,22.381,0,0,1,6.369-5.409,16,16,0,0,1,15.809-.09h0c7.69-7.2,15.809-2.45,21.828,4.122S119.237,315.127,119.237,315.127Z" transform="translate(-47.268 -282.311)" fill="#ff725e"/>
      <g id="Groupe_127" data-name="Groupe 127" transform="translate(1.266 44.311)" opacity="0.3">
        <path id="Tracé_1814" data-name="Tracé 1814" d="M63.974,322.25a7.464,7.464,0,0,1,4.822,7.442,10.773,10.773,0,0,1-4.709,7.9,19.9,19.9,0,0,1-8.9,3.2c-2.078.282-4.517.248-5.849-1.378a5.872,5.872,0,0,1-.768-4.653A21.693,21.693,0,0,1,54,323.4" transform="translate(-48.389 -322.25)"/>
      </g>
      <g id="Groupe_128" data-name="Groupe 128" transform="translate(40.995 25.656)" opacity="0.3">
        <path id="Tracé_1815" data-name="Tracé 1815" d="M104.382,307.909a7.566,7.566,0,0,1-.373,7.78,10.987,10.987,0,0,1-6.651,4.461,12.083,12.083,0,0,1-9.768-1.6,9.271,9.271,0,0,1-3.941-8.842,4.3,4.3,0,0,1,1.8-3.072,5.759,5.759,0,0,1,2.834-.576l12.173-.327" transform="translate(-83.571 -305.73)"/>
      </g>
      <path id="Tracé_1816" data-name="Tracé 1816" d="M94.383,292.17s9.328,2.405,10.265,8.661,2,13.551-5.138,16.532-17.131-.666-15-11.993S89.844,292.306,94.383,292.17Z" transform="translate(-42.492 -281.826)" fill="#263238"/>
      <g id="Groupe_129" data-name="Groupe 129" transform="translate(18.496 22.23)" opacity="0.3">
        <path id="Tracé_1817" data-name="Tracé 1817" d="M80.566,308.042a7.9,7.9,0,0,1-.678,10.039,9.158,9.158,0,0,1-10.163,1.649,11,11,0,0,1-5.985-8.661,7.6,7.6,0,0,1,1.186-5.409,7.318,7.318,0,0,1,4.336-2.62,21.83,21.83,0,0,1,5.149-.3" transform="translate(-63.647 -302.696)"/>
      </g>
      <path id="Tracé_1818" data-name="Tracé 1818" d="M77.809,291.11s4.133,1.2,4.8,2.665,1.728,13.551-3.467,20.789-14.793.937-15.2-5.454S70.875,292.714,77.809,291.11Z" transform="translate(-45.115 -281.963)" fill="#263238"/>
      <path id="Tracé_1819" data-name="Tracé 1819" d="M55.829,312.532s-2.665-2.8-5.466,5.454-2.439,19.728,2.078,19.728,14.1-4.122,13.449-10.254S58.461,313.458,55.829,312.532Z" transform="translate(-47.098 -279.254)" fill="#263238"/>
      <g id="Groupe_130" data-name="Groupe 130" transform="translate(55.939 44.679)" opacity="0.3">
        <path id="Tracé_1820" data-name="Tracé 1820" d="M116.076,333.5a9.124,9.124,0,0,1-7.43,6.177,10.389,10.389,0,0,1-9.09-3.625,12.139,12.139,0,0,1-2.609-9.542c.26-1.739,1.129-3.693,2.913-3.93a4.789,4.789,0,0,1,2.258.452,83.107,83.107,0,0,1,9.034,4.144" transform="translate(-96.805 -322.576)"/>
      </g>
      <path id="Tracé_1821" data-name="Tracé 1821" d="M111.668,314.13c1.2-.135,10.66,6.267,6.934,17.187s-12.67,5.466-16.939,2.258-5.059-10.931-1.2-14.929S111.668,314.13,111.668,314.13Z" transform="translate(-40.715 -278.988)" fill="#263238"/>
      <g id="Groupe_131" data-name="Groupe 131" transform="translate(17.245 76.293)" opacity="0.3">
        <path id="Tracé_1822" data-name="Tracé 1822" d="M62.89,359.83a9.735,9.735,0,0,1,3.975-4.381,29.27,29.27,0,0,1,19.412-4.7l25.1,13.551a5.579,5.579,0,0,1-4.427,5.059,12.546,12.546,0,0,1-7.114-.757,41.254,41.254,0,0,0-6.911-2.191c-4.088-.632-8.176.711-12.139,1.886s-8.221,2.191-12.162.96S61.445,363.692,62.89,359.83Z" transform="translate(-62.539 -350.571)"/>
      </g>
      <path id="Tracé_1823" data-name="Tracé 1823" d="M109.022,343.782c.666.8,7.464,4.754,8,12.659.576,8.582-3.738,14.929-9.6,13.2s-14.195-9.9-23.127-8.673S65.2,370,61.2,366.705s-5.872-6-5.646-12.128,2.665-9.87,15.335-16.532c7.9-4.167,6.425-10.073,13.359-10.875s6.9,3.738,11.292,8.977S109.022,343.782,109.022,343.782Z" transform="translate(-46.199 -277.315)" fill="#263238"/>
      <path id="Tracé_1824" data-name="Tracé 1824" d="M111.862,314.776c.836-2.609-.181-6.606-1.784-9.271a.982.982,0,0,0-1.739.1,18.847,18.847,0,0,0-1.355,9.4" transform="translate(-39.565 -280.165)" fill="#e0e0e0"/>
      <path id="Tracé_1825" data-name="Tracé 1825" d="M107.039,315.032a8.3,8.3,0,0,1-.3-3.139,18.937,18.937,0,0,1,.44-3.388c.147-.632.327-1.287.553-1.965.124-.328.26-.666.407-1.005a1.254,1.254,0,0,1,1.129-.745,1.321,1.321,0,0,1,1.129.678c.181.316.35.644.508.96a14.526,14.526,0,0,1,.768,1.9,14.2,14.2,0,0,1,.689,3.388,5.5,5.5,0,0,1-.463,3.128,13.662,13.662,0,0,0,0-3.094,15.5,15.5,0,0,0-.779-3.241,16.6,16.6,0,0,0-.779-1.818c-.147-.3-.316-.61-.5-.915a.655.655,0,0,0-.632-.384.666.666,0,0,0-.61.4c-.147.316-.271.632-.4.96a19.57,19.57,0,0,0-.565,1.886,22.584,22.584,0,0,0-.553,3.32C106.938,313.835,107.107,315.021,107.039,315.032Z" transform="translate(-39.587 -280.195)" fill="#263238"/>
      <path id="Tracé_1826" data-name="Tracé 1826" d="M108.793,305.69a9.576,9.576,0,0,1,.644,8.548c-.169,0,.294-1.954.1-4.3S108.635,305.758,108.793,305.69Z" transform="translate(-39.319 -280.079)" fill="#263238"/>
      <path id="Tracé_1827" data-name="Tracé 1827" d="M92.512,293.776c.824-2.609-.181-6.606-1.8-9.271a.982.982,0,0,0-1.739.1,18.723,18.723,0,0,0-1.344,9.4" transform="translate(-42.067 -282.879)" fill="#e0e0e0"/>
      <path id="Tracé_1828" data-name="Tracé 1828" d="M87.66,294.03a7.769,7.769,0,0,1-.3-3.139,19.639,19.639,0,0,1,.429-3.388,17.3,17.3,0,0,1,.565-1.965c.113-.339.248-.678.4-1.016A1.276,1.276,0,0,1,91,284.454c.192.328.361.644.519.96a18.554,18.554,0,0,1,.768,1.9,14.126,14.126,0,0,1,.678,3.388,5.567,5.567,0,0,1-.452,3.128,15.131,15.131,0,0,0,0-3.094,14.828,14.828,0,0,0-.779-3.241,16.473,16.473,0,0,0-.768-1.818c-.158-.3-.327-.61-.5-.915a.711.711,0,0,0-.644-.384.689.689,0,0,0-.61.4c-.136.316-.271.644-.384.96a18.969,18.969,0,0,0-.576,1.9,22.405,22.405,0,0,0-.553,3.309C87.592,292.833,87.75,294.019,87.66,294.03Z" transform="translate(-42.093 -282.907)" fill="#263238"/>
      <path id="Tracé_1829" data-name="Tracé 1829" d="M89.443,284.69a9.621,9.621,0,0,1,.632,8.548c-.169,0,.294-1.942.1-4.3S89.274,284.758,89.443,284.69Z" transform="translate(-41.82 -282.793)" fill="#263238"/>
      <path id="Tracé_1830" data-name="Tracé 1830" d="M80.572,293c.836-2.609-.181-6.595-1.784-9.271a.982.982,0,0,0-1.739.1,18.892,18.892,0,0,0-1.355,9.407" transform="translate(-43.609 -282.979)" fill="#e0e0e0"/>
      <path id="Tracé_1831" data-name="Tracé 1831" d="M75.7,293.263a8.446,8.446,0,0,1-.3-3.151,18.824,18.824,0,0,1,.44-3.388c.147-.632.327-1.3.553-1.965.124-.339.26-.666.407-1.016a1.253,1.253,0,0,1,1.129-.734,1.3,1.3,0,0,1,1.129.678c.181.316.35.632.508.96a15.007,15.007,0,0,1,1.457,5.274,5.319,5.319,0,0,1-.463,3.128,13.551,13.551,0,0,0,0-3.083,15.427,15.427,0,0,0-.779-3.252,17.443,17.443,0,0,0-.768-1.818q-.237-.463-.508-.915a.678.678,0,0,0-.632-.384.666.666,0,0,0-.61.4c-.135.316-.271.644-.4.96a19.761,19.761,0,0,0-.565,1.9,22.582,22.582,0,0,0-.553,3.32C75.631,292.033,75.8,293.252,75.7,293.263Z" transform="translate(-43.637 -283.01)" fill="#263238"/>
      <path id="Tracé_1832" data-name="Tracé 1832" d="M77.483,283.92a9.542,9.542,0,0,1,.644,8.537c-.169,0,.294-1.942.1-4.3S77.325,284.01,77.483,283.92Z" transform="translate(-43.366 -282.892)" fill="#263238"/>
      <path id="Tracé_1833" data-name="Tracé 1833" d="M60.572,314.116c.836-2.609-.181-6.606-1.8-9.271a.971.971,0,0,0-1.728.1,18.847,18.847,0,0,0-1.355,9.4" transform="translate(-46.194 -280.25)" fill="#e0e0e0"/>
      <path id="Tracé_1834" data-name="Tracé 1834" d="M55.67,314.4a7.769,7.769,0,0,1-.3-3.139,18.7,18.7,0,0,1,.44-3.388,15.675,15.675,0,0,1,.553-1.965c.124-.339.248-.678.407-1.016a1.265,1.265,0,0,1,2.258-.056c.192.316.361.632.519.949a17.137,17.137,0,0,1,.768,1.9,13.551,13.551,0,0,1,.678,3.388,5.454,5.454,0,0,1-.384,3.071,14.466,14.466,0,0,0,0-3.083,15.425,15.425,0,0,0-.779-3.252,16.6,16.6,0,0,0-.779-1.818c-.147-.3-.316-.61-.5-.915a.689.689,0,0,0-.632-.384.655.655,0,0,0-.61.4c-.147.316-.282.644-.4.96a16.307,16.307,0,0,0-.565,1.9,21,21,0,0,0-.553,3.309C55.6,313.2,55.76,314.39,55.67,314.4Z" transform="translate(-46.227 -280.275)" fill="#263238"/>
      <path id="Tracé_1835" data-name="Tracé 1835" d="M57.453,305.07a9.644,9.644,0,0,1,.644,8.537c-.169,0,.282-1.942.1-4.3S57.283,305.138,57.453,305.07Z" transform="translate(-45.955 -280.159)" fill="#263238"/>
      <path id="Tracé_1836" data-name="Tracé 1836" d="M93.682,430.129c2.947-1.028,6.279-2.417,7.216-5.4a7.227,7.227,0,0,0-1.705-6.471c-3.388-4.156-9.452-5.511-14.68-4.3a13.957,13.957,0,0,0-7.1,3.851,9.181,9.181,0,0,0-2.552,7.543,5.432,5.432,0,0,0,3.388,4.517c1.615.508,3.388,0,5.025-.339a16.938,16.938,0,0,1,8.831.8" transform="translate(-43.711 -266.141)" fill="#263238"/>
      <path id="Tracé_1837" data-name="Tracé 1837" d="M69.18,393.059a2.257,2.257,0,0,1,.429-.158l1.276-.418c1.129-.373,2.733-.926,4.743-1.773a55.828,55.828,0,0,0,15.1-9.5l1.129-.994-.734,1.31-4.788,8.729a2.507,2.507,0,0,0-.316,1.129.655.655,0,0,0,.531.689,5.014,5.014,0,0,0,2.36-.847,27.022,27.022,0,0,0,4.641-3.026,28.161,28.161,0,0,0,4.427-4.517l1.129-1.513-.678,1.8a37.56,37.56,0,0,0-2.021,7.769,36.578,36.578,0,0,0-.361,3.783,12.647,12.647,0,0,0,.147,3.546,2.259,2.259,0,0,0,.8,1.321,1.468,1.468,0,0,0,1.4.124,7.9,7.9,0,0,0,2.349-2.044c1.4-1.547,2.642-3.038,3.715-4.427a71.764,71.764,0,0,0,4.686-6.866l1.129-1.942a4.085,4.085,0,0,1,.407-.655,3.872,3.872,0,0,1-.316.711c-.226.463-.576,1.129-1.05,1.987a62.826,62.826,0,0,1-4.517,6.99c-1.061,1.423-2.258,2.936-3.693,4.517a8.074,8.074,0,0,1-2.507,2.191,1.965,1.965,0,0,1-1.863-.158,2.823,2.823,0,0,1-1.016-1.592,13.235,13.235,0,0,1-.192-3.715,28.045,28.045,0,0,1,.35-3.839,38.4,38.4,0,0,1,2.033-7.9l.5.282a27.9,27.9,0,0,1-4.517,4.6,27.541,27.541,0,0,1-4.743,3.094c-.418.226-.836.418-1.253.61a2.552,2.552,0,0,1-1.479.294,1.265,1.265,0,0,1-1.005-1.242,3.388,3.388,0,0,1,.373-1.411l4.856-8.718.407.316a53.785,53.785,0,0,1-15.29,9.406,47.587,47.587,0,0,1-4.8,1.649c-.565.158-1.005.26-1.31.339S69.191,393.082,69.18,393.059Z" transform="translate(-44.436 -270.446)" fill="#263238"/>
    </g>
    <g id="freepik--Dog--inject-114" transform="translate(173.229 170.133)">
      <path id="Tracé_1838" data-name="Tracé 1838" d="M483.157,447.077l-31.833-82.638-6.866,19.6L386.8,258.606l-29.71-61.792L302.783,173.1l-61.747,21.862s-15.595,41.782-17.469,51.776,4.991,43.069,4.991,43.069l17.469,41.782,11.1,60.143s-4.235,32.85-3.636,49.687,8.5,51.674,8.5,51.674H493.14Z" transform="translate(-174.392 -118.58)" fill="#ff725e"/>
      <g id="Groupe_132" data-name="Groupe 132" transform="translate(81.178 197.73)" opacity="0.5">
        <path id="Tracé_1839" data-name="Tracé 1839" d="M403.426,454.084c.339-32.929-6.7-57.478-15.911-82.028a9.576,9.576,0,0,0-6.312-5.511c-5.206-1.445-9.745,3.478-13.28,7.543s-9.587,7.995-13.844,4.686c-4.732-3.681-1.265-11.168,2.428-15.9,7.137-9.124,14.319-18.452,18.531-29.247s8.492-23.432,3.139-33.708c-11.417,14.951-27.87,27.971-55.649,36.757-23.59,7.622-50.59,5.714-70.657,0,14.68,8.368,28.3,20.722,40.653,32.24,4.788,4.517,9.768,10.92,7.216,16.939-1.908,4.517-7.284,6.471-12.162,6.99s-10.005.181-14.477,2.259c-7.848,3.568-10.976,13.246-10.92,21.873.1,19.875,7.058,45.565,21.636,59.85H402.635C404.047,469.464,403.335,458.7,403.426,454.084Z" transform="translate(-251.87 -299.92)" fill="#fff"/>
      </g>
      <path id="Tracé_1840" data-name="Tracé 1840" d="M366.93,309.3a3.711,3.711,0,0,1-.463.282l-1.366.7c-.6.294-1.333.666-2.157,1.129s-1.8.949-2.812,1.57c-2.066,1.2-4.449,2.744-7.013,4.6a79.689,79.689,0,0,0-14.816,14.1,82.765,82.765,0,0,0-4.935,6.775c-.678.982-1.208,1.931-1.705,2.733s-.9,1.513-1.231,2.1l-.768,1.332c-.181.3-.282.463-.3.452a2.406,2.406,0,0,1,.2-.5l.666-1.4c.294-.6.666-1.332,1.129-2.157s.982-1.784,1.637-2.789a73.716,73.716,0,0,1,4.867-6.888,81.194,81.194,0,0,1,6.967-7.622,82.421,82.421,0,0,1,7.9-6.583,72.1,72.1,0,0,1,7.125-4.517c1.028-.61,2.01-1.073,2.857-1.5s1.6-.779,2.258-1.039l1.423-.6a2.563,2.563,0,0,1,.531-.181Z" transform="translate(-160.677 -100.977)" fill="#263238"/>
      <path id="Tracé_1841" data-name="Tracé 1841" d="M404.75,244.957a66.964,66.964,0,0,0-33.211-37.931s-4.178-6.29-17.5-18.7-37.739-20.993-55.626-22.709c-.711-.068-1.434-.113-2.179-.135-17.944-.463-45.057,12.647-45.057,12.647-17.244,4.777-39.738,37.355-44.04,50.206s-1.592,36.915-1.592,36.915-9.35,21.32-3.489,42.109c10.355,36.621,73.593,65.993,135.441,42.38S413.964,272.387,404.75,244.957Z" transform="translate(-177.38 -119.566)" fill="#ff725e"/>
      <g id="Groupe_133" data-name="Groupe 133" transform="translate(22.574 91.864)" opacity="0.5">
        <path id="Tracé_1842" data-name="Tracé 1842" d="M337.037,346.264c24.143-9.034,48.941-29.914,59.432-49.167,3.727-14.1,7.9-30,7.9-30L386.927,212.4a69.2,69.2,0,0,0-7.814-6.233c-6.03.937-11.665,5.149-15.188,10.333-4.664,6.866-6.572,15.154-8.977,23.093s-5.646,16.08-12.094,21.309c-6.911,5.646-18.407,4.314-27.282,3.568.858,8.108,3.693,18.8,4.517,26.91l-16.476,5A80.176,80.176,0,0,1,291.3,271.542c-3.467,4.144-6.967,8.322-11.292,11.507s-9.723,5.307-15.087,4.765c-7.509-.757-13.461-6.392-20.067-10.073a41.523,41.523,0,0,0-31.924-3.388A41.105,41.105,0,0,0,200,280.96a86.668,86.668,0,0,0,2.044,21.139c4.077,19.818,25.555,37.367,50.477,44.944C275.5,354.033,307.191,357.375,337.037,346.264Z" transform="translate(-199.973 -206.17)" fill="#fff"/>
      </g>
      <path id="Tracé_1843" data-name="Tracé 1843" d="M308.358,277.65a33.8,33.8,0,0,0-12.422,2.53,18.745,18.745,0,0,0-9.294,8.379,9.034,9.034,0,0,0-1.016,6c.9,3.918,5.082,5.985,8.786,7.532s8.018,3.218,12.06,2.2c3.038-.757,5.522-2.913,7.668-5.195,2.891-3.072,5.522-6.775,5.714-10.976s-1.773-10.547-11.5-10.468" transform="translate(-166.347 -105.068)" fill="#263238"/>
      <path id="Tracé_1844" data-name="Tracé 1844" d="M307.787,298.64a12.257,12.257,0,0,1,.678,1.807,31.4,31.4,0,0,1,1.321,5.127,14.241,14.241,0,0,1-.745,7.8,9.135,9.135,0,0,1-2.823,3.76,11.146,11.146,0,0,1-4.607,2.044A22.586,22.586,0,0,1,292,318.9a24.21,24.21,0,0,1-7.227-3.083,21.919,21.919,0,0,1-4.11-3.388,13.222,13.222,0,0,1-.949-1.073,1.684,1.684,0,0,1-.294-.406A32.1,32.1,0,0,0,285,315.466a24.664,24.664,0,0,0,7.126,2.9,22.585,22.585,0,0,0,9.361.237,10.851,10.851,0,0,0,4.381-1.92,8.774,8.774,0,0,0,2.676-3.523,14.15,14.15,0,0,0,.824-7.532,38.751,38.751,0,0,0-1.129-5.115,12.333,12.333,0,0,1-.452-1.875Z" transform="translate(-167.132 -102.355)" fill="#263238"/>
      <path id="Tracé_1845" data-name="Tracé 1845" d="M305.56,304.546c0-.113.644.248,1.626.937a47.988,47.988,0,0,0,4.257,2.755,16.25,16.25,0,0,0,7.114,2,12.907,12.907,0,0,0,8.571-2.326,16.273,16.273,0,0,0,5.3-7.261,28.661,28.661,0,0,0,1.649-7.295c.226-2.134.294-3.873.361-5.07a12.628,12.628,0,0,1,.147-1.875,10.656,10.656,0,0,1,.079,1.875c0,1.208,0,2.959-.169,5.115a28.028,28.028,0,0,1-1.558,7.453,16.5,16.5,0,0,1-5.454,7.532,13.381,13.381,0,0,1-9,2.405,16.2,16.2,0,0,1-7.284-2.179,37.725,37.725,0,0,1-4.2-2.936,12.513,12.513,0,0,0-1.434-1.129Z" transform="translate(-163.753 -103.936)" fill="#263238"/>
      <path id="Tracé_1846" data-name="Tracé 1846" d="M266.4,252.865a10.163,10.163,0,0,0-7.509-3.625,6.99,6.99,0,0,0-4.833,1.908h0a9.6,9.6,0,0,0-4.517,8.752,9.7,9.7,0,0,0,7.272,8.458,9.847,9.847,0,0,0,10.321-4.325A9.971,9.971,0,0,0,266.4,252.865Z" transform="translate(-170.995 -108.74)" fill="#263238"/>
      <path id="Tracé_1847" data-name="Tracé 1847" d="M326.542,238.01a9.136,9.136,0,0,0-7.216-3.23,10.378,10.378,0,0,0-5.127,1.513h0a9.565,9.565,0,0,0-4.517,8.752,9.678,9.678,0,0,0,7.272,8.447,9.836,9.836,0,0,0,10.31-4.314,9.971,9.971,0,0,0-.723-11.168Z" transform="translate(-163.223 -110.609)" fill="#263238"/>
      <g id="Groupe_134" data-name="Groupe 134" transform="translate(62.715 98.194)" opacity="0.5">
        <path id="Tracé_1848" data-name="Tracé 1848" d="M260.409,213.282l-2.259-1.129c-7.6-2.157-15.4,5.375-19.988,11.292a10.682,10.682,0,0,0-2.642,6.109c0,3.049,2.258,5.646,4.878,7.25,5.262,3.083,11.936,2.744,17.729.824,2.405-.8,4.867-1.976,6.211-4.133a10.355,10.355,0,0,0,1.253-5.556A24.041,24.041,0,0,0,260.409,213.282Z" transform="translate(-235.52 -211.776)" fill="#fff"/>
      </g>
      <g id="Groupe_135" data-name="Groupe 135" transform="translate(134.04 84.519)" opacity="0.5">
        <path id="Tracé_1849" data-name="Tracé 1849" d="M303.874,201.172l2.258-1.129c7.6-2.157,15.4,5.375,19.988,11.36a10.479,10.479,0,0,1,2.642,6.1c0,3.06-2.259,5.714-4.878,7.25-5.251,3.094-11.936,2.755-17.718.824-2.417-.8-4.878-1.976-6.222-4.122a10.265,10.265,0,0,1-1.242-5.567A23.962,23.962,0,0,1,303.874,201.172Z" transform="translate(-298.683 -199.666)" fill="#fff"/>
      </g>
      <path id="Tracé_1850" data-name="Tracé 1850" d="M275.081,302.2a9.257,9.257,0,0,1-1.22-1.321,36.25,36.25,0,0,1-2.959-3.919,16.577,16.577,0,0,1-2.721-6.775,11.936,11.936,0,0,1,.237-4.359,25.973,25.973,0,0,1,1.547-4.381,78.213,78.213,0,0,1,8.187-13.991l2.823-3.986a10.705,10.705,0,0,1,1.129-1.434,9.752,9.752,0,0,1-.9,1.558c-.61.982-1.536,2.371-2.676,4.1a88.273,88.273,0,0,0-7.9,13.98,25.254,25.254,0,0,0-1.524,4.28,11.64,11.64,0,0,0-.271,4.156,16.939,16.939,0,0,0,2.541,6.629,48.551,48.551,0,0,0,2.778,4.009A11.229,11.229,0,0,1,275.081,302.2Z" transform="translate(-168.597 -107.087)" fill="#263238"/>
      <path id="Tracé_1851" data-name="Tracé 1851" d="M336.167,278.574a13.6,13.6,0,0,1-.068-1.875,23.024,23.024,0,0,0-.542-5.048,9.746,9.746,0,0,0-1.366-3.162,8.176,8.176,0,0,0-2.925-2.586,20.5,20.5,0,0,0-4.122-1.626l-4.607-1.434c-6.312-1.965-12.015-3.76-16.137-5.093l-4.878-1.615a11.418,11.418,0,0,1-1.762-.666,12.217,12.217,0,0,1,1.829.452l4.935,1.423c4.144,1.231,9.881,2.981,16.193,4.935l4.607,1.434a21.773,21.773,0,0,1,4.212,1.705,8.616,8.616,0,0,1,3.06,2.789,9.959,9.959,0,0,1,1.366,3.331,20.9,20.9,0,0,1,.361,5.149,11.431,11.431,0,0,1-.09,1.4C336.2,278.36,336.167,278.586,336.167,278.574Z" transform="translate(-164.503 -107.934)" fill="#263238"/>
      <path id="Tracé_1852" data-name="Tracé 1852" d="M204.36,162.5c-7.126-1.852-15.809-2.134-20.733,3.309s-3.975,13.607-2.258,20.6a136.1,136.1,0,0,0,26.357,52.679l37.05-55.807C232.105,174.874,219.108,166.326,204.36,162.5Z" transform="translate(-179.983 -120.106)" fill="#ff725e"/>
      <g id="Groupe_136" data-name="Groupe 136" transform="translate(8.032 49.698)" opacity="0.5">
        <path id="Tracé_1853" data-name="Tracé 1853" d="M201.329,170.016c-4.325-1.536-9.937-2.089-12.772,1.524-2.563,3.275-1.3,8.04.327,11.88,5.759,13.551,13.653,28.446,24.945,37.852,5.477-11.292,11.857-21.456,19.829-29.654C224.445,183.307,213.028,174.16,201.329,170.016Z" transform="translate(-187.096 -168.829)" fill="#fff"/>
      </g>
      <path id="Tracé_1854" data-name="Tracé 1854" d="M220.489,206.411a6.866,6.866,0,0,1-1.073-1.061l-2.767-2.992c-2.428-2.62-5.646-6.053-9.192-9.858s-6.775-7.374-9.034-9.982c-1.129-1.31-2.033-2.371-2.631-3.128a7.048,7.048,0,0,1-.892-1.208,6.776,6.776,0,0,1,1.061,1.05l2.767,3,9.192,9.858c3.6,3.851,6.775,7.374,9.034,9.982,1.129,1.3,2.021,2.371,2.631,3.128a7.906,7.906,0,0,1,.9,1.208Z" transform="translate(-178.055 -117.924)" fill="#263238"/>
      <path id="Tracé_1855" data-name="Tracé 1855" d="M336.978,139.782c-2.959-6.572-7.385-13.63-14.5-14.8s-13.878,4.381-18.316,10.208c-9.2,12.139-14.127,26.9-18.892,41.364l60.347,20.405C343.968,176.144,345.1,157.828,336.978,139.782Z" transform="translate(-166.376 -124.82)" fill="#ff725e"/>
      <g id="Groupe_137" data-name="Groupe 137" transform="translate(133.823 8.873)" opacity="0.5">
        <path id="Tracé_1856" data-name="Tracé 1856" d="M309.353,139.569c2.45-3.885,6.516-7.792,10.976-6.708,4.043.982,6,5.511,7.092,9.52,3.851,14.183,6.855,30.2,3.817,44.571-9.565-5.646-20.733-9.689-32.748-12.964C300.523,161.758,302.736,150.071,309.353,139.569Z" transform="translate(-298.49 -132.677)" fill="#fff"/>
      </g>
      <path id="Tracé_1857" data-name="Tracé 1857" d="M314.808,178.808a6.639,6.639,0,0,1-.056-1.445c0-.926,0-2.258.124-3.918.147-3.309.474-7.9.9-12.919s.79-9.463,1.073-12.885c.124-1.558.226-2.868.3-3.907a7.58,7.58,0,0,1,.181-1.434,6.638,6.638,0,0,1,0,1.445c0,.926,0,2.258-.124,3.918-.147,3.32-.474,7.9-.9,12.919s-.79,9.463-1.073,12.885c-.124,1.558-.226,2.868-.3,3.907a6.56,6.56,0,0,1-.124,1.434Z" transform="translate(-162.567 -122.561)" fill="#263238"/>
      <path id="Tracé_1858" data-name="Tracé 1858" d="M377.635,301.52a6.99,6.99,0,0,1-.745,1.253,25.666,25.666,0,0,1-2.71,3.207c-1.253,1.31-2.868,2.846-4.822,4.517-.971.847-2.033,1.739-3.173,2.665l-3.546,2.981a109.25,109.25,0,0,1-19.1,12.5,115.092,115.092,0,0,1-26.221,9.655,127.423,127.423,0,0,1-27.757,3.32,131.17,131.17,0,0,1-22.766-1.8,110.551,110.551,0,0,1-14.974-3.614c-1.716-.576-3.06-1.028-3.941-1.389l-1.016-.407-.339-.147a1.816,1.816,0,0,1,.361.09l1.028.35c.9.327,2.258.745,3.975,1.287a118.824,118.824,0,0,0,14.974,3.388,133.8,133.8,0,0,0,22.687,1.671,129.213,129.213,0,0,0,27.632-3.388,116.433,116.433,0,0,0,26.108-9.553,112.461,112.461,0,0,0,19.084-12.343l6.776-5.578c1.965-1.671,3.6-3.173,4.878-4.449a30.619,30.619,0,0,0,2.778-3.117C377.375,301.949,377.612,301.5,377.635,301.52Z" transform="translate(-171.382 -101.983)" fill="#263238"/>
      <g id="Groupe_138" data-name="Groupe 138" transform="translate(125.631 175.443)" opacity="0.5">
        <path id="Tracé_1859" data-name="Tracé 1859" d="M307.6,280.2a18.136,18.136,0,0,0-15.809,7.9,2.258,2.258,0,0,0-.5,2.01,1.615,1.615,0,0,0,1.637.869,4.675,4.675,0,0,0,1.852-.655l11.9-6.2a4.224,4.224,0,0,0,1.965-1.615c.4-.768.09-1.942-.757-2.1" transform="translate(-291.236 -280.183)" fill="#fff"/>
      </g>
      <path id="Tracé_1860" data-name="Tracé 1860" d="M336.009,184.869a9.219,9.219,0,0,1-1.547-.8c-.96-.553-2.371-1.344-4.133-2.258a135.113,135.113,0,0,0-28.841-11.575c-1.92-.531-3.478-.937-4.517-1.208a8.777,8.777,0,0,1-1.671-.486,10.735,10.735,0,0,1,1.716.26c1.129.2,2.688.542,4.63,1.028a114.709,114.709,0,0,1,28.886,11.654c1.739.994,3.117,1.841,4.054,2.462A9.969,9.969,0,0,1,336.009,184.869Z" transform="translate(-165.079 -119.169)" fill="#263238"/>
      <path id="Tracé_1861" data-name="Tracé 1861" d="M320.128,311.151a7.306,7.306,0,0,1-1.705,1.513,36.519,36.519,0,0,1-4.619,2.97,37.767,37.767,0,0,1-5,2.258,7.9,7.9,0,0,1-2.2.6c-.056-.169,3.2-1.333,6.922-3.388S320.015,310.982,320.128,311.151Z" transform="translate(-163.619 -100.739)" fill="#263238"/>
      <path id="Tracé_1862" data-name="Tracé 1862" d="M235.282,185.85a9.677,9.677,0,0,1-1.253,1.389c-.847.87-2.044,2.134-3.489,3.738A119.623,119.623,0,0,0,211.715,218.7c-.949,1.931-1.694,3.512-2.191,4.607a11.035,11.035,0,0,1-.824,1.683,11.3,11.3,0,0,1,.621-1.762c.429-1.129,1.129-2.744,2.021-4.709a105.019,105.019,0,0,1,18.892-27.825c1.491-1.57,2.733-2.8,3.625-3.614a12.647,12.647,0,0,1,1.423-1.231Z" transform="translate(-176.272 -116.932)" fill="#263238"/>
      <path id="Tracé_1863" data-name="Tracé 1863" d="M447.879,439.181a2.283,2.283,0,0,1-.655-.147l-1.9-.508c-1.649-.463-4.065-1.129-7.1-2.258a147.055,147.055,0,0,1-24.346-10.931l.294-.4A109.7,109.7,0,0,1,430.128,444.7l.542.881-.915-.474a88.985,88.985,0,0,1-15.809-10.265,90.992,90.992,0,0,1-12.738-12.614l.486-.3,8.808,20.9.35.836-.734-.519a78.82,78.82,0,0,1-20.259-21.026,61.932,61.932,0,0,1-5.319-9.768l.1.158c.068.135.147.294.26.5l.994,1.908c.9,1.671,2.259,4.1,4.212,7.035a79.734,79.734,0,0,0,20.27,20.835l-.384.3c-2.7-6.358-5.646-13.382-8.853-20.88l-.768-1.807,1.253,1.513a89.831,89.831,0,0,0,28.389,22.743l-.373.406a111.083,111.083,0,0,0-15.809-19.717l-1.333-1.31,1.626.926a155.081,155.081,0,0,0,24.188,11.1c3.026,1.073,5.42,1.829,7.058,2.349l1.863.576Z" transform="translate(-153.546 -87.659)" fill="#263238"/>
      <path id="Tracé_1864" data-name="Tracé 1864" d="M364.432,291.63c-.915,7.9-3.388,18.8-3.772,26.673l4.415-6.719c1.321,20.53,4.517,45.9,7.442,66.264" transform="translate(-156.632 -103.261)" fill="#ff725e"/>
      <path id="Tracé_1865" data-name="Tracé 1865" d="M372.593,377.868a.755.755,0,0,1-.068-.26,7.357,7.357,0,0,0-.136-.757c-.124-.711-.282-1.694-.474-2.925-.4-2.541-.937-6.222-1.57-10.784-1.253-9.113-2.88-21.727-4.212-35.707-.519-5.522-.949-10.852-1.265-15.809l.519.135c-1.558,2.338-3.038,4.585-4.438,6.708l-.531.79.056-.949a101.324,101.324,0,0,1,1.321-10.942c.565-3.218,1.062-6.041,1.468-8.39s.723-4.156.915-5.409c.09-.587.169-1.061.226-1.434a3.076,3.076,0,0,1,.1-.486,1.512,1.512,0,0,1,0,.5,14.326,14.326,0,0,1-.147,1.445c-.135,1.265-.4,3.105-.768,5.443s-.824,5.172-1.344,8.4a103.16,103.16,0,0,0-1.231,10.9l-.474-.158,4.393-6.719.463-.7.056.836c.327,4.946.768,10.265,1.287,15.809,1.333,13.969,2.891,26.582,4.043,35.707.576,4.517,1.039,8.21,1.378,10.807.147,1.242.271,2.258.361,2.947l.079.768A1.13,1.13,0,0,1,372.593,377.868Z" transform="translate(-156.663 -103.258)" fill="#263238"/>
      <g id="Groupe_139" data-name="Groupe 139" transform="translate(223.745 300.932)" opacity="0.3">
        <path id="Tracé_1866" data-name="Tracé 1866" d="M385.889,415.7c-3.23-8.255-4.517-16.126-7.769-24.392,1.073,15.753,8.243,30.377,15.708,44.289a67.552,67.552,0,0,0,8.481,13.122c3.455,3.907,7.9,7.1,13.077,8.1a3.749,3.749,0,0,0,2.767-.26c1.637-1.073.982-3.6,0-5.308s-2.778-8.752-2.778-8.752c8.356,5.849,20.326,12.839,30.433,13.9q-4.031-6.448-8.04-12.919a24.007,24.007,0,0,0,19.265,1.31c-12.817-4.957-28.062-10.615-40.867-15.572a96.993,96.993,0,0,1,14.533,18.4c-9.8-4.517-22.088-12.772-28.479-22.822,3.76,8.4,7.747,17.492,8.548,20.925-11.71-9.034-20.213-17.515-25.408-31.325" transform="translate(-378.12 -391.31)"/>
      </g>
      <path id="Tracé_1867" data-name="Tracé 1867" d="M356.07,257.82a87.046,87.046,0,0,0,2.078,18.87c6.617,29.722,18.124,119.7,19.062,120.829,1.129,1.355,73.209,3.76,73.209,3.76l-11.789-15.121,10.344,3.388s-1.9-2.925-10.344-10.445c-11.292-10.05-27.271-132.867-27.271-132.867h0c2.055-16.769,4.11-33.584,3.952-50.466s-2.609-33.877-9.26-49.54a45.665,45.665,0,0,0-8.548-13.912c-3.806-3.986-8.435-3.817-13.788-5.522-9.6-3.049-15.73,1.332-20.665,6.888-3.388,3.783-3.636,8.221-5.646,12.839a13.89,13.89,0,0,0-4.664,6.583c-2.913,7.735-5.217,15.809-5.545,24.019s1.6,16.758,6.775,23.3l-4.912-2.71,8.955,9.824-2.258,4.3a13.742,13.742,0,0,0-1.592,8.255l3.7-3.93c-2.258,4.709-2.53,9.226-3.286,16.34-.35,3.184-.531,6.392-.576,9.587l-.158,11.146L356,251.429Z" transform="translate(-158.377 -124.694)" fill="#ff725e"/>
      <g id="Groupe_140" data-name="Groupe 140" transform="translate(212.475 142.82)" opacity="0.5">
        <path id="Tracé_1868" data-name="Tracé 1868" d="M381.194,251.3c7.521-.169,15.583,3.139,20.01,9.034,2.417,3.23,3.23,7.295,3.986,11.225q5.42,28.389,10.852,56.767c3.614,18.926,7.227,37.875,9.621,56.982,1.2,9.52,1.987,19.615-2.259,28.3-1.615,3.32-4.189,6.5-7.826,7.532-4.031,1.129-8.458-.711-11.383-3.636s-4.641-6.775-6.222-10.536a422.825,422.825,0,0,1-19.2-58.788c-8.1-31.72-7.464-48.083-10.638-80.605C368.23,267.584,367.8,251.594,381.194,251.3Z" transform="translate(-368.14 -251.295)" fill="#fff"/>
      </g>
      <path id="Tracé_1869" data-name="Tracé 1869" d="M375.491,133.62c-2.134-1.942-5.714-1.75-8.108-.113a11.936,11.936,0,0,0-4.427,7.137,13.552,13.552,0,0,0-.113,6.775,8.4,8.4,0,0,0,4.144,5.353,6.369,6.369,0,0,0,6.685-.463c1.671-1.333,2.36-3.489,2.812-5.545.881-4.02,2.123-10.491-.994-13.2" transform="translate(-156.398 -123.863)" fill="#263238"/>
      <path id="Tracé_1870" data-name="Tracé 1870" d="M358.264,151.11c-.361,0-4.867.79-6.493,6.651s-2.326,13.19,2.315,13.754,8.819.327,9.4-5.748S361.979,150.986,358.264,151.11Z" transform="translate(-157.94 -121.422)" fill="#263238"/>
      <path id="Tracé_1871" data-name="Tracé 1871" d="M387.812,135.34c-.271,0-4.6-.87-6.572,2.992s-4.8,10.57-2.609,14.827,7.329,9.192,11.371,3.275,4.652-12.117,3.839-15.177S387.812,135.34,387.812,135.34Z" transform="translate(-154.412 -123.471)" fill="#263238"/>
      <path id="Tracé_1872" data-name="Tracé 1872" d="M398.447,159.009c-.587.09-11.383,5.646-13.291,10.931s-.519,6.188,3.772,8.9a8.944,8.944,0,0,0,12.3-2.71C404.127,172.074,405.753,157.767,398.447,159.009Z" transform="translate(-153.574 -120.411)" fill="#263238"/>
      <g id="Groupe_141" data-name="Groupe 141" transform="translate(205.688 65.237)" opacity="0.5">
        <path id="Tracé_1873" data-name="Tracé 1873" d="M383.439,188.857c-.8-1.468-2.428-2.067-3.918-2.552l-9.486-3.094c-1.9-.621-4.167-1.129-5.646.3l-2.258.621a52.862,52.862,0,0,0,1.412,10.445,16.2,16.2,0,0,0,5.228,8.6,8,8,0,0,0,9.034.847c2.925-1.818,4.291-5.646,5.443-9.124C383.8,192.945,384.421,190.653,383.439,188.857Z" transform="translate(-362.13 -182.591)" fill="#fff"/>
      </g>
      <path id="Tracé_1874" data-name="Tracé 1874" d="M372.577,168.081c-1.852,2.315-4.923,3.286-7.792,4.235s-5.906,2.134-7.464,4.652a8.932,8.932,0,0,0-.44,7.487,7.712,7.712,0,0,0,3.218,4.381c2.993,1.716,6.855.294,10.265.96,4.946.971,8.1,6.132,13.02,7.261,4.223.971,8.74-1.513,10.976-5.138a7.9,7.9,0,0,0,1.186-6.245c-.8-2.7-3.388-4.427-5.94-5.8s-5.24-2.8-6.55-5.3a23.854,23.854,0,0,1-1.344-4.427,5.737,5.737,0,0,0-2.631-3.7c-2.1-1.028-4.664.169-6.324,1.784" transform="translate(-157.2 -119.49)" fill="#263238"/>
      <g id="Groupe_142" data-name="Groupe 142" transform="translate(213.118 121.236)" opacity="0.3">
        <path id="Tracé_1875" data-name="Tracé 1875" d="M384.779,238.955q-2.981-3.489-6.2-6.775l-9.87,5.443a18.622,18.622,0,0,0,5.77,6.685,10.389,10.389,0,0,0,8.6,1.513c1.716-.531,3.388-1.908,3.331-3.647A5.352,5.352,0,0,0,384.779,238.955Z" transform="translate(-368.71 -232.18)"/>
      </g>
      <path id="Tracé_1876" data-name="Tracé 1876" d="M377.786,232a7.317,7.317,0,0,0-6.38.429,5.443,5.443,0,0,0-2.609,5.511A7.148,7.148,0,0,0,372,242.21a13.167,13.167,0,0,0,10.016,1.908c1.784-.384,3.681-1.4,3.986-3.139a6.606,6.606,0,0,0-1.389-4.065A16.272,16.272,0,0,0,377.786,232" transform="translate(-155.588 -111.037)" fill="#263238"/>
      <path id="Tracé_1877" data-name="Tracé 1877" d="M383.693,226.928a2.434,2.434,0,0,1-.373-.271c-.226-.192-.587-.474-1.005-.87a36.757,36.757,0,0,1-3.388-3.557,41.216,41.216,0,0,1-7.634-14.149l.576-.079h0c0,1.57-.079,3.105-.124,4.585,0,.745,0,1.468-.068,2.179v1.061a2.755,2.755,0,0,1-.192,1.129,1.344,1.344,0,0,1-.373.519.892.892,0,0,1-.689.158,1.457,1.457,0,0,1-.892-.734c-.35-.553-.689-1.129-.971-1.637a21.751,21.751,0,0,1-1.355-3.117,19.92,19.92,0,0,1-.994-4.811,12.252,12.252,0,0,1,0-1.332,1.357,1.357,0,0,1,0-.463A27.408,27.408,0,0,0,367.6,212a22.155,22.155,0,0,0,1.389,3.038c.294.519.621,1.039.971,1.581s.813.711,1.028.135a7.124,7.124,0,0,0,.169-1.976V212.6c0-1.491.068-3.026.113-4.6h0v-1.807l.531,1.728a43.183,43.183,0,0,0,7.4,14.07c1.265,1.6,2.394,2.823,3.184,3.659a11.951,11.951,0,0,1,1.31,1.276Z" transform="translate(-155.917 -114.387)" fill="#263238"/>
      <path id="Tracé_1878" data-name="Tracé 1878" d="M384.456,163.7a11.486,11.486,0,0,1-1.366-1.683l-3.467-4.686.418-.124c0,1.649-.079,3.489-.124,5.454v.689l-.463-.508a12.873,12.873,0,0,1-2.71-4.709h.542c-.361.824-.745,1.683-1.129,2.563l-1.039,2.315-.192.429-.294-.361a5.646,5.646,0,0,1-.87-5.646l.418.316a33.494,33.494,0,0,1-6.03,3.749l-.519.26.237-.519a13.337,13.337,0,0,1,2.665-3.862,8.483,8.483,0,0,1,.949-.847c.226-.181.35-.26.373-.248s-.44.44-1.129,1.253a14.182,14.182,0,0,0-2.451,3.862l-.282-.26a37.082,37.082,0,0,0,5.872-3.817l.813-.644-.384.96a5.115,5.115,0,0,0,.8,5.048l-.486.068,1.028-2.315,1.129-2.563.316-.7.226.723a12.67,12.67,0,0,0,2.563,4.517l-.474.169c.079-1.976.147-3.806.215-5.454v-.689l.384.553L383.3,161.8A15.643,15.643,0,0,1,384.456,163.7Z" transform="translate(-155.731 -120.754)" fill="#263238"/>
      <path id="Tracé_1879" data-name="Tracé 1879" d="M374.178,127.784a1.965,1.965,0,0,0-2.326,0,2.71,2.71,0,0,0-1.287,1.784,1.039,1.039,0,0,0,.294,1.028,1.9,1.9,0,0,0,1.434.407,2.642,2.642,0,0,0,2.033-1.039,1.671,1.671,0,0,0-.147-2.179Z" transform="translate(-155.357 -124.486)" fill="#e0e0e0"/>
      <path id="Tracé_1880" data-name="Tracé 1880" d="M390.1,133.164a4.4,4.4,0,0,0-1.807-2.146.79.79,0,0,0-.644-.147c-.181.068-.587.2-.689.361a1.9,1.9,0,0,0-.26,1.57,2.642,2.642,0,0,0,2.71,1.626,1.016,1.016,0,0,0,.7-.339A.96.96,0,0,0,390.1,133.164Z" transform="translate(-153.276 -124.04)" fill="#e0e0e0"/>
      <g id="Groupe_143" data-name="Groupe 143" transform="translate(208.362 215.64)" opacity="0.3">
        <path id="Tracé_1881" data-name="Tracé 1881" d="M365.381,316.954a111.478,111.478,0,0,0,6.7,54.407c-1.3-18.734-4.517-36.328-6.1-55.581" transform="translate(-364.498 -315.78)"/>
      </g>
      <g id="Groupe_144" data-name="Groupe 144" transform="translate(209.861 92.925)" opacity="0.3">
        <path id="Tracé_1882" data-name="Tracé 1882" d="M382.25,225.754a63.973,63.973,0,0,1-10.581-17.3,26.252,26.252,0,0,1-.373,7.148c-.068.486,0,1.479-.508,1.57s-1.129-.757-1.344-1.129a20.53,20.53,0,0,1-3.264-8.932l-.237,1.039a13.3,13.3,0,0,0,3.264,10.626,2.823,2.823,0,0,0,2.146,1.129,2.078,2.078,0,0,0,1.683-1.547,5.837,5.837,0,0,0,0-2.383,15.459,15.459,0,0,0,9.215,9.779Z" transform="translate(-365.826 -207.11)"/>
      </g>
      <path id="Tracé_1883" data-name="Tracé 1883" d="M398.46,313.6a2.7,2.7,0,0,1-.5-.384c-.3-.26-.779-.644-1.332-1.186a48.072,48.072,0,0,1-4.517-4.856,52.3,52.3,0,0,1-10.028-19.683l.576-.1c.079.96.158,1.987.248,3.015a127.533,127.533,0,0,1,.2,13.336v.8l-.452-.655a43.757,43.757,0,0,1-6.538-13.607,37.67,37.67,0,0,1-.926-4.212c-.079-.5-.113-.881-.147-1.129a2.051,2.051,0,0,1,0-.4,11.031,11.031,0,0,1,.35,1.5c.2.982.531,2.405,1.061,4.156a45.836,45.836,0,0,0,6.572,13.382l-.5.147c.124-4.077.068-8.571-.248-13.269-.09-1.028-.169-2.044-.237-3l.565-.1a53.853,53.853,0,0,0,9.779,19.581,55.225,55.225,0,0,0,4.359,4.946c.531.565.982.971,1.265,1.265A3.391,3.391,0,0,1,398.46,313.6Z" transform="translate(-154.773 -104.177)" fill="#263238"/>
      <path id="Tracé_1884" data-name="Tracé 1884" d="M438.515,390.59a7.124,7.124,0,0,1,.248,1.468c.124.96.226,2.338.3,4.043a72.27,72.27,0,0,1-3.828,26.368c-.553,1.615-1.062,2.913-1.445,3.783a6.7,6.7,0,0,1-.655,1.344,7.755,7.755,0,0,1,.44-1.423c.316-.9.757-2.258,1.265-3.839a84.94,84.94,0,0,0,2.959-12.952,86.343,86.343,0,0,0,.858-13.269c0-1.694-.079-3.083-.135-4.031a8.032,8.032,0,0,1-.011-1.491Z" transform="translate(-147.265 -90.471)" fill="#263238"/>
    </g>
  </g>
</svg>
