<svg xmlns="http://www.w3.org/2000/svg" width="609.66" height="427.194" viewBox="0 0 609.66 427.194">
  <g id="Working_from_anywhere-pana" data-name="Working from anywhere-pana" transform="translate(-46.012 -55.423)">
    <g id="freepik--background-complete--inject-714" transform="translate(58.755 55.423)">
      <path id="Tracé_443" data-name="Tracé 443" d="M460.683,200.638a5.714,5.714,0,1,1-1.654-4.065A5.736,5.736,0,0,1,460.683,200.638Z" transform="translate(8.281 -76.922)" fill="#e0e0e0"/>
      <path id="Tracé_444" data-name="Tracé 444" d="M444.478,194.424a15.9,15.9,0,0,1,23.033-.307c2.928,2.95,7.513-1.59,4.574-4.541a22.419,22.419,0,0,0-32.115.263c-2.852,3.005,1.678,7.6,4.541,4.585Z" transform="translate(7.298 -78.079)" fill="#e0e0e0"/>
      <path id="Tracé_445" data-name="Tracé 445" d="M426.724,170.723c8.775-7.535,19.139-12.284,30.788-12.317a45.726,45.726,0,0,1,31.413,12.065c3.027,2.841,7.623-1.689,4.585-4.541A52.373,52.373,0,0,0,457.544,152c-13.414,0-25.336,5.484-35.35,14.182-3.148,2.72,1.4,7.294,4.53,4.585Z" transform="translate(5.562 -81.074)" fill="#e0e0e0"/>
      <path id="Tracé_446" data-name="Tracé 446" d="M433.719,184.055a31.555,31.555,0,0,1,46.362-.669c2.906,2.983,7.491-1.557,4.585-4.541a38,38,0,0,0-55.488.625C426.37,182.508,430.9,187.148,433.719,184.055Z" transform="translate(6.256 -79.609)" fill="#e0e0e0"/>
      <path id="Tracé_447" data-name="Tracé 447" d="M57.63,285.044l33.881-29.877L109.7,268.438l38.729-39.968,56.925,56.42Z" transform="translate(-57.63 -38.67)" fill="#ebebeb"/>
      <path id="Tracé_448" data-name="Tracé 448" d="M489.31,285.044l51.55-28.287,69.417,16.529Z" transform="translate(-15.837 -38.67)" fill="#ebebeb"/>
      <path id="Tracé_450" data-name="Tracé 450" d="M180.324,84.376c.932-6.713-8.555-12.24-15.673-12.811-3.4-.274-6.932.241-10.146-.877-6.976-2.435-9.762-11.44-16.562-14.313-5.089-2.194-10.968-.23-15.882,2.248s-9.806,5.6-15.355,5.956c-4.793.307-9.992-1.47-14.193.866-3.115,1.744-4.76,5.352-7.678,7.469s-6.493,2.523-9.992,2.709-7.107.23-10.3,1.689-5.813,4.815-5.155,8.259Z" transform="translate(-57.47 -55.423)" fill="#f5f5f5"/>
      <path id="Tracé_451" data-name="Tracé 451" d="M366.987,110.452c.57-4.157-5.3-7.59-9.718-7.941-2.106-.175-4.289.154-6.285-.548-4.321-1.5-6.043-7.085-10.266-8.862-3.148-1.327-6.778-.143-9.871,1.393s-6.065,3.477-9.487,3.7c-2.961.186-6.186-.91-8.775.537-1.941,1.1-2.95,3.29-4.738,4.629a11.352,11.352,0,0,1-6.186,1.678,17.121,17.121,0,0,0-6.383,1.042c-1.974.9-3.609,2.983-3.192,5.122Z" transform="translate(-34.938 -51.831)" fill="#f5f5f5"/>
      <path id="Tracé_453" data-name="Tracé 453" d="M522.266,75.409s-.614-.165-1.711-.384a13.8,13.8,0,0,0-4.694-.121,12.668,12.668,0,0,0-6.285,2.742,13.162,13.162,0,0,0-4.387,7.053v.077l-.274,1.1-.395-1a14.116,14.116,0,0,0-5.385-6.515,13.721,13.721,0,0,0-6.493-2.194,17.812,17.812,0,0,0-6.362.812,5.265,5.265,0,0,1,1.612-.7,13.458,13.458,0,0,1,4.782-.6,13.82,13.82,0,0,1,6.811,2.194,14.489,14.489,0,0,1,5.6,6.712h-.669V84.5a13.524,13.524,0,0,1,4.705-7.4,13.063,13.063,0,0,1,11.44-2.38A5.374,5.374,0,0,1,522.266,75.409Z" transform="translate(-16.131 -53.598)" fill="#e0e0e0"/>
      <path id="Tracé_454" data-name="Tracé 454" d="M122.364,162.53a19.312,19.312,0,0,1-1.547,1.8,38.609,38.609,0,0,0-3.839,5.188,37.851,37.851,0,0,0-5.671,20.138v.252h-.7a33.914,33.914,0,0,0-9.268-18.481,46.207,46.207,0,0,0-6.778-5.484,1.931,1.931,0,0,1,.559.252,16.155,16.155,0,0,1,1.514.877,30.076,30.076,0,0,1,5.056,4,33.409,33.409,0,0,1,9.608,18.734l-.691.055v-.252a36.886,36.886,0,0,1,5.956-20.412,33.859,33.859,0,0,1,4.036-5.111c.526-.559.987-.943,1.272-1.228A3.191,3.191,0,0,1,122.364,162.53Z" transform="translate(-54.055 -45.054)" fill="#e0e0e0"/>
    </g>
    <g id="freepik--Mountains--inject-714" transform="translate(57.998 177.495)">
      <path id="Tracé_455" data-name="Tracé 455" d="M278.8,277.748c0,.047-49.668.088-110.923.088S56.94,277.8,56.94,277.748s49.658-.088,110.934-.088S278.8,277.7,278.8,277.748Z" transform="translate(-56.94 -155.782)" fill="#455a64"/>
      <path id="Tracé_456" data-name="Tracé 456" d="M303.829,289.475c0,.165-44.64.285-99.689.285s-99.689-.121-99.689-.285,44.629-.285,99.689-.285S303.829,289.322,303.829,289.475Z" transform="translate(-52.34 -154.863)" fill="#263238"/>
      <path id="Tracé_457" data-name="Tracé 457" d="M260.62,298.326c0,.154-21.454.285-47.92.285s-47.92-.132-47.92-.285,21.454-.3,47.92-.3S260.62,298.162,260.62,298.326Z" transform="translate(-46.5 -154.007)" fill="#263238"/>
      <path id="Tracé_458" data-name="Tracé 458" d="M238.983,230.331c9.158,14.05,27.76,21.158,43.96,16.814s28.726-19.83,29.614-36.568-9.937-33.464-25.578-39.485-34.9-.943-45.5,12.065-11.714,32.9-2.654,46.988" transform="translate(-39.922 -166.54)" fill="#ff7f27"/>
      <g id="Group_63" data-name="Group 63" transform="translate(315.703 -10.624)">
        <rect id="Rectangle_62" data-name="Rectangle 62" width="84.517" height="75.078" rx="32.176" transform="translate(14.587 18.448)" fill="none" stroke="#000" stroke-width="4.29"/>
        <rect id="Rectangle_63" data-name="Rectangle 63" width="84.517" height="75.078" rx="32.176" transform="translate(14.587 18.448)" fill="none" stroke="#000" stroke-width="4.29"/>
        <path id="Tracé_655" data-name="Tracé 655" d="M82.8,54.7c0,12.2-10,3.647-24.454,3.647S30.46,66.9,30.46,54.7,42.177,32.605,56.63,32.605,82.8,42.5,82.8,54.7Z"/>
        <ellipse id="Ellipse_39" data-name="Ellipse 39" cx="4.29" cy="4.719" rx="4.29" ry="4.719" transform="translate(39.899 45.047)" fill="#e5e5e5"/>
        <ellipse id="Ellipse_40" data-name="Ellipse 40" cx="4.29" cy="4.719" rx="4.29" ry="4.719" transform="translate(65.64 45.047)" fill="#e5e5e5"/>
        <path id="Tracé_656" data-name="Tracé 656" d="M14.158,61.35a46.735,46.735,0,0,0,1.343,9.8c.2.948.387,1.792.505,2.5a5.577,5.577,0,0,1,.1,2.393,2.334,2.334,0,0,1-.874.115c-2.368,0-5.658-1.53-8.438-4.365A15.25,15.25,0,0,1,2.145,61.35a17.4,17.4,0,0,1,4.12-10.887c2.3-2.762,4.99-4.316,7.166-4.532a2.2,2.2,0,0,1,.8,1.015,8.072,8.072,0,0,1,.432,2.968c.012,1.281-.09,2.756-.211,4.519l-.029.426C14.3,56.778,14.158,58.96,14.158,61.35Z" fill="none" stroke="#000" stroke-width="4.29"/>
        <path id="Tracé_657" data-name="Tracé 657" d="M14.158,61.35a46.735,46.735,0,0,0,1.343,9.8c.2.948.387,1.792.505,2.5a5.577,5.577,0,0,1,.1,2.393,2.334,2.334,0,0,1-.874.115c-2.368,0-5.658-1.53-8.438-4.365A15.25,15.25,0,0,1,2.145,61.35a17.4,17.4,0,0,1,4.12-10.887c2.3-2.762,4.99-4.316,7.166-4.532a2.2,2.2,0,0,1,.8,1.015,8.072,8.072,0,0,1,.432,2.968c.012,1.281-.09,2.756-.211,4.519l-.029.426C14.3,56.778,14.158,58.96,14.158,61.35Z" fill="none" stroke="#000" stroke-width="4.29"/>
        <path id="Tracé_658" data-name="Tracé 658" d="M99.842,61.35a46.73,46.73,0,0,1-1.343,9.8c-.2.948-.387,1.792-.505,2.5a5.578,5.578,0,0,0-.1,2.393,2.335,2.335,0,0,0,.874.115c2.367,0,5.657-1.53,8.438-4.365a15.251,15.251,0,0,0,4.647-10.436,17.4,17.4,0,0,0-4.12-10.887c-2.3-2.762-4.99-4.316-7.166-4.532a2.2,2.2,0,0,0-.8,1.015,8.073,8.073,0,0,0-.432,2.968c-.012,1.281.09,2.756.211,4.519q.014.21.029.426C99.7,56.778,99.842,58.96,99.842,61.35Z" fill="none" stroke="#000" stroke-width="4.29"/>
        <path id="Tracé_659" data-name="Tracé 659" d="M99.842,61.35a46.73,46.73,0,0,1-1.343,9.8c-.2.948-.387,1.792-.505,2.5a5.578,5.578,0,0,0-.1,2.393,2.335,2.335,0,0,0,.874.115c2.367,0,5.657-1.53,8.438-4.365a15.251,15.251,0,0,0,4.647-10.436,17.4,17.4,0,0,0-4.12-10.887c-2.3-2.762-4.99-4.316-7.166-4.532a2.2,2.2,0,0,0-.8,1.015,8.073,8.073,0,0,0-.432,2.968c-.012,1.281.09,2.756.211,4.519q.014.21.029.426C99.7,56.778,99.842,58.96,99.842,61.35Z" fill="none" stroke="#000" stroke-width="4.29"/>
        <path id="Tracé_660" data-name="Tracé 660" d="M23.186,5.634a4.29,4.29,0,0,1,6.423-2.546l.208.13L35.823,10.3l6.006,9.438L28.744,27.028l-8.795,8.151L15.23,45.69l4.076-25.312Z"/>
        <path id="Tracé_661" data-name="Tracé 661" d="M89.646,5.634a4.29,4.29,0,0,0-6.423-2.546l-.208.13L77.009,10.3,71,19.735l13.085,7.293,8.795,8.151L97.6,45.69,93.526,20.378Z"/>
        <path id="Tracé_662" data-name="Tracé 662" d="M25.187,10.926A3.076,3.076,0,0,1,29.8,9.1l4.145,4.919,6.81,9.092-9.764,4.1-11.258,11.4,2.813-17.588Z" fill="#e5e5e5"/>
        <path id="Tracé_663" data-name="Tracé 663" d="M87.645,10.926A3.076,3.076,0,0,0,83.03,9.1l-4.145,4.919-6.81,9.092,9.764,4.1L93.1,38.612,90.284,21.024Z" fill="#e5e5e5"/>
        <rect id="Rectangle_64" data-name="Rectangle 64" width="84.517" height="75.078" rx="32.176" transform="translate(14.587 18.448)" fill="none" stroke="#000" stroke-width="4.29"/>
        <rect id="Rectangle_65" data-name="Rectangle 65" width="84.517" height="75.078" rx="32.176" transform="translate(14.587 18.448)" fill="#fff" stroke="#000" stroke-width="4.29"/>
        <path id="Tracé_664" data-name="Tracé 664" d="M69.93,71c0,2.488-9.057,6.221-13.085,6.221S43.331,73.49,43.331,71s9.486-2.789,13.514-2.789S69.93,68.515,69.93,71Z"/>
        <path id="Tracé_665" data-name="Tracé 665" d="M82.8,54.7c0,12.2-10,3.647-24.454,3.647S30.46,66.9,30.46,54.7,42.177,32.605,56.63,32.605,82.8,42.5,82.8,54.7Z"/>
        <ellipse id="Ellipse_41" data-name="Ellipse 41" cx="4.29" cy="4.719" rx="4.29" ry="4.719" transform="translate(39.899 45.047)" fill="#fff"/>
        <ellipse id="Ellipse_42" data-name="Ellipse 42" cx="4.29" cy="4.719" rx="4.29" ry="4.719" transform="translate(65.64 45.047)" fill="#fff"/>
        <path id="Tracé_666" data-name="Tracé 666" d="M14.158,61.35a46.735,46.735,0,0,0,1.343,9.8c.2.948.387,1.792.505,2.5a5.577,5.577,0,0,1,.1,2.393,2.334,2.334,0,0,1-.874.115c-2.368,0-5.658-1.53-8.438-4.365A15.25,15.25,0,0,1,2.145,61.35a17.4,17.4,0,0,1,4.12-10.887c2.3-2.762,4.99-4.316,7.166-4.532a2.2,2.2,0,0,1,.8,1.015,8.072,8.072,0,0,1,.432,2.968c.012,1.281-.09,2.756-.211,4.519l-.029.426C14.3,56.778,14.158,58.96,14.158,61.35Z" fill="none" stroke="#000" stroke-width="4.29"/>
        <path id="Tracé_667" data-name="Tracé 667" d="M14.158,61.35a46.735,46.735,0,0,0,1.343,9.8c.2.948.387,1.792.505,2.5a5.577,5.577,0,0,1,.1,2.393,2.334,2.334,0,0,1-.874.115c-2.368,0-5.658-1.53-8.438-4.365A15.25,15.25,0,0,1,2.145,61.35a17.4,17.4,0,0,1,4.12-10.887c2.3-2.762,4.99-4.316,7.166-4.532a2.2,2.2,0,0,1,.8,1.015,8.072,8.072,0,0,1,.432,2.968c.012,1.281-.09,2.756-.211,4.519l-.029.426C14.3,56.778,14.158,58.96,14.158,61.35Z" fill="#fff" stroke="#000" stroke-width="4.29"/>
        <path id="Tracé_668" data-name="Tracé 668" d="M99.842,61.35a46.73,46.73,0,0,1-1.343,9.8c-.2.948-.387,1.792-.505,2.5a5.578,5.578,0,0,0-.1,2.393,2.335,2.335,0,0,0,.874.115c2.367,0,5.657-1.53,8.438-4.365a15.251,15.251,0,0,0,4.647-10.436,17.4,17.4,0,0,0-4.12-10.887c-2.3-2.762-4.99-4.316-7.166-4.532a2.2,2.2,0,0,0-.8,1.015,8.073,8.073,0,0,0-.432,2.968c-.012,1.281.09,2.756.211,4.519q.014.21.029.426C99.7,56.778,99.842,58.96,99.842,61.35Z" fill="none" stroke="#000" stroke-width="4.29"/>
        <path id="Tracé_669" data-name="Tracé 669" d="M99.842,61.35a46.73,46.73,0,0,1-1.343,9.8c-.2.948-.387,1.792-.505,2.5a5.578,5.578,0,0,0-.1,2.393,2.335,2.335,0,0,0,.874.115c2.367,0,5.657-1.53,8.438-4.365a15.251,15.251,0,0,0,4.647-10.436,17.4,17.4,0,0,0-4.12-10.887c-2.3-2.762-4.99-4.316-7.166-4.532a2.2,2.2,0,0,0-.8,1.015,8.073,8.073,0,0,0-.432,2.968c-.012,1.281.09,2.756.211,4.519q.014.21.029.426C99.7,56.778,99.842,58.96,99.842,61.35Z" fill="#fff" stroke="#000" stroke-width="4.29"/>
        <path id="Tracé_670" data-name="Tracé 670" d="M23.186,5.634a4.29,4.29,0,0,1,6.423-2.546l.208.13L35.823,10.3l6.006,9.438L28.744,27.028l-8.795,8.151L15.23,45.69l4.076-25.312Z"/>
        <path id="Tracé_671" data-name="Tracé 671" d="M89.646,5.634a4.29,4.29,0,0,0-6.423-2.546l-.208.13L77.009,10.3,71,19.735l13.085,7.293,8.795,8.151L97.6,45.69,93.526,20.378Z"/>
        <path id="Tracé_672" data-name="Tracé 672" d="M25.187,10.926A3.076,3.076,0,0,1,29.8,9.1l4.145,4.919,6.81,9.092-9.764,4.1-11.258,11.4,2.813-17.588Z" fill="#fff"/>
        <path id="Tracé_673" data-name="Tracé 673" d="M87.645,10.926A3.076,3.076,0,0,0,83.03,9.1l-4.145,4.919-6.81,9.092,9.764,4.1L93.1,38.612,90.284,21.024Z" fill="#fff"/>
      </g>
      <path id="Tracé_459" data-name="Tracé 459" d="M183.35,288.773,231,230.511l28.046,26.729,67.476-77.369,31.928-13.151,63.341,75.647,22.55-8.764L481.4,265.9l14.335-10.716L537.5,287.951Z" transform="translate(-44.702 -166.72)" fill="#455a64"/>
    </g>
    <g id="freepik--Plant--inject-714" transform="translate(46.012 401.372)">
      <path id="Tracé_460" data-name="Tracé 460" d="M75.586,403.975c2.3,3.126,6.581,1.963,8.555,0s2.731-4.826,3.444-7.524c1.612-6.164,3.225-12.635,1.766-18.832a10.475,10.475,0,0,0-2.523-5.056,5.484,5.484,0,0,0-5.21-1.59c-2.194.625-3.466,2.8-4.387,4.859a44.892,44.892,0,0,0-3.97,19.315c.066,3.093.516,6.329,2.325,8.84" transform="translate(-43.375 -370.836)" fill="#ff7f27"/>
      <g id="Groupe_39" data-name="Groupe 39" transform="translate(29.878)" opacity="0.2">
        <path id="Tracé_461" data-name="Tracé 461" d="M75.586,403.975c2.3,3.126,6.581,1.963,8.555,0s2.731-4.826,3.444-7.524c1.612-6.164,3.225-12.635,1.766-18.832a10.475,10.475,0,0,0-2.523-5.056,5.484,5.484,0,0,0-5.21-1.59c-2.194.625-3.466,2.8-4.387,4.859a44.892,44.892,0,0,0-3.97,19.315c.066,3.093.516,6.329,2.325,8.84" transform="translate(-73.253 -370.836)"/>
      </g>
      <path id="Tracé_462" data-name="Tracé 462" d="M83.711,415.709a19.271,19.271,0,0,1,11.922-1.744,9.937,9.937,0,0,1,5.978,2.5c1.514,1.59,1.865,4.453.2,5.89a5.692,5.692,0,0,1-3.7,1.1c-3.17,0-6.691-.439-9.169,1.536-1.415,1.1-2.325,2.939-4.036,3.521a4.069,4.069,0,0,1-4.53-1.887,6.965,6.965,0,0,1-.636-5.122,7.875,7.875,0,0,1,3.97-5.791Z" transform="translate(-42.769 -366.688)" fill="#ff7f27"/>
      <path id="Tracé_463" data-name="Tracé 463" d="M72.224,407.707a11.56,11.56,0,0,0,1.536-10.683,20.467,20.467,0,0,0-6.581-8.983,34,34,0,0,0-11.44-6.383,12.13,12.13,0,0,0-5.1-.735,5.309,5.309,0,0,0-4.19,2.676c-1.1,2.3.066,5.012,1.36,7.228a85.784,85.784,0,0,0,7.678,11.1c2.292,2.819,4.914,5.572,8.325,6.789s6.932.976,8.665-1.415" transform="translate(-46.012 -369.862)" fill="#ff7f27"/>
      <path id="Tracé_464" data-name="Tracé 464" d="M76.317,447.365a6.58,6.58,0,0,0,.165-1.448c.077-1.1.175-2.369.285-3.949a57.344,57.344,0,0,1,.746-5.8,44.255,44.255,0,0,1,1.941-6.866,24.875,24.875,0,0,1,3.29-6.263,13.086,13.086,0,0,1,4.321-3.773,12.382,12.382,0,0,1,3.707-1.239,8.315,8.315,0,0,0,1.437-.241,6.833,6.833,0,0,0-1.47,0,11.231,11.231,0,0,0-3.839,1.1,13.074,13.074,0,0,0-4.552,3.806,24.437,24.437,0,0,0-3.455,6.383,41.153,41.153,0,0,0-1.919,6.987,48.44,48.44,0,0,0-.625,5.868c-.088,1.678-.1,3.038-.1,3.97a6.339,6.339,0,0,0,.066,1.47Z" transform="translate(-43.086 -366.294)" fill="#263238"/>
      <path id="Tracé_465" data-name="Tracé 465" d="M76.541,447.764a2.413,2.413,0,0,0,0-.669c0-.5,0-1.1-.055-1.919,0-1.656-.1-4.069-.088-7.042,0-5.945.318-14.16,1.1-23.2s1.9-17.187,2.95-23.033c.252-1.47.5-2.786.746-3.949s.428-2.194.614-2.961.3-1.382.406-1.876a2.489,2.489,0,0,0,.1-.658,2.886,2.886,0,0,0-.219.636c-.132.483-.3,1.1-.5,1.843s-.461,1.8-.724,2.95-.548,2.468-.823,3.938A213.877,213.877,0,0,0,76.9,414.86c-.768,9.049-1.02,17.286-.91,23.253,0,2.972.165,5.385.274,7.042l.165,1.919a2.588,2.588,0,0,0,.11.691Z" transform="translate(-43.112 -369.71)" fill="#263238"/>
      <path id="Tracé_466" data-name="Tracé 466" d="M78.134,431.395a12.065,12.065,0,0,0,0-2.007c-.11-1.283-.329-3.137-.746-5.407a72.389,72.389,0,0,0-1.963-7.853,70.352,70.352,0,0,0-3.532-9.268A49.566,49.566,0,0,0,61.825,392a24.866,24.866,0,0,0-2.336-2.073c-.351-.285-.669-.57-1-.8l-.9-.581A12.248,12.248,0,0,0,55.88,387.5a60.036,60.036,0,0,1,5.616,4.793,52.319,52.319,0,0,1,9.871,14.818,74.46,74.46,0,0,1,3.543,9.18,80.28,80.28,0,0,1,2.073,7.776c.472,2.194.746,4.08.921,5.341a14.762,14.762,0,0,0,.23,1.985Z" transform="translate(-45.057 -369.222)" fill="#263238"/>
    </g>
    <g id="freepik--Character--inject-714" transform="translate(267.314 135.205)">
      <path id="Tracé_467" data-name="Tracé 467" d="M307.664,392.54l-24.13,22.386S252.67,397.892,247.8,401.589l41.679,48.391,39.058-33.332Z" transform="translate(-247.778 -102.568)" fill="#ff7f27"/>
      <path id="Tracé_468" data-name="Tracé 468" d="M294.408,425.064a2.61,2.61,0,0,1-1.1,3.29,2.5,2.5,0,0,1-3.29-1.042,2.753,2.753,0,0,1,1.163-3.5,2.61,2.61,0,0,1,3.29,1.459" transform="translate(-243.713 -99.555)" fill="#e0e0e0"/>
      <path id="Tracé_469" data-name="Tracé 469" d="M289.5,449.247l3.773-3.214-41.394-45.375s-2.786-1.349-4.1.2Z" transform="translate(-247.78 -101.835)" fill="#263238"/>
      <path id="Tracé_470" data-name="Tracé 470" d="M280,412c-.23.208.68,1.481.921,3.29s-.219,3.29.066,3.433,1.338-1.393,1.009-3.587S280.135,411.8,280,412Z" transform="translate(-244.664 -100.686)" fill="#263238"/>
      <path id="Tracé_471" data-name="Tracé 471" d="M274.156,409.061c-.274.143.208,1.514-.1,3.181s-1.163,2.808-.954,3.027,1.678-.768,2.029-2.852S274.386,408.875,274.156,409.061Z" transform="translate(-245.332 -100.97)" fill="#263238"/>
      <path id="Tracé_472" data-name="Tracé 472" d="M266.262,411.687c.132.252,1.6-.428,2.369-2.194s.329-3.29.055-3.2-.384,1.349-1.1,2.753S266.087,411.456,266.262,411.687Z" transform="translate(-245.993 -101.237)" fill="#263238"/>
      <path id="Tracé_473" data-name="Tracé 473" d="M285.5,408.009c-.132.285,1.1,1.1,2.194,2.5s1.536,2.819,1.843,2.764.3-1.777-.987-3.433S285.589,407.669,285.5,408.009Z" transform="translate(-244.129 -101.08)" fill="#263238"/>
      <path id="Tracé_474" data-name="Tracé 474" d="M540.514,153.606a7.294,7.294,0,0,1-1.59-11.44c1.207-1.239,2.841-2.029,3.971-3.29a23.26,23.26,0,0,0,2.194-3.718,14.763,14.763,0,0,1,11.374-6.954,19.041,19.041,0,0,1,12.942,3.981c1.47,1.1,2.852,2.424,4.629,2.907s3.521.077,5.3.077a12.065,12.065,0,0,1,10.507,18.1,10.4,10.4,0,0,1-3.576,20.17c-2.994,0-5.824-1.305-8.566-2.49a157.939,157.939,0,0,0-34.78-10.475" transform="translate(-219.795 -128.163)" fill="#263238"/>
      <path id="Tracé_475" data-name="Tracé 475" d="M590.865,225.708a37.172,37.172,0,0,0,9.224-23.647c.175-8.632-1.382-19.392-6.844-26.082,3.663-4.1,2.04-8.566-.7-13.326s-7.557-7.974-12.526-10.332a59.119,59.119,0,0,0-23.7-5.649c-6.669-.165-15.531,1.1-16.353,5.923-.866,5.023,2.424,7.206,2.424,7.206a33.025,33.025,0,0,0-12.273,7.678c-8.2,8.116-11.319,16.244-10.069,25.227s3.29,15.948,8.775,21.563" transform="translate(-221.447 -126.373)" fill="#ff7f27"/>
      <path id="Tracé_476" data-name="Tracé 476" d="M533.959,218a8.182,8.182,0,0,0-3.367-1.985h.252a3.837,3.837,0,0,0-.713-.077,3.214,3.214,0,0,0-2.545.45h0a6.12,6.12,0,0,0-3.181,3.071,7.184,7.184,0,0,0,1.228,7.371,5.484,5.484,0,0,0,10-2.4A6.844,6.844,0,0,0,533.959,218Z" transform="translate(-221.049 -119.674)" fill="#455a64"/>
      <path id="Tracé_477" data-name="Tracé 477" d="M587.384,252.8l2.128-69.1a6.724,6.724,0,0,0-6.164-6.68l-35.855-8.2c-11.44-.943-18.723,13.282-19.183,24.755-.515,12.745-.636,28.331,1.1,37.8,3.466,19.03,18.163,21.125,18.163,21.125s.395,13.25.636,20.192l2.61,27.76Z" transform="translate(-220.653 -124.232)" fill="#ab6e65"/>
      <path id="Tracé_478" data-name="Tracé 478" d="M532.33,205.991a2.457,2.457,0,0,0,2.424,2.413,2.325,2.325,0,0,0,2.468-2.259,2.446,2.446,0,0,0-2.413-2.424,2.358,2.358,0,0,0-2.479,2.27Z" transform="translate(-220.231 -120.848)" fill="#263238"/>
      <path id="Tracé_479" data-name="Tracé 479" d="M531.534,198.9c.307.307,2.194-1.1,4.771-1.163s4.6,1.228,4.881.9c.132-.154-.186-.724-1.1-1.316a6.723,6.723,0,0,0-3.916-1.1,6.416,6.416,0,0,0-3.784,1.316C531.643,198.173,531.38,198.754,531.534,198.9Z" transform="translate(-220.313 -121.575)" fill="#263238"/>
      <path id="Tracé_480" data-name="Tracé 480" d="M554.85,206a2.446,2.446,0,0,0,2.413,2.413,2.358,2.358,0,0,0,2.479-2.27,2.446,2.446,0,0,0-2.413-2.413A2.336,2.336,0,0,0,554.85,206Z" transform="translate(-218.051 -120.848)" fill="#263238"/>
      <path id="Tracé_481" data-name="Tracé 481" d="M555.164,198.8c.318.318,2.194-1.1,4.771-1.1s4.6,1.217,4.881.888c.132-.143-.186-.713-1.1-1.305a6.724,6.724,0,0,0-3.916-1.1,6.515,6.515,0,0,0-3.784,1.327C555.274,198.077,554.989,198.658,555.164,198.8Z" transform="translate(-218.026 -121.578)" fill="#263238"/>
      <path id="Tracé_482" data-name="Tracé 482" d="M547.433,218.531c0-.154-1.634-.395-4.289-.68-.68-.055-1.316-.165-1.448-.625a3.488,3.488,0,0,1,.406-2.007c.6-1.645,1.217-3.367,1.876-5.166,2.6-7.36,4.464-13.4,4.168-13.513S545.5,202.32,542.9,209.7l-1.788,5.2a3.915,3.915,0,0,0-.3,2.654,1.7,1.7,0,0,0,1.1.954,4.574,4.574,0,0,0,1.1.132C545.777,218.707,547.433,218.685,547.433,218.531Z" transform="translate(-219.42 -121.543)" fill="#263238"/>
      <path id="Tracé_483" data-name="Tracé 483" d="M545.83,245.714a48.6,48.6,0,0,0,25.413-7.4s-5.912,13.26-25.062,11.911Z" transform="translate(-218.924 -117.499)" fill="#7c4b43"/>
      <path id="Tracé_484" data-name="Tracé 484" d="M547.362,222.561a6.471,6.471,0,0,1,5.276-2.961,4.234,4.234,0,0,1,3.51,1.81,3.872,3.872,0,0,1-4.212,5.9A9.7,9.7,0,0,1,548,225a3.16,3.16,0,0,1-.856-.965,1.36,1.36,0,0,1,.077-1.338" transform="translate(-218.811 -119.311)" fill="#7c4b43"/>
      <path id="Tracé_485" data-name="Tracé 485" d="M554.728,218.09c-.428,0-.362,2.852-2.764,4.936s-5.484,1.843-5.484,2.194c0,.186.691.537,1.985.548a7.163,7.163,0,0,0,4.563-1.711,6.164,6.164,0,0,0,2.194-4.135C555.211,218.77,554.871,218.068,554.728,218.09Z" transform="translate(-218.862 -119.457)" fill="#263238"/>
      <path id="Tracé_486" data-name="Tracé 486" d="M554.051,192.266c.274.7,2.9.307,6,.614s5.616,1.1,6.022.428c.175-.307-.274-.976-1.305-1.645a10,10,0,0,0-4.486-1.459,10.167,10.167,0,0,0-4.672.658C554.49,191.345,553.931,191.926,554.051,192.266Z" transform="translate(-218.13 -122.161)" fill="#263238"/>
      <path id="Tracé_487" data-name="Tracé 487" d="M532.267,191.93c.472.592,2.27-.077,4.453-.154s4.047.318,4.453-.318c.186-.307-.121-.91-.943-1.459a6.186,6.186,0,0,0-3.652-.888,6.12,6.12,0,0,0-3.532,1.283C532.289,191.02,532.047,191.645,532.267,191.93Z" transform="translate(-220.245 -122.264)" fill="#263238"/>
      <path id="Tracé_488" data-name="Tracé 488" d="M543.617,174.229s17.911-.8,32.071,19.03c9.334,13.074,11.714,29.757,11.714,29.757l5.978-32.06-5.616-14.313L575.172,170l-23.538-.625-8.775,4.65" transform="translate(-219.212 -124.174)" fill="#ff7f27"/>
      <path id="Tracé_489" data-name="Tracé 489" d="M580.994,175.34c-28.747-6.032-51.287,4.091-54.841,26.587L520,187.372l14.259-18.317,16.123-4.705,32.9,4Z" transform="translate(-221.425 -124.66)" fill="#ff7f27"/>
      <path id="Tracé_490" data-name="Tracé 490" d="M588.35,216.48a8.872,8.872,0,0,0-3.663-2.194h.274a4.451,4.451,0,0,0-.768-.1,3.554,3.554,0,0,0-2.742.483h0a6.581,6.581,0,0,0-3.422,3.29,7.755,7.755,0,0,0,1.327,7.941,5.923,5.923,0,0,0,10.76-2.588,7.371,7.371,0,0,0-1.766-6.833Z" transform="translate(-215.861 -119.844)" fill="#455a64"/>
      <path id="Tracé_491" data-name="Tracé 491" d="M581,209.666a3.049,3.049,0,0,0,1.261-.5,7.14,7.14,0,0,0,2.534-2.7,7.228,7.228,0,0,0,.68-5.484c-.263-1.009-.669-2-.866-3.027a3.093,3.093,0,0,1,.68-2.852,10.541,10.541,0,0,1,2.72-1.821,8.3,8.3,0,0,0,2.556-2.106,9.093,9.093,0,0,0,1.908-5.155,7.874,7.874,0,0,0-.669-3.641,3.037,3.037,0,0,0-.724-1.1,10.43,10.43,0,0,1,.834,4.749,8.775,8.775,0,0,1-1.908,4.738,7.546,7.546,0,0,1-2.369,1.887,11.23,11.23,0,0,0-2.928,1.963,3.861,3.861,0,0,0-.845,3.521c.23,1.1.658,2.128.921,3.082a6.866,6.866,0,0,1-.494,4.98,7.535,7.535,0,0,1-2.194,2.7C581.363,209.4,580.924,209.6,581,209.666Z" transform="translate(-215.52 -123.021)" fill="#fff"/>
      <path id="Tracé_492" data-name="Tracé 492" d="M585.231,171.6a12.152,12.152,0,0,1,.976,4.442,8.906,8.906,0,0,1-1.316,4.639c-.921,1.6-2.676,2.709-4.387,4.1a7.92,7.92,0,0,0-2.194,2.534,5.485,5.485,0,0,0-.516,3.115c.219,1.963.866,3.576.79,4.958a4.387,4.387,0,0,1-1.1,2.994c-.537.559-1.02.625-.987.7s.121,0,.34,0a2.193,2.193,0,0,0,.845-.461,4.475,4.475,0,0,0,1.4-3.192c.154-1.536-.472-3.225-.625-5.045a4.979,4.979,0,0,1,.483-2.709,7.46,7.46,0,0,1,2-2.27c1.656-1.327,3.565-2.556,4.541-4.332a9.224,9.224,0,0,0,1.261-5.023,8.357,8.357,0,0,0-.823-3.378A2.94,2.94,0,0,0,585.231,171.6Z" transform="translate(-215.955 -123.958)" fill="#fff"/>
      <path id="Tracé_493" data-name="Tracé 493" d="M566.51,185.859a.752.752,0,0,0,.779.154,1.535,1.535,0,0,0,.812-.548,1.909,1.909,0,0,0,.395-1.239c0-.965-.537-1.952-.614-2.95a2.93,2.93,0,0,1,1.854-2.5,8.084,8.084,0,0,0,3.027-2.347,6.459,6.459,0,0,0,1.2-2.907,4.059,4.059,0,0,0-.362-2.83,17.17,17.17,0,0,1-.175,2.72A6.843,6.843,0,0,1,572.192,176a7.8,7.8,0,0,1-2.841,2.095,5.245,5.245,0,0,0-1.6,1.305,2.654,2.654,0,0,0-.581,1.919c.165,1.283.757,2.194.779,2.928a1.426,1.426,0,0,1-.757,1.481C566.806,185.914,566.532,185.793,566.51,185.859Z" transform="translate(-216.922 -124.046)" fill="#fff"/>
      <path id="Tracé_494" data-name="Tracé 494" d="M561.348,170.5a.7.7,0,0,0-.395.165,1.371,1.371,0,0,0-.318,1.1,8.94,8.94,0,0,0,.5,1.47,3.049,3.049,0,0,1,.066,1.612,6.735,6.735,0,0,1-1.514,2.742c-.537.647-.877,1.1-.8,1.163s.537-.208,1.2-.779a5.638,5.638,0,0,0,1.887-2.961,3.509,3.509,0,0,0-.154-2.029,14.51,14.51,0,0,1-.636-1.327,1.558,1.558,0,0,1,.164-1.152Z" transform="translate(-217.661 -124.064)" fill="#fff"/>
      <path id="Tracé_495" data-name="Tracé 495" d="M534.82,161.76a2.852,2.852,0,0,0,.34.768c.274.461.735,1.1,1.163,1.854a3.959,3.959,0,0,1,.318,2.961,15.772,15.772,0,0,0-.79,4.025,7.2,7.2,0,0,0,1.283,3.981,6.877,6.877,0,0,0,2.61,2.194,4.387,4.387,0,0,0,3.016.559,15.838,15.838,0,0,1-2.764-1.1,6.691,6.691,0,0,1-2.259-2.117,6.768,6.768,0,0,1-1.1-3.587,16.781,16.781,0,0,1,.713-3.861,4.387,4.387,0,0,0-.548-3.389,13.666,13.666,0,0,0-1.393-1.755C535.017,161.958,534.875,161.738,534.82,161.76Z" transform="translate(-219.99 -124.911)" fill="#fff"/>
      <path id="Tracé_496" data-name="Tracé 496" d="M522.791,174.3c-.11.132.866.548,1.261,1.941.186.724.57,1.59.856,2.5a17.907,17.907,0,0,0,1.1,3.115,6.2,6.2,0,0,0,5.122,3.1,3.433,3.433,0,0,0,2.435-.592,22.105,22.105,0,0,1-2.391,0,5.989,5.989,0,0,1-4.475-2.939,19.321,19.321,0,0,1-1.1-2.961c-.362-.976-.768-1.744-1.031-2.457a3.083,3.083,0,0,0-1.1-1.492C523.021,174.334,522.813,174.268,522.791,174.3Z" transform="translate(-221.156 -123.697)" fill="#fff"/>
      <path id="Tracé_497" data-name="Tracé 497" d="M521,191.8c-.088,0,0,.483.406,1.1a4.091,4.091,0,0,0,5.1,1.185c.636-.34.91-.7.845-.779a6.509,6.509,0,0,1-3.433.351C522.056,193.226,521.123,191.68,521,191.8Z" transform="translate(-221.331 -122.003)" fill="#fff"/>
      <path id="Tracé_498" data-name="Tracé 498" d="M550.22,158.71c-.077.121.812.559,1.645,1.788a5.846,5.846,0,0,1,.647,5.4,7.283,7.283,0,0,0-.987,3.29,4.574,4.574,0,0,0,1.1,2.621c1.042,1.217,1.941,1.634,1.985,1.568s-.691-.691-1.547-1.9a4.245,4.245,0,0,1-.856-2.314,7.382,7.382,0,0,1,.987-2.972,5.78,5.78,0,0,0,.285-3.466,6.328,6.328,0,0,0-1.206-2.545,3.521,3.521,0,0,0-2.051-1.47Z" transform="translate(-218.5 -125.206)" fill="#fff"/>
      <path id="Tracé_499" data-name="Tracé 499" d="M567.114,171.477c.208-.088-.428-1.777-.494-3.938s.395-3.894.175-3.96-1.1,1.645-.954,3.992S566.916,171.587,567.114,171.477Z" transform="translate(-216.989 -124.735)" fill="#fff"/>
      <path id="Tracé_500" data-name="Tracé 500" d="M579.093,170.124a2.856,2.856,0,0,1-.537-2.281c.23-1.492,1.667-3.2,2.863-5.374a8.951,8.951,0,0,0,1.1-3.378,5.166,5.166,0,0,0-.538-2.885,3.082,3.082,0,0,0-1.4-1.415c-.45-.175-.724-.121-.724-.077s.23.11.581.351a3.191,3.191,0,0,1,1.1,1.382c.658,1.371.406,3.6-.746,5.66s-2.578,3.894-2.72,5.671a2.774,2.774,0,0,0,.483,1.93C578.819,170.1,579.093,170.157,579.093,170.124Z" transform="translate(-215.806 -125.597)" fill="#fff"/>
      <path id="Tracé_501" data-name="Tracé 501" d="M562.394,162.689a2.744,2.744,0,0,0-.428-.57,2.8,2.8,0,0,1-.877-1.459,3.938,3.938,0,0,1,1.207-2.194c.68-.768,1.59-1.481,2.512-2.347a5.484,5.484,0,0,0,1.93-3.082,4.936,4.936,0,0,0-.79-2.874,6.274,6.274,0,0,0-1.645-2.073,14.647,14.647,0,0,0,1.163,2.325,4.881,4.881,0,0,1,.559,2.534,5.21,5.21,0,0,1-1.766,2.61c-1.722,1.6-3.729,3.17-3.718,5.177a2.709,2.709,0,0,0,1.217,1.623C562.141,162.6,562.35,162.732,562.394,162.689Z" transform="translate(-217.5 -126.234)" fill="#fff"/>
      <path id="Tracé_502" data-name="Tracé 502" d="M546.162,160.139a3.5,3.5,0,0,1-1.1-1.689,3.553,3.553,0,0,1,.2-2.117,15.84,15.84,0,0,1,1.327-2.479,7.163,7.163,0,0,0,1.1-2.8,3.784,3.784,0,0,0-.6-2.446c-.735-1.272-1.788-1.47-1.777-1.338a4.607,4.607,0,0,1,1.283,1.6,3.423,3.423,0,0,1,.384,2.073,7.513,7.513,0,0,1-1.1,2.512,13.245,13.245,0,0,0-1.338,2.632,3.872,3.872,0,0,0,0,2.512,2.622,2.622,0,0,0,1.009,1.36C545.931,160.139,546.162,160.194,546.162,160.139Z" transform="translate(-219.07 -126.316)" fill="#fff"/>
      <path id="Tracé_503" data-name="Tracé 503" d="M540.41,158.682a11.373,11.373,0,0,0,2.194,0c1.4-.066,3.433,0,5.923.055a64.712,64.712,0,0,1,19.052,3.773,98.559,98.559,0,0,1,17.439,8.775l5.023,3.159a11.479,11.479,0,0,0,1.887,1.1,11.652,11.652,0,0,0-1.711-1.36c-1.1-.834-2.808-2-4.9-3.367a86.462,86.462,0,0,0-17.472-8.994,60.236,60.236,0,0,0-19.293-3.608,57.63,57.63,0,0,0-5.956.2A12.351,12.351,0,0,0,540.41,158.682Z" transform="translate(-219.449 -125.255)" fill="#263238"/>
      <path id="Tracé_504" data-name="Tracé 504" d="M587.449,173.785a.812.812,0,0,1-.2-.066l-.537-.208-.866-.351-1.217-.417a34.9,34.9,0,0,0-7.963-1.678,48.865,48.865,0,0,0-12.065.417c-2.259.329-4.6.823-7.02,1.393a76.7,76.7,0,0,0-7.382,2.106c-10.047,3.236-17.67,9.871-21.015,15.838a27.927,27.927,0,0,0-2.917,7.568c-.219.943-.351,1.678-.439,2.194a2.4,2.4,0,0,1-.11.57.747.747,0,0,1,0,.186s0-.066,0-.2a2,2,0,0,1,.066-.57,20.63,20.63,0,0,1,.362-2.194,26.664,26.664,0,0,1,2.808-7.678c3.29-6.109,10.968-12.833,21.147-16.1,2.5-.856,5-1.525,7.425-2.095a68.787,68.787,0,0,1,7.052-1.382,47.645,47.645,0,0,1,12.164-.318,32.8,32.8,0,0,1,8,1.821l1.2.461.856.395.526.252A.526.526,0,0,1,587.449,173.785Z" transform="translate(-220.871 -124.059)" fill="#263238"/>
      <path id="Tracé_505" data-name="Tracé 505" d="M547.91,174.541a2.9,2.9,0,0,1,.614,0,16.908,16.908,0,0,1,1.777.186,25.149,25.149,0,0,1,6.274,1.887,45.3,45.3,0,0,1,16.661,13.546,69.261,69.261,0,0,1,6.34,10.069A84.54,84.54,0,0,1,583.7,209a43.991,43.991,0,0,1,2.018,6.23c.165.757.285,1.349.34,1.755a3.6,3.6,0,0,1,.077.614,3.367,3.367,0,0,1-.165-.6c-.077-.395-.23-.976-.428-1.722a50.538,50.538,0,0,0-2.128-6.153,88.49,88.49,0,0,0-4.2-8.775,72.268,72.268,0,0,0-6.329-9.992,46.066,46.066,0,0,0-16.452-13.535,27.145,27.145,0,0,0-6.164-2.007c-.757-.132-1.349-.219-1.755-.263A3.919,3.919,0,0,1,547.91,174.541Z" transform="translate(-218.723 -123.675)" fill="#263238"/>
      <path id="Tracé_506" data-name="Tracé 506" d="M405.05,309.524l13.787-8.654,23.088,4.321,17.319,15.235,28.517,10.5-1.327,24.536s-44.849-25.007-48.38-27.3-10.255-9.334-10.255-9.334l-8.983-2.325H408.231a20.994,20.994,0,0,0-3.2-3.784C403.789,311.772,405.05,309.524,405.05,309.524Z" transform="translate(-232.609 -111.443)" fill="#ab6e65"/>
      <path id="Tracé_507" data-name="Tracé 507" d="M435.073,314.243a8.939,8.939,0,0,1-1.6-.834c-1-.57-2.424-1.4-4.135-2.435h.1L420.452,310l-.768-.088h.077c-4.1.614-7.776,1.1-10.431,1.492l-3.148.395a5.154,5.154,0,0,1-1.163.066,5.3,5.3,0,0,1,1.1-.285l3.115-.559c2.643-.461,6.318-1.1,10.409-1.678h.077l.768.088,8.961,1.1h.055c1.689,1.1,3.071,1.963,4.036,2.6A9.608,9.608,0,0,1,435.073,314.243Z" transform="translate(-232.557 -110.623)" fill="#7c4b43"/>
      <path id="Tracé_508" data-name="Tracé 508" d="M436.065,309.214a11.242,11.242,0,0,1-1.876-.845c-1.174-.581-2.841-1.437-4.837-2.49h.088l-8.9-1L418.2,304.6h.121c-3.74,1.36-7.052,2.545-9.433,3.378l-2.819.943a4.389,4.389,0,0,1-1.1.274,4.388,4.388,0,0,1,.976-.472l2.753-1.1c2.347-.91,5.638-2.194,9.378-3.554h.077l2.347.274,8.884,1.1h0c1.985,1.1,3.619,2.007,4.749,2.654a11.056,11.056,0,0,1,1.93,1.119Z" transform="translate(-232.562 -111.133)" fill="#7c4b43"/>
      <path id="Tracé_509" data-name="Tracé 509" d="M355.894,239.245l29.965,78.214a2.314,2.314,0,0,0,1.294,1.316l77.983,31.193a2.314,2.314,0,0,0,3.17-2.194h0a2.325,2.325,0,0,0-1.415-2.117l-75.867-31.862-29.91-76.667a2.292,2.292,0,0,0-3.082-1.239l-.921.406A2.3,2.3,0,0,0,355.894,239.245Z" transform="translate(-237.328 -117.754)" fill="#e0e0e0"/>
      <path id="Tracé_510" data-name="Tracé 510" d="M283.85,403.828S375.357,329.048,380,324.935s12.35-8.775,24.2-9.784,140.557,62.793,140.557,62.793l26.269,56.6s-16.924,21.936-47.887,14.928c-30.25-6.855-49.28-20.839-63.846-34-13.26-11.944-53.941-43.873-53.941-43.873l-92.286,65.469Z" transform="translate(-244.288 -110.061)" fill="#263238"/>
      <path id="Tracé_511" data-name="Tracé 511" d="M394.638,350.64a69.3,69.3,0,0,1,.285,8.775,68,68,0,0,1-.274,8.774,65.474,65.474,0,0,1-.3-8.775A69.3,69.3,0,0,1,394.638,350.64Z" transform="translate(-233.593 -106.624)" fill="#455a64"/>
      <path id="Tracé_512" data-name="Tracé 512" d="M511.8,346.826A104.656,104.656,0,0,1,516.8,318.66c4.815-14.434,30.393-47.492,30.393-47.492l1.206-6.054s28.243-19.293,34.659-22.507,10.9-3.137,10.9-3.137l.845,6.263s15.355,15.279,16.332,31.413c.779,12.888-.077,51.474-.077,51.474l-3.828,135.72s-88.656.23-96.914-.406S502.7,460.4,502.7,460.4l10.2-83.468Z" transform="translate(-223.101 -117.387)" fill="#ff7f27"/>
      <path id="Tracé_513" data-name="Tracé 513" d="M588.362,254.271a134.908,134.908,0,0,0-19.337,17.121c-10.694,11.22-40.089,59.557-40.089,59.557l-49.565-2.775a3.378,3.378,0,0,0-3.751,2.7c-1.5,7.557-4.749,26.9-.066,34.561,5.89,9.63,12.833,8.029,12.833,8.029s49.719,5.012,56.672.1,47.317-54.72,54.259-71.819S614.554,253.755,588.362,254.271Z" transform="translate(-225.964 -115.955)" fill="#ff7f27"/>
      <path id="Tracé_514" data-name="Tracé 514" d="M599.343,300.087s-.088.23-.285.68-.516,1.1-.91,2-.987,1.93-1.656,3.17l-1.1,2-1.36,2.194c-3.839,6.274-9.871,15.081-17.9,25.644q-6.022,7.93-13.458,17.066c-2.49,3.027-5.089,6.142-7.831,9.29-1.382,1.568-2.775,3.17-4.256,4.749-.724.79-1.459,1.59-2.248,2.358a26.551,26.551,0,0,1-2.424,2.27l-.636.548c-.241.154-.516.3-.768.439a10.839,10.839,0,0,1-1.612.57,23.212,23.212,0,0,1-3.356.636c-2.259.3-4.563.439-6.888.516-4.651.165-9.411.077-14.259-.1-9.685-.351-19.743-1.1-30.009-2.062h.088a10.354,10.354,0,0,1-6.811-1.535,17.55,17.55,0,0,1-5.243-4.991,15.981,15.981,0,0,1-2.468-4.925,28.357,28.357,0,0,1-.91-5.385,65.608,65.608,0,0,1,.11-10.694c.285-3.51.735-6.976,1.305-10.365.285-1.7.592-3.378.921-5.056a3.674,3.674,0,0,1,4.058-2.885h0l49.51,2.885-.219.121c10.848-18.086,20.2-32.784,27.091-42.776,3.466-5,6.252-8.862,8.314-11.363.987-1.283,1.843-2.194,2.391-2.819s.866-.921.866-.921-.263.34-.812.976-1.371,1.557-2.336,2.852c-2.029,2.523-4.771,6.416-8.193,11.429-6.822,10.058-16.112,24.8-26.916,42.885l-.066.132h-.121l-49.565-2.742h0a3.1,3.1,0,0,0-3.433,2.446q-.494,2.5-.921,5.034c-.559,3.389-1.009,6.833-1.294,10.332a65.659,65.659,0,0,0-.1,10.6,27.655,27.655,0,0,0,.888,5.265,15.355,15.355,0,0,0,2.38,4.76,16.979,16.979,0,0,0,5.067,4.826,9.8,9.8,0,0,0,6.394,1.47h.1c10.277.987,20.313,1.711,29.976,2.073,4.837.175,9.575.263,14.259.121,2.314-.088,4.607-.208,6.844-.5a23.081,23.081,0,0,0,3.29-.625,5.813,5.813,0,0,0,2.841-1.448,25.518,25.518,0,0,0,2.38-2.194c.779-.757,1.525-1.547,2.194-2.336,1.47-1.568,2.863-3.159,4.245-4.727q4.124-4.727,7.853-9.257c4.969-6.043,9.477-11.747,13.491-17.012,8.051-10.529,14.149-19.293,18.032-25.523l1.382-2.194,1.1-1.985c.691-1.228,1.316-2.248,1.7-3.137l.954-1.974A7.36,7.36,0,0,1,599.343,300.087Z" transform="translate(-225.987 -114.302)" fill="#263238"/>
      <path id="Tracé_515" data-name="Tracé 515" d="M533.868,345.042a29.008,29.008,0,0,1-1.1-3.236,62.639,62.639,0,0,0-6.932-14.752,32.463,32.463,0,0,1-1.81-2.885,15.233,15.233,0,0,1,2.194,2.665,49.153,49.153,0,0,1,4.124,7.129,48.145,48.145,0,0,1,2.863,7.678,15.471,15.471,0,0,1,.658,3.4Z" transform="translate(-221.035 -109.187)" fill="#263238"/>
      <path id="Tracé_516" data-name="Tracé 516" d="M525.856,345.244a20.117,20.117,0,0,1-.175-3.126c0-1.93-.165-4.6-.406-7.524s-.57-5.572-.834-7.48a20.57,20.57,0,0,1-.351-3.1,14.257,14.257,0,0,1,.746,3.038,73.582,73.582,0,0,1,1,7.5,72.038,72.038,0,0,1,.252,7.557A15.878,15.878,0,0,1,525.856,345.244Z" transform="translate(-221.029 -109.202)" fill="#263238"/>
      <path id="Tracé_517" data-name="Tracé 517" d="M489.6,367.528a9.794,9.794,0,0,1-.472-1.722c-.285-1.1-.625-2.731-.987-4.749a118.569,118.569,0,0,1-1.766-15.915,120.57,120.57,0,0,1,.406-16c.2-2.04.395-3.685.581-4.815a10.441,10.441,0,0,1,.329-1.755,11.17,11.17,0,0,1-.11,1.777c-.11,1.1-.252,2.786-.395,4.826a138.768,138.768,0,0,0,1.349,31.808c.318,2.018.592,3.641.8,4.771a11.121,11.121,0,0,1,.263,1.777Z" transform="translate(-224.69 -109.342)" fill="#263238"/>
      <path id="Tracé_518" data-name="Tracé 518" d="M590.8,245.18a2.193,2.193,0,0,1-.537.285l-1.568.713c-1.36.614-3.29,1.547-5.66,2.8a154.827,154.827,0,0,0-17.549,11.286c-6.581,4.749-12.394,9.169-16.8,12.175l-.175.121-.11-.175c-1.437-2.347-2.259-4.387-2.961-5.725-.34-.68-.614-1.206-.812-1.547a2.194,2.194,0,0,1-.274-.548,2.733,2.733,0,0,1,.373.483c.23.329.537.845.91,1.5.768,1.316,1.656,3.29,3.1,5.6h-.285c4.387-3.071,10.146-7.546,16.693-12.306A138.859,138.859,0,0,1,582.8,248.679c2.391-1.217,4.387-2.095,5.758-2.654l1.612-.614A2.2,2.2,0,0,1,590.8,245.18Z" transform="translate(-219.068 -116.834)" fill="#263238"/>
      <g id="Groupe_40" data-name="Groupe 40" transform="translate(289.8 205.704)" opacity="0.3">
        <path id="Tracé_519" data-name="Tracé 519" d="M548.195,360.877l-.088.11a23.121,23.121,0,0,1-17.461,8.3L512,369.553c5.484,2.435,11.319,5.484,17.253,6.515s12.372.548,17.549-2.6c4.519-2.775,7.678-7.3,10.606-11.692,10.036-14.818,20.116-29.724,27.475-46.066C572.391,330.671,560.666,345.949,548.195,360.877Z" transform="translate(-512 -315.71)"/>
      </g>
      <g id="Groupe_41" data-name="Groupe 41" transform="translate(325.71 133.874)" opacity="0.3">
        <path id="Tracé_520" data-name="Tracé 520" d="M544.74,264.687l3.554,11.352,31.139-25.819-30.853,21.563Z" transform="translate(-544.74 -250.22)"/>
      </g>
      <path id="Tracé_521" data-name="Tracé 521" d="M594.186,292.6s.175-.713.494-1.985a31.06,31.06,0,0,0,.856-5.484,26.069,26.069,0,0,0-.746-8.149,21.935,21.935,0,0,0-4.607-8.775,18.953,18.953,0,0,0-8.149-5.616,17.78,17.78,0,0,0-8.073-.746,16.694,16.694,0,0,0-5.254,1.667c-1.163.6-1.744,1.1-1.777,1.009a2,2,0,0,1,.406-.351,11.9,11.9,0,0,1,1.261-.856,15.443,15.443,0,0,1,5.3-1.865,17.79,17.79,0,0,1,8.314.647,19.118,19.118,0,0,1,8.413,5.736,22.079,22.079,0,0,1,4.672,9.06,25.884,25.884,0,0,1,.647,8.314,28.278,28.278,0,0,1-1.1,5.484q-.3.954-.494,1.448a1.973,1.973,0,0,1-.165.461Z" transform="translate(-216.882 -115.281)" fill="#263238"/>
      <path id="Tracé_522" data-name="Tracé 522" d="M518.542,364.83a4.97,4.97,0,0,1,0,.888c0,.636-.11,1.481-.186,2.545-.165,2.194-.45,5.385-.823,9.323-.746,7.864-1.919,18.723-3.29,30.711s-2.556,22.77-3.444,30.711c-.428,3.883-.768,7.042-1.009,9.3-.121,1.1-.219,1.9-.3,2.523a6.224,6.224,0,0,1-.132.877,4.953,4.953,0,0,1,0-.888c0-.625.11-1.47.186-2.534.164-2.194.45-5.385.823-9.323.746-7.864,1.919-18.723,3.29-30.711s2.556-22.781,3.444-30.711c.428-3.883.768-7.053,1.009-9.3.121-1.1.219-1.9.285-2.534a5.421,5.421,0,0,1,.142-.877Z" transform="translate(-222.457 -105.25)" fill="#263238"/>
      <path id="Tracé_523" data-name="Tracé 523" d="M550.852,269.33a3.709,3.709,0,0,1-.428.548l-1.283,1.514c-1.1,1.316-2.676,3.29-4.53,5.7a196.441,196.441,0,0,0-13.162,20.1,154.429,154.429,0,0,0-10.529,21.574,39.6,39.6,0,0,0-2.04,6.965,18.481,18.481,0,0,0-.241,2.643,3.157,3.157,0,0,1-.088-.68,10.818,10.818,0,0,1,.11-2,35.91,35.91,0,0,1,1.876-7.074,140.547,140.547,0,0,1,10.409-21.717,176.675,176.675,0,0,1,13.326-20.061c1.908-2.435,3.532-4.332,4.694-5.6.57-.647,1.1-1.1,1.36-1.448a2.468,2.468,0,0,1,.526-.472Z" transform="translate(-221.566 -114.496)" fill="#263238"/>
      <g id="Groupe_42" data-name="Groupe 42" transform="translate(312.044 205.195)" opacity="0.3">
        <path id="Tracé_524" data-name="Tracé 524" d="M608.245,322.193c.066-2.27-.351-6.416-2.556-6.91-3.389-.768-11.593,10.672-13.293,13.7-9.674,17.209-12.339,30.524-13.337,47.624s-3.576,33.815-9.586,49.85-20.2,28.912-37.193,30.349l72.083.2C605.459,414.293,607.1,364.9,608.245,322.193Z" transform="translate(-532.28 -315.246)"/>
      </g>
    </g>
    <g id="freepik--Floor--inject-714" transform="translate(55.179 481.953)">
      <path id="Tracé_525" data-name="Tracé 525" d="M54.37,444.6c0-.155,133.479-.288,298.087-.288s298.115.133,298.115.288-133.451.288-298.115.288S54.37,444.754,54.37,444.6Z" transform="translate(-54.37 -444.31)" fill="#263238"/>
    </g>
    <g id="freepik--Rock--inject-714" transform="translate(88.413 403.691)">
      <path id="Tracé_536" data-name="Tracé 536" d="M261.9,398.938,219.6,374.83l-74.276,27.058L85.4,451.113H304.719Z" transform="translate(-84.599 -372.768)" fill="#f5f5f5"/>
      <path id="Tracé_537" data-name="Tracé 537" d="M85.4,451.285l76.031-44.2L261.9,399.109,217.906,373.06l-72.587,29Z" transform="translate(-84.599 -372.939)" fill="#e0e0e0"/>
      <path id="Tracé_538" data-name="Tracé 538" d="M185.71,446.934l37.27-25.216,34.67-2.468-29,6.438-14.478,21.125Z" transform="translate(-74.888 -368.468)" fill="#e0e0e0"/>
      <path id="Tracé_539" data-name="Tracé 539" d="M258.9,418.773a15.62,15.62,0,0,1-2.742.362l-7.579.68-25.5,1.974.219-.077-4.168,2.863c-9.345,6.405-17.834,12.153-24.009,16.288l-7.327,4.848-2.018,1.272c-.472.285-.724.428-.746.395s.2-.208.636-.548l1.919-1.415,7.173-5.089c6.076-4.267,14.5-10.1,23.845-16.507l4.179-2.863.11-.066h.121l25.534-1.667,7.59-.406a17.682,17.682,0,0,1,2.764-.044Z" transform="translate(-74.954 -368.517)" fill="#263238"/>
      <path id="Tracé_540" data-name="Tracé 540" d="M261.838,398.955s.274.3.779.888l2.259,2.676,8.687,10.354,32.093,38.388.274.318H84.67l.6-.5L145.061,402.1h0l72.39-29.153h.154l32.553,19.161,8.61,5.1,2.194,1.316c.494.3.735.461.735.461l-.768-.428-2.194-1.283-8.665-5.023-32.51-19.03h.186l-72.39,29.3h.066c-18.218,14.939-38.389,31.468-59.743,49.028l-.186-.5h40.878l179.165.219-.154.318-31.95-38.542-8.6-10.42-2.194-2.72A6.841,6.841,0,0,1,261.838,398.955Z" transform="translate(-84.67 -372.95)" fill="#263238"/>
    </g>
    <g id="freepik--Birds--inject-714" transform="translate(203.96 62.516)">
      <path id="Tracé_541" data-name="Tracé 541" d="M351.288,131.675c0,.077-1.217-.417-3.466-.91a27.563,27.563,0,0,0-9.685-.373,26,26,0,0,0-13.052,5.627,27.1,27.1,0,0,0-9.213,14.621v.165l-.263,1.042-.406-.987a28.967,28.967,0,0,0-11.023-13.315,28.177,28.177,0,0,0-13.469-4.5,29.614,29.614,0,0,0-9.619.888c-2.194.581-3.4,1.1-3.422,1.031a4.158,4.158,0,0,1,.834-.406,20.244,20.244,0,0,1,2.512-.888,28.725,28.725,0,0,1,23.516,3.29,29.428,29.428,0,0,1,11.33,13.6l-.669.055v-.165a27.42,27.42,0,0,1,9.487-14.939,26.214,26.214,0,0,1,13.392-5.616,26.577,26.577,0,0,1,9.817.592,19.187,19.187,0,0,1,2.545.812A5.327,5.327,0,0,1,351.288,131.675Z" transform="translate(-181.532 -55.326)" fill="#263238"/>
      <path id="Tracé_542" data-name="Tracé 542" d="M420.142,61.89a18.647,18.647,0,0,1-1.558,1.8,38.7,38.7,0,0,0-3.817,5.188A37.851,37.851,0,0,0,409.1,89.014c0,.088,0,.175,0,.252l-.691.066a33.771,33.771,0,0,0-9.279-18.481,45.572,45.572,0,0,0-6.767-5.484,2.084,2.084,0,0,1,.559.252c.34.2.877.45,1.514.877a30.252,30.252,0,0,1,5.045,4.014A33.234,33.234,0,0,1,409.1,89.234l-.7.066v-.263a37.007,37.007,0,0,1,5.956-20.445,33.173,33.173,0,0,1,4.036-5.111c.515-.559.976-.943,1.272-1.217a2.491,2.491,0,0,1,.483-.373Z" transform="translate(-170.429 -61.89)" fill="#263238"/>
      <path id="Tracé_543" data-name="Tracé 543" d="M230.515,96.4c0,.066-.68-.186-1.919-.439a15.673,15.673,0,0,0-5.3-.165,14.423,14.423,0,0,0-7.1,3.1,14.774,14.774,0,0,0-5.012,7.963v.088l-.263,1.1-.406-1a15.849,15.849,0,0,0-6-7.261,15.465,15.465,0,0,0-7.327-2.479,17.011,17.011,0,0,0-5.276.428c-1.217.307-1.876.57-1.9.516s.143-.11.45-.252a12.264,12.264,0,0,1,1.382-.526,15.41,15.41,0,0,1,5.363-.658,15.684,15.684,0,0,1,7.678,2.435,16.266,16.266,0,0,1,6.3,7.535h-.669V106.7a15.213,15.213,0,0,1,5.276-8.314,14.577,14.577,0,0,1,7.447-3.093,14.413,14.413,0,0,1,5.429.384,11.343,11.343,0,0,1,1.4.472C230.372,96.3,230.58,96.375,230.515,96.4Z" transform="translate(-190.018 -58.666)" fill="#263238"/>
    </g>
  </g>
</svg>
