<svg xmlns="http://www.w3.org/2000/svg" width="861.314" height="640.835" viewBox="0 0 861.314 640.835">
  <g id="password-illustration" transform="translate(-137 -472.175)">
    <g id="Business_vision-rafiki" data-name="Business vision-rafiki" transform="translate(137 417.175)">
      <g id="freepik--background-complete--inject-208" transform="translate(0 55)">
        <rect id="Rectangle_230" data-name="Rectangle 230" width="861.314" height="0.431" transform="translate(0 563.989)" fill="#ebebeb"/>
        <path id="Tracé_1932" data-name="Tracé 1932" d="M382.066,542.159H49.426a9.836,9.836,0,0,1-9.836-9.836V64.75A9.836,9.836,0,0,1,49.426,55h332.64a9.836,9.836,0,0,1,9.836,9.836V532.323A9.836,9.836,0,0,1,382.066,542.159ZM49.426,55.345a9.423,9.423,0,0,0-9.406,9.406V532.323a9.423,9.423,0,0,0,9.406,9.405h332.64a9.423,9.423,0,0,0,9.406-9.406V64.75a9.423,9.423,0,0,0-9.406-9.406Z" transform="translate(28.609 -55)" fill="#ebebeb"/>
        <path id="Tracé_1933" data-name="Tracé 1933" d="M598.366,542.159H265.726a9.836,9.836,0,0,1-9.836-9.836V64.75A9.836,9.836,0,0,1,265.726,55h332.64a9.836,9.836,0,0,1,9.836,9.836V532.323A9.836,9.836,0,0,1,598.366,542.159ZM265.726,55.345a9.423,9.423,0,0,0-9.406,9.406V532.323a9.423,9.423,0,0,0,9.406,9.405h332.64a9.423,9.423,0,0,0,9.405-9.406V64.75a9.423,9.423,0,0,0-9.406-9.406Z" transform="translate(184.913 -55)" fill="#ebebeb"/>
        <rect id="Rectangle_231" data-name="Rectangle 231" width="861.314" height="0.431" transform="translate(0 563.989)" fill="#ebebeb"/>
        <rect id="Rectangle_232" data-name="Rectangle 232" width="57.053" height="0.431" transform="translate(717.957 591.706)" fill="#ebebeb"/>
        <rect id="Rectangle_233" data-name="Rectangle 233" width="14.97" height="0.431" transform="translate(555.599 596.391)" fill="#ebebeb"/>
        <rect id="Rectangle_234" data-name="Rectangle 234" width="33.057" height="0.431" transform="translate(683.177 575.72)" fill="#ebebeb"/>
        <rect id="Rectangle_235" data-name="Rectangle 235" width="74.4" height="0.431" transform="translate(90.369 578.614)" fill="#ebebeb"/>
        <rect id="Rectangle_236" data-name="Rectangle 236" width="161.376" height="0.431" transform="translate(226.474 585.883)" fill="#ebebeb"/>
        <path id="Tracé_1934" data-name="Tracé 1934" d="M183.16,190.239c21.171,0,80.567,8.613,80.567-23.238,0-27.1-29.026-25.1-29.026-25.1s.827-23.479-25.03-26.615c-26.511-3.2-30.594,22.1-30.594,22.1s-46.029-16.158-39.035,24.392c0,0-25.512-4.5-25.512,13.781C114.6,195.958,162.643,190.188,183.16,190.239Z" transform="translate(82.763 -11.637)" fill="#f0f0f0"/>
        <path id="Tracé_1935" data-name="Tracé 1935" d="M197.283,370.989c43.066.121,163.512,19.862,163.512-53.195,0-62.015-58.9-57.519-58.9-57.519s1.723-53.8-50.783-60.947c-53.832-7.338-62.015,50.783-62.015,50.783s-93.453-37-79.241,55.865c0,0-51.8-10.336-51.8,31.49C58.129,384.184,155.63,370.868,197.283,370.989Z" transform="translate(41.956 48.833)" fill="#f5f5f5"/>
        <path id="Tracé_1936" data-name="Tracé 1936" d="M270.035,342.44c-23.772,0-90.455,10.99-90.455-29.422,0-34.349,32.592-31.817,32.592-31.817s-.947-29.767,28.1-33.712c29.767-4.065,34.263,28.1,34.263,28.1s51.679-20.482,43.841,30.9c0,0,28.647-5.719,28.647,17.416C347.02,349.744,293.084,342.371,270.035,342.44Z" transform="translate(129.77 83.841)" fill="#f0f0f0"/>
        <path id="Tracé_1937" data-name="Tracé 1937" d="M341.365,237.464c23.721,0,90.231,9.147,90.231-24.513,0-28.6-32.506-26.494-32.506-26.494s.93-24.789-28.027-28.079c-29.7-3.445-34.194,23.393-34.194,23.393s-51.558-17.054-43.7,25.736c0,0-28.6-4.754-28.6,14.5C264.57,243.545,318.385,237.412,341.365,237.464Z" transform="translate(191.186 19.483)" fill="#f0f0f0"/>
        <path id="Tracé_1938" data-name="Tracé 1938" d="M268.09,593.288l34.659-224.717L405.831,238.426,440.973,90.28s85.2,82.307,87.561,84.409,21.12,224.355,23.721,227.749,27.08,42.222,27.08,42.222L590.721,592.7Z" transform="translate(193.73 -29.506)" fill="#fafafa"/>
        <path id="Tracé_1939" data-name="Tracé 1939" d="M268.09,593.317l49.4-194.175,69.99-66.735,13.109,84.461,17.64-96.071,20.017,32.747-4.358-112.918,3.48-36.141,11.748,24L440.973,90.24l59.4,1.361,12.368,65.253,15.8,17.864,23.721,227.749,27.08,42.136,11.387,148.043Z" transform="translate(193.73 -29.535)" fill="#ebebeb"/>
        <path id="Tracé_1940" data-name="Tracé 1940" d="M369.35,90.67l35.279,114.159,21.033,16.71s11.077,46.39,10.956,43.428-1.275-54.952-1.275-54.952l5.443-42.411L427.006,92.048Z" transform="translate(266.903 -29.224)" fill="#f5f5f5"/>
        <path id="Tracé_1941" data-name="Tracé 1941" d="M433.05,271.49l8.234,38.38,18.846,3.755Z" transform="translate(312.934 101.442)" fill="#f5f5f5"/>
        <path id="Tracé_1942" data-name="Tracé 1942" d="M407.237,400.782c37.691.1,143.323,17.416,143.323-46.632,0-54.4-51.679-50.4-51.679-50.4s1.5-47.148-44.513-53.4c-47.183-6.425-54.3,44.513-54.3,44.513s-81.894-32.437-69.439,48.974c0,0-45.391-9.061-45.391,27.562C285.292,412.358,370.751,400.679,407.237,400.782Z" transform="translate(206.123 85.757)" fill="#f5f5f5"/>
      </g>
      <g id="freepik--Shadow--inject-208" transform="translate(100.343 633.614)">
        <rect id="Rectangle_237" data-name="Rectangle 237" width="10.904" height="0.431" transform="translate(79.775)" fill="#ebebeb"/>
        <ellipse id="freepik--path--inject-208" cx="334.001" cy="19.5" rx="334.001" ry="19.5" transform="translate(0 23.221)" fill="#f5f5f5"/>
      </g>
      <g id="freepik--Bars--inject-208" transform="translate(106.872 400.473)">
        <rect id="Rectangle_238" data-name="Rectangle 238" width="101.928" height="275.672" transform="translate(306.025 0.276)" fill="#ff7f27"/>
        <rect id="Rectangle_239" data-name="Rectangle 239" width="28.802" height="276" transform="translate(306.008)" opacity="0.2"/>
        <rect id="Rectangle_240" data-name="Rectangle 240" width="101.928" height="165.424" transform="translate(203.976 110.524)" fill="#ff7f27"/>
        <rect id="Rectangle_241" data-name="Rectangle 241" width="30.628" height="165.252" transform="translate(203.976 110.524)" opacity="0.2"/>
        <rect id="Rectangle_242" data-name="Rectangle 242" width="101.928" height="130.3" transform="translate(101.962 145.648)" fill="#ff7f27"/>
        <rect id="Rectangle_243" data-name="Rectangle 243" width="30.318" height="130.127" transform="translate(101.962 145.648)" opacity="0.2"/>
        <rect id="Rectangle_244" data-name="Rectangle 244" width="101.928" height="95.175" transform="translate(0 180.773)" fill="#ff7f27"/>
        <rect id="Rectangle_245" data-name="Rectangle 245" width="28.802" height="95.089" transform="translate(0.017 180.687)" opacity="0.2"/>
      </g>
      <g id="freepik--Character--inject-208" transform="translate(292.967 108.601)">
        <path id="Tracé_1946" data-name="Tracé 1946" d="M240.061,138.736c-4.841,5.857-9.836,11.593-14.815,17.226l-3.773,4.272-3.445,3.773a11.748,11.748,0,0,0-2.618,5.943l-1.137,11.128c-.379,3.773-.758,7.545-1.189,11.3-.844,7.545-1.723,15.09-2.722,22.618a4.823,4.823,0,0,1-9.6-.362c-.431-7.58-.724-15.159-.982-22.721-.155-3.79-.224-7.58-.327-11.352L199.2,169a27.958,27.958,0,0,1,4.875-15.125l3.738-5.047,3.445-4.513c4.565-5.995,9.147-12.058,13.781-17.846a9.631,9.631,0,0,1,15.021,12.058Z" transform="translate(-149.02 -59.557)" fill="#ff7f27"/>
        <path id="Tracé_1947" data-name="Tracé 1947" d="M202.095,177.447l-6.3,10.7,14.5,1.464,2.549-10.853a2.308,2.308,0,0,0-1.826-2.808,11.748,11.748,0,0,0-8.923,1.5Z" transform="translate(-151.484 -21.421)" fill="#cb7a63"/>
        <path id="Tracé_1948" data-name="Tracé 1948" d="M195.79,182.9l.672,3.773a3.876,3.876,0,0,0,3.841,3.221h4.72a3.928,3.928,0,0,0,3.445-2.067l1.843-3.445Z" transform="translate(-151.484 -16.176)" fill="#cb7a63"/>
        <path id="Tracé_1949" data-name="Tracé 1949" d="M198.85,172.04l13.953.482-.9,8.337-11.783-.913Z" transform="translate(-149.273 -24.024)" fill="#ff7f27"/>
        <path id="Tracé_1950" data-name="Tracé 1950" d="M198.85,172.04l13.953.482-.9,8.337-11.783-.913Z" transform="translate(-149.273 -24.024)" fill="#fff" opacity="0.3"/>
        <path id="Tracé_1951" data-name="Tracé 1951" d="M222.92,253.319l-2.291,3.445-1.723-3.566,4.186-54.091c.655-8.613-2.239-15.659-12.937-15.917-10.008-.241-16.072,6.6-16.778,15.176L189,252.354l-2.394,3.445-1.637-3.549,4.41-53.97c.81-9.974,5.168-17.984,20.982-17.605s17.519,8.613,16.744,18.553Z" transform="translate(-159.303 -17.793)" fill="#263238"/>
        <path id="Tracé_1952" data-name="Tracé 1952" d="M189.381,201.66h-2.756a11.421,11.421,0,0,0-11.387,9.957l-5.168,38.966,17.95.637Z" transform="translate(-170.07 -2.62)" fill="#263238"/>
        <path id="Tracé_1953" data-name="Tracé 1953" d="M189.381,201.66h-2.756a11.421,11.421,0,0,0-11.387,9.957l-5.168,38.966,17.95.637Z" transform="translate(-170.07 -2.62)" fill="#fff" opacity="0.2"/>
        <path id="Tracé_1954" data-name="Tracé 1954" d="M226.634,253.579l-4.048-.1.4-54.091c0-8.613-3.342-15.659-14.057-15.934-10.026-.241-15.607,6.6-15.71,15.176l-.517,54-4.048-.121.637-53.97c.121-9.991,4-17.984,19.759-17.605s18.1,8.613,18.036,18.553Z" transform="translate(-156.644 -17.605)" fill="#263238"/>
        <path id="Tracé_1955" data-name="Tracé 1955" d="M255.2,253.322l-79.758-2.377.758-40.206a9.113,9.113,0,0,1,9.3-9.078l58.087,1.516A12.265,12.265,0,0,1,255.4,215.528Z" transform="translate(-166.189 -2.621)" fill="#263238"/>
        <path id="Tracé_1956" data-name="Tracé 1956" d="M246.3,253.064l-62.152-1.86a9.026,9.026,0,0,1-8.613-9.216l.637-31.249a9.113,9.113,0,0,1,9.3-9.078l58.087,1.516a12.265,12.265,0,0,1,11.817,12.351l-.172,28.785a8.613,8.613,0,0,1-8.906,8.751Z" transform="translate(-166.125 -2.621)" fill="#fff" opacity="0.4"/>
        <g id="Groupe_156" data-name="Groupe 156" transform="translate(32.006 163.334)" opacity="0.3">
          <path id="Tracé_1957" data-name="Tracé 1957" d="M226.634,253.571l-2.05,3.445-2-3.618.4-54.091c0-8.613-3.342-15.659-14.057-15.934-10.026-.241-15.607,6.6-15.71,15.176l-.517,54.073-2.153,3.445-1.895-3.549.637-53.97c.121-9.991,4-17.984,19.759-17.605s18.1,8.613,18.036,18.553Z" transform="translate(-188.65 -180.932)" fill="#fff"/>
        </g>
        <path id="Tracé_1958" data-name="Tracé 1958" d="M194.529,211.55l-6.649-.172.034-2.5,6.649.172Z" transform="translate(-157.2 2.598)" fill="#263238"/>
        <path id="Tracé_1959" data-name="Tracé 1959" d="M194.437,220.977l-6.667-.172.034-2.515,6.667.189Z" transform="translate(-157.279 9.397)" fill="#263238"/>
        <path id="Tracé_1960" data-name="Tracé 1960" d="M214.384,212.1l-6.684-.189.017-2.5,6.684.172Z" transform="translate(-142.877 2.981)" fill="#263238"/>
        <path id="Tracé_1961" data-name="Tracé 1961" d="M214.314,221.545l-6.684-.189.017-2.515,6.684.19Z" transform="translate(-142.928 9.795)" fill="#263238"/>
        <path id="Tracé_1962" data-name="Tracé 1962" d="M210.173,214.014l-14.263-.4.052-5.357,14.263.4Z" transform="translate(-151.397 2.149)" fill="#fff"/>
        <path id="Tracé_1963" data-name="Tracé 1963" d="M240.236,97.005c.551-.1,1.137.465,1.309,1.309s-.1,1.6-.655,1.723-1.137-.465-1.309-1.292S239.685,97.091,240.236,97.005Z" transform="translate(-119.876 -78.255)" fill="#263238"/>
        <path id="Tracé_1964" data-name="Tracé 1964" d="M240.181,98a2.894,2.894,0,0,0,1.292-1.43,2.567,2.567,0,0,1-1.723.689.982.982,0,0,1,.431.741Z" transform="translate(-119.717 -78.561)" fill="#263238"/>
        <path id="Tracé_1965" data-name="Tracé 1965" d="M241.348,105.592a4.841,4.841,0,0,0,3.807-1.6,30.816,30.816,0,0,1-5.5-6.27Z" transform="translate(-119.782 -77.73)" fill="#b74d3c"/>
        <path id="Tracé_1966" data-name="Tracé 1966" d="M237.621,97.255a3.979,3.979,0,0,1,3.307-1.481h.172a.5.5,0,0,0,.5-.517.517.517,0,0,0-.517-.5,5.013,5.013,0,0,0-4.2,1.723.551.551,0,0,0-.121.327.534.534,0,0,0,.517.517.5.5,0,0,0,.345-.069Z" transform="translate(-121.878 -79.883)" fill="#263238"/>
        <path id="Tracé_1967" data-name="Tracé 1967" d="M241.157,136.127c-14.332.155-16.537-7.648-16.537-7.648,4.272-4.169,4.479-11.817,3.566-18.639a16.089,16.089,0,0,0,4.255,4.083c3.445,2.257,10.87-1.361,10.87-1.361s0,1.258.1,3.1c.224,4.462,1.206,12.3,5.271,13.523C248.685,129.185,256.954,135.955,241.157,136.127Z" transform="translate(-130.651 -68.972)" fill="#cb7a63"/>
        <path id="Tracé_1968" data-name="Tracé 1968" d="M242.375,115.826c-.138.655-.293,1.326-.4,2.015a.362.362,0,0,1-.172,0,13.144,13.144,0,0,1-10.491-1.878,15.659,15.659,0,0,1-4.272-4.083c-.224-1.723-.534-3.445-.844-4.961l15.607,8.613Z" transform="translate(-129.509 -71.082)" fill="#cb7a63"/>
        <path id="Tracé_1969" data-name="Tracé 1969" d="M254.971,116.547a14.5,14.5,0,0,1-7.046,12.2h0a11.834,11.834,0,0,1-3.445,1.481.362.362,0,0,1-.172,0,13.144,13.144,0,0,1-10.491-1.878,15.658,15.658,0,0,1-4.272-4.083c-2.808-3.859-3.979-8.992-5.995-16.227a14.3,14.3,0,0,1,16.279-18.07C250.578,92,255.195,106.865,254.971,116.547Z" transform="translate(-131.837 -83.499)" fill="#cb7a63"/>
        <path id="Tracé_1970" data-name="Tracé 1970" d="M238.106,114.711a7.58,7.58,0,0,1-2.532,1.154c-.1-1.843-.086-3.1-.1-3.1l.207-3.2S237.365,114.711,238.106,114.711Z" transform="translate(-122.81 -69.174)" opacity="0.2"/>
        <path id="Tracé_1971" data-name="Tracé 1971" d="M255.055,99.7c-1.171,1.86-4.841,3.445-4.72,3,.637-1.533.517-4.5-1.4-3.807.534,1.189,2.119,10.026,1.4,11.111-.4.586-.758,7.648-3.773,13.9-2.394,4.978-2.394,6.512-2.394,6.512l-9.785,1.895c-3.669-.465-7.08-5.168-7.373-5.65-1.292-2.2-5.168-5.168-7.235-6.632a5.8,5.8,0,0,1-1.929-2.67c-.672-1.878.706-8.613,1-11.834.431-4.565,2.825-8.8,9.474-11.524,4.1-1.723,7.545-5.375,11.748-6.891a13.781,13.781,0,0,1,12.7,1.275C254.5,89.672,257.984,94.978,255.055,99.7Z" transform="translate(-135.677 -86.116)" fill="#263238"/>
        <path id="Tracé_1972" data-name="Tracé 1972" d="M238.187,97.762c3.015.9,4.582,5.34,4.72,8.148.138,3.118-1.929,5.168-4.651,3a11.869,11.869,0,0,1-4.169-6.356C233.363,99.5,235.172,96.884,238.187,97.762Z" transform="translate(-123.925 -77.824)" fill="#cb7a63"/>
        <path id="Tracé_1973" data-name="Tracé 1973" d="M239.616,104.276a1.326,1.326,0,0,1-1.326,1.309,1.309,1.309,0,0,1-1.309-1.309,1.326,1.326,0,0,1,1.309-1.326A1.344,1.344,0,0,1,239.616,104.276Z" transform="translate(-121.719 -73.951)" fill="#ff7f27"/>
        <path id="Tracé_1974" data-name="Tracé 1974" d="M239.616,104.276a1.326,1.326,0,0,1-1.326,1.309,1.309,1.309,0,0,1-1.309-1.309,1.326,1.326,0,0,1,1.309-1.326A1.344,1.344,0,0,1,239.616,104.276Z" transform="translate(-121.719 -73.951)" fill="#fff" opacity="0.3"/>
        <g id="freepik--group--inject-208" transform="translate(76.745 26.53)">
          <path id="Tracé_1975" data-name="Tracé 1975" d="M222.24,127.841s2.222-6.891,5.581-9.044,18.1,0,20.413,1,4.6,6.219,4.6,6.219Z" transform="translate(-209.115 -89.696)" fill="#ff7f27"/>
          <path id="Tracé_1976" data-name="Tracé 1976" d="M222.24,127.841s2.222-6.891,5.581-9.044,18.1,0,20.413,1,4.6,6.219,4.6,6.219Z" transform="translate(-209.115 -89.696)" fill="#fff" opacity="0.3"/>
          <path id="Tracé_1977" data-name="Tracé 1977" d="M261.406,122.487a47.036,47.036,0,0,0-5.547-.93,202.053,202.053,0,0,0-23.738.258,50.607,50.607,0,0,0-8.424,1.43,11.834,11.834,0,0,0-9.044,12.386c1.171,16.124,5.926,25.6,6.632,36.175a171.023,171.023,0,0,1-2.567,40.878l10.853,1.723a109.92,109.92,0,0,0,42.893-9.164h0s-2.808-25.564-.1-34.78c7.39-25.185,2.584-29.164,1.137-36.365A14.746,14.746,0,0,0,261.406,122.487Z" transform="translate(-214.621 -87.201)" fill="#ff7f27"/>
          <path id="Tracé_1978" data-name="Tracé 1978" d="M272.379,170.419a51.351,51.351,0,0,0-1.171,12.765c0,10.336,1.275,22.032,1.275,22.032a109.612,109.612,0,0,1-42.893,9.164l-10.853-1.723a172.605,172.605,0,0,0,2.567-40.912c-.724-10.611-5.478-20.069-6.649-36.175a11.834,11.834,0,0,1,9.044-12.386,50.608,50.608,0,0,1,8.424-1.43,209.845,209.845,0,0,1,23.738-.276,50.717,50.717,0,0,1,5.547.947,14.746,14.746,0,0,1,12.058,11.611c.517,2.584,1.481,4.772,2.136,7.648a37.9,37.9,0,0,1-.155,15.728A119.572,119.572,0,0,1,272.379,170.419Z" transform="translate(-214.621 -87.244)" fill="#fff" opacity="0.1"/>
          <path id="Tracé_1979" data-name="Tracé 1979" d="M247.95,135.958c3.962.551,7.89,1.344,11.817,2s7.855,1.55,11.766,2.394l-1.413-.121c1.723,0,3.29.207,4.255.276.465,0,.792,0,.672.1s-.258.1-.517.276a4.444,4.444,0,0,0-1.171.913,4.134,4.134,0,0,0-1.24,2.481c0,.4.121.293.138,0a11.648,11.648,0,0,0-.327-3.032l.172.5q-2.98-8.613-5.6-17.347a180.19,180.19,0,0,1-4.427-17.795,4.289,4.289,0,0,1,7.855-3.066c3.273,5.168,6.1,10.629,8.837,16.072s5.168,10.956,7.666,16.52l.189.517a28.783,28.783,0,0,1,1.723,6.081,15.5,15.5,0,0,1,0,4.668,11.938,11.938,0,0,1-3.325,6.563,12.644,12.644,0,0,1-3.1,2.239,14.225,14.225,0,0,1-2.722,1.051,22.291,22.291,0,0,1-3.962.706c-2.153.207-3.738.207-5.168.293h-.224l-1.189-.138c-3.979-.413-7.959-.9-11.921-1.4s-7.924-1.051-11.869-1.723a9.63,9.63,0,0,1,3.032-18.949Z" transform="translate(-198.047 -101.516)" fill="#ff7f27"/>
          <g id="Groupe_157" data-name="Groupe 157" transform="translate(39.509)" opacity="0.1">
            <path id="Tracé_1980" data-name="Tracé 1980" d="M247.95,135.958c3.962.551,7.89,1.344,11.817,2s7.855,1.55,11.766,2.394l-1.413-.121c1.723,0,3.29.207,4.255.276.465,0,.792,0,.672.1s-.258.1-.517.276a4.444,4.444,0,0,0-1.171.913,4.134,4.134,0,0,0-1.24,2.481c0,.4.121.293.138,0a11.648,11.648,0,0,0-.327-3.032l.172.5q-2.98-8.613-5.6-17.347a180.19,180.19,0,0,1-4.427-17.795,4.289,4.289,0,0,1,7.855-3.066c3.273,5.168,6.1,10.629,8.837,16.072s5.168,10.956,7.666,16.52l.189.517a28.783,28.783,0,0,1,1.723,6.081,15.5,15.5,0,0,1,0,4.668,11.938,11.938,0,0,1-3.325,6.563,12.644,12.644,0,0,1-3.1,2.239,14.225,14.225,0,0,1-2.722,1.051,22.291,22.291,0,0,1-3.962.706c-2.153.207-3.738.207-5.168.293h-.224l-1.189-.138c-3.979-.413-7.959-.9-11.921-1.4s-7.924-1.051-11.869-1.723a9.63,9.63,0,0,1,3.032-18.949Z" transform="translate(-237.556 -101.516)" fill="#fff"/>
          </g>
        </g>
        <path id="Tracé_1981" data-name="Tracé 1981" d="M285.229,107.43l51.644-1.585-.792-16.175L284.54,93.064Z" transform="translate(-87.351 -83.547)" fill="#ff7f27"/>
        <path id="Tracé_1982" data-name="Tracé 1982" d="M262.511,106.468l41.774-1.344-.637-13.264L261.96,94.547Z" transform="translate(-103.668 -81.965)" fill="#ff7f27"/>
        <path id="Tracé_1983" data-name="Tracé 1983" d="M283.587,105.574l2.739.293-.672-14.177-2.7.568Z" transform="translate(-88.5 -82.087)" fill="#263238"/>
        <path id="Tracé_1984" data-name="Tracé 1984" d="M283.587,105.574l2.739.293-.672-14.177-2.7.568Z" transform="translate(-88.5 -82.087)" opacity="0.2"/>
        <path id="Tracé_1985" data-name="Tracé 1985" d="M285.209,106.086,288,106l-.689-14.47-2.791.189Z" transform="translate(-87.365 -82.203)" fill="#263238"/>
        <path id="Tracé_1986" data-name="Tracé 1986" d="M258.664,103.268,262.8,105.2l-.534-11.628-3.945,2.308Z" transform="translate(-106.298 -80.729)" fill="#263238"/>
        <path id="Tracé_1987" data-name="Tracé 1987" d="M246.308,101.671l12.282-.637-.258-5.444-12.282.724Z" transform="translate(-115.165 -79.269)" fill="#263238"/>
        <path id="Tracé_1988" data-name="Tracé 1988" d="M246.308,101.671l12.282-.637-.258-5.444-12.282.724Z" transform="translate(-115.165 -79.269)" opacity="0.2"/>
        <path id="Tracé_1989" data-name="Tracé 1989" d="M252.495,102.791l13.66-.517-.345-7.614-13.66.81Z" transform="translate(-110.757 -79.941)" fill="#263238"/>
        <path id="Tracé_1990" data-name="Tracé 1990" d="M258.664,103.268,262.8,105.2l-.534-11.628-3.945,2.308Z" transform="translate(-106.298 -80.729)" opacity="0.2"/>
        <path id="Tracé_1991" data-name="Tracé 1991" d="M261.208,105.41l2.257-.069-.551-11.921-2.274.138Z" transform="translate(-104.621 -80.837)" fill="#263238"/>
        <path id="Tracé_1992" data-name="Tracé 1992" d="M314.232,106.027l8.114-.293-.81-16.244-8.1.413Z" transform="translate(-66.467 -83.677)" fill="#263238"/>
        <path id="Tracé_1993" data-name="Tracé 1993" d="M316.4,108.02l10.336-.293.258-.723a23.444,23.444,0,0,0-1.206-18.673h0l-10.336.706.224.534a26.39,26.39,0,0,1,.724,18.449Z" transform="translate(-65.014 -84.515)" fill="#ff7f27"/>
        <g id="Groupe_158" data-name="Groupe 158" transform="translate(201.427 7.656)" opacity="0.4">
          <path id="Tracé_1994" data-name="Tracé 1994" d="M309.619,90.818l4.169-.258.086,1.723-4.238.258A6.889,6.889,0,0,1,309.619,90.818Z" transform="translate(-270.688 -90.56)" fill="#fff"/>
          <path id="Tracé_1995" data-name="Tracé 1995" d="M323.4,90.82a7.633,7.633,0,0,0,0,1.723l-36.227,2.033L287,93.025Z" transform="translate(-287 -90.372)" fill="#fff"/>
        </g>
        <g id="Groupe_159" data-name="Groupe 159" transform="translate(159.171 11.36)" opacity="0.4">
          <path id="Tracé_1996" data-name="Tracé 1996" d="M262.47,94.863l.069,1.447,34.074-2.015-.086-1.585Z" transform="translate(-262.47 -92.71)" fill="#fff"/>
        </g>
        <g id="Groupe_160" data-name="Groupe 160" transform="translate(251.349 4.504)" opacity="0.4">
          <path id="Tracé_1997" data-name="Tracé 1997" d="M315.98,89.3l.1,1.809,8.079-.534-.086-1.843Z" transform="translate(-315.98 -88.73)" fill="#fff"/>
        </g>
        <path id="Tracé_1998" data-name="Tracé 1998" d="M324.928,98.2a8.4,8.4,0,0,0,0,1.86l-8.355.276-.1-1.723Z" transform="translate(-64.277 -77.383)" opacity="0.3"/>
        <path id="Tracé_1999" data-name="Tracé 1999" d="M331.29,97.62a6.888,6.888,0,0,0,0,1.723L287.036,101l-.086-1.619Z" transform="translate(-85.609 -77.802)" opacity="0.3"/>
        <path id="Tracé_2000" data-name="Tracé 2000" d="M295.874,98.52a8.117,8.117,0,0,0,0,1.585l-32.954,1.154V99.812Z" transform="translate(-102.974 -77.152)" opacity="0.3"/>
        <path id="Tracé_2001" data-name="Tracé 2001" d="M244.6,96.867l.1,5.168a1.723,1.723,0,0,0,1.723,1.585h4.22l-.172-8.51-4.22.155A1.723,1.723,0,0,0,244.6,96.867Z" transform="translate(-116.212 -79.616)" fill="#ff7f27"/>
        <path id="Tracé_2002" data-name="Tracé 2002" d="M262.234,111.942l1.6-9.7a5.652,5.652,0,0,0,0-1.206l-.465-5.168a1.826,1.826,0,0,0-1.258-1.533h-7.752a2,2,0,0,0-2.481,1.068l-1.4,6.357a3.083,3.083,0,0,0,0,1.43l2.308,8.751a2.17,2.17,0,0,0,1.723,1.464h5.064a2.171,2.171,0,0,0,2.653-1.464Z" transform="translate(-112.02 -80.255)" fill="#ce7a63"/>
        <path id="Tracé_2003" data-name="Tracé 2003" d="M266.356,109.771,253.178,114.4l-2.188-8.1,11.318-3.428Z" transform="translate(-111.595 -74.001)" fill="#ff7f27"/>
        <path id="Tracé_2004" data-name="Tracé 2004" d="M266.356,109.771,253.178,114.4l-2.188-8.1,11.318-3.428Z" transform="translate(-111.595 -74.001)" fill="#fff" opacity="0.3"/>
        <path id="Tracé_2005" data-name="Tracé 2005" d="M254.235,150.262,244.14,131.21l10.336,3.325A37.9,37.9,0,0,1,254.235,150.262Z" transform="translate(-116.545 -53.529)" opacity="0.2"/>
        <path id="Tracé_2006" data-name="Tracé 2006" d="M281.052,234.3l-2.1,25.891,11.783.224,3.239-26.666Z" transform="translate(-91.39 20.569)" fill="#ce7a63"/>
        <path id="Tracé_2007" data-name="Tracé 2007" d="M293.931,247.174l-13.419.276a1.12,1.12,0,0,0-1.051.93l-2.308,11.783a1.912,1.912,0,0,0,1.361,2.291h.379c4.841-.19,9.147-.551,15.176-.672,7.114-.138,5.323.81,13.695.775,5.03,0,5.891-6.2,3.755-6.46-9.8-1.137-10.835-4.272-14.66-7.959A4.083,4.083,0,0,0,293.931,247.174Z" transform="translate(-92.728 30.263)" fill="#263238"/>
        <path id="Tracé_2008" data-name="Tracé 2008" d="M207.512,298.45l-4.772,23.755,12.661,3.876,6.115-24.272Z" transform="translate(-146.462 67.323)" fill="#ce7a63"/>
        <path id="Tracé_2009" data-name="Tracé 2009" d="M274.418,170.6S256.4,275.8,246.6,306.688c-6.891,22.032-25.667,94.159-25.667,94.159l-16.865-3.686s-1.895-49.095,7.528-74.435c3.221-8.613,7.425-16.451,8.613-21.808,4.858-22.894-5.168-64.426-.724-95.4a125.855,125.855,0,0,1,7.511-28.768Z" transform="translate(-145.617 -25.065)" fill="#263238"/>
        <path id="Tracé_2010" data-name="Tracé 2010" d="M246.6,304.177c-6.891,22.032-25.667,94.159-25.667,94.159l-16.865-3.755s-1.895-49.095,7.528-74.435c3.221-8.613,7.425-16.451,8.613-21.808,4.858-22.894-5.168-64.426-.724-95.4a125.855,125.855,0,0,1,7.511-28.768" transform="translate(-145.617 -22.485)" fill="#263238"/>
        <path id="Tracé_2011" data-name="Tracé 2011" d="M232.01,189.48l9.078,35.624,6.632-34.074Z" transform="translate(-125.31 -11.421)" opacity="0.2"/>
        <path id="Tracé_2012" data-name="Tracé 2012" d="M336.017,292.789l-16.572.534s1.223-21.688,1.223-53.4a58.74,58.74,0,0,1,1.826-13.988,80.584,80.584,0,0,1,6.184-16.865l-4.806.241c-9.371.482-67.458,3.445-68.6,3.445-.861-.086-6.15.62-15.607-4-17.588-8.613-17.76-32.73-17.76-32.73L267.2,170s.741.138,11.645.327c33.057.568,73.677,1.843,80.809,13.2C369.677,199.491,336.017,292.789,336.017,292.789Z" transform="translate(-132.609 -25.498)" fill="#263238"/>
        <path id="Tracé_2013" data-name="Tracé 2013" d="M217.449,310.924l-13.884.172a1.051,1.051,0,0,0-1.034.93l-1.723,11.886a2.1,2.1,0,0,0,1.55,2.326h.4c5.013-.155,9.44-.5,15.676-.586,7.373-.086,5.564.861,14.212.861,5.168,0,5.771-6.219,3.549-6.494-10.215-1.189-11.473-4.375-15.624-8.114a4.5,4.5,0,0,0-3.118-.982Z" transform="translate(-147.872 76.33)" fill="#263238"/>
        <path id="Tracé_2014" data-name="Tracé 2014" d="M280.3,209.956a80.586,80.586,0,0,1,6.184-16.865l-4.806.241a1.224,1.224,0,0,0-.448-.086l12.058-1.016Z" transform="translate(-90.415 -9.434)" opacity="0.2"/>
      </g>
      <g id="freepik--Sun--inject-208" transform="translate(117.009 110.168)">
        <circle id="Ellipse_128" data-name="Ellipse 128" cx="21.137" cy="21.137" r="21.137" transform="translate(28.157 27.898)" fill="#ff7f27"/>
        <circle id="Ellipse_129" data-name="Ellipse 129" cx="21.137" cy="21.137" r="21.137" transform="translate(28.157 27.898)" fill="#fff" opacity="0.6"/>
        <path id="Tracé_2015" data-name="Tracé 2015" d="M97.875,106.878a3.152,3.152,0,0,1-3.135-3.152V89.945a3.152,3.152,0,0,1,6.288,0v13.781a3.152,3.152,0,0,1-3.152,3.152Z" transform="translate(-48.547 -87.025)" fill="#ff7f27"/>
        <path id="Tracé_2016" data-name="Tracé 2016" d="M97.875,152.364a3.152,3.152,0,0,1-3.135-3.135V135.345a3.152,3.152,0,0,1,6.288,0v13.884a3.152,3.152,0,0,1-3.152,3.135Z" transform="translate(-48.547 -54.218)" fill="#ff7f27"/>
        <path id="Tracé_2017" data-name="Tracé 2017" d="M87.193,109.141a3.118,3.118,0,0,1-2.223-.931l-5.994-5.96a3.143,3.143,0,0,1,4.444-4.444l5.995,5.995a3.152,3.152,0,0,1,0,4.444A3.118,3.118,0,0,1,87.193,109.141Z" transform="translate(-60.604 -79.9)" fill="#ff7f27"/>
        <path id="Tracé_2018" data-name="Tracé 2018" d="M116.66,138.652a3.2,3.2,0,0,1-2.222-.913l-5.581-5.6A3.143,3.143,0,0,1,113.3,127.7l5.581,5.6a3.135,3.135,0,0,1-2.222,5.357Z" transform="translate(-39.012 -58.3)" fill="#ff7f27"/>
        <path id="Tracé_2019" data-name="Tracé 2019" d="M85.091,119.861H71.31a3.152,3.152,0,1,1,0-6.288H85.091a3.152,3.152,0,1,1,0,6.288Z" transform="translate(-67.925 -67.847)" fill="#ff7f27"/>
        <path id="Tracé_2020" data-name="Tracé 2020" d="M130.527,119.861H116.66a3.152,3.152,0,1,1,0-6.288h13.867a3.152,3.152,0,1,1,0,6.288Z" transform="translate(-35.154 -67.847)" fill="#ff7f27"/>
        <path id="Tracé_2021" data-name="Tracé 2021" d="M81.607,138.33a3.118,3.118,0,0,1-2.222-.861,3.152,3.152,0,0,1,0-4.444l5.288-5.288a3.143,3.143,0,1,1,4.444,4.444l-5.288,5.289a3.118,3.118,0,0,1-2.222.861Z" transform="translate(-60.306 -58.271)" fill="#ff7f27"/>
        <path id="Tracé_2022" data-name="Tracé 2022" d="M111.087,109.018a3.083,3.083,0,0,1-2.222-.93,3.152,3.152,0,0,1,0-4.444l5.667-5.667a3.143,3.143,0,1,1,4.444,4.444l-5.667,5.667a3.152,3.152,0,0,1-2.222.93Z" transform="translate(-39.003 -79.777)" fill="#ff7f27"/>
        <g id="Groupe_161" data-name="Groupe 161" opacity="0.6">
          <path id="Tracé_2023" data-name="Tracé 2023" d="M97.875,106.878a3.152,3.152,0,0,1-3.135-3.152V89.945a3.152,3.152,0,0,1,6.288,0v13.781a3.152,3.152,0,0,1-3.152,3.152Z" transform="translate(-48.547 -87.025)" fill="#fff"/>
          <path id="Tracé_2024" data-name="Tracé 2024" d="M97.875,152.364a3.152,3.152,0,0,1-3.135-3.135V135.345a3.152,3.152,0,0,1,6.288,0v13.884a3.152,3.152,0,0,1-3.152,3.135Z" transform="translate(-48.547 -54.218)" fill="#fff"/>
          <path id="Tracé_2025" data-name="Tracé 2025" d="M87.193,109.141a3.118,3.118,0,0,1-2.223-.931l-5.994-5.96a3.143,3.143,0,0,1,4.444-4.444l5.995,5.995a3.152,3.152,0,0,1,0,4.444A3.118,3.118,0,0,1,87.193,109.141Z" transform="translate(-60.604 -79.9)" fill="#fff"/>
          <path id="Tracé_2026" data-name="Tracé 2026" d="M116.66,138.652a3.2,3.2,0,0,1-2.222-.913l-5.581-5.6A3.143,3.143,0,0,1,113.3,127.7l5.581,5.6a3.135,3.135,0,0,1-2.222,5.357Z" transform="translate(-39.012 -58.3)" fill="#fff"/>
          <path id="Tracé_2027" data-name="Tracé 2027" d="M85.091,119.861H71.31a3.152,3.152,0,1,1,0-6.288H85.091a3.152,3.152,0,1,1,0,6.288Z" transform="translate(-67.925 -67.847)" fill="#fff"/>
          <path id="Tracé_2028" data-name="Tracé 2028" d="M130.527,119.861H116.66a3.152,3.152,0,1,1,0-6.288h13.867a3.152,3.152,0,1,1,0,6.288Z" transform="translate(-35.154 -67.847)" fill="#fff"/>
          <path id="Tracé_2029" data-name="Tracé 2029" d="M81.607,138.33a3.118,3.118,0,0,1-2.222-.861,3.152,3.152,0,0,1,0-4.444l5.288-5.288a3.143,3.143,0,1,1,4.444,4.444l-5.288,5.289a3.118,3.118,0,0,1-2.222.861Z" transform="translate(-60.306 -58.271)" fill="#fff"/>
          <path id="Tracé_2030" data-name="Tracé 2030" d="M111.087,109.018a3.083,3.083,0,0,1-2.222-.93,3.152,3.152,0,0,1,0-4.444l5.667-5.667a3.143,3.143,0,1,1,4.444,4.444l-5.667,5.667a3.152,3.152,0,0,1-2.222.93Z" transform="translate(-39.003 -79.777)" fill="#fff"/>
        </g>
      </g>
    </g>
    <g id="password-workee" transform="translate(771 496.393)">
      <rect id="Rectangle_54" data-name="Rectangle 54" width="46.707" height="41.491" rx="17.782" transform="translate(8.061 10.195)" fill="none" stroke="#000" stroke-width="2.371"/>
      <rect id="Rectangle_55" data-name="Rectangle 55" width="46.707" height="41.491" rx="17.782" transform="translate(8.061 10.195)" fill="none" stroke="#000" stroke-width="2.371"/>
      <path id="Tracé_617" data-name="Tracé 617" d="M45.758,30.229c0,6.744-5.527,2.015-13.514,2.015s-15.411,4.728-15.411-2.015,6.475-12.21,14.462-12.21S45.758,23.485,45.758,30.229Z"/>
      <ellipse id="Ellipse_31" data-name="Ellipse 31" cx="2.371" cy="2.608" rx="2.371" ry="2.608" transform="translate(22.049 24.894)" fill="#e5e5e5"/>
      <ellipse id="Ellipse_32" data-name="Ellipse 32" cx="2.371" cy="2.608" rx="2.371" ry="2.608" transform="translate(36.275 24.894)" fill="#e5e5e5"/>
      <path id="Tracé_618" data-name="Tracé 618" d="M7.824,33.9a25.827,25.827,0,0,0,.742,5.414c.113.524.214.99.279,1.379A3.082,3.082,0,0,1,8.9,42.02a1.29,1.29,0,0,1-.483.064,7.267,7.267,0,0,1-4.663-2.412A8.428,8.428,0,0,1,1.185,33.9a9.617,9.617,0,0,1,2.277-6.017,6.466,6.466,0,0,1,3.96-2.5,1.214,1.214,0,0,1,.444.561,4.461,4.461,0,0,1,.239,1.64c.006.708-.05,1.523-.116,2.5l-.016.235C7.9,31.377,7.824,32.583,7.824,33.9Z" fill="none" stroke="#000" stroke-width="2.371"/>
      <path id="Tracé_619" data-name="Tracé 619" d="M7.824,33.9a25.827,25.827,0,0,0,.742,5.414c.113.524.214.99.279,1.379A3.082,3.082,0,0,1,8.9,42.02a1.29,1.29,0,0,1-.483.064,7.267,7.267,0,0,1-4.663-2.412A8.428,8.428,0,0,1,1.185,33.9a9.617,9.617,0,0,1,2.277-6.017,6.466,6.466,0,0,1,3.96-2.5,1.214,1.214,0,0,1,.444.561,4.461,4.461,0,0,1,.239,1.64c.006.708-.05,1.523-.116,2.5l-.016.235C7.9,31.377,7.824,32.583,7.824,33.9Z" fill="none" stroke="#000" stroke-width="2.371"/>
      <path id="Tracé_620" data-name="Tracé 620" d="M55.176,33.9a25.825,25.825,0,0,1-.742,5.414c-.113.524-.214.99-.279,1.379A3.083,3.083,0,0,0,54.1,42.02a1.291,1.291,0,0,0,.483.064,7.267,7.267,0,0,0,4.663-2.412A8.428,8.428,0,0,0,61.815,33.9a9.617,9.617,0,0,0-2.277-6.017,6.467,6.467,0,0,0-3.96-2.5,1.215,1.215,0,0,0-.444.561,4.461,4.461,0,0,0-.239,1.64c-.006.708.05,1.523.116,2.5q.008.116.016.235C55.1,31.377,55.176,32.583,55.176,33.9Z" fill="none" stroke="#000" stroke-width="2.371"/>
      <path id="Tracé_621" data-name="Tracé 621" d="M55.176,33.9a25.825,25.825,0,0,1-.742,5.414c-.113.524-.214.99-.279,1.379A3.083,3.083,0,0,0,54.1,42.02a1.291,1.291,0,0,0,.483.064,7.267,7.267,0,0,0,4.663-2.412A8.428,8.428,0,0,0,61.815,33.9a9.617,9.617,0,0,0-2.277-6.017,6.467,6.467,0,0,0-3.96-2.5,1.215,1.215,0,0,0-.444.561,4.461,4.461,0,0,0-.239,1.64c-.006.708.05,1.523.116,2.5q.008.116.016.235C55.1,31.377,55.176,32.583,55.176,33.9Z" fill="none" stroke="#000" stroke-width="2.371"/>
      <path id="Tracé_622" data-name="Tracé 622" d="M12.813,3.113a2.371,2.371,0,0,1,3.549-1.407l.115.072L19.8,5.69l3.319,5.216-7.231,4.031-4.86,4.5L8.417,25.25l2.252-13.988Z"/>
      <path id="Tracé_623" data-name="Tracé 623" d="M49.541,3.113a2.371,2.371,0,0,0-3.549-1.407l-.115.072L42.557,5.69l-3.319,5.216,7.231,4.031,4.86,4.5,2.608,5.809L51.685,11.262Z"/>
      <path id="Tracé_624" data-name="Tracé 624" d="M13.919,6.038a1.7,1.7,0,0,1,2.55-1.009L18.76,7.747l3.763,5.024-5.4,2.265-6.221,6.3,1.554-9.72Z" fill="#e5e5e5"/>
      <path id="Tracé_625" data-name="Tracé 625" d="M48.435,6.038a1.7,1.7,0,0,0-2.55-1.009L43.594,7.747l-3.763,5.024,5.4,2.265,6.221,6.3-1.554-9.72Z" fill="#e5e5e5"/>
      <rect id="Rectangle_56" data-name="Rectangle 56" width="46.707" height="41.491" rx="17.782" transform="translate(8.061 10.195)" fill="none" stroke="#000" stroke-width="2.371"/>
      <rect id="Rectangle_57" data-name="Rectangle 57" width="46.707" height="41.491" rx="17.782" transform="translate(8.061 10.195)" fill="#fff" stroke="#000" stroke-width="2.371"/>
      <path id="Tracé_626" data-name="Tracé 626" d="M38.646,39.238c0,1.375-5.005,3.438-7.231,3.438s-7.468-2.063-7.468-3.438S29.188,37.7,31.414,37.7,38.646,37.863,38.646,39.238Z"/>
      <path id="Tracé_627" data-name="Tracé 627" d="M45.758,30.229c0,6.744-5.527,2.015-13.514,2.015s-15.411,4.728-15.411-2.015,6.475-12.21,14.462-12.21S45.758,23.485,45.758,30.229Z"/>
      <ellipse id="Ellipse_33" data-name="Ellipse 33" cx="2.371" cy="2.608" rx="2.371" ry="2.608" transform="translate(22.049 24.894)" fill="#fff"/>
      <ellipse id="Ellipse_34" data-name="Ellipse 34" cx="2.371" cy="2.608" rx="2.371" ry="2.608" transform="translate(36.275 24.894)" fill="#fff"/>
      <path id="Tracé_628" data-name="Tracé 628" d="M7.824,33.9a25.827,25.827,0,0,0,.742,5.414c.113.524.214.99.279,1.379A3.082,3.082,0,0,1,8.9,42.02a1.29,1.29,0,0,1-.483.064,7.267,7.267,0,0,1-4.663-2.412A8.428,8.428,0,0,1,1.185,33.9a9.617,9.617,0,0,1,2.277-6.017,6.466,6.466,0,0,1,3.96-2.5,1.214,1.214,0,0,1,.444.561,4.461,4.461,0,0,1,.239,1.64c.006.708-.05,1.523-.116,2.5l-.016.235C7.9,31.377,7.824,32.583,7.824,33.9Z" fill="none" stroke="#000" stroke-width="2.371"/>
      <path id="Tracé_629" data-name="Tracé 629" d="M7.824,33.9a25.827,25.827,0,0,0,.742,5.414c.113.524.214.99.279,1.379A3.082,3.082,0,0,1,8.9,42.02a1.29,1.29,0,0,1-.483.064,7.267,7.267,0,0,1-4.663-2.412A8.428,8.428,0,0,1,1.185,33.9a9.617,9.617,0,0,1,2.277-6.017,6.466,6.466,0,0,1,3.96-2.5,1.214,1.214,0,0,1,.444.561,4.461,4.461,0,0,1,.239,1.64c.006.708-.05,1.523-.116,2.5l-.016.235C7.9,31.377,7.824,32.583,7.824,33.9Z" fill="#fff" stroke="#000" stroke-width="2.371"/>
      <path id="Tracé_630" data-name="Tracé 630" d="M55.176,33.9a25.825,25.825,0,0,1-.742,5.414c-.113.524-.214.99-.279,1.379A3.083,3.083,0,0,0,54.1,42.02a1.291,1.291,0,0,0,.483.064,7.267,7.267,0,0,0,4.663-2.412A8.428,8.428,0,0,0,61.815,33.9a9.617,9.617,0,0,0-2.277-6.017,6.467,6.467,0,0,0-3.96-2.5,1.215,1.215,0,0,0-.444.561,4.461,4.461,0,0,0-.239,1.64c-.006.708.05,1.523.116,2.5q.008.116.016.235C55.1,31.377,55.176,32.583,55.176,33.9Z" fill="none" stroke="#000" stroke-width="2.371"/>
      <path id="Tracé_631" data-name="Tracé 631" d="M55.176,33.9a25.825,25.825,0,0,1-.742,5.414c-.113.524-.214.99-.279,1.379A3.083,3.083,0,0,0,54.1,42.02a1.291,1.291,0,0,0,.483.064,7.267,7.267,0,0,0,4.663-2.412A8.428,8.428,0,0,0,61.815,33.9a9.617,9.617,0,0,0-2.277-6.017,6.467,6.467,0,0,0-3.96-2.5,1.215,1.215,0,0,0-.444.561,4.461,4.461,0,0,0-.239,1.64c-.006.708.05,1.523.116,2.5q.008.116.016.235C55.1,31.377,55.176,32.583,55.176,33.9Z" fill="#fff" stroke="#000" stroke-width="2.371"/>
      <path id="Tracé_632" data-name="Tracé 632" d="M12.813,3.113a2.371,2.371,0,0,1,3.549-1.407l.115.072L19.8,5.69l3.319,5.216-7.231,4.031-4.86,4.5L8.417,25.25l2.252-13.988Z"/>
      <path id="Tracé_633" data-name="Tracé 633" d="M49.541,3.113a2.371,2.371,0,0,0-3.549-1.407l-.115.072L42.557,5.69l-3.319,5.216,7.231,4.031,4.86,4.5,2.608,5.809L51.685,11.262Z"/>
      <path id="Tracé_634" data-name="Tracé 634" d="M13.919,6.038a1.7,1.7,0,0,1,2.55-1.009L18.76,7.747l3.763,5.024-5.4,2.265-6.221,6.3,1.554-9.72Z" fill="#fff"/>
      <path id="Tracé_635" data-name="Tracé 635" d="M48.435,6.038a1.7,1.7,0,0,0-2.55-1.009L43.594,7.747l-3.763,5.024,5.4,2.265,6.221,6.3-1.554-9.72Z" fill="#fff"/>
    </g>
  </g>
</svg>
