<svg xmlns="http://www.w3.org/2000/svg" width="676.356" height="533.411" viewBox="0 0 676.356 533.411">
  <g id="Login-bro" transform="translate(-44.828 -88.787)">
    <g id="freepik--background-simple--inject-1047" transform="translate(44.828 88.787)">
      <path id="Tracé_544" data-name="Tracé 544" d="M557.156,157.971s-66.2-72.534-171.016-69.064S191.922,162.658,118.006,217.646s-93.73,140.4-50.762,207.078,111.44,38.61,198.609,81.89,103.728,67.864,200.829,57.34,171.016-118.166,160-232.829S557.156,157.971,557.156,157.971Z" transform="translate(-44.828 -88.787)" fill="#ff7f27"/>
      <path id="Tracé_545" data-name="Tracé 545" d="M557.156,157.971s-66.2-72.534-171.016-69.064S191.922,162.658,118.006,217.646s-93.73,140.4-50.762,207.078,111.44,38.61,198.609,81.89,103.728,67.864,200.829,57.34,171.016-118.166,160-232.829S557.156,157.971,557.156,157.971Z" transform="translate(-44.828 -88.787)" fill="#fff" opacity="0.7"/>
    </g>
    <g id="freepik--Floor--inject-1047" transform="translate(68.297 570.301)">
      <ellipse id="Ellipse_20" data-name="Ellipse 20" cx="326.444" cy="17.809" rx="326.444" ry="17.809" transform="translate(0)" fill="#ff7f27"/>
      <ellipse id="Ellipse_21" data-name="Ellipse 21" cx="326.444" cy="17.809" rx="326.444" ry="17.809" transform="translate(0)" fill="#fff" opacity="0.3"/>
    </g>
    <g id="freepik--Plants--inject-1047" transform="translate(466.449 321.04)">
      <path id="Tracé_546" data-name="Tracé 546" d="M374.942,236.475c-.1,0,1.135-6.134,1.266-6.578,1.414-4.374,6.742-12,11.889-11.988a6.1,6.1,0,0,1,5.87,6.923c-.378,3.634-3.634,6.709-6.578,8.5C383.937,235.489,374.942,236.475,374.942,236.475Z" transform="translate(-252.731 -194.834)" fill="#ff7f27"/>
      <path id="Tracé_547" data-name="Tracé 547" d="M380.18,204.227c4.851,1.743,7.268,10.721,7.1,15.326,0,.395-.921,6.578-1,6.578h-.1c.378,1.414.789,2.943,1.2,4.6.723,3.091,1.513,6.578,2.121,10.458a108.217,108.217,0,0,1,1.381,12.58,79.431,79.431,0,0,1-.477,14.142.492.492,0,0,0,0,.164c.641-1.365,2.532-5.147,2.713-5.426,2.532-3.848,9.669-9.866,14.652-8.419a6.1,6.1,0,0,1,3.815,8.222c-1.316,3.387-5.262,5.509-8.567,6.446-3.733,1.069-12.053-.2-12.711-.3a106.782,106.782,0,0,1-3.058,14.076q-1.151,4.045-2.5,8.09c.576-1.167,1.118-2.2,1.2-2.351,2.532-3.848,9.669-9.866,14.651-8.436a6.084,6.084,0,0,1,3.815,8.222c-1.316,3.4-5.262,5.509-8.567,6.462s-10.475,0-12.349-.247c-.345,1.02-.691,2.056-1.052,3.075-1.644,4.933-3.42,9.866-4.933,14.7-.543,1.644-1.02,3.42-1.5,5.13.526-1.036.97-1.908,1.052-2.023,2.516-3.848,9.669-9.866,14.635-8.436a6.117,6.117,0,0,1,3.831,8.222c-1.316,3.387-5.279,5.509-8.584,6.446s-9.768.115-12-.2c-.444,1.776-.871,3.535-1.217,5.262-.214,1.184-.493,2.319-.641,3.519s-.329,2.368-.493,3.519c-.23,2.253-.493,4.588-.658,6.791-.132,1.529-.23,2.993-.329,4.456.51-1.644,1.644-5.032,1.727-5.311a23.843,23.843,0,0,1,7.893-8.978,6.331,6.331,0,0,1,.674-1.168,6.1,6.1,0,0,1,8.962-1.414c3.914,3.289,2.927,12.629,1.135,16.871-.1.247-1.562,2.828-2.5,4.44.707-.855,1.365-1.644,2.1-2.6,1.431-1.743,2.911-3.453,4.489-5.295l2.417-2.615c.789-.9,1.743-1.743,2.615-2.615,2.056-1.99,4.243-3.914,6.5-5.8-1.546-1.25-6.923-5.8-8.469-8.9s-2.647-7.416-1.036-10.672a6.1,6.1,0,0,1,8.666-2.746c4.358,2.73,4.8,12.02,3.667,16.444,0,.28-1.25,3.387-1.924,5.081,1.365-1.118,2.713-2.253,4.127-3.289,4.078-3.157,8.3-6.216,12.5-9.291l3.831-2.845c-.543-.444-7.055-5.706-8.8-9.159-1.529-3.075-2.647-7.416-1.036-10.689a6.117,6.117,0,0,1,8.666-2.746c4.358,2.746,4.8,12.037,3.667,16.444-.082.345-1.776,4.818-2.269,5.936,2.812-2.1,5.591-4.21,8.222-6.4a106.449,106.449,0,0,0,10.2-9.5c-.247-.2-7.071-5.657-8.847-9.209-1.546-3.075-2.647-7.416-1.036-10.672a6.084,6.084,0,0,1,8.649-2.746c4.374,2.73,4.818,12.02,3.683,16.444-.082.28-1.365,3.7-2.023,5.311l.263.148a78.727,78.727,0,0,0,8.37-11.248c1.365-2.171,2.565-4.325,3.683-6.462-1.381-.888-7.613-4.933-9.57-8.025s-3.437-7.071-2.2-10.491a6.1,6.1,0,0,1,8.222-3.683c4.654,2.236,6.1,11.428,5.459,15.983,0,.247-.658,2.73-1.135,4.538.477-.97,1-1.957,1.447-2.894,1.644-3.519,3.042-6.841,4.193-9.866.658-1.644,1.2-3.289,1.644-4.654-.9-1.644-4.423-7.975-4.769-11.511s.214-7.877,2.894-10.343a6.1,6.1,0,0,1,9.061.576c3.091,4.127.148,12.941-2.516,16.707-.23.312-4.423,4.933-4.473,4.933v-.1c-.46,1.4-.954,2.894-1.546,4.506-1.085,2.976-2.368,6.347-3.979,9.866a109.959,109.959,0,0,1-5.8,11.248,79.808,79.808,0,0,1-8.222,11.511l-.115.132c1.283-.806,4.933-2.894,5.246-3.026,4.242-1.809,13.484-2.845,16.871,1.052a6.117,6.117,0,0,1-1.348,8.978c-2.976,2.1-7.449,1.644-10.721.641-3.7-1.168-9.866-6.808-10.442-7.252a106.658,106.658,0,0,1-10.31,10.047c-2.138,1.842-4.325,3.618-6.578,5.361,1.135-.641,2.154-1.217,2.3-1.283,4.226-1.809,13.467-2.845,16.855,1.052a6.1,6.1,0,0,1-1.348,8.978c-2.96,2.1-7.433,1.644-10.705.641s-8.748-5.739-10.162-7.005l-2.582,1.99c-4.144,3.174-8.222,6.314-12.251,9.521-1.4,1.135-2.73,2.3-4.078,3.453,1.02-.575,1.858-1.052,2.006-1.1,4.226-1.825,13.468-2.845,16.855,1.036a6.084,6.084,0,0,1-1.348,8.978c-2.976,2.1-7.433,1.644-10.7.658S408.3,335.5,406.655,334c-1.332,1.233-2.68,2.45-3.914,3.716-.839.872-1.644,1.644-2.467,2.582s-1.644,1.776-2.368,2.664c-1.431,1.743-2.927,3.552-4.292,5.295-.954,1.2-1.842,2.368-2.73,3.535,1.365-1.135,4.127-3.289,4.374-3.47,3.9-2.434,12.875-4.851,16.822-1.529a6.117,6.117,0,0,1,0,9.093c-2.615,2.516-7.087,2.8-10.475,2.269-3.749-.592-10.524-4.933-11.363-5.558-1.48,1.94-2.894,3.848-4.21,5.673-4.555,6.3-8.107,11.708-10.541,15.539l-.247.378-3.157-1.529c.164-.247.329-.477.493-.74,2.549-3.815,6.265-9.209,11-15.474,1.5-1.973,3.124-4.062,4.818-6.2a65.782,65.782,0,0,1-4.933-6.051c-3.634,1.414-11.182,1.48-12.152,1.48-.148,2.434-.28,4.8-.378,7.038-.329,7.778-.3,14.257-.214,18.779v.543l-3.47-1.644c0-4.489.181-10.59.641-17.776.148-2.483.362-5.13.608-7.827-.97-.247-8.814-2.269-11.774-4.637-2.68-2.138-5.509-5.624-5.41-9.258a6.084,6.084,0,0,1,6.709-6.117c5.114.658,9.389,8.913,10.245,13.435,0,.263.263,3.289.362,5.1.115-1.118.2-2.187.312-3.289.23-2.253.526-4.506.839-6.923.181-1.151.378-2.319.559-3.5s.493-2.4.74-3.618c.625-2.8,1.381-5.607,2.22-8.419-1.973-.214-8.962-1.036-11.971-2.746s-6.3-4.736-6.742-8.337A6.084,6.084,0,0,1,360.3,299.4c5.147-.132,10.639,7.383,12.152,11.725.1.28.839,3.519,1.2,5.311.526-1.644,1.019-3.387,1.644-5.065,1.644-4.933,3.5-9.768,5.311-14.651.559-1.5,1.085-2.993,1.644-4.473-.707,0-9.044-.872-12.4-2.8-2.976-1.644-6.3-4.736-6.758-8.337a6.117,6.117,0,0,1,5.706-7.071c5.163-.132,10.656,7.383,12.168,11.724.115.329,1.168,4.933,1.381,6.2,1.184-3.289,2.351-6.577,3.289-9.866a106.627,106.627,0,0,0,3.289-13.55c-.329,0-9.044-.822-12.464-2.8-2.993-1.644-6.314-4.736-6.758-8.337a6.117,6.117,0,0,1,5.706-7.071c5.147-.115,10.639,7.383,12.152,11.724.1.3.9,3.848,1.25,5.542h.3a78.7,78.7,0,0,0,.789-13.994,71.7,71.7,0,0,0-.493-7.433c-1.644,0-9.11,0-12.4-1.414s-6.791-4.012-7.646-7.548a6.1,6.1,0,0,1,4.933-7.646c5.114-.691,11.4,6.166,13.385,10.327.1.23.954,2.647,1.529,4.407-.115-1.069-.23-2.187-.378-3.207-.51-3.864-1.233-7.383-1.891-10.475-.395-1.76-.773-3.289-1.151-4.818-1.644-.822-8.09-4.21-10.31-6.956s-4.16-6.676-3.289-10.212a6.1,6.1,0,0,1,7.992-4.424Z" transform="translate(-267.951 -203.877)" fill="#ff7f27"/>
      <path id="Tracé_548" data-name="Tracé 548" d="M430.286,257.73c-4.029-.164-12.086-4.292-12.086-4.308s4.325-4.473,4.637-4.719c3.6-2.878,12.251-6.3,16.543-3.453a6.117,6.117,0,0,1,1.069,9.028C438.146,257.039,433.723,257.861,430.286,257.73Z" transform="translate(-224.853 -177.906)" fill="#ff7f27"/>
      <g id="Groupe_47" data-name="Groupe 47" transform="translate(83.368)" opacity="0.5">
        <path id="Tracé_549" data-name="Tracé 549" d="M374.942,236.475c-.1,0,1.135-6.134,1.266-6.578,1.414-4.374,6.742-12,11.889-11.988a6.1,6.1,0,0,1,5.87,6.923c-.378,3.634-3.634,6.709-6.578,8.5C383.937,235.489,374.942,236.475,374.942,236.475Z" transform="translate(-336.099 -194.834)" fill="#fff"/>
        <path id="Tracé_550" data-name="Tracé 550" d="M380.18,204.227c4.851,1.743,7.268,10.721,7.1,15.326,0,.395-.921,6.578-1,6.578h-.1c.378,1.414.789,2.943,1.2,4.6.723,3.091,1.513,6.578,2.121,10.458a108.217,108.217,0,0,1,1.381,12.58,79.431,79.431,0,0,1-.477,14.142.492.492,0,0,0,0,.164c.641-1.365,2.532-5.147,2.713-5.426,2.532-3.848,9.669-9.866,14.652-8.419a6.1,6.1,0,0,1,3.815,8.222c-1.316,3.387-5.262,5.509-8.567,6.446-3.733,1.069-12.053-.2-12.711-.3a106.782,106.782,0,0,1-3.058,14.076q-1.151,4.045-2.5,8.09c.576-1.167,1.118-2.2,1.2-2.351,2.532-3.848,9.669-9.866,14.651-8.436a6.084,6.084,0,0,1,3.815,8.222c-1.316,3.4-5.262,5.509-8.567,6.462s-10.475,0-12.349-.247c-.345,1.02-.691,2.056-1.052,3.075-1.644,4.933-3.42,9.866-4.933,14.7-.543,1.644-1.02,3.42-1.5,5.13.526-1.036.97-1.908,1.052-2.023,2.516-3.848,9.669-9.866,14.635-8.436a6.117,6.117,0,0,1,3.831,8.222c-1.316,3.387-5.279,5.509-8.584,6.446s-9.768.115-12-.2c-.444,1.776-.871,3.535-1.217,5.262-.214,1.184-.493,2.319-.641,3.519s-.329,2.368-.493,3.519c-.23,2.253-.493,4.588-.658,6.791-.132,1.529-.23,2.993-.329,4.456.51-1.644,1.644-5.032,1.727-5.311a23.843,23.843,0,0,1,7.893-8.978,6.331,6.331,0,0,1,.674-1.168,6.1,6.1,0,0,1,8.962-1.414c3.914,3.289,2.927,12.629,1.135,16.871-.1.247-1.562,2.828-2.5,4.44.707-.855,1.365-1.644,2.1-2.6,1.431-1.743,2.911-3.453,4.489-5.295l2.417-2.615c.789-.9,1.743-1.743,2.615-2.615,2.056-1.99,4.243-3.914,6.5-5.8-1.546-1.25-6.923-5.8-8.469-8.9s-2.647-7.416-1.036-10.672a6.1,6.1,0,0,1,8.666-2.746c4.358,2.73,4.8,12.02,3.667,16.444,0,.28-1.25,3.387-1.924,5.081,1.365-1.118,2.713-2.253,4.127-3.289,4.078-3.157,8.3-6.216,12.5-9.291l3.831-2.845c-.543-.444-7.055-5.706-8.8-9.159-1.529-3.075-2.647-7.416-1.036-10.689a6.117,6.117,0,0,1,8.666-2.746c4.358,2.746,4.8,12.037,3.667,16.444-.082.345-1.776,4.818-2.269,5.936,2.812-2.1,5.591-4.21,8.222-6.4a106.449,106.449,0,0,0,10.2-9.5c-.247-.2-7.071-5.657-8.847-9.209-1.546-3.075-2.647-7.416-1.036-10.672a6.084,6.084,0,0,1,8.649-2.746c4.374,2.73,4.818,12.02,3.683,16.444-.082.28-1.365,3.7-2.023,5.311l.263.148a78.727,78.727,0,0,0,8.37-11.248c1.365-2.171,2.565-4.325,3.683-6.462-1.381-.888-7.613-4.933-9.57-8.025s-3.437-7.071-2.2-10.491a6.1,6.1,0,0,1,8.222-3.683c4.654,2.236,6.1,11.428,5.459,15.983,0,.247-.658,2.73-1.135,4.538.477-.97,1-1.957,1.447-2.894,1.644-3.519,3.042-6.841,4.193-9.866.658-1.644,1.2-3.289,1.644-4.654-.9-1.644-4.423-7.975-4.769-11.511s.214-7.877,2.894-10.343a6.1,6.1,0,0,1,9.061.576c3.091,4.127.148,12.941-2.516,16.707-.23.312-4.423,4.933-4.473,4.933v-.1c-.46,1.4-.954,2.894-1.546,4.506-1.085,2.976-2.368,6.347-3.979,9.866a109.959,109.959,0,0,1-5.8,11.248,79.808,79.808,0,0,1-8.222,11.511l-.115.132c1.283-.806,4.933-2.894,5.246-3.026,4.242-1.809,13.484-2.845,16.871,1.052a6.117,6.117,0,0,1-1.348,8.978c-2.976,2.1-7.449,1.644-10.721.641-3.7-1.168-9.866-6.808-10.442-7.252a106.658,106.658,0,0,1-10.31,10.047c-2.138,1.842-4.325,3.618-6.578,5.361,1.135-.641,2.154-1.217,2.3-1.283,4.226-1.809,13.467-2.845,16.855,1.052a6.1,6.1,0,0,1-1.348,8.978c-2.96,2.1-7.433,1.644-10.705.641s-8.748-5.739-10.162-7.005l-2.582,1.99c-4.144,3.174-8.222,6.314-12.251,9.521-1.4,1.135-2.73,2.3-4.078,3.453,1.02-.575,1.858-1.052,2.006-1.1,4.226-1.825,13.468-2.845,16.855,1.036a6.084,6.084,0,0,1-1.348,8.978c-2.976,2.1-7.433,1.644-10.7.658S408.3,335.5,406.655,334c-1.332,1.233-2.68,2.45-3.914,3.716-.839.872-1.644,1.644-2.467,2.582s-1.644,1.776-2.368,2.664c-1.431,1.743-2.927,3.552-4.292,5.295-.954,1.2-1.842,2.368-2.73,3.535,1.365-1.135,4.127-3.289,4.374-3.47,3.9-2.434,12.875-4.851,16.822-1.529a6.117,6.117,0,0,1,0,9.093c-2.615,2.516-7.087,2.8-10.475,2.269-3.749-.592-10.524-4.933-11.363-5.558-1.48,1.94-2.894,3.848-4.21,5.673-4.555,6.3-8.107,11.708-10.541,15.539l-.247.378-3.157-1.529c.164-.247.329-.477.493-.74,2.549-3.815,6.265-9.209,11-15.474,1.5-1.973,3.124-4.062,4.818-6.2a65.782,65.782,0,0,1-4.933-6.051c-3.634,1.414-11.182,1.48-12.152,1.48-.148,2.434-.28,4.8-.378,7.038-.329,7.778-.3,14.257-.214,18.779v.543l-3.47-1.644c0-4.489.181-10.59.641-17.776.148-2.483.362-5.13.608-7.827-.97-.247-8.814-2.269-11.774-4.637-2.68-2.138-5.509-5.624-5.41-9.258a6.084,6.084,0,0,1,6.709-6.117c5.114.658,9.389,8.913,10.245,13.435,0,.263.263,3.289.362,5.1.115-1.118.2-2.187.312-3.289.23-2.253.526-4.506.839-6.923.181-1.151.378-2.319.559-3.5s.493-2.4.74-3.618c.625-2.8,1.381-5.607,2.22-8.419-1.973-.214-8.962-1.036-11.971-2.746s-6.3-4.736-6.742-8.337A6.084,6.084,0,0,1,360.3,299.4c5.147-.132,10.639,7.383,12.152,11.725.1.28.839,3.519,1.2,5.311.526-1.644,1.019-3.387,1.644-5.065,1.644-4.933,3.5-9.768,5.311-14.651.559-1.5,1.085-2.993,1.644-4.473-.707,0-9.044-.872-12.4-2.8-2.976-1.644-6.3-4.736-6.758-8.337a6.117,6.117,0,0,1,5.706-7.071c5.163-.132,10.656,7.383,12.168,11.724.115.329,1.168,4.933,1.381,6.2,1.184-3.289,2.351-6.577,3.289-9.866a106.627,106.627,0,0,0,3.289-13.55c-.329,0-9.044-.822-12.464-2.8-2.993-1.644-6.314-4.736-6.758-8.337a6.117,6.117,0,0,1,5.706-7.071c5.147-.115,10.639,7.383,12.152,11.724.1.3.9,3.848,1.25,5.542h.3a78.7,78.7,0,0,0,.789-13.994,71.7,71.7,0,0,0-.493-7.433c-1.644,0-9.11,0-12.4-1.414s-6.791-4.012-7.646-7.548a6.1,6.1,0,0,1,4.933-7.646c5.114-.691,11.4,6.166,13.385,10.327.1.23.954,2.647,1.529,4.407-.115-1.069-.23-2.187-.378-3.207-.51-3.864-1.233-7.383-1.891-10.475-.395-1.76-.773-3.289-1.151-4.818-1.644-.822-8.09-4.21-10.31-6.956s-4.16-6.676-3.289-10.212a6.1,6.1,0,0,1,7.992-4.424Z" transform="translate(-351.318 -203.877)" fill="#fff"/>
        <path id="Tracé_551" data-name="Tracé 551" d="M430.286,257.73c-4.029-.164-12.086-4.292-12.086-4.308s4.325-4.473,4.637-4.719c3.6-2.878,12.251-6.3,16.543-3.453a6.117,6.117,0,0,1,1.069,9.028C438.146,257.039,433.723,257.861,430.286,257.73Z" transform="translate(-308.221 -177.906)" fill="#fff"/>
      </g>
      <path id="Tracé_552" data-name="Tracé 552" d="M459.007,335.908s-24.452-58.951-38.133-56.386,23.432,93.96,23.432,93.96-43.017-81.15-72.353-81.15,10.754,89.7,47.9,119.6c0,0-58.655-63.21-92.875-49.545s68.439,77.73,68.439,77.73-59.642-18.8-52.8-4.275,25.422,17.085,25.422,17.085l-67.42,3.42H535.274l-52.8-5.13s54.758-27.33,40.09-38.429-46.931,12.81-46.931,12.81,55.728-61.5,44.974-84.571-58.672,41.866-58.672,41.866,39.12-82.861,31.243-97.381S459.007,335.908,459.007,335.908Z" transform="translate(-300.62 -155.185)" fill="#ff7f27"/>
      <path id="Tracé_553" data-name="Tracé 553" d="M459.007,335.908s-24.452-58.951-38.133-56.386,23.432,93.96,23.432,93.96-43.017-81.15-72.353-81.15,10.754,89.7,47.9,119.6c0,0-58.655-63.21-92.875-49.545s68.439,77.73,68.439,77.73-59.642-18.8-52.8-4.275,25.422,17.085,25.422,17.085l-67.42,3.42H535.274l-52.8-5.13s54.758-27.33,40.09-38.429-46.931,12.81-46.931,12.81,55.728-61.5,44.974-84.571-58.672,41.866-58.672,41.866,39.12-82.861,31.243-97.381S459.007,335.908,459.007,335.908Z" transform="translate(-300.62 -155.185)" fill="#fff" opacity="0.4"/>
      <path id="Tracé_554" data-name="Tracé 554" d="M410.135,315.66C388.61,379.216,388.61,424.19,388.61,424.19s25.422.97,51.831-18.582" transform="translate(-243.92 -131.846)" fill="none" stroke="#263238" stroke-linecap="round" stroke-linejoin="round" stroke-width="1"/>
      <path id="Tracé_555" data-name="Tracé 555" d="M402.061,358.325A382.335,382.335,0,0,0,384.45,302.58" transform="translate(-246.601 -140.274)" fill="none" stroke="#263238" stroke-linecap="round" stroke-linejoin="round" stroke-width="1"/>
      <path id="Tracé_556" data-name="Tracé 556" d="M356.51,313.88l54.742,81.15s37.163-31.243,49.874-48.888" transform="translate(-264.605 -132.993)" fill="none" stroke="#263238" stroke-linecap="round" stroke-linejoin="round" stroke-width="1"/>
      <path id="Tracé_557" data-name="Tracé 557" d="M421.011,391.968S363.325,364.589,339.86,349" transform="translate(-275.334 -110.362)" fill="none" stroke="#263238" stroke-linecap="round" stroke-linejoin="round" stroke-width="1"/>
    </g>
    <g id="freepik--Device--inject-1047" transform="translate(355.423 123.025)">
      <rect id="Rectangle_35" data-name="Rectangle 35" width="201.733" height="457.172" rx="7.92" transform="translate(15.211)" fill="#fff" stroke="#263238" stroke-linecap="round" stroke-linejoin="round" stroke-width="1"/>
      <path id="Tracé_558" data-name="Tracé 558" d="M362.59,173.774a2.68,2.68,0,0,1-2.68-2.68v-35.93a2.7,2.7,0,0,1,5.377,0v35.864a2.7,2.7,0,0,1-2.7,2.746Z" transform="translate(-152.388 -93.742)" fill="#263238"/>
      <path id="Tracé_559" data-name="Tracé 559" d="M362.59,187.8a2.68,2.68,0,0,1-2.68-2.68V165.044a2.7,2.7,0,0,1,5.377,0v20.078A2.7,2.7,0,0,1,362.59,187.8Z" transform="translate(-152.388 -74.488)" fill="#263238"/>
      <rect id="Rectangle_36" data-name="Rectangle 36" width="201.733" height="457.172" rx="7.92" fill="#263238" stroke="#263238" stroke-linecap="round" stroke-linejoin="round" stroke-width="1"/>
      <rect id="Rectangle_37" data-name="Rectangle 37" width="174.864" height="392.12" transform="translate(13.435 30.438)" fill="#ff7f27"/>
      <line id="Ligne_3" data-name="Ligne 3" x2="46.553" transform="translate(74.902 17.907)" fill="none" stroke="#fff" stroke-linecap="round" stroke-linejoin="round" stroke-width="3"/>
      <path id="Tracé_560" data-name="Tracé 560" d="M294.752,376.691c0,3.207-2.006,5.8-4.489,5.8s-4.473-2.6-4.473-5.8,2.006-5.821,4.473-5.821S294.752,373.468,294.752,376.691Z" transform="translate(-200.15 59.746)" fill="#fff"/>
      <ellipse id="Ellipse_22" data-name="Ellipse 22" cx="35.256" cy="35.354" rx="35.256" ry="35.354" transform="translate(65.611 60.596)" fill="#fff"/>
      <g id="Group_63" data-name="Group 63" transform="translate(69.405 68.048)">
        <rect id="Rectangle_54" data-name="Rectangle 54" width="46.707" height="41.491" rx="17.782" transform="translate(8.061 10.195)" fill="none" stroke="#000" stroke-width="2.371"/>
        <rect id="Rectangle_55" data-name="Rectangle 55" width="46.707" height="41.491" rx="17.782" transform="translate(8.061 10.195)" fill="none" stroke="#000" stroke-width="2.371"/>
        <path id="Tracé_617" data-name="Tracé 617" d="M45.758,30.229c0,6.744-5.527,2.015-13.514,2.015s-15.411,4.728-15.411-2.015,6.475-12.21,14.462-12.21S45.758,23.485,45.758,30.229Z"/>
        <ellipse id="Ellipse_31" data-name="Ellipse 31" cx="2.371" cy="2.608" rx="2.371" ry="2.608" transform="translate(22.049 24.894)" fill="#e5e5e5"/>
        <ellipse id="Ellipse_32" data-name="Ellipse 32" cx="2.371" cy="2.608" rx="2.371" ry="2.608" transform="translate(36.275 24.894)" fill="#e5e5e5"/>
        <path id="Tracé_618" data-name="Tracé 618" d="M7.824,33.9a25.827,25.827,0,0,0,.742,5.414c.113.524.214.99.279,1.379A3.082,3.082,0,0,1,8.9,42.02a1.29,1.29,0,0,1-.483.064,7.267,7.267,0,0,1-4.663-2.412A8.428,8.428,0,0,1,1.185,33.9a9.617,9.617,0,0,1,2.277-6.017,6.466,6.466,0,0,1,3.96-2.5,1.214,1.214,0,0,1,.444.561,4.461,4.461,0,0,1,.239,1.64c.006.708-.05,1.523-.116,2.5l-.016.235C7.9,31.377,7.824,32.583,7.824,33.9Z" fill="none" stroke="#000" stroke-width="2.371"/>
        <path id="Tracé_619" data-name="Tracé 619" d="M7.824,33.9a25.827,25.827,0,0,0,.742,5.414c.113.524.214.99.279,1.379A3.082,3.082,0,0,1,8.9,42.02a1.29,1.29,0,0,1-.483.064,7.267,7.267,0,0,1-4.663-2.412A8.428,8.428,0,0,1,1.185,33.9a9.617,9.617,0,0,1,2.277-6.017,6.466,6.466,0,0,1,3.96-2.5,1.214,1.214,0,0,1,.444.561,4.461,4.461,0,0,1,.239,1.64c.006.708-.05,1.523-.116,2.5l-.016.235C7.9,31.377,7.824,32.583,7.824,33.9Z" fill="none" stroke="#000" stroke-width="2.371"/>
        <path id="Tracé_620" data-name="Tracé 620" d="M55.176,33.9a25.825,25.825,0,0,1-.742,5.414c-.113.524-.214.99-.279,1.379A3.083,3.083,0,0,0,54.1,42.02a1.291,1.291,0,0,0,.483.064,7.267,7.267,0,0,0,4.663-2.412A8.428,8.428,0,0,0,61.815,33.9a9.617,9.617,0,0,0-2.277-6.017,6.467,6.467,0,0,0-3.96-2.5,1.215,1.215,0,0,0-.444.561,4.461,4.461,0,0,0-.239,1.64c-.006.708.05,1.523.116,2.5q.008.116.016.235C55.1,31.377,55.176,32.583,55.176,33.9Z" fill="none" stroke="#000" stroke-width="2.371"/>
        <path id="Tracé_621" data-name="Tracé 621" d="M55.176,33.9a25.825,25.825,0,0,1-.742,5.414c-.113.524-.214.99-.279,1.379A3.083,3.083,0,0,0,54.1,42.02a1.291,1.291,0,0,0,.483.064,7.267,7.267,0,0,0,4.663-2.412A8.428,8.428,0,0,0,61.815,33.9a9.617,9.617,0,0,0-2.277-6.017,6.467,6.467,0,0,0-3.96-2.5,1.215,1.215,0,0,0-.444.561,4.461,4.461,0,0,0-.239,1.64c-.006.708.05,1.523.116,2.5q.008.116.016.235C55.1,31.377,55.176,32.583,55.176,33.9Z" fill="none" stroke="#000" stroke-width="2.371"/>
        <path id="Tracé_622" data-name="Tracé 622" d="M12.813,3.113a2.371,2.371,0,0,1,3.549-1.407l.115.072L19.8,5.69l3.319,5.216-7.231,4.031-4.86,4.5L8.417,25.25l2.252-13.988Z"/>
        <path id="Tracé_623" data-name="Tracé 623" d="M49.541,3.113a2.371,2.371,0,0,0-3.549-1.407l-.115.072L42.557,5.69l-3.319,5.216,7.231,4.031,4.86,4.5,2.608,5.809L51.685,11.262Z"/>
        <path id="Tracé_624" data-name="Tracé 624" d="M13.919,6.038a1.7,1.7,0,0,1,2.55-1.009L18.76,7.747l3.763,5.024-5.4,2.265-6.221,6.3,1.554-9.72Z" fill="#e5e5e5"/>
        <path id="Tracé_625" data-name="Tracé 625" d="M48.435,6.038a1.7,1.7,0,0,0-2.55-1.009L43.594,7.747l-3.763,5.024,5.4,2.265,6.221,6.3-1.554-9.72Z" fill="#e5e5e5"/>
        <rect id="Rectangle_56" data-name="Rectangle 56" width="46.707" height="41.491" rx="17.782" transform="translate(8.061 10.195)" fill="none" stroke="#000" stroke-width="2.371"/>
        <rect id="Rectangle_57" data-name="Rectangle 57" width="46.707" height="41.491" rx="17.782" transform="translate(8.061 10.195)" fill="#fff" stroke="#000" stroke-width="2.371"/>
        <path id="Tracé_626" data-name="Tracé 626" d="M38.646,39.238c0,1.375-5.005,3.438-7.231,3.438s-7.468-2.063-7.468-3.438S29.188,37.7,31.414,37.7,38.646,37.863,38.646,39.238Z"/>
        <path id="Tracé_627" data-name="Tracé 627" d="M45.758,30.229c0,6.744-5.527,2.015-13.514,2.015s-15.411,4.728-15.411-2.015,6.475-12.21,14.462-12.21S45.758,23.485,45.758,30.229Z"/>
        <ellipse id="Ellipse_33" data-name="Ellipse 33" cx="2.371" cy="2.608" rx="2.371" ry="2.608" transform="translate(22.049 24.894)" fill="#fff"/>
        <ellipse id="Ellipse_34" data-name="Ellipse 34" cx="2.371" cy="2.608" rx="2.371" ry="2.608" transform="translate(36.275 24.894)" fill="#fff"/>
        <path id="Tracé_628" data-name="Tracé 628" d="M7.824,33.9a25.827,25.827,0,0,0,.742,5.414c.113.524.214.99.279,1.379A3.082,3.082,0,0,1,8.9,42.02a1.29,1.29,0,0,1-.483.064,7.267,7.267,0,0,1-4.663-2.412A8.428,8.428,0,0,1,1.185,33.9a9.617,9.617,0,0,1,2.277-6.017,6.466,6.466,0,0,1,3.96-2.5,1.214,1.214,0,0,1,.444.561,4.461,4.461,0,0,1,.239,1.64c.006.708-.05,1.523-.116,2.5l-.016.235C7.9,31.377,7.824,32.583,7.824,33.9Z" fill="none" stroke="#000" stroke-width="2.371"/>
        <path id="Tracé_629" data-name="Tracé 629" d="M7.824,33.9a25.827,25.827,0,0,0,.742,5.414c.113.524.214.99.279,1.379A3.082,3.082,0,0,1,8.9,42.02a1.29,1.29,0,0,1-.483.064,7.267,7.267,0,0,1-4.663-2.412A8.428,8.428,0,0,1,1.185,33.9a9.617,9.617,0,0,1,2.277-6.017,6.466,6.466,0,0,1,3.96-2.5,1.214,1.214,0,0,1,.444.561,4.461,4.461,0,0,1,.239,1.64c.006.708-.05,1.523-.116,2.5l-.016.235C7.9,31.377,7.824,32.583,7.824,33.9Z" fill="#fff" stroke="#000" stroke-width="2.371"/>
        <path id="Tracé_630" data-name="Tracé 630" d="M55.176,33.9a25.825,25.825,0,0,1-.742,5.414c-.113.524-.214.99-.279,1.379A3.083,3.083,0,0,0,54.1,42.02a1.291,1.291,0,0,0,.483.064,7.267,7.267,0,0,0,4.663-2.412A8.428,8.428,0,0,0,61.815,33.9a9.617,9.617,0,0,0-2.277-6.017,6.467,6.467,0,0,0-3.96-2.5,1.215,1.215,0,0,0-.444.561,4.461,4.461,0,0,0-.239,1.64c-.006.708.05,1.523.116,2.5q.008.116.016.235C55.1,31.377,55.176,32.583,55.176,33.9Z" fill="none" stroke="#000" stroke-width="2.371"/>
        <path id="Tracé_631" data-name="Tracé 631" d="M55.176,33.9a25.825,25.825,0,0,1-.742,5.414c-.113.524-.214.99-.279,1.379A3.083,3.083,0,0,0,54.1,42.02a1.291,1.291,0,0,0,.483.064,7.267,7.267,0,0,0,4.663-2.412A8.428,8.428,0,0,0,61.815,33.9a9.617,9.617,0,0,0-2.277-6.017,6.467,6.467,0,0,0-3.96-2.5,1.215,1.215,0,0,0-.444.561,4.461,4.461,0,0,0-.239,1.64c-.006.708.05,1.523.116,2.5q.008.116.016.235C55.1,31.377,55.176,32.583,55.176,33.9Z" fill="#fff" stroke="#000" stroke-width="2.371"/>
        <path id="Tracé_632" data-name="Tracé 632" d="M12.813,3.113a2.371,2.371,0,0,1,3.549-1.407l.115.072L19.8,5.69l3.319,5.216-7.231,4.031-4.86,4.5L8.417,25.25l2.252-13.988Z"/>
        <path id="Tracé_633" data-name="Tracé 633" d="M49.541,3.113a2.371,2.371,0,0,0-3.549-1.407l-.115.072L42.557,5.69l-3.319,5.216,7.231,4.031,4.86,4.5,2.608,5.809L51.685,11.262Z"/>
        <path id="Tracé_634" data-name="Tracé 634" d="M13.919,6.038a1.7,1.7,0,0,1,2.55-1.009L18.76,7.747l3.763,5.024-5.4,2.265-6.221,6.3,1.554-9.72Z" fill="#fff"/>
        <path id="Tracé_635" data-name="Tracé 635" d="M48.435,6.038a1.7,1.7,0,0,0-2.55-1.009L43.594,7.747l-3.763,5.024,5.4,2.265,6.221,6.3-1.554-9.72Z" fill="#fff"/>
      </g>
      <path id="Tracé_562" data-name="Tracé 562" d="M349.137,298.475H275.4a7.367,7.367,0,0,1-7.071-7.646V245.312c0-26.228,19.733-47.572,43.938-47.572s43.922,21.377,43.922,47.572V290.8a7.367,7.367,0,0,1-7.054,7.679Zm-66.68-15.293h59.609V245.361c0-17.792-13.369-32.279-29.8-32.279s-29.813,14.487-29.813,32.279Z" transform="translate(-211.404 -51.817)" fill="#263238"/>
      <rect id="Rectangle_38" data-name="Rectangle 38" width="102.379" height="96.854" transform="translate(49.677 215.596)" fill="#fff"/>
      <path id="Tracé_563" data-name="Tracé 563" d="M315.416,297.24l-7.6-18.269a13.468,13.468,0,0,0,5.344-10.886c0-7.285-5.443-13.155-12.168-13.155s-12.152,5.887-12.152,13.155a13.451,13.451,0,0,0,5.328,10.886L286.59,297.24Z" transform="translate(-199.635 -14.965)" fill="#263238" stroke="#263238" stroke-linecap="round" stroke-linejoin="round" stroke-width="1"/>
      <path id="Tracé_564" data-name="Tracé 564" d="M276.209,415.767a.938.938,0,0,0,.543.181.855.855,0,0,0,.707-.378L394.835,255.916V252.89L276.078,414.517a.888.888,0,0,0,.132,1.25Z" transform="translate(-206.537 -16.279)" fill="#fff"/>
      <path id="Tracé_565" data-name="Tracé 565" d="M333.928,175.049a.888.888,0,0,0,.2,1.25.9.9,0,0,0,1.25-.2l22.166-30.142V143Z" transform="translate(-169.243 -87.091)" fill="#fff"/>
      <path id="Tracé_566" data-name="Tracé 566" d="M241.88,367.234l144.9-197.047a.895.895,0,0,0-1.447-1.052L241.946,364.208Z" transform="translate(-228.445 -70.488)" fill="#fff"/>
      <path id="Tracé_567" data-name="Tracé 567" d="M268.154,368.813a.937.937,0,0,0,.724-.362l8.222-11.116a.888.888,0,0,0-.2-1.25.9.9,0,0,0-1.25.2l-8.222,11.1a.888.888,0,0,0,.181,1.25.839.839,0,0,0,.543.181Z" transform="translate(-212.097 50.111)" fill="#fff"/>
      <path id="Tracé_568" data-name="Tracé 568" d="M386.049,274.17,289.688,405.244a.888.888,0,0,0,.724,1.414.872.872,0,0,0,.724-.362l94.914-129.117Z" transform="translate(-197.75 -2.567)" fill="#fff"/>
    </g>
    <g id="freepik--Character--inject-1047" transform="translate(78.487 184.922)">
      <path id="Tracé_569" data-name="Tracé 569" d="M192.1,171.735a26.129,26.129,0,0,0,2.3-11.511c0-7.35-8.9-11.609-19.354-12.777s-15.1,3.091-13.55,5.8a25.323,25.323,0,0,0,5.8,5.8s-10.458-5.8-17.43-1.151,3.108,2.713,1.167,7.35-12.777,2.713-15.49,15.1,5.032,24.781-1.94,30.207-27.955-1.94-34.072,11.609S102.1,241.737,87.4,250.255,61.98,267.093,66.239,287.993s18.2,28.218,45.7,20.834,25.554-24.008,34.532-41.11,22.857-13.55,27.116-23.235-1.168-21.295-.773-30.207,9.291-10.837,12.777-21.377S192.1,171.735,192.1,171.735Z" transform="translate(-65.297 -147.25)" fill="#263238" stroke="#263238" stroke-linecap="round" stroke-linejoin="round" stroke-width="1"/>
      <path id="Tracé_570" data-name="Tracé 570" d="M68.239,232.6a10.294,10.294,0,0,0-1.069,4.687" transform="translate(-64.09 -92.251)" fill="none" stroke="#fff" stroke-linecap="round" stroke-linejoin="round" stroke-width="0.5"/>
      <path id="Tracé_571" data-name="Tracé 571" d="M174.45,158.913s-4.835-5.591,4.473-2.993c11.724,3.289-2.039,16.855-7.334,19.585-10.623,5.443-24.666,3.7-32.888,13.6-7.465,8.945,2.615,18.269-1.858,25.356s-22.38,2.976-28.333,11.511,10.8,26.853-6.347,36.916c-12.4,7.285-25.981,10.08-32.542,15.852" transform="translate(-62.511 -142.106)" fill="none" stroke="#fff" stroke-linecap="round" stroke-linejoin="round" stroke-width="0.5"/>
      <path id="Tracé_572" data-name="Tracé 572" d="M141.516,177.59a13.434,13.434,0,0,0-.888,7.548c1.48,6.331,10.064,18.269,2.236,24.978s-21.262,6.331-23.482,14.191,2.236,29.451-5.213,39.465-22,9.324-29.829,16.033-6.709,10.442-6.709,10.442" transform="translate(-57.384 -127.699)" fill="none" stroke="#fff" stroke-linecap="round" stroke-linejoin="round" stroke-width="0.5"/>
      <path id="Tracé_573" data-name="Tracé 573" d="M119.595,173.11a32.776,32.776,0,0,0-1.875,2.976" transform="translate(-31.516 -130.585)" fill="none" stroke="#fff" stroke-linecap="round" stroke-linejoin="round" stroke-width="0.5"/>
      <path id="Tracé_574" data-name="Tracé 574" d="M151.029,232.336l1.891,14.8S162.786,257,170.038,263.1s25.833,19.009,25.833,19.009l-9.422,2.68s-30.8-18.253-36.884-19.733-10.639-10.261-12.53-12.925S146.079,229.672,151.029,232.336Z" transform="translate(-19.21 -92.579)" fill="#fff" stroke="#263238" stroke-linecap="round" stroke-linejoin="round" stroke-width="1"/>
      <path id="Tracé_575" data-name="Tracé 575" d="M162.424,379.392s9.307,7.86,13.155,10.491,8.337,3.815,7.63,5.246-2.631,2.861-11.692,1.644-11.675-4.292-13.352-4.769-5.722.724-8.814-1.184,1.809-13.27,1.809-13.27a8.847,8.847,0,0,0,11.264,1.842Z" transform="translate(-11.793 1.153)" fill="#fff" stroke="#263238" stroke-linecap="round" stroke-linejoin="round" stroke-width="1"/>
      <path id="Tracé_576" data-name="Tracé 576" d="M183.3,391.075a1.214,1.214,0,0,0,0-.23,42.377,42.377,0,0,1-15.556-1.464c-5.854-1.381-7.581-4.489-13.155-4.489a19.108,19.108,0,0,1-6.43-1.053,3.387,3.387,0,0,0,1.168,2.944c3.091,1.908,7.153.707,8.814,1.184s4.292,3.585,13.352,4.769S182.575,392.506,183.3,391.075Z" transform="translate(-11.915 5.206)" fill="#fff" stroke="#263238" stroke-linecap="round" stroke-linejoin="round" stroke-width="1"/>
      <path id="Tracé_577" data-name="Tracé 577" d="M156.081,185.4s1.792,12.07-.51,16.937-9.5,5.394-15.655,6.43-20.275,6.413-18.746,20.275,19.256,43.889,19.256,52.357-5.394,12.826-11.3,29.254S124,357.633,125.84,377.4a208.677,208.677,0,0,0,7.7,38.5s-14.8,23.876-21.377,34.137-29.6,54.939-29.6,54.939,0,1.529,3.585,2.565a22.5,22.5,0,0,0,7.712.51s44.135-53.13,52.357-62.108,15.918-24.666,16.937-31.835-.247-51.075-.247-51.075,9.225,22.068,16.444,33.365a237.172,237.172,0,0,1,12.037,21.377,129.215,129.215,0,0,0,0,27.955c1.792,12.826.28,54.034,2.072,57.373s8.748,1.94,10.294.411S206.021,492,206.021,492s3.075-31.243,4.933-45.944,4.933-27.215,3.864-30.553-7.449-39.021-12.333-55.909-19.733-48.509-23.021-56.715-5.147-15.671-4.621-18.236S185.367,266.682,188,262.571a20.292,20.292,0,0,0,.51-18.22c-3.075-6.676,0-15.671-.51-21.048s-8.469-7.712-12.58-9.751-5.657-6.676-5.657-10.524a29.6,29.6,0,0,1,2.319-9.406S159.419,185.4,156.081,185.4Z" transform="translate(-54.173 -122.666)" fill="#fff" stroke="#263238" stroke-linecap="round" stroke-linejoin="round" stroke-width="1"/>
      <path id="Tracé_578" data-name="Tracé 578" d="M147.511,222.921a84.7,84.7,0,0,1-3.371-10.541" transform="translate(-14.491 -105.28)" fill="none" stroke="#263238" stroke-linecap="round" stroke-linejoin="round" stroke-width="1"/>
      <path id="Tracé_579" data-name="Tracé 579" d="M125.92,237.588s4.637,1.02,13.928-3.618" transform="translate(-26.232 -91.368)" fill="none" stroke="#263238" stroke-linecap="round" stroke-linejoin="round" stroke-width="1"/>
      <path id="Tracé_580" data-name="Tracé 580" d="M202.534,314.144c-4.654-16.181-18.45-45.73-22.577-55.482-19.733,7.4-38.183,1.085-46.849-2.993-1.25,2.73-2.6,5.887-3.979,9.7-5.9,16.444-5.13,46.98-3.289,66.746a208.677,208.677,0,0,0,7.7,38.5s-14.8,23.876-21.377,34.137-29.6,54.939-29.6,54.939,0,1.529,3.585,2.565a22.5,22.5,0,0,0,7.712.51s44.135-53.13,52.357-62.108,15.918-24.666,16.937-31.835-.247-51.075-.247-51.075,9.225,22.068,16.444,33.365a237.189,237.189,0,0,1,12.037,21.377,129.218,129.218,0,0,0,0,27.955c1.792,12.826.28,54.035,2.072,57.373s8.748,1.94,10.294.411,2.269-11.511,2.269-11.511,3.075-31.243,4.933-45.944,4.933-27.215,3.864-30.553S207.418,331.082,202.534,314.144Z" transform="translate(-54.173 -77.385)" fill="#263238" stroke="#263238" stroke-linecap="round" stroke-linejoin="round" stroke-width="1"/>
      <path id="Tracé_581" data-name="Tracé 581" d="M228.646,292.958V289.6h2.812V263.26H198.076V289.6h2.812v3.355H198.06v6.117H208.9v-2.055h11.741v2.055h10.837v-6.117Z" transform="translate(20.254 -72.494)" fill="#ff7f27" stroke="#263238" stroke-linecap="round" stroke-linejoin="round" stroke-width="1"/>
      <path id="Tracé_582" data-name="Tracé 582" d="M107.56,258.476H301.2a2.927,2.927,0,0,1,2.927,2.927v5.887a2.927,2.927,0,0,1-2.927,2.927H107.56V258.476Z" transform="translate(-38.063 -75.587)" fill="#ff7f27" stroke="#263238" stroke-linecap="round" stroke-linejoin="round" stroke-width="1"/>
      <rect id="Rectangle_39" data-name="Rectangle 39" width="15.046" height="15.276" rx="0.99" transform="translate(195.062 181.13)" fill="#ff7f27" stroke="#263238" stroke-linecap="round" stroke-linejoin="round" stroke-width="1"/>
      <circle id="Ellipse_24" data-name="Ellipse 24" cx="30.569" cy="30.569" r="30.569" transform="translate(10.282 213.998) rotate(-80.7)" fill="#ff7f27" stroke="#263238" stroke-linecap="round" stroke-linejoin="round" stroke-width="1"/>
      <path id="Tracé_583" data-name="Tracé 583" d="M104.021,269.92a10.689,10.689,0,0,0,6.068-9.34c0-6-5.525-10.869-12.349-10.869S85.39,254.643,85.39,260.579a10.655,10.655,0,0,0,6.068,9.34,10.7,10.7,0,0,0-6.068,9.357c0,6,5.525,10.869,12.349,10.869s12.349-4.933,12.349-10.869a10.738,10.738,0,0,0-6.068-9.357Z" transform="translate(-52.349 -81.225)" fill="#fff" stroke="#263238" stroke-linecap="round" stroke-linejoin="round" stroke-width="1"/>
      <path id="Tracé_584" data-name="Tracé 584" d="M169.06,269.122s9.57,4.045,12.53,4.045,6.38-2.976,8.074-6.578,1.644-5.311.641-4.456l-2.121,1.644s1.644-3.6-.214-3.174a5.2,5.2,0,0,0-2.976,2.549s-.214-3.19-1.907-1.644a19.47,19.47,0,0,0-2.976,3.4s-.214-4.029-1.283-2.976-5.081,6.791-5.081,6.791Z" transform="translate(1.567 -74.228)" fill="#fff" stroke="#263238" stroke-linecap="round" stroke-linejoin="round" stroke-width="1"/>
      <path id="Tracé_585" data-name="Tracé 585" d="M177.275,263.19s-.641,5.1-3.815,5.953" transform="translate(4.402 -72.539)" fill="#fff" stroke="#263238" stroke-linecap="round" stroke-linejoin="round" stroke-width="1"/>
      <path id="Tracé_586" data-name="Tracé 586" d="M180.412,262.16s-1.644,8.057-4.243,9.34" transform="translate(6.148 -73.203)" fill="#fff" stroke="#263238" stroke-linecap="round" stroke-linejoin="round" stroke-width="1"/>
      <path id="Tracé_587" data-name="Tracé 587" d="M182.024,262.54a45.826,45.826,0,0,1-3.4,8.5" transform="translate(7.727 -72.958)" fill="#fff" stroke="#263238" stroke-linecap="round" stroke-linejoin="round" stroke-width="1"/>
      <path id="Tracé_588" data-name="Tracé 588" d="M147.54,213.059a11.675,11.675,0,0,1-5.13-10.2,29.6,29.6,0,0,1,2.4-9.241s-12.58-8.222-15.918-8.222c0,0,1.792,12.07-.51,16.937a7.729,7.729,0,0,1-3.5,3.486,98.04,98.04,0,0,0,12.251,23.021C141.751,234.649,144,222.415,147.54,213.059Z" transform="translate(-26.902 -122.666)" fill="#fff" stroke="#263238" stroke-linecap="round" stroke-linejoin="round" stroke-width="1"/>
      <path id="Tracé_589" data-name="Tracé 589" d="M130.811,200.62a20.538,20.538,0,0,0-14.8,10.836c-5.065,9.768-27.2,54.1-25.307,56.748,10.754,15.128,49.874,26.014,53.854,29.994a90.442,90.442,0,0,0,13.04,11.264c3.979,2.532,11.922,1.447,13.369.723s2.532-3.979,0-3.979a4.226,4.226,0,0,1-4.177-3.289c-.362-1.447,3.979,1.447,6.15.362s-4.851-5.048-7.022-6.857-3.979-4.325-6.874-4.325h-8.337s-13.32-9.653-21.377-16.839a122.294,122.294,0,0,0-20.407-14.9l24.419-40.172" transform="translate(-48.998 -112.858)" fill="#fff" stroke="#263238" stroke-linecap="round" stroke-linejoin="round" stroke-width="1"/>
      <path id="Tracé_590" data-name="Tracé 590" d="M165.931,281.173c-2.171-1.809-3.979-4.325-6.874-4.325h-8.337S137.4,267.2,129.344,260.01a122.3,122.3,0,0,0-20.407-14.9l9.768-16.082a32.674,32.674,0,0,0-16.543-4.719C95.584,238.024,89.681,251.574,90.651,253,101.405,268.133,140.525,279.019,144.5,283a90.446,90.446,0,0,0,13.04,11.264c3.979,2.532,11.922,1.447,13.369.724s2.532-3.979,0-3.979a4.226,4.226,0,0,1-4.177-3.289c-.362-1.447,3.979,1.447,6.15.362S168.1,283,165.931,281.173Z" transform="translate(-49.027 -97.593)" fill="#fff" stroke="#263238" stroke-linecap="round" stroke-linejoin="round" stroke-width="1"/>
      <path id="Tracé_591" data-name="Tracé 591" d="M159.616,182.685c-1.283-2.565-1.283-4.621-.773-8.222s-2.565-12.333-2.565-12.333h0c-3.141,5.426-12.218,8.649-16.23,9.866-4.423,1.348,2.039,4.407,1.348,8.5s-9.521,6.462-9.521,6.462-2.582-5.311-6.166-5.311-6.134,8.222-4.095,12.58a5.821,5.821,0,0,0,6.43,3.371s-.247,7.712,4.621,10.014a90.439,90.439,0,0,0,16.181,5.9c3.075.51,6.15-1.019,7.433-5.64a105.573,105.573,0,0,0,2.055-14.125,33.039,33.039,0,0,0,5.9-4.933C165.47,187.042,160.9,185.25,159.616,182.685Z" transform="translate(-29.474 -137.661)" fill="#fff" stroke="#263238" stroke-linecap="round" stroke-linejoin="round" stroke-width="1"/>
      <path id="Tracé_592" data-name="Tracé 592" d="M142.2,175.7c0,1.414-.46,2.549-1.02,2.549s-1.02-1.135-1.02-2.549.46-2.549,1.02-2.549S142.2,174.285,142.2,175.7Z" transform="translate(-17.056 -130.56)" fill="#263238"/>
      <path id="Tracé_593" data-name="Tracé 593" d="M138.71,173.094s2.73-3.075,4.769-2.384" transform="translate(-17.99 -132.197)" fill="none" stroke="#263238" stroke-linecap="round" stroke-linejoin="round" stroke-width="1"/>
      <path id="Tracé_594" data-name="Tracé 594" d="M144.413,185.584a7.4,7.4,0,0,1-7.153-1.644" transform="translate(-18.925 -123.607)" fill="none" stroke="#263238" stroke-linecap="round" stroke-linejoin="round" stroke-width="1"/>
      <path id="Tracé_595" data-name="Tracé 595" d="M84.946,379.74s-6.134,12.3-5.9,13.977,12.4,10.491,18.088,13.583,15.983,3.585,15.26-.707-10.491-7.153-12.876-13.6a104.223,104.223,0,0,1-3.289-10.179,21.081,21.081,0,0,1-11.28-3.075Z" transform="translate(-56.443 2.564)" fill="#fff" stroke="#263238" stroke-linecap="round" stroke-linejoin="round" stroke-width="1"/>
      <path id="Tracé_596" data-name="Tracé 596" d="M112.427,402.264a24.024,24.024,0,0,1-12.876-1.825c-8.83-3.831-17.381-11.659-19.733-13.879a8.814,8.814,0,0,0-.789,2.812c.247,1.644,12.4,10.491,18.088,13.583S113.019,406.474,112.427,402.264Z" transform="translate(-56.447 6.959)" fill="#fff" stroke="#263238" stroke-linecap="round" stroke-linejoin="round" stroke-width="1"/>
    </g>
  </g>
</svg>
