<svg width="73" height="60" viewBox="0 0 73 60" fill="none" xmlns="http://www.w3.org/2000/svg">
<path d="M43.167 10.718H30.463C19.2665 10.718 10.19 19.7945 10.19 30.991V37.748C10.19 48.9445 19.2665 58.021 30.463 58.021H43.167C54.3635 58.021 63.44 48.9445 63.44 37.748V30.991C63.44 19.7945 54.3635 10.718 43.167 10.718Z" stroke="black" stroke-width="2.703"/>
<path d="M43.167 10.718H30.463C19.2665 10.718 10.19 19.7945 10.19 30.991V37.748C10.19 48.9445 19.2665 58.021 30.463 58.021H43.167C54.3635 58.021 63.44 48.9445 63.44 37.748V30.991C63.44 19.7945 54.3635 10.718 43.167 10.718Z" stroke="black" stroke-width="2.703"/>
<path d="M53.169 33.5589C53.169 41.2469 46.869 35.8589 37.762 35.8589C28.655 35.8589 20.192 41.2499 20.192 33.5589C20.192 25.8679 27.574 19.6379 36.68 19.6379C45.786 19.6379 53.169 25.8709 53.169 33.5589Z" fill="black"/>
<path d="M28.841 33.4231C30.3338 33.4231 31.544 32.092 31.544 30.4501C31.544 28.8081 30.3338 27.4771 28.841 27.4771C27.3482 27.4771 26.138 28.8081 26.138 30.4501C26.138 32.092 27.3482 33.4231 28.841 33.4231Z" fill="#E5E5E5"/>
<path d="M45.06 33.4231C46.5528 33.4231 47.763 32.092 47.763 30.4501C47.763 28.8081 46.5528 27.4771 45.06 27.4771C43.5672 27.4771 42.357 28.8081 42.357 30.4501C42.357 32.092 43.5672 33.4231 45.06 33.4231Z" fill="#E5E5E5"/>
<path d="M9.91998 37.7489C9.98286 39.8307 10.2664 41.9 10.766 43.9219C10.895 44.5219 11.01 45.0509 11.084 45.4949C11.2135 45.9868 11.2346 46.501 11.146 47.0019C10.9686 47.061 10.7816 47.0858 10.595 47.0749C8.54185 46.8529 6.64564 45.8722 5.27798 44.3249C3.48693 42.5954 2.4372 40.2382 2.34998 37.7499C2.40329 35.2325 3.32137 32.8102 4.94998 30.8899C6.04512 29.4073 7.65598 28.3887 9.46498 28.0349C9.69449 28.1924 9.87118 28.4154 9.97198 28.6749C10.1787 29.2758 10.2709 29.9101 10.244 30.5449C10.251 31.3519 10.188 32.2809 10.111 33.3919L10.093 33.6599C10.007 34.8679 9.91998 36.2429 9.91998 37.7489Z" stroke="black" stroke-width="2.703"/>
<path d="M9.91998 37.7489C9.98286 39.8307 10.2664 41.9 10.766 43.9219C10.895 44.5219 11.01 45.0509 11.084 45.4949C11.2135 45.9868 11.2346 46.501 11.146 47.0019C10.9686 47.061 10.7816 47.0858 10.595 47.0749C8.54185 46.8529 6.64564 45.8722 5.27798 44.3249C3.48693 42.5954 2.4372 40.2382 2.34998 37.7499C2.40329 35.2325 3.32137 32.8102 4.94998 30.8899C6.04512 29.4073 7.65598 28.3887 9.46498 28.0349C9.69449 28.1924 9.87118 28.4154 9.97198 28.6749C10.1787 29.2758 10.2709 29.9101 10.244 30.5449C10.251 31.3519 10.188 32.2809 10.111 33.3919L10.093 33.6599C10.007 34.8679 9.91998 36.2429 9.91998 37.7489Z" stroke="black" stroke-width="2.703"/>
<path d="M63.906 37.7489C63.8431 39.8307 63.5595 41.9 63.06 43.9219C62.931 44.5219 62.816 45.0509 62.742 45.4949C62.6125 45.9868 62.5914 46.501 62.68 47.0019C62.8573 47.061 63.0443 47.0858 63.231 47.0749C65.2841 46.8529 67.1803 45.8722 68.548 44.3249C70.3389 42.5953 71.3886 40.2381 71.476 37.7499C71.4227 35.2325 70.5046 32.8102 68.876 30.8899C67.7808 29.4073 66.1699 28.3887 64.361 28.0349C64.1315 28.1925 63.9548 28.4155 63.854 28.6749C63.6473 29.2758 63.555 29.9101 63.582 30.5449C63.575 31.3519 63.638 32.2809 63.715 33.3919C63.721 33.4806 63.727 33.5699 63.733 33.6599C63.819 34.8679 63.906 36.2429 63.906 37.7489Z" stroke="black" stroke-width="2.703"/>
<path d="M63.906 37.7489C63.8431 39.8307 63.5595 41.9 63.06 43.9219C62.931 44.5219 62.816 45.0509 62.742 45.4949C62.6125 45.9868 62.5914 46.501 62.68 47.0019C62.8573 47.061 63.0443 47.0858 63.231 47.0749C65.2841 46.8529 67.1803 45.8722 68.548 44.3249C70.3389 42.5953 71.3886 40.2381 71.476 37.7499C71.4227 35.2325 70.5046 32.8102 68.876 30.8899C67.7808 29.4073 66.1699 28.3887 64.361 28.0349C64.1315 28.1925 63.9548 28.4155 63.854 28.6749C63.6473 29.2758 63.555 29.9101 63.582 30.5449C63.575 31.3519 63.638 32.2809 63.715 33.3919C63.721 33.4806 63.727 33.5699 63.733 33.6599C63.819 34.8679 63.906 36.2429 63.906 37.7489Z" stroke="black" stroke-width="2.703"/>
<path d="M15.608 2.64498C15.7157 2.23524 15.9184 1.8566 16.1995 1.53969C16.4807 1.22277 16.8325 0.976471 17.2265 0.820703C17.6205 0.664935 18.0456 0.604072 18.4675 0.643034C18.8894 0.681996 19.2962 0.81969 19.655 1.04498L19.786 1.12698L23.57 5.58698L27.354 11.534L19.11 16.134L13.569 21.27L10.6 27.882L13.168 11.934L15.608 2.64498Z" fill="black"/>
<path d="M57.482 2.64498C57.3742 2.23524 57.1716 1.8566 56.8904 1.53969C56.6092 1.22277 56.2574 0.976471 55.8634 0.820703C55.4694 0.664935 55.0443 0.604072 54.6224 0.643034C54.2006 0.681996 53.7938 0.81969 53.435 1.04498L53.304 1.12698L49.52 5.58198L45.736 11.529L53.98 16.129L59.521 21.265L62.494 27.887L59.926 11.934L57.482 2.64498Z" fill="black"/>
<path d="M16.869 5.97891C16.946 5.68435 17.0913 5.41208 17.2932 5.18418C17.4951 4.95627 17.7479 4.77914 18.031 4.66714C18.3141 4.55514 18.6196 4.51142 18.9228 4.53953C19.226 4.56763 19.5183 4.66677 19.776 4.82891L22.388 7.92891L26.679 13.6569L20.527 16.2389L13.434 23.4229L15.206 12.3419L16.869 5.97891Z" fill="#E5E5E5"/>
<path d="M56.221 5.97891C56.144 5.68435 55.9986 5.41208 55.7967 5.18418C55.5948 4.95627 55.3421 4.77914 55.059 4.66714C54.7758 4.55514 54.4703 4.51142 54.1671 4.53953C53.864 4.56763 53.5717 4.66677 53.314 4.82891L50.7 7.92791L46.409 13.6559L52.561 16.2379L59.654 23.4219L57.884 12.3409L56.221 5.97891Z" fill="#E5E5E5"/>
<path d="M43.167 10.718H30.463C19.2665 10.718 10.19 19.7945 10.19 30.991V37.748C10.19 48.9445 19.2665 58.021 30.463 58.021H43.167C54.3635 58.021 63.44 48.9445 63.44 37.748V30.991C63.44 19.7945 54.3635 10.718 43.167 10.718Z" stroke="black" stroke-width="2.703"/>
<path d="M43.167 10.718H30.463C19.2665 10.718 10.19 19.7945 10.19 30.991V37.748C10.19 48.9445 19.2665 58.021 30.463 58.021H43.167C54.3635 58.021 63.44 48.9445 63.44 37.748V30.991C63.44 19.7945 54.3635 10.718 43.167 10.718Z" fill="white" stroke="black" stroke-width="2.703"/>
<path d="M45.06 43.83C45.06 45.397 39.354 47.749 36.816 47.749C34.278 47.749 28.3 45.395 28.3 43.83C28.3 42.265 34.277 42.073 36.815 42.073C39.353 42.073 45.06 42.263 45.06 43.83Z" fill="black"/>
<path d="M53.169 33.5589C53.169 41.2469 46.869 35.8589 37.762 35.8589C28.655 35.8589 20.192 41.2499 20.192 33.5589C20.192 25.8679 27.574 19.6379 36.68 19.6379C45.786 19.6379 53.169 25.8709 53.169 33.5589Z" fill="black"/>
<path d="M28.841 33.4231C30.3338 33.4231 31.544 32.092 31.544 30.4501C31.544 28.8081 30.3338 27.4771 28.841 27.4771C27.3482 27.4771 26.138 28.8081 26.138 30.4501C26.138 32.092 27.3482 33.4231 28.841 33.4231Z" fill="white"/>
<path d="M45.06 33.4231C46.5528 33.4231 47.763 32.092 47.763 30.4501C47.763 28.8081 46.5528 27.4771 45.06 27.4771C43.5672 27.4771 42.357 28.8081 42.357 30.4501C42.357 32.092 43.5672 33.4231 45.06 33.4231Z" fill="white"/>
<path d="M9.91998 37.7489C9.98286 39.8307 10.2664 41.9 10.766 43.9219C10.895 44.5219 11.01 45.0509 11.084 45.4949C11.2135 45.9868 11.2346 46.501 11.146 47.0019C10.9686 47.061 10.7816 47.0858 10.595 47.0749C8.54185 46.8529 6.64564 45.8722 5.27798 44.3249C3.48693 42.5954 2.4372 40.2382 2.34998 37.7499C2.40329 35.2325 3.32137 32.8102 4.94998 30.8899C6.04512 29.4073 7.65598 28.3887 9.46498 28.0349C9.69449 28.1924 9.87118 28.4154 9.97198 28.6749C10.1787 29.2758 10.2709 29.9101 10.244 30.5449C10.251 31.3519 10.188 32.2809 10.111 33.3919L10.093 33.6599C10.007 34.8679 9.91998 36.2429 9.91998 37.7489Z" stroke="black" stroke-width="2.703"/>
<path d="M9.91998 37.7489C9.98286 39.8307 10.2664 41.9 10.766 43.9219C10.895 44.5219 11.01 45.0509 11.084 45.4949C11.2135 45.9868 11.2346 46.501 11.146 47.0019C10.9686 47.061 10.7816 47.0858 10.595 47.0749C8.54185 46.8529 6.64564 45.8722 5.27798 44.3249C3.48693 42.5954 2.4372 40.2382 2.34998 37.7499C2.40329 35.2325 3.32137 32.8102 4.94998 30.8899C6.04512 29.4073 7.65598 28.3887 9.46498 28.0349C9.69449 28.1924 9.87118 28.4154 9.97198 28.6749C10.1787 29.2758 10.2709 29.9101 10.244 30.5449C10.251 31.3519 10.188 32.2809 10.111 33.3919L10.093 33.6599C10.007 34.8679 9.91998 36.2429 9.91998 37.7489Z" fill="white" stroke="black" stroke-width="2.703"/>
<path d="M63.906 37.7489C63.8431 39.8307 63.5595 41.9 63.06 43.9219C62.931 44.5219 62.816 45.0509 62.742 45.4949C62.6125 45.9868 62.5914 46.501 62.68 47.0019C62.8573 47.061 63.0443 47.0858 63.231 47.0749C65.2841 46.8529 67.1803 45.8722 68.548 44.3249C70.3389 42.5953 71.3886 40.2381 71.476 37.7499C71.4227 35.2325 70.5046 32.8102 68.876 30.8899C67.7808 29.4073 66.1699 28.3887 64.361 28.0349C64.1315 28.1925 63.9548 28.4155 63.854 28.6749C63.6473 29.2758 63.555 29.9101 63.582 30.5449C63.575 31.3519 63.638 32.2809 63.715 33.3919C63.721 33.4806 63.727 33.5699 63.733 33.6599C63.819 34.8679 63.906 36.2429 63.906 37.7489Z" stroke="black" stroke-width="2.703"/>
<path d="M63.906 37.7489C63.8431 39.8307 63.5595 41.9 63.06 43.9219C62.931 44.5219 62.816 45.0509 62.742 45.4949C62.6125 45.9868 62.5914 46.501 62.68 47.0019C62.8573 47.061 63.0443 47.0858 63.231 47.0749C65.2841 46.8529 67.1803 45.8722 68.548 44.3249C70.3389 42.5953 71.3886 40.2381 71.476 37.7499C71.4227 35.2325 70.5046 32.8102 68.876 30.8899C67.7808 29.4073 66.1699 28.3887 64.361 28.0349C64.1315 28.1925 63.9548 28.4155 63.854 28.6749C63.6473 29.2758 63.555 29.9101 63.582 30.5449C63.575 31.3519 63.638 32.2809 63.715 33.3919C63.721 33.4806 63.727 33.5699 63.733 33.6599C63.819 34.8679 63.906 36.2429 63.906 37.7489Z" fill="white" stroke="black" stroke-width="2.703"/>
<path d="M15.608 2.64498C15.7157 2.23524 15.9184 1.8566 16.1995 1.53969C16.4807 1.22277 16.8325 0.976471 17.2265 0.820703C17.6205 0.664935 18.0456 0.604072 18.4675 0.643034C18.8894 0.681996 19.2962 0.81969 19.655 1.04498L19.786 1.12698L23.57 5.58698L27.354 11.534L19.11 16.134L13.569 21.27L10.6 27.882L13.168 11.934L15.608 2.64498Z" fill="black"/>
<path d="M57.482 2.64498C57.3742 2.23524 57.1716 1.8566 56.8904 1.53969C56.6092 1.22277 56.2574 0.976471 55.8634 0.820703C55.4694 0.664935 55.0443 0.604072 54.6224 0.643034C54.2006 0.681996 53.7938 0.81969 53.435 1.04498L53.304 1.12698L49.52 5.58198L45.736 11.529L53.98 16.129L59.521 21.265L62.494 27.887L59.926 11.934L57.482 2.64498Z" fill="black"/>
<path d="M16.869 5.97891C16.946 5.68435 17.0913 5.41208 17.2932 5.18418C17.4951 4.95627 17.7479 4.77914 18.031 4.66714C18.3141 4.55514 18.6196 4.51142 18.9228 4.53953C19.226 4.56763 19.5183 4.66677 19.776 4.82891L22.388 7.92891L26.679 13.6569L20.527 16.2389L13.434 23.4229L15.206 12.3419L16.869 5.97891Z" fill="white"/>
<path d="M56.221 5.97891C56.144 5.68435 55.9986 5.41208 55.7967 5.18418C55.5948 4.95627 55.3421 4.77914 55.059 4.66714C54.7758 4.55514 54.4703 4.51142 54.1671 4.53953C53.864 4.56763 53.5717 4.66677 53.314 4.82891L50.7 7.92791L46.409 13.6559L52.561 16.2379L59.654 23.4219L57.884 12.3409L56.221 5.97891Z" fill="white"/>
</svg>
