<svg width="881" height="233" viewBox="0 0 881 233" fill="none" xmlns="http://www.w3.org/2000/svg">
<rect x="34" y="43" width="197" height="175" rx="75" stroke="black" stroke-width="10"/>
<rect x="34" y="43" width="197" height="175" rx="75" stroke="black" stroke-width="10"/>
<path d="M193 127.5C193 155.943 169.689 136 136 136C102.311 136 71 155.943 71 127.5C71 99.0573 98.3106 76 132 76C165.689 76 193 99.0573 193 127.5Z" fill="black"/>
<ellipse cx="103" cy="116" rx="10" ry="11" fill="#E5E5E5"/>
<ellipse cx="163" cy="116" rx="10" ry="11" fill="#E5E5E5"/>
<path d="M33 143C33 151.352 34.7765 159.574 36.1294 165.836C36.6071 168.046 37.0319 170.013 37.3072 171.654C37.9012 175.197 37.7428 176.704 37.5375 177.231C37.3459 177.314 36.7652 177.5 35.5 177.5C29.9812 177.5 22.3128 173.934 15.8311 167.326C9.45637 160.827 5 152.146 5 143C5 133.581 8.93169 124.432 14.6034 117.623C19.9653 111.186 26.2352 107.562 31.3065 107.06C32.2086 107.682 32.7676 108.445 33.1804 109.426C33.8106 110.924 34.1585 113.099 34.1877 116.343C34.2146 119.33 33.9789 122.766 33.6968 126.876C33.6744 127.203 33.6517 127.534 33.6288 127.869C33.3234 132.343 33 137.431 33 143Z" stroke="black" stroke-width="10"/>
<path d="M33 143C33 151.352 34.7765 159.574 36.1294 165.836C36.6071 168.046 37.0319 170.013 37.3072 171.654C37.9012 175.197 37.7428 176.704 37.5375 177.231C37.3459 177.314 36.7652 177.5 35.5 177.5C29.9812 177.5 22.3128 173.934 15.8311 167.326C9.45637 160.827 5 152.146 5 143C5 133.581 8.93169 124.432 14.6034 117.623C19.9653 111.186 26.2352 107.562 31.3065 107.06C32.2086 107.682 32.7676 108.445 33.1804 109.426C33.8106 110.924 34.1585 113.099 34.1877 116.343C34.2146 119.33 33.9789 122.766 33.6968 126.876C33.6744 127.203 33.6517 127.534 33.6288 127.869C33.3234 132.343 33 137.431 33 143Z" stroke="black" stroke-width="10"/>
<path d="M232.723 143C232.723 151.352 230.946 159.574 229.593 165.836C229.116 168.046 228.691 170.013 228.415 171.654C227.821 175.197 227.98 176.704 228.185 177.231C228.377 177.314 228.957 177.5 230.223 177.5C235.741 177.5 243.41 173.934 249.892 167.326C256.266 160.827 260.723 152.146 260.723 143C260.723 133.581 256.791 124.432 251.119 117.623C245.757 111.186 239.487 107.562 234.416 107.06C233.514 107.682 232.955 108.445 232.542 109.426C231.912 110.924 231.564 113.099 231.535 116.343C231.508 119.33 231.744 122.766 232.026 126.876C232.048 127.203 232.071 127.534 232.094 127.869C232.399 132.343 232.723 137.431 232.723 143Z" stroke="black" stroke-width="10"/>
<path d="M232.723 143C232.723 151.352 230.946 159.574 229.593 165.836C229.116 168.046 228.691 170.013 228.415 171.654C227.821 175.197 227.98 176.704 228.185 177.231C228.377 177.314 228.957 177.5 230.223 177.5C235.741 177.5 243.41 173.934 249.892 167.326C256.266 160.827 260.723 152.146 260.723 143C260.723 133.581 256.791 124.432 251.119 117.623C245.757 111.186 239.487 107.562 234.416 107.06C233.514 107.682 232.955 108.445 232.542 109.426C231.912 110.924 231.564 113.099 231.535 116.343C231.508 119.33 231.744 122.766 232.026 126.876C232.048 127.203 232.071 127.534 232.094 127.869C232.399 132.343 232.723 137.431 232.723 143Z" stroke="black" stroke-width="10"/>
<path d="M54.0442 13.1319C55.7594 6.61415 63.2997 3.62484 69.015 7.19686L69.5 7.5L83.5 24L97.5 46L67 63L46.5 82L35.5 106.5L45 47.5L54.0442 13.1319Z" fill="black"/>
<path d="M208.956 13.1319C207.241 6.61415 199.7 3.62484 193.985 7.19686L193.5 7.5L179.5 24L165.5 46L196 63L216.5 82L227.5 106.5L218 47.5L208.956 13.1319Z" fill="black"/>
<path d="M58.7087 25.4668C59.9343 20.7776 65.3626 18.63 69.4648 21.2113V21.2113L79.1268 32.6761L95 53.8685L72.2402 63.4225L46 90L52.5563 49.0047L58.7087 25.4668Z" fill="#E5E5E5"/>
<path d="M204.291 25.4668C203.066 20.7776 197.637 18.63 193.535 21.2113V21.2113L183.873 32.6761L168 53.8685L190.76 63.4225L217 90L210.444 49.0047L204.291 25.4668Z" fill="#E5E5E5"/>
<path d="M417.3 174.8C413.7 174.8 410.35 174.6 407.25 174.2C404.25 173.9 400.8 173.3 396.9 172.4L396.6 170.6C396.7 168.6 396.7 166.1 396.6 163.1C396.5 160.1 396.35 157.1 396.15 154.1C396.05 151.1 395.9 148.6 395.7 146.6L386.4 65H401.1L409.8 146.6C410 148.9 410.15 151.85 410.25 155.45C410.35 159.05 410.4 162.25 410.4 165.05L407.25 160.7C409.05 161.2 410.6 161.6 411.9 161.9C413.2 162.1 415.2 162.2 417.9 162.2C422.7 162.2 426.55 161.25 429.45 159.35C432.35 157.35 434.6 154.55 436.2 150.95C437.9 147.35 439.2 143.1 440.1 138.2L454.5 65H469.2L454.8 137.6C453.2 145.5 451.05 152.25 448.35 157.85C445.65 163.35 441.85 167.55 436.95 170.45C432.05 173.35 425.5 174.8 417.3 174.8ZM357.3 174.8C353.7 174.8 350.35 174.6 347.25 174.2C344.25 173.9 340.8 173.3 336.9 172.4L336.6 170.6C336.7 168.6 336.7 166.1 336.6 163.1C336.6 160.1 336.5 157.1 336.3 154.1C336.2 151.1 336 148.6 335.7 146.6L326.4 65H341.1L349.8 146.6C350.1 148.9 350.25 151.85 350.25 155.45C350.35 159.05 350.4 162.25 350.4 165.05L347.25 160.7C349.05 161.1 350.6 161.45 351.9 161.75C353.2 162.05 355.2 162.2 357.9 162.2C362.7 162.2 366.55 161.2 369.45 159.2C372.35 157.2 374.6 154.4 376.2 150.8C377.8 147.2 379.1 143 380.1 138.2L391.2 85.4L395.1 125L392.4 137.6C390.7 145.5 388.6 152.25 386.1 157.85C383.7 163.35 380.25 167.55 375.75 170.45C371.25 173.35 365.1 174.8 357.3 174.8ZM482.392 131.9C482.392 123 483.942 115.4 487.042 109.1C490.242 102.8 494.642 98 500.242 94.7C505.942 91.3 512.492 89.6 519.892 89.6C527.292 89.6 533.792 91.3 539.392 94.7C545.092 98 549.492 102.8 552.592 109.1C555.792 115.4 557.392 123 557.392 131.9C557.392 140.8 555.792 148.4 552.592 154.7C549.492 161 545.092 165.85 539.392 169.25C533.792 172.55 527.292 174.2 519.892 174.2C512.292 174.2 505.692 172.55 500.092 169.25C494.492 165.85 490.142 161 487.042 154.7C483.942 148.4 482.392 140.8 482.392 131.9ZM496.492 131.9C496.492 141.9 498.492 149.45 502.492 154.55C506.592 159.65 512.392 162.2 519.892 162.2C527.392 162.2 533.142 159.65 537.142 154.55C541.242 149.45 543.292 141.9 543.292 131.9C543.292 121.8 541.242 114.25 537.142 109.25C533.142 104.15 527.392 101.6 519.892 101.6C512.392 101.6 506.592 104.15 502.492 109.25C498.492 114.25 496.492 121.8 496.492 131.9ZM579.519 173V121.4C579.519 119.4 579.469 116.8 579.369 113.6C579.369 110.4 579.269 107.25 579.069 104.15C578.969 101.05 578.719 98.6 578.319 96.8L578.619 95.6C581.219 94.6 584.419 93.75 588.219 93.05C592.119 92.35 595.969 91.8 599.769 91.4C603.669 91 606.919 90.8 609.519 90.8C611.919 90.8 613.869 90.85 615.369 90.95C616.869 91.05 618.119 91.2 619.119 91.4V103.4H617.919C616.619 103.2 615.069 103.05 613.269 102.95C611.469 102.85 609.819 102.8 608.319 102.8C605.219 102.8 601.969 103.05 598.569 103.55C595.169 104.05 592.219 104.55 589.719 105.05L592.419 101.3C593.019 104.6 593.319 108.7 593.319 113.6V173H579.519ZM650.888 173H637.088V84.8C637.088 82.8 637.038 80.2 636.938 77C636.938 73.8 636.838 70.65 636.638 67.55C636.538 64.45 636.288 62 635.888 60.2L636.188 59H650.888V173ZM649.088 130.4L686.288 91.4H701.887V93.2C700.888 94 699.738 95 698.437 96.2C697.238 97.3 695.938 98.55 694.538 99.95C693.238 101.25 691.888 102.6 690.488 104L661.388 133.85L661.538 125.6L690.488 158C692.488 160.2 694.638 162.65 696.938 165.35C699.338 168.05 701.188 170 702.488 171.2V173H686.288L649.088 130.4ZM754.15 174.2C746.55 174.2 739.9 173.3 734.2 171.5C728.6 169.6 723.9 166.85 720.1 163.25C716.4 159.65 713.65 155.25 711.85 150.05C710.05 144.75 709.15 138.7 709.15 131.9C709.15 123.4 710.7 116 713.8 109.7C717 103.3 721.4 98.35 727 94.85C732.7 91.35 739.35 89.6 746.95 89.6C755.75 89.6 762.85 91.4 768.25 95C773.65 98.6 777.5 103.65 779.8 110.15C782.2 116.65 783.25 124.2 782.95 132.8L782.8 137H718.75V125.6H768.55V124.4C768.55 116.9 766.75 111.25 763.15 107.45C759.55 103.55 754.15 101.6 746.95 101.6C742.75 101.6 738.85 102.5 735.25 104.3C731.65 106.1 728.75 109.15 726.55 113.45C724.35 117.75 723.25 123.6 723.25 131V131.9C723.25 139.6 724.6 145.65 727.3 150.05C730 154.45 733.7 157.6 738.4 159.5C743.2 161.3 748.65 162.2 754.75 162.2C759.85 162.2 764.2 161.7 767.8 160.7C771.4 159.7 774.25 158.6 776.35 157.4H777.55V169.7C775.15 170.9 772 171.95 768.1 172.85C764.2 173.75 759.55 174.2 754.15 174.2ZM844.238 174.2C836.638 174.2 829.988 173.3 824.288 171.5C818.688 169.6 813.988 166.85 810.188 163.25C806.488 159.65 803.738 155.25 801.938 150.05C800.138 144.75 799.238 138.7 799.238 131.9C799.238 123.4 800.788 116 803.888 109.7C807.088 103.3 811.488 98.35 817.088 94.85C822.788 91.35 829.438 89.6 837.038 89.6C845.838 89.6 852.938 91.4 858.338 95C863.738 98.6 867.588 103.65 869.888 110.15C872.288 116.65 873.338 124.2 873.038 132.8L872.888 137H808.838V125.6H858.638V124.4C858.638 116.9 856.838 111.25 853.238 107.45C849.638 103.55 844.238 101.6 837.038 101.6C832.838 101.6 828.938 102.5 825.338 104.3C821.738 106.1 818.838 109.15 816.638 113.45C814.438 117.75 813.338 123.6 813.338 131V131.9C813.338 139.6 814.688 145.65 817.388 150.05C820.088 154.45 823.788 157.6 828.488 159.5C833.288 161.3 838.738 162.2 844.838 162.2C849.938 162.2 854.288 161.7 857.888 160.7C861.488 159.7 864.338 158.6 866.438 157.4H867.638V169.7C865.238 170.9 862.088 171.95 858.188 172.85C854.288 173.75 849.638 174.2 844.238 174.2Z" fill="black"/>
<rect x="34" y="43" width="197" height="175" rx="75" stroke="black" stroke-width="10"/>
<rect x="34" y="43" width="197" height="175" rx="75" fill="white" stroke="black" stroke-width="10"/>
<path d="M163 165.5C163 171.299 141.889 180 132.5 180C123.111 180 101 171.299 101 165.5C101 159.701 123.111 159 132.5 159C141.889 159 163 159.701 163 165.5Z" fill="black"/>
<path d="M193 127.5C193 155.943 169.689 136 136 136C102.311 136 71 155.943 71 127.5C71 99.0573 98.3106 76 132 76C165.689 76 193 99.0573 193 127.5Z" fill="black"/>
<ellipse cx="103" cy="116" rx="10" ry="11" fill="white"/>
<ellipse cx="163" cy="116" rx="10" ry="11" fill="white"/>
<path d="M33 143C33 151.352 34.7765 159.574 36.1294 165.836C36.6071 168.046 37.0319 170.013 37.3072 171.654C37.9012 175.197 37.7428 176.704 37.5375 177.231C37.3459 177.314 36.7652 177.5 35.5 177.5C29.9812 177.5 22.3128 173.934 15.8311 167.326C9.45637 160.827 5 152.146 5 143C5 133.581 8.93169 124.432 14.6034 117.623C19.9653 111.186 26.2352 107.562 31.3065 107.06C32.2086 107.682 32.7676 108.445 33.1804 109.426C33.8106 110.924 34.1585 113.099 34.1877 116.343C34.2146 119.33 33.9789 122.766 33.6968 126.876C33.6744 127.203 33.6517 127.534 33.6288 127.869C33.3234 132.343 33 137.431 33 143Z" stroke="black" stroke-width="10"/>
<path d="M33 143C33 151.352 34.7765 159.574 36.1294 165.836C36.6071 168.046 37.0319 170.013 37.3072 171.654C37.9012 175.197 37.7428 176.704 37.5375 177.231C37.3459 177.314 36.7652 177.5 35.5 177.5C29.9812 177.5 22.3128 173.934 15.8311 167.326C9.45637 160.827 5 152.146 5 143C5 133.581 8.93169 124.432 14.6034 117.623C19.9653 111.186 26.2352 107.562 31.3065 107.06C32.2086 107.682 32.7676 108.445 33.1804 109.426C33.8106 110.924 34.1585 113.099 34.1877 116.343C34.2146 119.33 33.9789 122.766 33.6968 126.876C33.6744 127.203 33.6517 127.534 33.6288 127.869C33.3234 132.343 33 137.431 33 143Z" fill="white" stroke="black" stroke-width="10"/>
<path d="M232.723 143C232.723 151.352 230.946 159.574 229.593 165.836C229.116 168.046 228.691 170.013 228.415 171.654C227.821 175.197 227.98 176.704 228.185 177.231C228.377 177.314 228.957 177.5 230.223 177.5C235.741 177.5 243.41 173.934 249.892 167.326C256.266 160.827 260.723 152.146 260.723 143C260.723 133.581 256.791 124.432 251.119 117.623C245.757 111.186 239.487 107.562 234.416 107.06C233.514 107.682 232.955 108.445 232.542 109.426C231.912 110.924 231.564 113.099 231.535 116.343C231.508 119.33 231.744 122.766 232.026 126.876C232.048 127.203 232.071 127.534 232.094 127.869C232.399 132.343 232.723 137.431 232.723 143Z" stroke="black" stroke-width="10"/>
<path d="M232.723 143C232.723 151.352 230.946 159.574 229.593 165.836C229.116 168.046 228.691 170.013 228.415 171.654C227.821 175.197 227.98 176.704 228.185 177.231C228.377 177.314 228.957 177.5 230.223 177.5C235.741 177.5 243.41 173.934 249.892 167.326C256.266 160.827 260.723 152.146 260.723 143C260.723 133.581 256.791 124.432 251.119 117.623C245.757 111.186 239.487 107.562 234.416 107.06C233.514 107.682 232.955 108.445 232.542 109.426C231.912 110.924 231.564 113.099 231.535 116.343C231.508 119.33 231.744 122.766 232.026 126.876C232.048 127.203 232.071 127.534 232.094 127.869C232.399 132.343 232.723 137.431 232.723 143Z" fill="white" stroke="black" stroke-width="10"/>
<path d="M54.0442 13.1319C55.7594 6.61415 63.2997 3.62484 69.015 7.19686L69.5 7.5L83.5 24L97.5 46L67 63L46.5 82L35.5 106.5L45 47.5L54.0442 13.1319Z" fill="black"/>
<path d="M208.956 13.1319C207.241 6.61415 199.7 3.62484 193.985 7.19686L193.5 7.5L179.5 24L165.5 46L196 63L216.5 82L227.5 106.5L218 47.5L208.956 13.1319Z" fill="black"/>
<path d="M58.7087 25.4668C59.9343 20.7776 65.3626 18.63 69.4648 21.2113V21.2113L79.1268 32.6761L95 53.8685L72.2402 63.4225L46 90L52.5563 49.0047L58.7087 25.4668Z" fill="white"/>
<path d="M204.291 25.4668C203.066 20.7776 197.637 18.63 193.535 21.2113V21.2113L183.873 32.6761L168 53.8685L190.76 63.4225L217 90L210.444 49.0047L204.291 25.4668Z" fill="white"/>
</svg>
