<?xml version="1.0" encoding="utf-8"?>
<!-- Generator: Adobe Illustrator 27.0.0, SVG Export Plug-In . SVG Version: 6.00 Build 0)  -->
<svg version="1.1" id="Calque_1" xmlns="http://www.w3.org/2000/svg" xmlns:xlink="http://www.w3.org/1999/xlink" x="0px" y="0px"
	 viewBox="0 0 51.7 41.5" style="enable-background:new 0 0 51.7 41.5;" xml:space="preserve">
<path d="M31.3,30.1c0,1.1-3.9,2.7-5.7,2.7c-1.7,0-5.8-1.6-5.8-2.7c0-1.1,4.1-1.2,5.8-1.2C27.4,28.9,31.3,29,31.3,30.1z"/>
<path d="M25.5,13.5c-6.2,0-11.3,4.3-11.3,9.5c0,5.3,5.8,1.6,12.1,1.6c6.2,0,10.6,3.7,10.6-1.6C36.9,17.8,31.8,13.5,25.5,13.5z
	 M20.2,22.9c-1,0-1.9-0.9-1.9-2c0-1.1,0.8-2,1.9-2c1,0,1.9,0.9,1.9,2C22,22,21.2,22.9,20.2,22.9z M31.3,22.9c-1,0-1.9-0.9-1.9-2
	c0-1.1,0.8-2,1.9-2s1.9,0.9,1.9,2C33.2,22,32.3,22.9,31.3,22.9z"/>
<path d="M48.7,20.4c-0.9-1.3-2.3-2.1-3.8-2.5c-0.5-2.2-1.4-4.2-2.8-5.9l-0.6-3.8l-1.7-6.4c-0.1-0.3-0.2-0.5-0.4-0.8
	c-0.2-0.2-0.4-0.4-0.7-0.5c-0.3-0.1-0.6-0.1-0.9-0.1c-0.3,0-0.6,0.1-0.8,0.3L37,0.8l-2.6,3.1l-1.6,2.4C31.9,6.1,31,6,30,6h-8.7
	c-1.1,0-2.1,0.1-3.1,0.3l-1.6-2.5L14,0.8l-0.1-0.1c-0.2-0.2-0.5-0.2-0.8-0.3c-0.3,0-0.6,0-0.9,0.1c-0.3,0.1-0.5,0.3-0.7,0.5
	c-0.2,0.2-0.3,0.5-0.4,0.8L9.4,8.2l-0.7,4.5c-1.1,1.6-1.9,3.4-2.3,5.3c-1.5,0.3-2.8,1.2-3.6,2.3c-1.3,1.5-2.1,3.5-2.1,5.6
	c0.1,2,0.9,4,2.4,5.4c1.2,1.3,2.7,2.1,4.5,2.3c0,0,0.1,0,0.1,0c0.1,0,0.3,0,0.4,0c2.7,4.5,7.5,7.5,13.1,7.5H30
	c5.6,0,10.5-3.1,13.2-7.6c0.2,0,0.3,0.1,0.5,0.1c0.1,0,0.1,0,0.2,0c1.7-0.2,3.3-1,4.5-2.3c1.5-1.4,2.3-3.3,2.4-5.5
	C50.7,23.9,50,21.9,48.7,20.4z M5,29.5L5,29.5c-1.1-1-1.6-2.3-1.7-3.6c0-1.4,0.5-2.8,1.5-3.9c0.3-0.4,0.7-0.8,1.2-1
	c0,0.1,0,0.2,0,0.3v0.8c0,0.2,0,0.5-0.1,0.8L6,23c-0.1,0.8-0.1,1.8-0.1,2.9l0,0c0,1.5,0.3,3,0.6,4.5c0,0,0,0.1,0,0.1
	C5.9,30.4,5.4,30,5,29.5z M42.6,21.3v4.6c0,6.9-5.6,12.6-12.6,12.6h-8.7c-6.9,0-12.6-5.6-12.6-12.6v-3.8c0-0.2,0-0.3,0-0.5
	c0-0.1-0.2-3.4,1.3-7.6l0.7-4.6L12,5.1c0.1-0.2,0.2-0.4,0.3-0.5c0.1-0.2,0.3-0.3,0.5-0.4c0.2-0.1,0.4-0.1,0.6-0.1s0.4,0.1,0.6,0.2
	l1.8,2.1l1.8,2.4c1.2-0.3,2.4-0.5,3.7-0.5H30c1.2,0,2.3,0.2,3.4,0.4l1.8-2.4L37,4.3c0.2-0.1,0.4-0.2,0.6-0.2s0.4,0,0.6,0.1
	c0.2,0.1,0.4,0.2,0.5,0.4c0.1,0.2,0.2,0.3,0.3,0.5l1.1,4.4l0.6,3.9C42.8,18.6,42.6,21.3,42.6,21.3z M46.5,29.5L46.5,29.5
	c-0.5,0.5-1,0.9-1.5,1.2c0,0,0-0.1,0-0.1c0.4-1.5,0.6-3,0.6-4.5l0,0c0-1.1-0.2-4.4-0.2-4.9c0.5,0.3,0.9,0.6,1.3,1.1
	c0.9,1.1,1.4,2.4,1.5,3.8C48,27.2,47.5,28.5,46.5,29.5z"/>
</svg>
