<svg xmlns="http://www.w3.org/2000/svg" width="276" height="68.702" viewBox="0 0 276 68.702">
  <g id="Group_64" data-name="Group 64" transform="translate(0 -1.793)">
    <rect id="Rectangle_66" data-name="Rectangle 66" width="62.276" height="55.321" rx="23.709" transform="translate(10.748 13.593)" fill="none" stroke="#000" stroke-width="3.161"/>
    <rect id="Rectangle_67" data-name="Rectangle 67" width="62.276" height="55.321" rx="23.709" transform="translate(10.748 13.593)" fill="none" stroke="#000" stroke-width="3.161"/>
    <path id="Tracé_674" data-name="Tracé 674" d="M61.011,40.305c0,8.991-7.369,2.687-18.019,2.687s-20.548,6.3-20.548-2.687,8.633-16.28,19.283-16.28S61.011,31.314,61.011,40.305Z"/>
    <ellipse id="Ellipse_43" data-name="Ellipse 43" cx="3.161" cy="3.477" rx="3.161" ry="3.477" transform="translate(29.399 33.193)" fill="#e5e5e5"/>
    <ellipse id="Ellipse_44" data-name="Ellipse 44" cx="3.161" cy="3.477" rx="3.161" ry="3.477" transform="translate(48.366 33.193)" fill="#e5e5e5"/>
    <path id="Tracé_675" data-name="Tracé 675" d="M10.432,45.205a34.436,34.436,0,0,0,.989,7.219c.151.7.285,1.32.372,1.839a4.11,4.11,0,0,1,.073,1.763,1.72,1.72,0,0,1-.644.085c-1.745,0-4.169-1.127-6.218-3.216a11.237,11.237,0,0,1-3.424-7.69,12.823,12.823,0,0,1,3.036-8.022A8.622,8.622,0,0,1,9.9,33.844a1.619,1.619,0,0,1,.592.748,5.948,5.948,0,0,1,.318,2.187c.009.944-.066,2.03-.155,3.33l-.021.314C10.534,41.836,10.432,43.445,10.432,45.205Z" fill="none" stroke="#000" stroke-width="3.161"/>
    <path id="Tracé_676" data-name="Tracé 676" d="M10.432,45.205a34.436,34.436,0,0,0,.989,7.219c.151.7.285,1.32.372,1.839a4.11,4.11,0,0,1,.073,1.763,1.72,1.72,0,0,1-.644.085c-1.745,0-4.169-1.127-6.218-3.216a11.237,11.237,0,0,1-3.424-7.69,12.823,12.823,0,0,1,3.036-8.022A8.622,8.622,0,0,1,9.9,33.844a1.619,1.619,0,0,1,.592.748,5.948,5.948,0,0,1,.318,2.187c.009.944-.066,2.03-.155,3.33l-.021.314C10.534,41.836,10.432,43.445,10.432,45.205Z" fill="none" stroke="#000" stroke-width="3.161"/>
    <path id="Tracé_677" data-name="Tracé 677" d="M73.568,45.205a34.433,34.433,0,0,1-.989,7.219c-.151.7-.285,1.32-.372,1.839a4.11,4.11,0,0,0-.073,1.763,1.721,1.721,0,0,0,.644.085c1.744,0,4.169-1.127,6.218-3.216a11.238,11.238,0,0,0,3.424-7.69,12.823,12.823,0,0,0-3.036-8.022,8.622,8.622,0,0,0-5.28-3.339,1.619,1.619,0,0,0-.592.748,5.948,5.948,0,0,0-.318,2.187c-.009.944.066,2.03.155,3.33q.01.155.021.314C73.466,41.836,73.568,43.445,73.568,45.205Z" fill="none" stroke="#000" stroke-width="3.161"/>
    <path id="Tracé_678" data-name="Tracé 678" d="M73.568,45.205a34.433,34.433,0,0,1-.989,7.219c-.151.7-.285,1.32-.372,1.839a4.11,4.11,0,0,0-.073,1.763,1.721,1.721,0,0,0,.644.085c1.744,0,4.169-1.127,6.218-3.216a11.238,11.238,0,0,0,3.424-7.69,12.823,12.823,0,0,0-3.036-8.022,8.622,8.622,0,0,0-5.28-3.339,1.619,1.619,0,0,0-.592.748,5.948,5.948,0,0,0-.318,2.187c-.009.944.066,2.03.155,3.33q.01.155.021.314C73.466,41.836,73.568,43.445,73.568,45.205Z" fill="none" stroke="#000" stroke-width="3.161"/>
    <path id="Tracé_679" data-name="Tracé 679" d="M17.084,4.151a3.161,3.161,0,0,1,4.733-1.876l.153.1L26.4,7.587l4.426,6.955L21.18,19.916,14.7,25.922l-3.477,7.745,3-18.651Z"/>
    <path id="Tracé_680" data-name="Tracé 680" d="M66.055,4.151a3.161,3.161,0,0,0-4.733-1.876l-.153.1L56.743,7.587l-4.426,6.955,9.642,5.374,6.48,6.006,3.477,7.745-3-18.651Z"/>
    <path id="Tracé_681" data-name="Tracé 681" d="M18.559,8.051a2.267,2.267,0,0,1,3.4-1.345l3.054,3.624,5.018,6.7-7.195,3.02-8.3,8.4,2.073-12.959Z" fill="#e5e5e5"/>
    <path id="Tracé_682" data-name="Tracé 682" d="M64.58,8.051a2.267,2.267,0,0,0-3.4-1.345L58.126,10.33l-5.018,6.7,7.195,3.02,8.295,8.4L66.525,15.491Z" fill="#e5e5e5"/>
    <path id="Tracé_683" data-name="Tracé 683" d="M131.917,55.258a24.886,24.886,0,0,1-3.177-.19,26.51,26.51,0,0,1-3.272-.569l-.095-.569q.047-.948,0-2.371t-.142-2.845q-.047-1.423-.142-2.371l-2.94-25.8H126.8l2.75,25.8q.095,1.091.142,2.8t.047,3.035l-1-1.375q.854.237,1.47.379a13.7,13.7,0,0,0,1.9.095,6.573,6.573,0,0,0,3.651-.9,6.185,6.185,0,0,0,2.134-2.655,16.372,16.372,0,0,0,1.233-4.031l4.552-23.14h4.647L143.771,43.5a27.243,27.243,0,0,1-2.039,6.4,9.209,9.209,0,0,1-3.6,3.983A12.142,12.142,0,0,1,131.917,55.258Zm-18.967,0a24.886,24.886,0,0,1-3.177-.19A26.51,26.51,0,0,1,106.5,54.5l-.095-.569q.047-.948,0-2.371,0-1.423-.095-2.845a21.183,21.183,0,0,0-.19-2.371l-2.94-25.8h4.647l2.75,25.8a22.385,22.385,0,0,1,.142,2.8q.047,1.707.047,3.035l-1-1.375q.854.19,1.47.332a9.194,9.194,0,0,0,1.9.142,6.319,6.319,0,0,0,3.651-.948,6.185,6.185,0,0,0,2.134-2.655,19.75,19.75,0,0,0,1.233-3.983L123.666,27,124.9,39.515l-.854,3.983a32.678,32.678,0,0,1-1.992,6.4,8.746,8.746,0,0,1-3.272,3.983A10.686,10.686,0,0,1,112.949,55.258ZM152.493,41.7a16.191,16.191,0,0,1,1.47-7.208,10.812,10.812,0,0,1,4.173-4.552,11.891,11.891,0,0,1,6.212-1.612,11.642,11.642,0,0,1,6.164,1.612,10.427,10.427,0,0,1,4.173,4.552A15.761,15.761,0,0,1,176.2,41.7a15.761,15.761,0,0,1-1.517,7.208,10.724,10.724,0,0,1-4.173,4.6,11.915,11.915,0,0,1-6.164,1.565,12.1,12.1,0,0,1-6.259-1.565,10.822,10.822,0,0,1-4.125-4.6A16.191,16.191,0,0,1,152.493,41.7Zm4.457,0q0,4.742,1.9,7.16a6.654,6.654,0,0,0,5.5,2.418,6.52,6.52,0,0,0,5.453-2.418q1.944-2.418,1.944-7.16,0-4.789-1.944-7.16a6.52,6.52,0,0,0-5.453-2.418,6.654,6.654,0,0,0-5.5,2.418Q156.951,36.907,156.951,41.7ZM183.2,54.689V38.377q0-.948-.047-2.466,0-1.517-.095-2.987a13.167,13.167,0,0,0-.237-2.323l.095-.379a17.3,17.3,0,0,1,3.035-.806q1.849-.332,3.651-.522,1.849-.19,3.082-.19,1.138,0,1.849.047a9.384,9.384,0,0,1,1.185.142v3.793h-.379q-.616-.095-1.47-.142T192.3,32.5a21.2,21.2,0,0,0-3.082.237q-1.612.237-2.8.474l.854-1.185a22.255,22.255,0,0,1,.285,3.888V54.689Zm22.561,0H201.4V26.807q0-.948-.047-2.466,0-1.517-.095-2.987a13.167,13.167,0,0,0-.237-2.323l.095-.379h4.647Zm-.569-13.467,11.76-12.329h4.931v.569q-.474.379-1.091.948-.569.522-1.233,1.185l-1.28,1.28-9.2,9.436.047-2.608,9.152,10.242q.948,1.043,2.039,2.323,1.138,1.28,1.754,1.849v.569h-5.121ZM238.4,55.068a20.993,20.993,0,0,1-6.307-.854,11.963,11.963,0,0,1-4.457-2.608,10.526,10.526,0,0,1-2.608-4.173,17.806,17.806,0,0,1-.854-5.738,15.723,15.723,0,0,1,1.47-7.018,11.4,11.4,0,0,1,4.173-4.694,11.809,11.809,0,0,1,6.307-1.66,11.944,11.944,0,0,1,6.733,1.707,9.3,9.3,0,0,1,3.651,4.789,18.712,18.712,0,0,1,1,7.16l-.047,1.328H227.211V39.7h15.743v-.379a7.522,7.522,0,0,0-1.707-5.358,6.634,6.634,0,0,0-5.121-1.849,8.154,8.154,0,0,0-3.7.854,6.284,6.284,0,0,0-2.75,2.892,12.3,12.3,0,0,0-1.043,5.548V41.7a10.946,10.946,0,0,0,1.28,5.738,7.187,7.187,0,0,0,3.509,2.987,14.647,14.647,0,0,0,5.169.854,15.584,15.584,0,0,0,4.125-.474,12.079,12.079,0,0,0,2.7-1.043h.379v3.888a13.684,13.684,0,0,1-2.987,1A19.846,19.846,0,0,1,238.4,55.068Zm28.479,0a20.993,20.993,0,0,1-6.307-.854,11.963,11.963,0,0,1-4.457-2.608,10.525,10.525,0,0,1-2.608-4.173,17.806,17.806,0,0,1-.854-5.738,15.723,15.723,0,0,1,1.47-7.018,11.4,11.4,0,0,1,4.173-4.694,11.809,11.809,0,0,1,6.307-1.66,11.944,11.944,0,0,1,6.733,1.707,9.3,9.3,0,0,1,3.651,4.789,18.712,18.712,0,0,1,1,7.16l-.047,1.328H255.689V39.7h15.743v-.379a7.522,7.522,0,0,0-1.707-5.358,6.634,6.634,0,0,0-5.121-1.849,8.155,8.155,0,0,0-3.7.854,6.284,6.284,0,0,0-2.75,2.892,12.3,12.3,0,0,0-1.043,5.548V41.7a10.946,10.946,0,0,0,1.28,5.738,7.187,7.187,0,0,0,3.509,2.987,14.647,14.647,0,0,0,5.169.854,15.584,15.584,0,0,0,4.125-.474,12.079,12.079,0,0,0,2.7-1.043h.379v3.888a13.685,13.685,0,0,1-2.987,1A19.846,19.846,0,0,1,266.88,55.068Z"/>
    <rect id="Rectangle_68" data-name="Rectangle 68" width="62.276" height="55.321" rx="23.709" transform="translate(10.748 13.593)" fill="none" stroke="#000" stroke-width="3.161"/>
    <rect id="Rectangle_69" data-name="Rectangle 69" width="62.276" height="55.321" rx="23.709" transform="translate(10.748 13.593)" fill="#fff" stroke="#000" stroke-width="3.161"/>
    <path id="Tracé_684" data-name="Tracé 684" d="M51.527,52.318c0,1.833-6.674,4.584-9.642,4.584s-9.958-2.751-9.958-4.584,6.99-2.055,9.958-2.055S51.527,50.485,51.527,52.318Z"/>
    <path id="Tracé_685" data-name="Tracé 685" d="M61.011,40.305c0,8.991-7.369,2.687-18.019,2.687s-20.548,6.3-20.548-2.687,8.633-16.28,19.283-16.28S61.011,31.314,61.011,40.305Z"/>
    <ellipse id="Ellipse_45" data-name="Ellipse 45" cx="3.161" cy="3.477" rx="3.161" ry="3.477" transform="translate(29.399 33.193)" fill="#fff"/>
    <ellipse id="Ellipse_46" data-name="Ellipse 46" cx="3.161" cy="3.477" rx="3.161" ry="3.477" transform="translate(48.366 33.193)" fill="#fff"/>
    <path id="Tracé_686" data-name="Tracé 686" d="M10.432,45.205a34.436,34.436,0,0,0,.989,7.219c.151.7.285,1.32.372,1.839a4.11,4.11,0,0,1,.073,1.763,1.72,1.72,0,0,1-.644.085c-1.745,0-4.169-1.127-6.218-3.216a11.237,11.237,0,0,1-3.424-7.69,12.823,12.823,0,0,1,3.036-8.022A8.622,8.622,0,0,1,9.9,33.844a1.619,1.619,0,0,1,.592.748,5.948,5.948,0,0,1,.318,2.187c.009.944-.066,2.03-.155,3.33l-.021.314C10.534,41.836,10.432,43.445,10.432,45.205Z" fill="none" stroke="#000" stroke-width="3.161"/>
    <path id="Tracé_687" data-name="Tracé 687" d="M10.432,45.205a34.436,34.436,0,0,0,.989,7.219c.151.7.285,1.32.372,1.839a4.11,4.11,0,0,1,.073,1.763,1.72,1.72,0,0,1-.644.085c-1.745,0-4.169-1.127-6.218-3.216a11.237,11.237,0,0,1-3.424-7.69,12.823,12.823,0,0,1,3.036-8.022A8.622,8.622,0,0,1,9.9,33.844a1.619,1.619,0,0,1,.592.748,5.948,5.948,0,0,1,.318,2.187c.009.944-.066,2.03-.155,3.33l-.021.314C10.534,41.836,10.432,43.445,10.432,45.205Z" fill="#fff" stroke="#000" stroke-width="3.161"/>
    <path id="Tracé_688" data-name="Tracé 688" d="M73.568,45.205a34.433,34.433,0,0,1-.989,7.219c-.151.7-.285,1.32-.372,1.839a4.11,4.11,0,0,0-.073,1.763,1.721,1.721,0,0,0,.644.085c1.744,0,4.169-1.127,6.218-3.216a11.238,11.238,0,0,0,3.424-7.69,12.823,12.823,0,0,0-3.036-8.022,8.622,8.622,0,0,0-5.28-3.339,1.619,1.619,0,0,0-.592.748,5.948,5.948,0,0,0-.318,2.187c-.009.944.066,2.03.155,3.33q.01.155.021.314C73.466,41.836,73.568,43.445,73.568,45.205Z" fill="none" stroke="#000" stroke-width="3.161"/>
    <path id="Tracé_689" data-name="Tracé 689" d="M73.568,45.205a34.433,34.433,0,0,1-.989,7.219c-.151.7-.285,1.32-.372,1.839a4.11,4.11,0,0,0-.073,1.763,1.721,1.721,0,0,0,.644.085c1.744,0,4.169-1.127,6.218-3.216a11.238,11.238,0,0,0,3.424-7.69,12.823,12.823,0,0,0-3.036-8.022,8.622,8.622,0,0,0-5.28-3.339,1.619,1.619,0,0,0-.592.748,5.948,5.948,0,0,0-.318,2.187c-.009.944.066,2.03.155,3.33q.01.155.021.314C73.466,41.836,73.568,43.445,73.568,45.205Z" fill="#fff" stroke="#000" stroke-width="3.161"/>
    <path id="Tracé_690" data-name="Tracé 690" d="M17.084,4.151a3.161,3.161,0,0,1,4.733-1.876l.153.1L26.4,7.587l4.426,6.955L21.18,19.916,14.7,25.922l-3.477,7.745,3-18.651Z"/>
    <path id="Tracé_691" data-name="Tracé 691" d="M66.055,4.151a3.161,3.161,0,0,0-4.733-1.876l-.153.1L56.743,7.587l-4.426,6.955,9.642,5.374,6.48,6.006,3.477,7.745-3-18.651Z"/>
    <path id="Tracé_692" data-name="Tracé 692" d="M18.559,8.051a2.267,2.267,0,0,1,3.4-1.345l3.054,3.624,5.018,6.7-7.195,3.02-8.3,8.4,2.073-12.959Z" fill="#fff"/>
    <path id="Tracé_693" data-name="Tracé 693" d="M64.58,8.051a2.267,2.267,0,0,0-3.4-1.345L58.126,10.33l-5.018,6.7,7.195,3.02,8.295,8.4L66.525,15.491Z" fill="#fff"/>
  </g>
</svg>
