<svg xmlns="http://www.w3.org/2000/svg" width="120" height="98.146" viewBox="0 0 120 98.146">
  <g id="Group_63" data-name="Group 63" transform="translate(2.258)">
    <rect id="Rectangle_58" data-name="Rectangle 58" width="88.965" height="79.03" rx="33.87" transform="translate(13.096 16.858)" fill="none" stroke="#000" stroke-width="4.516"/>
    <rect id="Rectangle_59" data-name="Rectangle 59" width="88.965" height="79.03" rx="33.87" transform="translate(13.096 16.858)" fill="none" stroke="#000" stroke-width="4.516"/>
    <path id="Tracé_636" data-name="Tracé 636" d="M87.158,57.579c0,12.845-10.527,3.839-25.741,3.839s-29.354,9.006-29.354-3.839S44.4,34.321,59.611,34.321,87.158,44.734,87.158,57.579Z" transform="translate(-2.258 -2.561)"/>
    <ellipse id="Ellipse_35" data-name="Ellipse 35" cx="4.516" cy="4.968" rx="4.516" ry="4.968" transform="translate(39.741 44.857)" fill="#e5e5e5"/>
    <ellipse id="Ellipse_36" data-name="Ellipse 36" cx="4.516" cy="4.968" rx="4.516" ry="4.968" transform="translate(66.837 44.857)" fill="#e5e5e5"/>
    <path id="Tracé_637" data-name="Tracé 637" d="M14.9,64.579a49.194,49.194,0,0,0,1.413,10.313c.216,1,.408,1.886.532,2.627a5.871,5.871,0,0,1,.1,2.519,2.457,2.457,0,0,1-.92.121c-2.492,0-5.955-1.61-8.882-4.595A16.053,16.053,0,0,1,2.258,64.579a18.319,18.319,0,0,1,4.337-11.46c2.421-2.907,5.253-4.544,7.543-4.77a2.312,2.312,0,0,1,.846,1.068,8.5,8.5,0,0,1,.455,3.124c.012,1.349-.094,2.9-.222,4.757l-.031.448C15.049,59.766,14.9,62.064,14.9,64.579Z" transform="translate(-2.258 -2.561)" fill="none" stroke="#000" stroke-width="4.516"/>
    <path id="Tracé_638" data-name="Tracé 638" d="M14.9,64.579a49.194,49.194,0,0,0,1.413,10.313c.216,1,.408,1.886.532,2.627a5.871,5.871,0,0,1,.1,2.519,2.457,2.457,0,0,1-.92.121c-2.492,0-5.955-1.61-8.882-4.595A16.053,16.053,0,0,1,2.258,64.579a18.319,18.319,0,0,1,4.337-11.46c2.421-2.907,5.253-4.544,7.543-4.77a2.312,2.312,0,0,1,.846,1.068,8.5,8.5,0,0,1,.455,3.124c.012,1.349-.094,2.9-.222,4.757l-.031.448C15.049,59.766,14.9,62.064,14.9,64.579Z" transform="translate(-2.258 -2.561)" fill="none" stroke="#000" stroke-width="4.516"/>
    <path id="Tracé_639" data-name="Tracé 639" d="M105.1,64.579a49.19,49.19,0,0,1-1.413,10.313c-.215,1-.407,1.886-.532,2.627a5.872,5.872,0,0,0-.1,2.519,2.458,2.458,0,0,0,.92.121c2.492,0,5.955-1.61,8.882-4.595a16.054,16.054,0,0,0,4.891-10.986,18.318,18.318,0,0,0-4.337-11.46c-2.421-2.907-5.253-4.544-7.543-4.77a2.313,2.313,0,0,0-.846,1.068,8.5,8.5,0,0,0-.455,3.124c-.012,1.349.094,2.9.222,4.757q.015.222.031.448C104.951,59.766,105.1,62.064,105.1,64.579Z" transform="translate(-2.258 -2.561)" fill="none" stroke="#000" stroke-width="4.516"/>
    <path id="Tracé_640" data-name="Tracé 640" d="M105.1,64.579a49.19,49.19,0,0,1-1.413,10.313c-.215,1-.407,1.886-.532,2.627a5.872,5.872,0,0,0-.1,2.519,2.458,2.458,0,0,0,.92.121c2.492,0,5.955-1.61,8.882-4.595a16.054,16.054,0,0,0,4.891-10.986,18.318,18.318,0,0,0-4.337-11.46c-2.421-2.907-5.253-4.544-7.543-4.77a2.313,2.313,0,0,0-.846,1.068,8.5,8.5,0,0,0-.455,3.124c-.012,1.349.094,2.9.222,4.757q.015.222.031.448C104.951,59.766,105.1,62.064,105.1,64.579Z" transform="translate(-2.258 -2.561)" fill="none" stroke="#000" stroke-width="4.516"/>
    <path id="Tracé_641" data-name="Tracé 641" d="M24.406,5.93a4.516,4.516,0,0,1,6.761-2.68l.219.137,6.322,7.451,6.322,9.935L30.257,28.451,21,37.031,16.032,48.1l4.29-26.644Z" transform="translate(-2.258 -2.561)"/>
    <path id="Tracé_642" data-name="Tracé 642" d="M94.364,5.93A4.516,4.516,0,0,0,87.6,3.25l-.219.137-6.322,7.451-6.322,9.935,13.774,7.677,9.258,8.58L102.739,48.1l-4.29-26.644Z" transform="translate(-2.258 -2.561)"/>
    <path id="Tracé_643" data-name="Tracé 643" d="M26.513,11.5A3.238,3.238,0,0,1,31.37,9.579l4.363,5.177,7.168,9.57L32.624,28.641l-11.85,12L23.734,22.13Z" transform="translate(-2.258 -2.561)" fill="#e5e5e5"/>
    <path id="Tracé_644" data-name="Tracé 644" d="M92.257,11.5A3.238,3.238,0,0,0,87.4,9.579l-4.363,5.177-7.168,9.57,10.278,4.315,11.85,12L95.036,22.13Z" transform="translate(-2.258 -2.561)" fill="#e5e5e5"/>
    <rect id="Rectangle_60" data-name="Rectangle 60" width="88.965" height="79.03" rx="33.87" transform="translate(13.096 16.858)" fill="none" stroke="#000" stroke-width="4.516"/>
    <rect id="Rectangle_61" data-name="Rectangle 61" width="88.965" height="79.03" rx="33.87" transform="translate(13.096 16.858)" fill="#fff" stroke="#000" stroke-width="4.516"/>
    <path id="Tracé_645" data-name="Tracé 645" d="M73.61,74.739c0,2.619-9.534,6.548-13.774,6.548s-14.225-3.929-14.225-6.548S55.6,71.8,59.837,71.8,73.61,72.121,73.61,74.739Z" transform="translate(-2.258 -2.561)"/>
    <path id="Tracé_646" data-name="Tracé 646" d="M87.158,57.579c0,12.845-10.527,3.839-25.741,3.839s-29.354,9.006-29.354-3.839S44.4,34.321,59.611,34.321,87.158,44.734,87.158,57.579Z" transform="translate(-2.258 -2.561)"/>
    <ellipse id="Ellipse_37" data-name="Ellipse 37" cx="4.516" cy="4.968" rx="4.516" ry="4.968" transform="translate(39.741 44.857)" fill="#fff"/>
    <ellipse id="Ellipse_38" data-name="Ellipse 38" cx="4.516" cy="4.968" rx="4.516" ry="4.968" transform="translate(66.837 44.857)" fill="#fff"/>
    <path id="Tracé_647" data-name="Tracé 647" d="M14.9,64.579a49.194,49.194,0,0,0,1.413,10.313c.216,1,.408,1.886.532,2.627a5.871,5.871,0,0,1,.1,2.519,2.457,2.457,0,0,1-.92.121c-2.492,0-5.955-1.61-8.882-4.595A16.053,16.053,0,0,1,2.258,64.579a18.319,18.319,0,0,1,4.337-11.46c2.421-2.907,5.253-4.544,7.543-4.77a2.312,2.312,0,0,1,.846,1.068,8.5,8.5,0,0,1,.455,3.124c.012,1.349-.094,2.9-.222,4.757l-.031.448C15.049,59.766,14.9,62.064,14.9,64.579Z" transform="translate(-2.258 -2.561)" fill="none" stroke="#000" stroke-width="4.516"/>
    <path id="Tracé_648" data-name="Tracé 648" d="M14.9,64.579a49.194,49.194,0,0,0,1.413,10.313c.216,1,.408,1.886.532,2.627a5.871,5.871,0,0,1,.1,2.519,2.457,2.457,0,0,1-.92.121c-2.492,0-5.955-1.61-8.882-4.595A16.053,16.053,0,0,1,2.258,64.579a18.319,18.319,0,0,1,4.337-11.46c2.421-2.907,5.253-4.544,7.543-4.77a2.312,2.312,0,0,1,.846,1.068,8.5,8.5,0,0,1,.455,3.124c.012,1.349-.094,2.9-.222,4.757l-.031.448C15.049,59.766,14.9,62.064,14.9,64.579Z" transform="translate(-2.258 -2.561)" fill="#fff" stroke="#000" stroke-width="4.516"/>
    <path id="Tracé_649" data-name="Tracé 649" d="M105.1,64.579a49.19,49.19,0,0,1-1.413,10.313c-.215,1-.407,1.886-.532,2.627a5.872,5.872,0,0,0-.1,2.519,2.458,2.458,0,0,0,.92.121c2.492,0,5.955-1.61,8.882-4.595a16.054,16.054,0,0,0,4.891-10.986,18.318,18.318,0,0,0-4.337-11.46c-2.421-2.907-5.253-4.544-7.543-4.77a2.313,2.313,0,0,0-.846,1.068,8.5,8.5,0,0,0-.455,3.124c-.012,1.349.094,2.9.222,4.757q.015.222.031.448C104.951,59.766,105.1,62.064,105.1,64.579Z" transform="translate(-2.258 -2.561)" fill="none" stroke="#000" stroke-width="4.516"/>
    <path id="Tracé_650" data-name="Tracé 650" d="M105.1,64.579a49.19,49.19,0,0,1-1.413,10.313c-.215,1-.407,1.886-.532,2.627a5.872,5.872,0,0,0-.1,2.519,2.458,2.458,0,0,0,.92.121c2.492,0,5.955-1.61,8.882-4.595a16.054,16.054,0,0,0,4.891-10.986,18.318,18.318,0,0,0-4.337-11.46c-2.421-2.907-5.253-4.544-7.543-4.77a2.313,2.313,0,0,0-.846,1.068,8.5,8.5,0,0,0-.455,3.124c-.012,1.349.094,2.9.222,4.757q.015.222.031.448C104.951,59.766,105.1,62.064,105.1,64.579Z" transform="translate(-2.258 -2.561)" fill="#fff" stroke="#000" stroke-width="4.516"/>
    <path id="Tracé_651" data-name="Tracé 651" d="M24.406,5.93a4.516,4.516,0,0,1,6.761-2.68l.219.137,6.322,7.451,6.322,9.935L30.257,28.451,21,37.031,16.032,48.1l4.29-26.644Z" transform="translate(-2.258 -2.561)"/>
    <path id="Tracé_652" data-name="Tracé 652" d="M94.364,5.93A4.516,4.516,0,0,0,87.6,3.25l-.219.137-6.322,7.451-6.322,9.935,13.774,7.677,9.258,8.58L102.739,48.1l-4.29-26.644Z" transform="translate(-2.258 -2.561)"/>
    <path id="Tracé_653" data-name="Tracé 653" d="M26.513,11.5A3.238,3.238,0,0,1,31.37,9.579l4.363,5.177,7.168,9.57L32.624,28.641l-11.85,12L23.734,22.13Z" transform="translate(-2.258 -2.561)" fill="#fff"/>
    <path id="Tracé_654" data-name="Tracé 654" d="M92.257,11.5A3.238,3.238,0,0,0,87.4,9.579l-4.363,5.177-7.168,9.57,10.278,4.315,11.85,12L95.036,22.13Z" transform="translate(-2.258 -2.561)" fill="#fff"/>
  </g>
</svg>
